<?xml version="1.0" encoding="utf-8"?>
<!-- Generator: Adobe Illustrator 24.0.1, SVG Export Plug-In . SVG Version: 6.00 Build 0)  -->
<svg version="1.1" id="Layer_1" xmlns="http://www.w3.org/2000/svg" xmlns:xlink="http://www.w3.org/1999/xlink" x="0px" y="0px"
	 viewBox="0 0 10 10" style="enable-background:new 0 0 10 10;" xml:space="preserve">
<style type="text/css">
	.st0{fill:#05A7F3;}
	.st1{fill:#FFFFFF;}
</style>
<g>
	<circle class="st0" cx="5" cy="5" r="4.5"/>
	<path class="st1" d="M5,10c-2.8,0-5-2.2-5-5c0-2.8,2.2-5,5-5c2.8,0,5,2.2,5,5C10,7.8,7.8,10,5,10z M5,0.9C2.7,0.9,0.9,2.7,0.9,5
		S2.7,9.1,5,9.1S9.1,7.3,9.1,5S7.3,0.9,5,0.9z"/>
</g>
<g>
	<g>
		<path class="st1" d="M4.8,2.4c0.8,0,1.4,0.4,1.7,0.8V3c0-0.3,0.2-0.5,0.5-0.5l0,0c0.3,0,0.5,0.2,0.5,0.5v3.9
			c0,0.3-0.2,0.5-0.5,0.5l0,0c-0.3,0-0.5-0.2-0.5-0.5V6.7C6.2,7.2,5.6,7.6,4.8,7.6C3.5,7.6,2.4,6.5,2.4,5S3.5,2.4,4.8,2.4z M5,3.3
			C4.3,3.3,3.5,3.9,3.5,5S4.3,6.7,5,6.7S6.6,6.1,6.6,5S5.8,3.3,5,3.3z"/>
	</g>
</g>
</svg>
