<?xml version="1.0" encoding="utf-8"?>
<!-- Generator: Adobe Illustrator 24.0.1, SVG Export Plug-In . SVG Version: 6.00 Build 0)  -->
<svg version="1.1" id="Layer_1" xmlns="http://www.w3.org/2000/svg" xmlns:xlink="http://www.w3.org/1999/xlink" x="0px" y="0px"
	 viewBox="0 0 50 50" style="enable-background:new 0 0 50 50;" xml:space="preserve">
<style type="text/css">
	.st0{fill:url(#SVGID_1_);}
	.st1{fill:#FFFFFF;}
</style>
<linearGradient id="SVGID_1_" gradientUnits="userSpaceOnUse" x1="9.5249" y1="5.5783" x2="41.4535" y2="45.6497">
	<stop  offset="0" style="stop-color:#E34329"/>
	<stop  offset="1" style="stop-color:#FC822F"/>
</linearGradient>
<circle class="st0" cx="25" cy="25" r="25"/>
<g>
	<g>
		<g>
			<path class="st1" d="M33.8,10.6c-0.3-0.5-0.9-0.9-1.5-0.9h-6.4v7.5h11.7L33.8,10.6z"/>
		</g>
	</g>
	<g>
		<g>
			<path class="st1" d="M17.7,9.8c-0.6,0-1.2,0.3-1.5,0.9l-3.8,6.7h11.7V9.8H17.7z"/>
		</g>
	</g>
	<path class="st1" d="M11.8,19.1v19c0,1.2,0.9,2.1,2.1,2.1h22.3c1.2,0,2.1-0.9,2.1-2.1v-19H11.8z M14.5,38.2h-0.6v-3.8h0.6V38.2z
		 M15.1,38.2h-0.3v-3.8h0.3V38.2z M16.1,38.2h-0.6v-3.8h0.6V38.2z M17,38.2h-0.6v-3.8H17V38.2z M17.6,38.2h-0.3v-3.8h0.3V38.2z
		 M18.2,38.2h-0.3v-3.8h0.3V38.2z M19.5,38.2h-0.9v-3.8h0.9V38.2z M28.8,30.5h-2.9v2.9c0,0.5-0.4,0.9-0.9,0.9s-0.9-0.4-0.9-0.9v-2.9
		h-2.9c-0.5,0-0.9-0.4-0.9-0.9s0.4-0.9,0.9-0.9h2.9v-2.9c0-0.5,0.4-0.9,0.9-0.9s0.9,0.4,0.9,0.9v2.9h2.9c0.5,0,0.9,0.4,0.9,0.9
		C29.7,30.1,29.3,30.5,28.8,30.5z"/>
</g>
</svg>
