<?xml version="1.0" encoding="utf-8"?>
<!-- Generator: Adobe Illustrator 24.0.1, SVG Export Plug-In . SVG Version: 6.00 Build 0)  -->
<svg version="1.1" id="Layer_1" xmlns="http://www.w3.org/2000/svg" xmlns:xlink="http://www.w3.org/1999/xlink" x="0px" y="0px"
	 viewBox="0 0 50 44" style="enable-background:new 0 0 50 44;" xml:space="preserve">
<style type="text/css">
	.st0{fill:url(#SVGID_1_);}
	.st1{fill:#FFFFFF;}
</style>
<linearGradient id="SVGID_1_" gradientUnits="userSpaceOnUse" x1="-6.8182" y1="20" x2="55.8263" y2="20" gradientTransform="matrix(1 0 0 -1 0 42)">
	<stop  offset="0" style="stop-color:#02A1F9"/>
	<stop  offset="1" style="stop-color:#29F19C"/>
</linearGradient>
<path class="st0" d="M38,44H12C5.4,44,0,38.6,0,32V12C0,5.4,5.4,0,12,0h26c6.6,0,12,5.4,12,12v20C50,38.6,44.6,44,38,44z"/>
<g>
	<g>
		<path class="st1" d="M36.1,19.8l-0.2-3.9c-0.1-0.8-0.7-1.4-1.5-1.4H15.9c-0.8,0-1.5,0.6-1.5,1.4l-0.3,3.9L13,34.3
			c-0.1,0.9,0.6,1.6,1.5,1.6h4.3v-7.5c0-3.4,2.8-6.2,6.2-6.2s6.2,2.8,6.2,6.2v7.5h4.3c0.9,0,1.6-0.7,1.5-1.6L36.1,19.8z M31.7,15.8
			c0.7,0,1.2,0.6,1.2,1.2c0,0.7-0.6,1.2-1.2,1.2c-0.7,0-1.2-0.6-1.2-1.2C30.5,16.4,31,15.8,31.7,15.8z M18.4,15.8
			c0.7,0,1.2,0.6,1.2,1.2c0,0.7-0.6,1.2-1.2,1.2c-0.7,0-1.2-0.6-1.2-1.2C17.2,16.4,17.7,15.8,18.4,15.8z"/>
		<path class="st1" d="M25,25.6c-1.5,0-2.8,1.3-2.8,2.8v7.5h5.6v-7.5C27.8,26.9,26.5,25.6,25,25.6z"/>
	</g>
	<path class="st1" d="M31.6,17.3c-0.2,0-0.4-0.2-0.4-0.4c0-4.6-2.8-8.2-6.3-8.2s-6.3,3.6-6.3,8.2c0,0.2-0.2,0.4-0.4,0.4
		S18,17.2,18,17c0-5,3.1-8.9,7-8.9s7,3.9,7,8.9C32,17.2,31.8,17.3,31.6,17.3z"/>
</g>
</svg>
