<?xml version="1.0" encoding="utf-8"?>
<!-- Generator: Adobe Illustrator 24.0.1, SVG Export Plug-In . SVG Version: 6.00 Build 0)  -->
<svg version="1.1" id="Layer_1" xmlns="http://www.w3.org/2000/svg" xmlns:xlink="http://www.w3.org/1999/xlink" x="0px" y="0px"
	 viewBox="0 0 50 50" style="enable-background:new 0 0 50 50;" xml:space="preserve">
<style type="text/css">
	.st0{fill:url(#SVGID_1_);}
	.st1{fill:#FFFFFF;}
</style>
<linearGradient id="SVGID_1_" gradientUnits="userSpaceOnUse" x1="5.1199" y1="3.5736" x2="43.6913" y2="45.1451">
	<stop  offset="0" style="stop-color:#02A1F9"/>
	<stop  offset="1" style="stop-color:#29F19C"/>
</linearGradient>
<path class="st0" d="M50,25C50,11.2,38.8,0,25,0S0,11.2,0,25s11.2,25,25,25S50,38.8,50,25z"/>
<g>
	<g>
		<g>
			<path class="st1" d="M25,23.1c-1.4,0-2.5,1.1-2.5,2.5v6.7h5v-6.7C27.5,24.2,26.4,23.1,25,23.1z"/>
			<path class="st1" d="M35.8,30.8L35,17.9l-0.3-3.5c-0.1-0.7-0.6-1.3-1.4-1.3H16.9c-0.7,0-1.3,0.6-1.4,1.3l-0.3,3.5l-1,12.9
				c-0.1,0.8,0.6,1.4,1.4,1.4h3.8v-6.7c0-3,2.5-5.5,5.5-5.5s5.5,2.5,5.5,5.5v6.7h3.8C35.1,32.3,35.8,31.6,35.8,30.8z M19.1,16.6
				c-0.6,0-1.1-0.5-1.1-1.1c0-0.6,0.5-1.1,1.1-1.1c0.6,0,1.1,0.5,1.1,1.1C20.2,16.1,19.7,16.6,19.1,16.6z M31,16.6
				c-0.6,0-1.1-0.5-1.1-1.1c0-0.6,0.5-1.1,1.1-1.1c0.6,0,1.1,0.5,1.1,1.1C32.1,16.1,31.6,16.6,31,16.6z"/>
		</g>
		<path class="st1" d="M30.9,15.7c-0.2,0-0.3-0.1-0.3-0.3c0-4.1-2.5-7.3-5.6-7.3s-5.6,3.2-5.6,7.3c0,0.2-0.1,0.3-0.3,0.3
			s-0.3-0.1-0.3-0.3c0-4.5,2.8-7.9,6.2-7.9s6.2,3.5,6.2,7.9C31.2,15.6,31.1,15.7,30.9,15.7z"/>
	</g>
</g>
<g>
	<path class="st1" d="M9.8,39.1v-4.3h1.9c0.4,0,0.8,0.1,1,0.3c0.3,0.2,0.4,0.5,0.4,0.8c0,0.2-0.1,0.4-0.2,0.6
		c-0.1,0.2-0.3,0.3-0.6,0.4v0c0.3,0.1,0.5,0.2,0.6,0.4c0.1,0.2,0.2,0.4,0.2,0.7c0,0.4-0.1,0.6-0.4,0.9s-0.6,0.3-1.1,0.3H9.8z
		 M10.5,36.6h1c0.3,0,0.5,0,0.6-0.2c0.1-0.1,0.2-0.3,0.2-0.5c0-0.2-0.1-0.4-0.2-0.5c-0.1-0.1-0.3-0.1-0.6-0.1h-1V36.6z M10.5,38.5
		h1.1c0.3,0,0.5,0,0.6-0.1s0.2-0.3,0.2-0.5c0-0.2-0.1-0.4-0.2-0.5c-0.1-0.1-0.3-0.2-0.6-0.2h-1.1V38.5z"/>
	<path class="st1" d="M15.8,39.1c-0.6,0-1-0.1-1.3-0.5c-0.3-0.3-0.5-0.7-0.5-1.3v-2.5h0.8v2.6c0,0.4,0.1,0.6,0.3,0.8
		c0.2,0.2,0.4,0.3,0.8,0.3c0.3,0,0.6-0.1,0.8-0.3c0.2-0.2,0.3-0.5,0.3-0.8v-2.6h0.8v2.5c0,0.6-0.2,1-0.5,1.3
		C16.9,39,16.4,39.1,15.8,39.1z"/>
	<path class="st1" d="M20.2,39.1c-0.2,0-0.4,0-0.6-0.1c-0.2,0-0.4-0.1-0.6-0.2c-0.2-0.1-0.3-0.2-0.5-0.3l0.3-0.6
		c0.2,0.2,0.4,0.3,0.7,0.3c0.2,0.1,0.5,0.1,0.7,0.1c0.3,0,0.5-0.1,0.7-0.2c0.2-0.1,0.2-0.3,0.2-0.4c0-0.1,0-0.2-0.1-0.3
		c-0.1-0.1-0.2-0.1-0.3-0.2s-0.3-0.1-0.5-0.2c-0.3,0-0.5-0.1-0.7-0.2c-0.2-0.1-0.4-0.2-0.5-0.2s-0.2-0.2-0.3-0.3s-0.1-0.3-0.1-0.5
		c0-0.3,0.1-0.5,0.2-0.7c0.1-0.2,0.3-0.3,0.6-0.5c0.2-0.1,0.5-0.2,0.9-0.2c0.2,0,0.4,0,0.6,0.1s0.4,0.1,0.5,0.2
		c0.2,0.1,0.3,0.2,0.4,0.3l-0.3,0.6c-0.2-0.2-0.4-0.3-0.6-0.3s-0.4-0.1-0.7-0.1c-0.3,0-0.5,0.1-0.7,0.2s-0.2,0.3-0.2,0.5
		c0,0.1,0,0.2,0.1,0.3c0.1,0.1,0.2,0.1,0.3,0.2c0.1,0.1,0.3,0.1,0.5,0.2c0.2,0.1,0.5,0.1,0.7,0.2c0.2,0.1,0.4,0.1,0.5,0.2
		c0.1,0.1,0.2,0.2,0.3,0.3s0.1,0.3,0.1,0.5c0,0.3-0.1,0.5-0.2,0.7c-0.1,0.2-0.3,0.3-0.6,0.4C20.8,39.1,20.5,39.1,20.2,39.1z"/>
	<path class="st1" d="M22.8,39.1v-4.3h0.8v4.3H22.8z"/>
	<path class="st1" d="M24.6,39.1v-4.3h0.6l2.5,3.2l-0.2,0.1v-3.3h0.7v4.3h-0.6l-2.4-3.2l0.2-0.1v3.3H24.6z"/>
	<path class="st1" d="M29.3,39.1v-4.3h2.9v0.6h-2.1v1.2h2v0.6h-2v1.3h2.1v0.6H29.3z"/>
	<path class="st1" d="M34.5,39.1c-0.2,0-0.4,0-0.6-0.1c-0.2,0-0.4-0.1-0.6-0.2s-0.3-0.2-0.5-0.3l0.3-0.6c0.2,0.2,0.4,0.3,0.7,0.3
		c0.2,0.1,0.5,0.1,0.7,0.1c0.3,0,0.5-0.1,0.7-0.2c0.2-0.1,0.2-0.3,0.2-0.4c0-0.1,0-0.2-0.1-0.3c-0.1-0.1-0.2-0.1-0.3-0.2
		c-0.1-0.1-0.3-0.1-0.5-0.2c-0.3,0-0.5-0.1-0.7-0.2c-0.2-0.1-0.4-0.2-0.5-0.2c-0.1-0.1-0.2-0.2-0.3-0.3c-0.1-0.1-0.1-0.3-0.1-0.5
		c0-0.3,0.1-0.5,0.2-0.7c0.1-0.2,0.3-0.3,0.6-0.5c0.2-0.1,0.5-0.2,0.9-0.2c0.2,0,0.4,0,0.6,0.1c0.2,0,0.4,0.1,0.5,0.2
		s0.3,0.2,0.4,0.3l-0.3,0.6c-0.2-0.2-0.4-0.3-0.6-0.3c-0.2-0.1-0.4-0.1-0.7-0.1c-0.3,0-0.5,0.1-0.7,0.2s-0.2,0.3-0.2,0.5
		c0,0.1,0,0.2,0.1,0.3c0.1,0.1,0.2,0.1,0.3,0.2s0.3,0.1,0.5,0.2c0.2,0.1,0.5,0.1,0.7,0.2c0.2,0.1,0.4,0.1,0.5,0.2
		c0.1,0.1,0.2,0.2,0.3,0.3s0.1,0.3,0.1,0.5c0,0.3-0.1,0.5-0.2,0.7c-0.1,0.2-0.3,0.3-0.6,0.4C35.1,39.1,34.8,39.1,34.5,39.1z"/>
	<path class="st1" d="M38.5,39.1c-0.2,0-0.4,0-0.6-0.1c-0.2,0-0.4-0.1-0.6-0.2s-0.3-0.2-0.5-0.3l0.3-0.6c0.2,0.2,0.4,0.3,0.7,0.3
		c0.2,0.1,0.5,0.1,0.7,0.1c0.3,0,0.5-0.1,0.7-0.2c0.2-0.1,0.2-0.3,0.2-0.4c0-0.1,0-0.2-0.1-0.3c-0.1-0.1-0.2-0.1-0.3-0.2
		c-0.1-0.1-0.3-0.1-0.5-0.2c-0.3,0-0.5-0.1-0.7-0.2c-0.2-0.1-0.4-0.2-0.5-0.2c-0.1-0.1-0.2-0.2-0.3-0.3C37,36.4,37,36.3,37,36.1
		c0-0.3,0.1-0.5,0.2-0.7c0.1-0.2,0.3-0.3,0.6-0.5c0.2-0.1,0.5-0.2,0.9-0.2c0.2,0,0.4,0,0.6,0.1c0.2,0,0.4,0.1,0.5,0.2
		s0.3,0.2,0.4,0.3l-0.3,0.6c-0.2-0.2-0.4-0.3-0.6-0.3c-0.2-0.1-0.4-0.1-0.7-0.1c-0.3,0-0.5,0.1-0.7,0.2s-0.2,0.3-0.2,0.5
		c0,0.1,0,0.2,0.1,0.3c0.1,0.1,0.2,0.1,0.3,0.2s0.3,0.1,0.5,0.2c0.2,0.1,0.5,0.1,0.7,0.2c0.2,0.1,0.4,0.1,0.5,0.2
		c0.1,0.1,0.2,0.2,0.3,0.3s0.1,0.3,0.1,0.5c0,0.3-0.1,0.5-0.2,0.7c-0.1,0.2-0.3,0.3-0.6,0.4C39.2,39.1,38.9,39.1,38.5,39.1z"/>
</g>
</svg>
