<?xml version="1.0" encoding="utf-8"?>
<!-- Generator: Adobe Illustrator 24.0.1, SVG Export Plug-In . SVG Version: 6.00 Build 0)  -->
<svg version="1.1" id="Capa_1" xmlns="http://www.w3.org/2000/svg" xmlns:xlink="http://www.w3.org/1999/xlink" x="0px" y="0px"
	 viewBox="0 0 50 50" style="enable-background:new 0 0 50 50;" xml:space="preserve">
<style type="text/css">
	.st0{fill:#878787;}
</style>
<g>
	<g>
		<g>
			<path class="st0" d="M8.5,5.2H1.9C1,5.2,0.3,5.9,0.3,6.9v6.6c0,0.9,0.7,1.6,1.6,1.6s1.6-0.7,1.6-1.6V8.5h4.9
				c0.9,0,1.6-0.7,1.6-1.6S9.4,5.2,8.5,5.2z"/>
		</g>
	</g>
	<g>
		<g>
			<path class="st0" d="M48.1,34.9c-0.9,0-1.6,0.7-1.6,1.6v4.9h-4.9c-0.9,0-1.6,0.7-1.6,1.6s0.7,1.6,1.6,1.6h6.6
				c0.9,0,1.6-0.7,1.6-1.6v-6.6C49.7,35.6,49,34.9,48.1,34.9z"/>
		</g>
	</g>
	<g>
		<g>
			<path class="st0" d="M48.1,5.2h-6.6c-0.9,0-1.6,0.7-1.6,1.6s0.7,1.6,1.6,1.6h4.9v4.9c0,0.9,0.7,1.6,1.6,1.6
				c0.9,0,1.6-0.7,1.6-1.6V6.9C49.7,5.9,49,5.2,48.1,5.2z"/>
		</g>
	</g>
	<g>
		<g>
			<path class="st0" d="M8.5,41.5H3.6v-4.9c0-0.9-0.7-1.6-1.6-1.6s-1.6,0.7-1.6,1.6v6.6c0,0.9,0.7,1.6,1.6,1.6h6.6
				c0.9,0,1.6-0.7,1.6-1.6S9.4,41.5,8.5,41.5z"/>
		</g>
	</g>
	<g>
		<g>
			<rect x="6.9" y="11.8" class="st0" width="3.3" height="26.4"/>
		</g>
	</g>
	<g>
		<g>
			<rect x="13.5" y="11.8" class="st0" width="3.3" height="19.8"/>
		</g>
	</g>
	<g>
		<g>
			<rect x="20.1" y="11.8" class="st0" width="3.3" height="19.8"/>
		</g>
	</g>
	<g>
		<g>
			<rect x="26.6" y="11.8" class="st0" width="3.3" height="26.4"/>
		</g>
	</g>
	<g>
		<g>
			<rect x="33.2" y="11.8" class="st0" width="3.3" height="19.8"/>
		</g>
	</g>
	<g>
		<g>
			<rect x="39.8" y="11.8" class="st0" width="3.3" height="26.4"/>
		</g>
	</g>
	<g>
		<g>
			<rect x="13.5" y="34.9" class="st0" width="3.3" height="3.3"/>
		</g>
	</g>
	<g>
		<g>
			<rect x="20.1" y="34.9" class="st0" width="3.3" height="3.3"/>
		</g>
	</g>
	<g>
		<g>
			<rect x="33.2" y="34.9" class="st0" width="3.3" height="3.3"/>
		</g>
	</g>
</g>
</svg>
