<?xml version="1.0" encoding="utf-8"?>
<!-- Generator: Adobe Illustrator 24.0.1, SVG Export Plug-In . SVG Version: 6.00 Build 0)  -->
<svg version="1.1" id="Capa_1" xmlns="http://www.w3.org/2000/svg" xmlns:xlink="http://www.w3.org/1999/xlink" x="0px" y="0px"
	 viewBox="0 0 50 50" style="enable-background:new 0 0 50 50;" xml:space="preserve">
<style type="text/css">
	.st0{fill:url(#SVGID_1_);}
	.st1{fill:url(#SVGID_2_);}
</style>
<linearGradient id="SVGID_1_" gradientUnits="userSpaceOnUse" x1="5.1199" y1="-14.4264" x2="43.6913" y2="27.1451" gradientTransform="matrix(1 0 0 1 0 18)">
	<stop  offset="0" style="stop-color:#D1DEE3"/>
	<stop  offset="1" style="stop-color:#B5C3CC"/>
</linearGradient>
<path class="st0" d="M50,25C50,11.2,38.8,0,25,0S0,11.2,0,25s11.2,25,25,25S50,38.8,50,25z"/>
<g>
	<linearGradient id="SVGID_2_" gradientUnits="userSpaceOnUse" x1="10.8864" y1="13.0362" x2="37.6721" y2="40.0362">
		<stop  offset="0" style="stop-color:#7A8D96"/>
		<stop  offset="1" style="stop-color:#4A5861"/>
	</linearGradient>
	<path class="st1" d="M22,31v-1.5H11.5v6c0,1.7,1.3,3,3,3h21c1.7,0,3-1.3,3-3v-6H28V31H22z M37,17.5h-6v-3l-3-3h-6l-3,3v3h-6
		c-1.6,0-3,1.4-3,3V25c0,1.7,1.3,3,3,3h9v-3h6v3h9c1.7,0,3-1.3,3-3v-4.5C40,18.9,38.7,17.5,37,17.5z M28,17.5h-6v-3h6V17.5z"/>
</g>
</svg>
