<?xml version="1.0" encoding="utf-8"?>
<!-- Generator: Adobe Illustrator 24.0.1, SVG Export Plug-In . SVG Version: 6.00 Build 0)  -->
<svg version="1.1" id="Layer_1" xmlns="http://www.w3.org/2000/svg" xmlns:xlink="http://www.w3.org/1999/xlink" x="0px" y="0px"
	 viewBox="0 0 50 44" style="enable-background:new 0 0 50 44;" xml:space="preserve">
<style type="text/css">
	.st0{fill:url(#SVGID_1_);}
	.st1{fill:#FFFFFF;}
</style>
<linearGradient id="SVGID_1_" gradientUnits="userSpaceOnUse" x1="-6.8182" y1="26" x2="55.8263" y2="26" gradientTransform="matrix(1 0 0 1 0 -4)">
	<stop  offset="0" style="stop-color:#02A1F9"/>
	<stop  offset="1" style="stop-color:#29F19C"/>
</linearGradient>
<path class="st0" d="M38,44H12C5.4,44,0,38.6,0,32V12C0,5.4,5.4,0,12,0h26c6.6,0,12,5.4,12,12v20C50,38.6,44.6,44,38,44z"/>
<g>
	<g>
		<path class="st1" d="M12.1,19c1.7,0,2.9,0.8,3.5,1.6v-0.4c0-0.6,0.5-1.1,1.1-1.1l0,0c0.6,0,1.1,0.5,1.1,1.1v8.1
			c0,0.6-0.5,1.1-1.1,1.1l0,0c-0.6,0-1.1-0.5-1.1-1.1v-0.4c-0.7,0.9-1.9,1.7-3.6,1.7c-2.6,0-4.8-2.2-4.8-5.3S9.5,19,12.1,19z
			 M12.6,20.8c-1.6,0-3.1,1.2-3.1,3.4s1.5,3.5,3.1,3.5s3.1-1.2,3.1-3.4S14.2,20.8,12.6,20.8z"/>
		<path class="st1" d="M26.2,19c2.7,0,4.8,2.1,4.8,5.2s-2.1,5.3-4.8,5.3c-1.7,0-2.9-0.9-3.6-1.6v4c0,0.6-0.5,1.1-1.1,1.1l0,0
			c-0.6,0-1.1-0.5-1.1-1.1V20.2c0-0.6,0.5-1.1,1.1-1.1l0,0c0.6,0,1.1,0.5,1.1,1.1v0.4C23.3,19.8,24.6,19,26.2,19z M25.8,20.8
			c-1.6,0-3.1,1.2-3.1,3.4s1.5,3.4,3.1,3.4s3.1-1.3,3.1-3.5S27.4,20.8,25.8,20.8z"/>
		<path class="st1" d="M37.2,19c1.7,0,2.9,0.8,3.5,1.6v-0.4c0-0.6,0.5-1.1,1.1-1.1l0,0c0.6,0,1.1,0.5,1.1,1.1v8.1
			c0,0.6-0.5,1.1-1.1,1.1l0,0c-0.6,0-1.1-0.5-1.1-1.1v-0.4c-0.7,0.9-1.9,1.7-3.6,1.7c-2.6,0-4.8-2.2-4.8-5.3S34.5,19,37.2,19z
			 M37.7,20.8c-1.6,0-3.1,1.2-3.1,3.4s1.5,3.5,3.1,3.5s3.1-1.2,3.1-3.4C40.7,22.1,39.2,20.8,37.7,20.8z"/>
	</g>
	<g>
		<path class="st1" d="M8,16.3v-5.2h1.8c0.3,0,0.5,0,0.8,0.1c0.2,0.1,0.4,0.1,0.6,0.3s0.3,0.3,0.4,0.4s0.1,0.4,0.1,0.6
			c0,0.2-0.1,0.4-0.2,0.6s-0.3,0.3-0.6,0.4c0.1,0,0.3,0.1,0.4,0.2c0.1,0.1,0.2,0.2,0.3,0.3c0.1,0.1,0.1,0.2,0.2,0.3
			c0,0.1,0.1,0.3,0.1,0.4c0,0.2,0,0.5-0.1,0.7c-0.1,0.2-0.2,0.3-0.4,0.5c-0.2,0.1-0.3,0.2-0.6,0.3c-0.2,0.1-0.5,0.1-0.8,0.1H8z
			 M8.9,13.3h0.9c0.3,0,0.5-0.1,0.7-0.2c0.2-0.1,0.2-0.3,0.2-0.5c0-0.3-0.1-0.4-0.2-0.6c-0.1-0.1-0.4-0.2-0.7-0.2H8.9V13.3z M8.9,14
			v1.6h1c0.1,0,0.3,0,0.4-0.1c0.1,0,0.2-0.1,0.3-0.2s0.1-0.2,0.2-0.3c0-0.1,0.1-0.2,0.1-0.3c0-0.3-0.1-0.5-0.2-0.6
			C10.5,14,10.3,14,10,14H8.9z"/>
		<path class="st1" d="M15.6,15.9c-0.1,0.1-0.3,0.3-0.4,0.3c-0.2,0.1-0.4,0.1-0.6,0.1c-0.2,0-0.4,0-0.5-0.1s-0.3-0.1-0.4-0.3
			c-0.1-0.1-0.2-0.3-0.3-0.4s-0.1-0.4-0.1-0.7v-2.5h0.9V15c0,0.1,0,0.3,0,0.3s0.1,0.2,0.1,0.2s0.1,0.1,0.2,0.1c0.1,0,0.2,0,0.2,0
			c0.2,0,0.4,0,0.5-0.1s0.2-0.2,0.3-0.3v-2.8h0.9v3.8h-0.8L15.6,15.9z"/>
		<path class="st1" d="M20.2,15.3c0-0.1,0-0.1,0-0.2c0-0.1-0.1-0.1-0.1-0.1s-0.1-0.1-0.3-0.1c-0.1,0-0.2-0.1-0.4-0.1
			c-0.2,0-0.4-0.1-0.6-0.2s-0.3-0.1-0.4-0.2s-0.2-0.2-0.3-0.3S18,13.7,18,13.6c0-0.2,0-0.3,0.1-0.4c0.1-0.1,0.2-0.3,0.3-0.4
			c0.1-0.1,0.3-0.2,0.5-0.3c0.2-0.1,0.4-0.1,0.6-0.1c0.2,0,0.5,0,0.6,0.1c0.2,0.1,0.4,0.1,0.5,0.3c0.1,0.1,0.2,0.2,0.3,0.4
			c0.1,0.1,0.1,0.3,0.1,0.5h-0.9c0-0.1,0-0.1,0-0.2S20,13.3,20,13.2c-0.1-0.1-0.1-0.1-0.2-0.1c-0.1,0-0.2,0-0.3,0
			c-0.1,0-0.2,0-0.3,0c-0.1,0-0.1,0.1-0.2,0.1c-0.1,0-0.1,0.1-0.1,0.2c0,0.1,0,0.1,0,0.2s0,0.1,0,0.2c0,0,0.1,0.1,0.1,0.1
			c0.1,0,0.1,0.1,0.2,0.1c0.1,0,0.2,0.1,0.4,0.1c0.2,0,0.4,0.1,0.6,0.2s0.3,0.1,0.4,0.2c0.1,0.1,0.2,0.2,0.3,0.3S21,15,21,15.2
			c0,0.2,0,0.3-0.1,0.5c-0.1,0.1-0.2,0.3-0.3,0.4c-0.1,0.1-0.3,0.2-0.5,0.2s-0.4,0.1-0.6,0.1c-0.3,0-0.5,0-0.7-0.1
			c-0.2-0.1-0.4-0.2-0.5-0.3c-0.1-0.1-0.2-0.3-0.3-0.4s-0.1-0.3-0.1-0.5h0.8c0,0.1,0,0.2,0.1,0.3c0,0.1,0.1,0.1,0.2,0.2
			c0.1,0,0.2,0.1,0.2,0.1c0.1,0,0.2,0,0.3,0c0.2,0,0.4,0,0.5-0.1C20.1,15.5,20.2,15.4,20.2,15.3z"/>
		<path class="st1" d="M22.5,11.5c0-0.1,0-0.2,0.1-0.3C22.7,11,22.8,11,23,11s0.3,0,0.4,0.1c0.1,0.1,0.1,0.2,0.1,0.3
			c0,0.1,0,0.2-0.1,0.3c-0.1,0.1-0.2,0.1-0.4,0.1s-0.3,0-0.4-0.1C22.5,11.7,22.5,11.6,22.5,11.5z M23.4,16.3h-0.9v-3.8h0.9V16.3z"/>
		<path class="st1" d="M25.9,12.5l0,0.4c0.1-0.2,0.3-0.3,0.5-0.4c0.2-0.1,0.4-0.1,0.6-0.1c0.2,0,0.4,0,0.5,0.1
			c0.2,0.1,0.3,0.1,0.4,0.2s0.2,0.3,0.2,0.4c0.1,0.2,0.1,0.4,0.1,0.7v2.5h-0.9v-2.5c0-0.1,0-0.2,0-0.3c0-0.1-0.1-0.2-0.1-0.2
			c-0.1-0.1-0.1-0.1-0.2-0.1s-0.2,0-0.3,0c-0.2,0-0.3,0-0.5,0.1c-0.1,0.1-0.2,0.2-0.3,0.3v2.7h-0.9v-3.8H25.9z"/>
		<path class="st1" d="M31.6,16.4c-0.3,0-0.5,0-0.8-0.1c-0.2-0.1-0.4-0.2-0.6-0.4c-0.2-0.2-0.3-0.4-0.4-0.6
			c-0.1-0.2-0.1-0.5-0.1-0.7v-0.1c0-0.3,0-0.6,0.1-0.8s0.2-0.5,0.4-0.6c0.2-0.2,0.3-0.3,0.6-0.4c0.2-0.1,0.4-0.1,0.7-0.1
			c0.3,0,0.5,0,0.7,0.1c0.2,0.1,0.4,0.2,0.5,0.4c0.1,0.2,0.2,0.4,0.3,0.6c0.1,0.2,0.1,0.5,0.1,0.8v0.4h-2.5c0,0.1,0,0.3,0.1,0.4
			s0.1,0.2,0.2,0.3c0.1,0.1,0.2,0.2,0.3,0.2c0.1,0.1,0.3,0.1,0.4,0.1c0.2,0,0.4,0,0.6-0.1c0.2-0.1,0.3-0.2,0.4-0.4l0.5,0.4
			c-0.1,0.1-0.1,0.2-0.2,0.3c-0.1,0.1-0.2,0.2-0.3,0.2c-0.1,0.1-0.3,0.1-0.4,0.2S31.7,16.4,31.6,16.4z M31.5,13.1
			c-0.2,0-0.4,0.1-0.6,0.2c-0.1,0.2-0.2,0.4-0.3,0.7h1.6V14c0-0.1,0-0.2-0.1-0.3s-0.1-0.2-0.1-0.3c-0.1-0.1-0.1-0.1-0.2-0.2
			C31.7,13.1,31.6,13.1,31.5,13.1z"/>
		<path class="st1" d="M36.6,15.3c0-0.1,0-0.1,0-0.2c0-0.1-0.1-0.1-0.1-0.1s-0.1-0.1-0.3-0.1c-0.1,0-0.2-0.1-0.4-0.1
			c-0.2,0-0.4-0.1-0.6-0.2s-0.3-0.1-0.4-0.2c-0.1-0.1-0.2-0.2-0.3-0.3s-0.1-0.3-0.1-0.4c0-0.2,0-0.3,0.1-0.4
			c0.1-0.1,0.2-0.3,0.3-0.4c0.1-0.1,0.3-0.2,0.5-0.3c0.2-0.1,0.4-0.1,0.6-0.1c0.2,0,0.5,0,0.6,0.1c0.2,0.1,0.4,0.1,0.5,0.3
			c0.1,0.1,0.2,0.2,0.3,0.4c0.1,0.1,0.1,0.3,0.1,0.5h-0.9c0-0.1,0-0.1,0-0.2c0-0.1-0.1-0.1-0.1-0.2c-0.1-0.1-0.1-0.1-0.2-0.1
			c-0.1,0-0.2,0-0.3,0c-0.1,0-0.2,0-0.3,0c-0.1,0-0.1,0.1-0.2,0.1c-0.1,0-0.1,0.1-0.1,0.2c0,0.1,0,0.1,0,0.2s0,0.1,0,0.2
			s0.1,0.1,0.1,0.1c0.1,0,0.1,0.1,0.2,0.1c0.1,0,0.2,0.1,0.4,0.1c0.2,0,0.4,0.1,0.6,0.2s0.3,0.1,0.4,0.2s0.2,0.2,0.3,0.3
			c0.1,0.1,0.1,0.3,0.1,0.4c0,0.2,0,0.3-0.1,0.5s-0.2,0.3-0.3,0.4c-0.1,0.1-0.3,0.2-0.5,0.2c-0.2,0.1-0.4,0.1-0.6,0.1
			c-0.3,0-0.5,0-0.7-0.1c-0.2-0.1-0.4-0.2-0.5-0.3c-0.1-0.1-0.2-0.3-0.3-0.4c-0.1-0.2-0.1-0.3-0.1-0.5h0.8c0,0.1,0,0.2,0.1,0.3
			c0,0.1,0.1,0.1,0.2,0.2c0.1,0,0.2,0.1,0.2,0.1c0.1,0,0.2,0,0.3,0c0.2,0,0.4,0,0.5-0.1S36.6,15.4,36.6,15.3z"/>
		<path class="st1" d="M41.1,15.3c0-0.1,0-0.1,0-0.2c0-0.1-0.1-0.1-0.1-0.1s-0.1-0.1-0.3-0.1c-0.1,0-0.2-0.1-0.4-0.1
			c-0.2,0-0.4-0.1-0.6-0.2s-0.3-0.1-0.4-0.2c-0.1-0.1-0.2-0.2-0.3-0.3s-0.1-0.3-0.1-0.4c0-0.2,0-0.3,0.1-0.4
			c0.1-0.1,0.2-0.3,0.3-0.4c0.1-0.1,0.3-0.2,0.5-0.3c0.2-0.1,0.4-0.1,0.6-0.1c0.2,0,0.5,0,0.6,0.1c0.2,0.1,0.4,0.1,0.5,0.3
			c0.1,0.1,0.2,0.2,0.3,0.4c0.1,0.1,0.1,0.3,0.1,0.5h-0.9c0-0.1,0-0.1,0-0.2c0-0.1-0.1-0.1-0.1-0.2c-0.1-0.1-0.1-0.1-0.2-0.1
			c-0.1,0-0.2,0-0.3,0c-0.1,0-0.2,0-0.3,0c-0.1,0-0.1,0.1-0.2,0.1c-0.1,0-0.1,0.1-0.1,0.2c0,0.1,0,0.1,0,0.2s0,0.1,0,0.2
			s0.1,0.1,0.1,0.1c0.1,0,0.1,0.1,0.2,0.1c0.1,0,0.2,0.1,0.4,0.1c0.2,0,0.4,0.1,0.6,0.2s0.3,0.1,0.4,0.2s0.2,0.2,0.3,0.3
			c0.1,0.1,0.1,0.3,0.1,0.4c0,0.2,0,0.3-0.1,0.5s-0.2,0.3-0.3,0.4c-0.1,0.1-0.3,0.2-0.5,0.2c-0.2,0.1-0.4,0.1-0.6,0.1
			c-0.3,0-0.5,0-0.7-0.1c-0.2-0.1-0.4-0.2-0.5-0.3c-0.1-0.1-0.2-0.3-0.3-0.4c-0.1-0.2-0.1-0.3-0.1-0.5h0.8c0,0.1,0,0.2,0.1,0.3
			c0,0.1,0.1,0.1,0.2,0.2c0.1,0,0.2,0.1,0.2,0.1c0.1,0,0.2,0,0.3,0c0.2,0,0.4,0,0.5-0.1S41.1,15.4,41.1,15.3z"/>
	</g>
</g>
</svg>
