<?xml version="1.0" encoding="utf-8"?>
<!-- Generator: Adobe Illustrator 24.0.1, SVG Export Plug-In . SVG Version: 6.00 Build 0)  -->
<svg version="1.1" id="Layer_1" xmlns="http://www.w3.org/2000/svg" xmlns:xlink="http://www.w3.org/1999/xlink" x="0px" y="0px"
	 viewBox="0 0 50 50" style="enable-background:new 0 0 50 50;" xml:space="preserve">
<style type="text/css">
	.st0{fill:url(#SVGID_1_);}
	.st1{fill:#FFFFFF;}
</style>
<linearGradient id="SVGID_1_" gradientUnits="userSpaceOnUse" x1="5.1199" y1="48.4264" x2="43.6913" y2="6.8549" gradientTransform="matrix(1 0 0 -1 0 52)">
	<stop  offset="0" style="stop-color:#25B1FC"/>
	<stop  offset="1" style="stop-color:#1963D0"/>
</linearGradient>
<path class="st0" d="M50,25C50,11.2,38.8,0,25,0S0,11.2,0,25s11.2,25,25,25S50,38.8,50,25z"/>
<g>
	<path class="st1" d="M35.4,34.2c4.2-4.9,3.7-12.2-1.1-16.4c2.4,8.5-4,17.1-12.9,17.1c-0.2,0,0.9,0-3.2,0c2.2,2.2,5.2,3.4,8.3,3.4
		c0,0,10.9-0.1,10.9-0.1c0.7,0,1.1-0.9,0.6-1.4L35.4,34.2z"/>
	<path class="st1" d="M21.5,33.2c6.5,0,11.7-5.3,11.7-11.7S27.9,9.7,21.5,9.7S9.7,15,9.7,21.5c0,2.8,1,5.5,2.9,7.7L10,31.7
		c-0.5,0.5-0.2,1.4,0.6,1.4C10.6,33.1,21.5,33.2,21.5,33.2z M16.5,17.3h10c0.5,0,0.8,0.4,0.8,0.8c0,0.5-0.4,0.8-0.8,0.8h-10
		c-0.5,0-0.8-0.4-0.8-0.8C15.6,17.7,16,17.3,16.5,17.3z M16.5,20.7h10c0.5,0,0.8,0.4,0.8,0.8c0,0.5-0.4,0.8-0.8,0.8h-10
		c-0.5,0-0.8-0.4-0.8-0.8C15.6,21,16,20.7,16.5,20.7z M15.6,24.8c0-0.5,0.4-0.8,0.8-0.8h10c0.5,0,0.8,0.4,0.8,0.8
		c0,0.5-0.4,0.8-0.8,0.8h-10C16,25.7,15.6,25.3,15.6,24.8z"/>
</g>
</svg>
