<?xml version="1.0" encoding="utf-8"?>
<!-- Generator: Adobe Illustrator 24.0.1, SVG Export Plug-In . SVG Version: 6.00 Build 0)  -->
<svg version="1.1" id="Layer_1" xmlns="http://www.w3.org/2000/svg" xmlns:xlink="http://www.w3.org/1999/xlink" x="0px" y="0px"
	 viewBox="0 0 50 50" style="enable-background:new 0 0 50 50;" xml:space="preserve">
<style type="text/css">
	.st0{fill:url(#SVGID_1_);}
	.st1{fill:#FFFFFF;}
</style>
<linearGradient id="SVGID_1_" gradientUnits="userSpaceOnUse" x1="5.1199" y1="3.5736" x2="43.6913" y2="45.1451">
	<stop  offset="0" style="stop-color:#1768D1"/>
	<stop  offset="1" style="stop-color:#25B1FC"/>
</linearGradient>
<path class="st0" d="M50,25C50,11.2,38.8,0,25,0S0,11.2,0,25s11.2,25,25,25S50,38.8,50,25z"/>
<g>
	<g>
		<g>
			<path class="st1" d="M36.3,26.1h-2.5c0.3,0.7,0.4,1.4,0.4,2.2v9.3c0,0.3-0.1,0.6-0.2,0.9h4.1c1.5,0,2.8-1.2,2.8-2.8v-5.1
				C40.9,28.1,38.9,26.1,36.3,26.1z"/>
		</g>
	</g>
	<g>
		<g>
			<path class="st1" d="M15.8,28.3c0-0.8,0.1-1.5,0.4-2.2h-2.5c-2.5,0-4.6,2.1-4.6,4.6v5.1c0,1.5,1.2,2.8,2.8,2.8h4.1
				c-0.1-0.3-0.2-0.6-0.2-0.9V28.3z"/>
		</g>
	</g>
	<g>
		<g>
			<path class="st1" d="M27.8,23.7h-5.6c-2.5,0-4.6,2.1-4.6,4.6v9.3c0,0.5,0.4,0.9,0.9,0.9h13c0.5,0,0.9-0.4,0.9-0.9v-9.3
				C32.4,25.7,30.3,23.7,27.8,23.7z"/>
		</g>
	</g>
	<g>
		<g>
			<path class="st1" d="M25,11.5c-3,0-5.5,2.5-5.5,5.5c0,2.1,1.1,3.9,2.8,4.8c0.8,0.4,1.7,0.7,2.7,0.7c1,0,1.9-0.3,2.7-0.7
				c1.7-0.9,2.8-2.8,2.8-4.8C30.5,14,28,11.5,25,11.5z"/>
		</g>
	</g>
	<g>
		<g>
			<path class="st1" d="M15.3,16.7c-2.3,0-4.1,1.9-4.1,4.1s1.9,4.1,4.1,4.1c0.6,0,1.1-0.1,1.6-0.3c0.9-0.4,1.6-1,2-1.9
				c0.3-0.6,0.5-1.2,0.5-1.9C19.4,18.5,17.6,16.7,15.3,16.7z"/>
		</g>
	</g>
	<g>
		<g>
			<path class="st1" d="M34.7,16.7c-2.3,0-4.1,1.9-4.1,4.1c0,0.7,0.2,1.4,0.5,1.9c0.4,0.8,1.2,1.5,2,1.9c0.5,0.2,1.1,0.3,1.6,0.3
				c2.3,0,4.1-1.9,4.1-4.1S37,16.7,34.7,16.7z"/>
		</g>
	</g>
</g>
</svg>
