<?xml version="1.0" encoding="utf-8"?>
<!-- Generator: Adobe Illustrator 24.0.1, SVG Export Plug-In . SVG Version: 6.00 Build 0)  -->
<svg version="1.1" id="Layer_1" xmlns="http://www.w3.org/2000/svg" xmlns:xlink="http://www.w3.org/1999/xlink" x="0px" y="0px"
	 viewBox="0 0 300 300" style="enable-background:new 0 0 300 300;" xml:space="preserve">
<style type="text/css">
	.st0{opacity:0.5307;}
	.st1{fill:#AFD7EF;}
	.st2{opacity:0.2278;}
	.st3{opacity:0.5307;fill:#AFD7EF;enable-background:new    ;}
	.st4{fill:#21C171;}
	.st5{fill:#00A578;}
	.st6{opacity:0.382;fill:#7970E5;enable-background:new    ;}
	.st7{fill:#1FC497;}
	.st8{fill:#00895F;}
	.st9{fill:#FFFFFF;}
	.st10{fill:#F7B228;}
	.st11{fill:#FFCA3E;}
	.st12{fill:#E96246;}
	.st13{fill:#3F4E5B;}
	.st14{opacity:0.3055;fill:#405E5A;enable-background:new    ;}
	.st15{fill:none;stroke:#DBDDDC;stroke-width:1.0706;stroke-miterlimit:10;}
	.st16{fill:#E1E2FF;}
	.st17{fill:#F4A70F;}
	.st18{fill:#FFBC27;}
	.st19{fill:#DBDDDC;}
	.st20{fill:none;stroke:#CE4819;stroke-width:3.2118;stroke-linecap:round;stroke-linejoin:round;stroke-miterlimit:10;}
	.st21{fill:#E29266;}
	.st22{fill:#EFBA93;}
	.st23{fill:#EDEDED;}
	.st24{opacity:0.4074;fill:#E96246;enable-background:new    ;}
	.st25{fill:#035582;}
	.st26{opacity:0.4342;fill:#035582;enable-background:new    ;}
	.st27{fill:#007DA3;}
	.st28{opacity:0.4342;}
	.st29{opacity:0.2077;fill:#3D3D3D;enable-background:new    ;}
	.st30{opacity:0.6674;fill:#035582;enable-background:new    ;}
</style>
<g id="BACKGROUND">
</g>
<g id="OBJECTS">
	<g>
		<g class="st0">
			<path class="st1" d="M201.8,30.2c-1.7-1.2-3.6-2.2-5.6-2.9c-3-1-6.1-1.3-9.3-1.3c-14.8,0-29,6.5-40.3,16
				c-7.7,6.5-14.1,14.3-19.6,22.7c-5,7.6-7.9,16.5-13.3,23.8c-9,12.1-24.1,17.7-38.7,21.6s-29.9,6.8-42.2,15.4
				c-12.6,8.9-20.9,23.2-23.7,38.4c-6.8,35.9,17,75.1,52.2,85.3c29,8.4,61.6,11,91.7,10.9c22.3,0,44.8-1.7,66.6-6.5
				c18.1-4,37-8.7,51.9-20.4c17.4-13.7,24.4-36.1,20.4-57.6C289,160,282.1,145.2,272,133c-5-6-10.6-11.3-15.9-17
				c-8.2-9-15.2-19-20.8-29.8c-8.6-16.4-14.2-34.7-26-48.9C207.1,34.7,204.6,32.1,201.8,30.2z"/>
		</g>
		<g class="st2">
			<path class="st1" d="M168.7,45.4c-1.7-0.8-3.5-1.4-5.3-1.6c-2.7-0.4-5.5-0.2-8.2,0.3c-12.8,2.4-24.2,10.3-32.4,20.4
				c-5.6,6.9-9.9,14.7-13.4,22.8c-3.1,7.4-4.2,15.6-7.7,22.8c-5.9,11.9-18.1,19.3-30.1,25s-24.8,10.7-34.1,20.2
				c-9.5,9.7-14.4,23.5-14.4,37.1C23,224.6,50,254.9,82.1,258c26.5,2.6,55.2-0.4,81.3-5.3c19.4-3.6,38.6-8.7,56.7-16.4
				c15.1-6.4,30.7-13.5,41.7-26c12.9-14.7,15.4-35.2,8.4-53.2c-5-13-13.4-24.7-24.1-33.7c-5.3-4.4-11-8.1-16.5-12.2
				c-8.5-6.5-16.2-14.1-22.9-22.5c-10.1-12.8-17.9-27.8-30.4-38.3C173.9,48.5,171.4,46.7,168.7,45.4z"/>
		</g>
		<path class="st3" d="M98.6,89.9c-0.2,0.3-0.4,0.6-0.6,0.9c-0.5,0.8-0.7,1.8-1,2.7c-1.2,4.3-2.7,7.5-7.4,8.5
			c-3.2,0.7-7.2-0.1-8.8-3.3c-0.9-1.9-0.8-4.1-0.2-6.2c1.1-3.8,3.6-7,6.6-9.5c3.1-2.4,6.7-4.1,10.5-5.2c0.4-0.1,0.9-0.2,1.3-0.2
			c0.5,0,1,0.3,1.4,0.6c1.4,1.1,2.1,2.9,2,4.7c-0.1,1.8-0.9,3.4-2,4.8C99.8,88.5,99.2,89.2,98.6,89.9z"/>
		<path class="st3" d="M105.2,69.9c-0.9,1.6-2.3,2.6-2.2,4.5c0,2.4,2.4,5,4.8,3.8c0.8-0.4,1.4-1.1,1.9-1.8c0.9-1.4,1.4-3.3,0.8-4.9
			c-0.7-2.1-4.2-4.2-5.5-1.4"/>
		<g class="st0">
			<g>
				<path class="st1" d="M228.8,48.9c0.7,6.8,2,13.6,4.2,20.1s5.2,12.7,8.9,18.5s8,11,12.8,16c4.5,4.7,9.3,9.1,13.9,13.8
					c2.6,2.6,5,5.3,7.3,8.2c0.9,1.2,2.1,2.8,3,4.2c1.1,1.6,2,3.3,3.4,4.6c0.9,0.9,2.2,0,2-1.2c-0.2-1.8-1.1-3.2-2-4.7
					c-0.9-1.3-1.8-2.6-2.7-3.9c-2-2.6-4.1-5.1-6.3-7.5c-4.5-4.8-9.3-9.2-14-13.7c-4.7-4.6-9.2-9.4-13-14.9
					c-3.9-5.5-7.2-11.5-9.9-17.8c-3-7-5.3-14.2-6.6-21.7C229.7,48.2,228.7,48.3,228.8,48.9L228.8,48.9z"/>
			</g>
		</g>
		<g class="st0">
			<g>
				<path class="st1" d="M58,107.4c-4.7,0.4-9.3,1.9-13.7,3.6c-4.5,1.7-8.8,3.8-12.9,6.2C23.7,121.8,17,128,12,135.4
					c-1.3,2-2.5,4.1-3.6,6.2c-0.6,1.2-1,2.3-1.5,3.5c-0.2,0.6-0.4,1.1-0.5,1.7c-0.1,0.6-0.2,1.3-0.2,1.9c-0.1,0.9,1.3,1.2,1.7,0.4
					c0.5-1,1-1.9,1.5-2.9c0.4-0.9,0.8-1.9,1.2-2.8c0.9-1.9,1.9-3.7,3-5.5c2.2-3.5,4.9-6.8,7.9-9.7c6.4-6.3,14.1-11,22.3-14.5
					c4.8-2,9.8-3.5,14.5-5.5C58.7,108.2,58.4,107.4,58,107.4L58,107.4z"/>
			</g>
		</g>
	</g>
	<g>
		<g>
			<path class="st4" d="M115.3,196.6c6.1,10.7,9.8,22.9,10.9,35.2c0.3,3.6,0.4,7.2,0.2,10.8c-0.1,2.9,0.2,5.9-2.1,8.1
				c-1.1,1-2.5,1.7-3.8,2.4c-3.9,1.9-8,3.4-12.2,4.7c-3.7,1.2-7.5,1.4-11.3,1.9c-4.6,0.5-9.3,0.4-13.9,0.2
				c-5.8-0.2-11.6-0.4-17.3-1.8c-5.6-1.4-11.1-4.1-14.8-8.6c-2.6-3.1-4.2-7.3-3.2-11.2c0.6-2.1,1.8-3.9,3.3-5.4
				c2.2-2.3,4.9-4.1,7.8-5.3c4.4-1.8,10-2.9,11.4-7.4c1.1-3.8-1.6-7.4-3.6-10.8c-2-3.4-3-8.5,0.3-10.6c2.6-1.7,6.2-0.3,8.9-1.7
				c3.6-2,3.1-7.3,2.1-11.3c-1.1-5-2.1-10.1-2.7-15.2c-0.5-4.1-0.3-9.4,3.5-11c4-1.7,8,2.1,10.2,5.8c2.1,3.7,3.7,7.7,4.7,11.9
				c0.7,3.2,1.1,6.5,2.9,9.3c3.2,5,6.6,2,10.8,3C111.1,190.2,113.5,193.5,115.3,196.6z"/>
		</g>
		<g>
			<g>
				<path class="st5" d="M116.2,256c-0.1,0.1-0.2,0.2-0.3,0.3c-5,4-12.2-0.9-17.2-3.1c-6.6-2.9-14.4-5.5-20.1-9.9
					c-1-0.8-2.1-1.8-2.1-3.1c0-1.2,1-2.3,2.2-2.6s2.5-0.1,3.6,0.2c0.4,0.1,0.9,0.3,1.4,0.1c0.6-0.3,0.8-1.1,0.6-1.8
					c-0.3-0.6-0.8-1.1-1.4-1.5c-4.5-3.1-9.8-4.7-14.5-7.4c-4.2-2.4-8.8-6.6-9.7-11.7c-0.8-4.9,4.1-8.2,4.5-13
					c0.3-3.7-2-7.1-3.8-10.4c-1.8-3.3-3.2-7.5-1.2-10.6c2.4-3.9,8.5-3.6,12.1-0.8s5.5,7.2,7.6,11.2c1.7,3.2,4.5,8.2,7.4,10.5
					c1.6,1.2,3.9,1.6,5.5,0.5c1-0.7,1.6-1.9,2.4-2.8c3.1-3.3,9.2-1.7,11.6,2.1s2.2,8.8,1.1,13.2c-0.4,1.9-1,3.9-0.6,5.8
					c0.4,1.9,2.1,3.7,4.1,3.4c1.2-0.2,2.2-1.2,3.4-1.2c1.4-0.1,2.7,1.2,3.1,2.5c0.4,1.4,0.3,2.9,0.2,4.3c-0.4,4.9-0.2,9.8,0.6,14.7
					C117.4,248.6,119.6,253,116.2,256z"/>
			</g>
			<path class="st6" d="M64,185.3c3.6,11.2,8.5,21.7,14.8,31.5c0.1,0.4,0.2,0.8,0.2,1.2c0.1,0.4,0.5,0.4,0.7,0.2
				c0.4,0.5,0.7,1.1,1.1,1.6c-5.5-3.9-10.9-7.4-15.5-12.6c-0.3-0.3-0.8,0.1-0.5,0.4c4.8,5.6,10.4,11.3,17.3,14.2l0,0
				c7.5,10.5,16.7,20.9,27.5,27.9c0.5,0.3,1.1-0.4,0.7-0.8c-5-4.5-9.8-8.9-14.5-13.6c0.1-9.4-2.2-19.4-6.2-27.8
				c-0.1-0.2-0.5-0.1-0.4,0.1c2.8,8.9,4.5,17.5,5.7,26.7c-4.2-4.3-8.1-8.8-11.7-13.7c-1.2-1.7-2.4-3.4-3.5-5.1
				c-0.6-7.7-3.6-15.3-7.4-21.9c-0.2-0.3-0.6-0.1-0.4,0.2c3,6.1,4.6,12.4,6,18.9c-5.4-8.7-9.9-18-13.3-27.7
				C64.6,184.6,63.9,184.9,64,185.3z"/>
		</g>
		<g>
			<path class="st5" d="M201.5,169.7c2-2.5,4.1-5.2,6.9-6.8c2.8-1.6,6.6-1.9,9.1,0.1c1.4,1.1,2.2,2.7,3,4.2c2.5,5,4.8,10.2,6.7,15.5
				c2.3,6.3,4.9,13.5,11.2,15.8c4.7,1.7,10.3,0,14.8,2.2c5.3,2.6,7,9.4,7.1,15.3c0.2,5.9-0.4,12.3,2.7,17.3
				c3.3,5.3,10.5,9.1,9.7,15.3c-0.5,4.2-4.7,7-8.8,8.3c-16.5,5.5-34.4-2.3-51.6-0.9c-6.1,0.5-13.3,1.9-17.7-2.4c-2.1-2-3-5-3.8-7.8
				c-6.3-24-3.6-50.3,7.5-72.4"/>
		</g>
		<g>
			<g>
				<path class="st7" d="M194.4,243.6c0.5-1.2,10-3.3,11.5-3.9c3.8-1.4,7.6-2.9,11.3-4.5c6.6-2.9,14.4-5.4,20.2-9.8
					c1-0.8,2.1-1.8,2.1-3.1c0-1.2-1-2.3-2.2-2.6c-1.2-0.4-2.5-0.1-3.6,0.2c-0.4,0.1-0.9,0.3-1.4,0.1c-0.6-0.3-0.8-1.1-0.6-1.8
					c0.3-0.6,0.8-1.1,1.4-1.5c4.5-3.1,9.8-4.7,14.5-7.3c4.2-2.4,8.9-6.6,9.8-11.7c0.8-4.9-4.1-8.2-4.4-13.1c-0.3-3.7,2-7.1,3.8-10.4
					c1.8-3.3,3.2-7.5,1.2-10.6c-2.4-3.9-8.5-3.6-12.1-0.9c-3.6,2.8-5.5,7.1-7.7,11.2c-1.7,3.2-4.5,8.2-7.5,10.4
					c-1.6,1.2-3.9,1.6-5.5,0.5c-1-0.7-1.6-1.9-2.4-2.8c-3.1-3.3-9.2-1.7-11.6,2.1c-2.5,3.8-2.2,8.8-1.2,13.2c0.4,1.9,1,3.9,0.6,5.8
					c-0.4,1.9-2.2,3.7-4.1,3.4c-1.2-0.2-2.2-1.2-3.4-1.2c-1.4-0.1-2.7,1.1-3.2,2.5s-0.3,2.9-0.2,4.3
					C200.7,223.3,198.3,233.2,194.4,243.6z"/>
			</g>
			<path class="st6" d="M252.3,167.4c-3.6,11.2-8.6,21.7-15,31.5c-0.1,0.4-0.2,0.8-0.2,1.2c-0.1,0.4-0.5,0.4-0.7,0.2
				c-0.4,0.5-0.7,1.1-1.1,1.6c5.5-3.9,11-7.4,15.5-12.5c0.3-0.3,0.8,0.1,0.5,0.4c-4.8,5.6-10.4,11.3-17.4,14.1l0,0
				c-7.5,10.4-16.8,20.8-27.7,27.7c-0.5,0.3-1.1-0.4-0.7-0.8c5-4.5,9.9-8.9,14.5-13.5c-0.1-9.4,2.3-19.4,6.4-27.8
				c0.1-0.2,0.5-0.1,0.4,0.1c-2.8,8.8-4.6,17.5-5.8,26.6c4.2-4.3,8.2-8.7,11.8-13.7c1.2-1.7,2.4-3.4,3.5-5.1
				c0.6-7.7,3.6-15.3,7.5-21.8c0.2-0.3,0.6-0.1,0.4,0.2c-3,6.1-4.7,12.4-6.1,18.8c5.5-8.7,10-18,13.4-27.6
				C251.7,166.7,252.4,167,252.3,167.4z"/>
		</g>
		<g>
			<g>
				<path class="st8" d="M193,230.2c10.8-8.4,20.3-18.2,27.9-29.7c7.5-11.4,13.2-23.9,16.9-37.1c2.2-7.8,4.3-16.2,3.2-24.3
					c-0.1-0.8,1-1.1,1.2-0.3c1.7,6.9-0.1,14.4-1.8,21.2s-4,13.5-6.7,20c-5.5,13-13.1,25.1-22.5,35.5c-5.2,5.8-11,11.1-17.4,15.5
					C193.2,231.4,192.5,230.6,193,230.2L193,230.2z"/>
			</g>
			<path class="st8" d="M242.1,151.5c-0.6-3.2-1.3-6.4-1.9-9.7c-0.5-2.7-1-5.8,0.5-8.1c0.1-0.2,0.3-0.4,0.5-0.5
				c0.3-0.1,0.7,0.2,0.9,0.5c1.7,2.2,2,5.3,1.6,8.1c-0.5,2.8-0.9,6.9-1.8,9.6"/>
			<path class="st8" d="M239.2,164.2c4.5-1.7,8.4-4.9,11.1-8.8c0.4-0.6,0.8-1.3,0.5-1.9c-0.3-0.8-1.4-0.9-2.2-0.6
				c-1.4,0.4-2.5,1.5-3.5,2.6c-2.2,2.4-4.3,5.1-6.1,7.8"/>
			<path class="st8" d="M234.7,177c4.7-1.8,8.8-5.1,11.6-9.3c0.4-0.6,0.8-1.4,0.5-2c-0.4-0.8-1.5-0.9-2.3-0.7
				c-1.5,0.4-2.6,1.6-3.6,2.7c-2.3,2.5-4.5,5.3-6.3,8.2"/>
			<path class="st8" d="M227.5,191.3c5-0.2,10-2,14-5.1c0.6-0.4,1.2-1,1.1-1.8c-0.1-0.9-1.1-1.3-2-1.4c-1.5,0-2.9,0.7-4.3,1.4
				c-3,1.7-5.9,3.6-8.6,5.7"/>
			<path class="st8" d="M240.2,156.5c-2.7-3.3-4.4-7.4-4.7-11.7c0-0.6,0-1.3,0.5-1.7c0.6-0.4,1.5-0.1,2,0.5c0.9,0.9,1.3,2.2,1.5,3.5
				c0.7,2.9,1.1,5.8,1.3,8.7"/>
			<path class="st8" d="M236.4,169.1c-3.3-3.9-5.2-8.9-5.6-14c-0.1-0.7,0-1.6,0.6-2c0.7-0.5,1.8-0.1,2.4,0.6
				c1.1,1.1,1.5,2.7,1.8,4.2c0.8,3.4,1.3,6.9,1.5,10.4"/>
			<path class="st8" d="M230.9,182.6c-3.3-3.9-5.2-8.9-5.6-14c-0.1-0.7,0-1.6,0.6-2c0.7-0.5,1.8-0.1,2.4,0.6
				c1.1,1.1,1.5,2.7,1.8,4.2c0.8,3.4,1.3,6.9,1.5,10.4"/>
			<path class="st8" d="M223.7,196.7c-3.3-3.9-5.2-8.9-5.6-14c-0.1-0.7,0-1.6,0.6-2c0.7-0.5,1.8-0.1,2.4,0.6
				c1.1,1.1,1.5,2.7,1.8,4.2c0.8,3.4,1.3,6.9,1.5,10.4"/>
		</g>
		<g>
			<g>
				<path class="st8" d="M105.1,246.2c-9.4-3.1-18.4-6.7-27.1-11.6c-8.5-4.8-16.5-10.5-23.7-17.1c-4.4-4-8.3-8.1-11.2-13.4
					c-0.3-0.6-1.4-0.2-1.1,0.4c1.8,4.7,5.3,8.5,9,11.9c3.6,3.4,7.5,6.6,11.5,9.6c8,6,16.8,11.2,26,15.3c5.3,2.3,10.8,4.4,16.4,5.8
					C105.5,247.4,105.8,246.4,105.1,246.2L105.1,246.2z"/>
			</g>
			<path class="st8" d="M49.6,215c-1.3-3-2.7-6-4-9c-1.1-2.5-2.5-5.3-5.1-6.3c-0.2-0.1-0.5-0.2-0.7-0.1c-0.3,0.1-0.4,0.6-0.4,0.9
				c-0.1,2.8,1.4,5.5,3.4,7.5s4.7,5.2,7,6.8"/>
			<path class="st8" d="M59.2,223.7c-4.7,1.2-9.7,0.9-14.2-0.8c-0.7-0.2-1.4-0.6-1.5-1.3c-0.2-0.8,0.6-1.5,1.5-1.8
				c1.4-0.5,2.9-0.2,4.3,0.1c3.2,0.7,6.4,1.6,9.5,2.9"/>
			<path class="st8" d="M70.3,231.5c-4.9,1.3-10.1,1-14.8-0.8c-0.7-0.3-1.4-0.7-1.6-1.4c-0.2-0.9,0.7-1.6,1.5-1.9
				c1.4-0.5,3-0.2,4.5,0.1c3.4,0.7,6.7,1.7,9.9,3"/>
			<path class="st8" d="M84.5,239c-4.2,2.7-9.3,4.2-14.3,4c-0.7,0-1.6-0.2-1.9-0.8c-0.4-0.8,0.1-1.7,0.8-2.3
				c1.2-0.9,2.8-1.2,4.3-1.3c3.4-0.4,6.9-0.5,10.4-0.3"/>
			<path class="st8" d="M53.9,217.9c0.3-4.3-0.7-8.6-3-12.3c-0.3-0.5-0.8-1.1-1.4-1.1c-0.8,0-1.2,0.8-1.4,1.6
				c-0.2,1.3,0.3,2.6,0.8,3.7c1.1,2.7,2.5,5.3,4,7.8"/>
			<path class="st8" d="M64.3,226c0.4-5.1-0.9-10.3-3.5-14.7c-0.4-0.6-0.9-1.3-1.7-1.3c-0.9,0-1.5,1-1.6,1.9c-0.2,1.5,0.3,3,0.9,4.5
				c1.3,3.2,2.9,6.4,4.8,9.3"/>
			<path class="st8" d="M76.7,233.8c0.4-5.1-0.9-10.3-3.5-14.7c-0.4-0.6-0.9-1.3-1.7-1.3c-0.9,0-1.5,1-1.6,1.9
				c-0.2,1.5,0.3,3,0.9,4.5c1.3,3.2,2.9,6.4,4.8,9.3"/>
			<path class="st8" d="M90.7,241.2c0.4-5.1-0.9-10.3-3.5-14.7c-0.4-0.6-0.9-1.3-1.7-1.3c-0.9,0-1.5,1-1.6,1.9
				c-0.2,1.5,0.3,3,0.9,4.5c1.3,3.2,2.9,6.4,4.8,9.3"/>
		</g>
		<g>
			<g>
				<path class="st8" d="M106.2,225.8c-5.9-7.9-11.2-16.1-15.5-25c-4.2-8.8-7.4-18.1-9.6-27.6c-1.3-5.8-2.1-11.4-1.5-17.3
					c0.1-0.7-1-1-1.2-0.3c-1.3,4.9-0.5,10,0.5,14.9s2.3,9.7,3.9,14.4c3.1,9.6,7.3,18.8,12.5,27.4c3,4.9,6.3,9.8,10.1,14.2
					C105.8,227,106.6,226.3,106.2,225.8L106.2,225.8z"/>
			</g>
			<path class="st8" d="M78.7,168.3c0.6-3.2,1.2-6.5,1.9-9.7c0.5-2.7,1-5.8-0.6-8.1c-0.1-0.2-0.3-0.4-0.5-0.5
				c-0.3-0.1-0.7,0.2-0.9,0.5c-1.7,2.3-2,5.3-1.5,8.1s0.9,6.9,1.8,9.6"/>
			<path class="st8" d="M81.6,181c-4.5-1.7-8.5-4.8-11.2-8.8c-0.4-0.6-0.8-1.3-0.5-1.9c0.3-0.8,1.4-0.9,2.2-0.6
				c1.4,0.4,2.5,1.5,3.5,2.5c2.3,2.4,4.3,5,6.1,7.8"/>
			<path class="st8" d="M86.1,193.8c-4.7-1.8-8.9-5-11.7-9.2c-0.4-0.6-0.8-1.4-0.5-2c0.4-0.8,1.5-0.9,2.3-0.7
				c1.5,0.4,2.6,1.6,3.6,2.7c2.4,2.5,4.5,5.3,6.4,8.1"/>
			<path class="st8" d="M93.5,208c-5-0.2-10-1.9-14-5c-0.6-0.4-1.2-1-1.1-1.8c0.1-0.9,1.1-1.4,2-1.4c1.5,0,3,0.6,4.3,1.4
				c3,1.6,5.9,3.6,8.7,5.7"/>
			<path class="st8" d="M80.5,173.3c2.7-3.3,4.3-7.5,4.6-11.7c0-0.6,0-1.3-0.5-1.7c-0.6-0.4-1.5,0-2,0.5c-0.9,0.9-1.2,2.2-1.5,3.5
				c-0.6,2.9-1,5.8-1.2,8.7"/>
			<path class="st8" d="M84.4,185.8c3.2-4,5.2-8.9,5.5-14c0-0.7,0-1.6-0.6-2c-0.7-0.5-1.8-0.1-2.4,0.6c-1.1,1.1-1.5,2.7-1.8,4.2
				c-0.8,3.4-1.3,6.9-1.4,10.4"/>
			<path class="st8" d="M90.1,199.4c3.2-4,5.2-8.9,5.5-14c0-0.7,0-1.6-0.6-2c-0.7-0.5-1.8-0.1-2.4,0.6c-1.1,1.1-1.5,2.7-1.8,4.2
				c-0.8,3.4-1.3,6.9-1.4,10.4"/>
			<path class="st8" d="M97.3,213.4c3.2-4,5.2-8.9,5.5-14c0-0.7,0-1.6-0.6-2c-0.7-0.5-1.8-0.1-2.4,0.6c-1.1,1.1-1.5,2.7-1.8,4.2
				c-0.8,3.4-1.3,6.9-1.4,10.4"/>
		</g>
		<g>
			<g>
				<path class="st8" d="M221.3,222.7c7.5,0.6,15.3-0.1,22.7-1.5c7.6-1.4,14.9-3.7,22-6.8c3.9-1.7,8-3.6,10.7-7
					c0.4-0.5-0.3-1-0.7-0.6c-5.6,5.2-13.2,8-20.3,10.3c-7.1,2.3-14.4,3.8-21.9,4.5c-4.1,0.4-8.3,0.4-12.4,0.4
					C220.9,221.9,220.9,222.7,221.3,222.7L221.3,222.7z"/>
			</g>
			<path class="st8" d="M268.8,213c1.7-1.8,3.4-3.6,5.1-5.5c1.4-1.5,3.1-3.2,5.2-3.3c0.2,0,0.4,0,0.5,0.1c0.2,0.2,0.2,0.5,0.1,0.8
				c-0.6,2.1-2.4,3.6-4.3,4.6S270.8,212.2,268.8,213"/>
			<path class="st8" d="M259.8,216.9c3,2,6.7,3,10.4,2.9c0.5,0,1.1-0.1,1.4-0.6c0.3-0.6-0.1-1.3-0.6-1.7c-0.9-0.7-2-0.8-3.1-1
				c-2.5-0.3-5-0.4-7.5-0.2"/>
			<path class="st8" d="M250,219.8c3.2,2.1,7,3.2,10.8,3c0.6,0,1.2-0.1,1.5-0.6c0.3-0.6-0.1-1.3-0.6-1.7c-0.9-0.7-2.1-0.9-3.3-1
				c-2.6-0.3-5.2-0.4-7.8-0.3"/>
			<path class="st8" d="M238,221.8c2.4,3,5.7,5.2,9.3,6.3c0.5,0.2,1.2,0.3,1.6-0.1c0.5-0.4,0.3-1.3,0-1.8c-0.7-0.9-1.7-1.5-2.8-2
				c-2.4-1.1-4.8-2-7.4-2.7"/>
			<path class="st8" d="M265,214.1c0.8-3.1,2.6-6,5.1-8.1c0.4-0.3,0.8-0.6,1.3-0.5c0.5,0.2,0.7,0.9,0.6,1.4c-0.2,1-0.8,1.8-1.5,2.5
				c-1.5,1.7-3.1,3.2-4.8,4.6"/>
			<path class="st8" d="M255.6,217.3c1-3.7,3.1-7.2,6.1-9.7c0.4-0.4,1-0.7,1.5-0.6c0.7,0.2,0.8,1.1,0.7,1.7c-0.2,1.1-1,2.1-1.7,3
				c-1.7,2-3.7,3.9-5.7,5.5"/>
			<path class="st8" d="M244.8,220c1-3.7,3.1-7.2,6.1-9.7c0.4-0.4,1-0.7,1.5-0.6c0.7,0.2,0.8,1.1,0.7,1.7c-0.2,1.1-1,2.1-1.7,3
				c-1.7,2-3.7,3.9-5.7,5.5"/>
			<path class="st8" d="M233,221.8c1-3.7,3.1-7.2,6.1-9.7c0.4-0.4,1-0.7,1.5-0.6c0.7,0.2,0.8,1.1,0.7,1.7c-0.2,1.1-1,2.1-1.7,3
				c-1.7,2-3.7,3.9-5.7,5.5"/>
		</g>
	</g>
	<g>
		<ellipse class="st9" cx="226.4" cy="93.8" rx="5.1" ry="5.1"/>
		<g>
			<path class="st10" d="M206.8,151.9c0,1.4-1.1,2.5-2.5,2.5s-2.5-1.1-2.5-2.5s1.1-2.5,2.5-2.5S206.8,150.5,206.8,151.9z"/>
			<g>
				<ellipse class="st11" cx="57.1" cy="157.8" rx="5.1" ry="5.1"/>
				<circle class="st9" cx="42.6" cy="187.9" r="2.7"/>
				<path class="st7" d="M76.6,147.1c0,1.9-1.5,3.4-3.4,3.4s-3.4-1.5-3.4-3.4s1.5-3.4,3.4-3.4C75,143.7,76.6,145.2,76.6,147.1z"/>
				<path class="st12" d="M227.5,130c0,1.7-1.4,3.2-3.2,3.2s-3.2-1.4-3.2-3.2c0-1.7,1.4-3.2,3.2-3.2S227.5,128.3,227.5,130z"/>
				<path class="st10" d="M275.4,188.3c0,2.8-2.3,5.1-5.1,5.1c-2.8,0-5.1-2.3-5.1-5.1s2.3-5.1,5.1-5.1S275.4,185.5,275.4,188.3z"/>
				<path class="st10" d="M35.1,216.7c0,1.4-1.1,2.5-2.5,2.5s-2.5-1.1-2.5-2.5s1.1-2.5,2.5-2.5C34,214.2,35.1,215.3,35.1,216.7z"/>
				<path class="st9" d="M251.9,200.1c0,1.4-1.1,2.5-2.5,2.5s-2.5-1.1-2.5-2.5s1.1-2.5,2.5-2.5C250.7,197.6,251.9,198.7,251.9,200.1
					z"/>
				<path class="st7" d="M279.8,215.9c0,1.4-1.1,2.5-2.5,2.5s-2.5-1.1-2.5-2.5s1.1-2.5,2.5-2.5C278.6,213.4,279.8,214.5,279.8,215.9
					z"/>
				<path class="st12" d="M33.6,151.6c0,1.4-1.1,2.5-2.5,2.5c-1.4,0-2.5-1.1-2.5-2.5s1.1-2.5,2.5-2.5
					C32.5,149.1,33.6,150.2,33.6,151.6z"/>
			</g>
			<path class="st10" d="M243.9,191.3c0,1.4-1.1,2.5-2.5,2.5s-2.5-1.1-2.5-2.5s1.1-2.5,2.5-2.5S243.9,189.9,243.9,191.3z"/>
		</g>
	</g>
	<g>
		<g>
			<path class="st13" d="M215.9,98.6v161.9H94.7V98.6c0-4.2,3.4-7.7,7.7-7.7h105.9C212.5,91,215.9,94.4,215.9,98.6z"/>
			<path class="st14" d="M215.9,98.6v161.9h-5.7v-157c0-4.2-3.4-7.7-7.7-7.7H96.6c-0.5,0-1,0.1-1.5,0.2c1.1-3,3.9-5.1,7.2-5.1h105.9
				C212.5,91,215.9,94.4,215.9,98.6z"/>
			<rect x="104.4" y="102.9" class="st9" width="101.8" height="141.1"/>
			<rect x="107.7" y="106.2" class="st15" width="95.2" height="134.5"/>
			<g>
				<path class="st11" d="M182.4,90.2v11.3h-54.1V90.2c0-2.8,2.3-5,5-5h44.1C180.1,85.2,182.4,87.4,182.4,90.2z"/>
				<ellipse class="st11" cx="155.3" cy="84.2" rx="6.1" ry="6.1"/>
				<path class="st16" d="M157.8,84.2c0,1.4-1.1,2.5-2.5,2.5s-2.5-1.1-2.5-2.5s1.1-2.5,2.5-2.5S157.8,82.8,157.8,84.2z"/>
			</g>
			<path class="st17" d="M182.4,92.3v9.1h-54.1v-9.5c0.8,0.4,1.5,0.9,2,1c1.8,0.6,3.6,1.1,5.5,1.5c4.2,0.8,8.5,1,12.7,1.2
				c5.6,0.2,11.3,0.2,16.9-0.4C171.1,94.6,176.6,93.1,182.4,92.3z"/>
			<path class="st18" d="M189.7,105h-68.5c-1.6,0-2.8-1.3-2.8-2.8l0,0c0-1.6,1.3-2.8,2.8-2.8h68.5c1.6,0,2.8,1.3,2.8,2.8l0,0
				C192.5,103.7,191.2,105,189.7,105z"/>
			<g>
				<path class="st19" d="M125.5,158.1h-1.6c-2.4,0-4.4-2-4.4-4.4v-1.6c0-2.4,2-4.4,4.4-4.4h1.6c2.4,0,4.4,2,4.4,4.4v1.6
					C129.8,156.2,127.9,158.1,125.5,158.1z"/>
				<path class="st19" d="M125.5,173.6h-1.6c-2.4,0-4.4-2-4.4-4.4v-1.6c0-2.4,2-4.4,4.4-4.4h1.6c2.4,0,4.4,2,4.4,4.4v1.6
					C129.8,171.7,127.9,173.6,125.5,173.6z"/>
				<path class="st19" d="M125.5,189.1h-1.6c-2.4,0-4.4-2-4.4-4.4v-1.6c0-2.4,2-4.4,4.4-4.4h1.6c2.4,0,4.4,2,4.4,4.4v1.6
					C129.8,187.2,127.9,189.1,125.5,189.1z"/>
				<path class="st19" d="M190,151.6h-53.7c-0.6,0-1-0.5-1-1l0,0c0-0.6,0.5-1,1-1H190c0.6,0,1,0.5,1,1l0,0
					C191,151.1,190.6,151.6,190,151.6z"/>
				<path class="st19" d="M190,156.7h-53.7c-0.6,0-1-0.5-1-1l0,0c0-0.6,0.5-1,1-1H190c0.6,0,1,0.5,1,1l0,0
					C191,156.3,190.6,156.7,190,156.7z"/>
				<path class="st19" d="M190,167.5h-53.7c-0.6,0-1-0.5-1-1l0,0c0-0.6,0.5-1,1-1H190c0.6,0,1,0.5,1,1l0,0
					C191,167.1,190.6,167.5,190,167.5z"/>
				<path class="st19" d="M190,172.6h-53.7c-0.6,0-1-0.5-1-1l0,0c0-0.6,0.5-1,1-1H190c0.6,0,1,0.5,1,1l0,0
					C191,172.2,190.6,172.6,190,172.6z"/>
				<path class="st19" d="M190,183.4h-53.7c-0.6,0-1-0.5-1-1l0,0c0-0.6,0.5-1,1-1H190c0.6,0,1,0.5,1,1l0,0
					C191,183,190.6,183.4,190,183.4z"/>
				<path class="st19" d="M190,188.6h-53.7c-0.6,0-1-0.5-1-1l0,0c0-0.6,0.5-1,1-1H190c0.6,0,1,0.5,1,1l0,0
					C191,188.1,190.6,188.6,190,188.6z"/>
			</g>
			<polyline class="st20" points="119.6,149.4 125.2,154.5 137.1,140.8 			"/>
			<polyline class="st20" points="119.6,164.6 125.2,169.7 137.1,155.9 			"/>
			<polyline class="st20" points="119.6,179.8 125.2,184.9 137.1,171.1 			"/>
		</g>
		<g>
			<g>
				<g>
					<path class="st21" d="M136.5,231c0.9-0.8,1.9-1.6,3.1-1.6c0.7,0,1.4,0.3,2.1,0.6c6.5,2.5,12.3,3.1,19.2,2.9
						c4.9-0.2,11.4,0.8,15.3,4.2c0.4,0.4,0.8,0.8,1.1,1.2c0.8,1.1,1,2.6,0.6,4c0,0.1-0.1,0.2-0.1,0.4c-0.3,0.9-0.8,1.7-1.5,2.3
						c-0.3,0.3-0.8,0.5-1,0.8c-0.3,0.4-0.3,0.3,0.1,0.5c0.7,0.5,1.6,0.6,2.3,1.2c0.6,0.5,1.1,1.2,1.3,1.9c0.8,2.8-0.8,5.1-2.5,5.5
						c1.7,0.1,3.7,1.6,4,3.5c0.3,1.5-0.7,3.4-1.8,4.3c-0.9,0.7-2.5,0.6-2.7,1.5c-0.2,0.8,1.4,1.7,1,2.8c-0.5,1.5-3.9,2.3-5.2,2.6
						c-7.3,1.8-12.9-3-19.7-6.2c-4.4-2-6.7-3.4-10.6-6.3c-3.6-2.7-11.2-3-14.7-5.8c-3.2-2.6-1.1-5.3,0.6-8.6
						c0.1-0.1,0.1-0.2,0.2-0.4c0.5-0.9,1-1.8,1.5-2.6C131.2,236.5,133.7,233.5,136.5,231z"/>
				</g>
				<g>
					<path class="st12" d="M141,231.2c0,0.4-0.2,0.9-0.3,1.3c-0.8,2.2-1.6,4.3-2.6,6.4c-1.1,2.4-2.3,4.8-3.6,7.1
						c-1.4,2.6-2.9,5.2-4.4,7.9c-0.4,0.7-0.8,1.3-1.4,1.7c-0.8,0.4-1.8,0.2-2.6,0c-0.9-0.2-1.8-0.4-2.7-0.7
						c-0.8-0.2-1.6-0.4-2.4-0.6c-8.8-2.4-17.1-6.5-25.6-9.9c-6.6-2.7-13.3-5.3-19.9-8.1c-1.2-0.5-2-1.5-2.4-2.6
						c-0.3-0.7-0.3-1.5-0.2-2.3c1.1-5.2,3.3-12.4,8-19.9c1.8-2.8,4-5.7,6.5-8.6c1.4-1.5,3.6-1.9,5.4-0.9c0.7,0.4,1.5,0.8,2.2,1.2
						c9.8,5.3,19.5,10.5,29.2,16.1c3.5,2,7.1,4.1,10.5,6.3c0.7,0.4,1.4,0.9,2.1,1.3C138.5,228.1,141.1,229,141,231.2z"/>
				</g>
				<g>
					<path class="st22" d="M174.7,262.5c-1.1,0.3-2.1,0.4-3.2,0.5c-1.1,0.1-2.2,0.1-3.3,0.1c-1.1-0.1-2.2-0.2-3.2-0.4
						c-1.1-0.2-2.1-0.5-3.1-1c2.2,0.1,4.3,0.2,6.4,0.3C170.4,262.1,172.5,262.2,174.7,262.5z"/>
				</g>
				<g>
					<path class="st22" d="M174.4,254.5c-1.2,0.2-2.4,0.3-3.5,0.3c-1.2,0-2.4,0-3.5-0.1c-1.2-0.1-2.3-0.3-3.5-0.5
						c-1.2-0.3-2.3-0.6-3.4-1.1l7,0.5C169.7,253.8,172,254,174.4,254.5z"/>
				</g>
				<g>
					<path class="st22" d="M173.4,246.1c-1.1,0.2-2.2,0.3-3.3,0.3s-2.2,0-3.3-0.1s-2.2-0.2-3.2-0.5c-1.1-0.2-2.1-0.6-3.1-1.1
						c2.2,0.1,4.3,0.3,6.5,0.5C169.1,245.5,171.3,245.7,173.4,246.1z"/>
				</g>
				<g>
					<path class="st23" d="M141,231.2c0,0.4-0.2,0.9-0.3,1.3c-0.8,2.2-1.6,4.3-2.6,6.4c-1.1,2.4-2.3,4.8-3.6,7.1
						c-1.4,2.6-2.9,5.2-4.4,7.9c-0.4,0.7-0.8,1.3-1.4,1.7c-0.8,0.4-1.8,0.2-2.6,0c-0.9-0.2-1.8-0.4-2.7-0.7
						c-0.8-0.2-1.6-0.4-2.4-0.6c4.2-6.5,11-21,13.7-28.7c0.7,0.4,1.4,0.9,2.1,1.3C138.5,228.1,141.1,229,141,231.2z"/>
				</g>
				<path class="st24" d="M134.5,246c-1.4,2.6-2.9,5.2-4.4,7.9c-0.4,0.7-0.8,1.3-1.4,1.7c-0.8,0.4-1.8,0.2-2.6,0
					c-0.9-0.2-1.8-0.4-2.7-0.7c-9.7-2.3-18.8-6.8-28-10.5c-6.6-2.7-13.3-5.3-19.9-8.1c-1.2-0.5-2-1.5-2.4-2.6
					c-0.3-0.7-0.3-1.5-0.2-2.3c1.1-5.2,3.3-12.4,8-19.9C88.3,219.9,110.7,243,134.5,246z"/>
			</g>
			<g>
				<g>
					<path class="st22" d="M188.8,256.4c-4.9,0.4-9.7,2.2-13.5,5.4c-3.7,3.1-6.6,7-10.2,10.1c-1.6,1.4-3.7,2.7-5.7,1.9
						c-1.1-0.4-1.9-1.4-2.1-2.5c-0.2-1.3,1.2-3.2,1.2-3.2s-1.6,0.6-2.4,0.9c-0.7,0.2-1.3,0.5-2,0.6s-1.4,0-2-0.3
						c-0.7-0.4-1.2-1.2-1.3-2.1c-0.1-0.6,0.3-3.1,0.3-3.1s-1.3,0.6-1.8,0.9c-0.9,0.5-1.9,0.9-2.9,0.7c-1-0.1-2-0.8-2.2-1.8
						c-0.1-0.5-0.1-0.9-0.1-1.4c0.2-1.6,0.9-3.8,2.1-4.9c-0.6,0.6-1.3,0.9-1.9,1.6c-0.7,0.7-1.4,1.4-2.3,1.7c-3.1,1.2-4.1-1.6-3.4-4
						c0.9-3.2,2.1-5.8,4.3-8.3s4.9-4.6,7.4-6.9c1.7-1.6,3.3-3.3,5.1-4.7c8.3-6.5,21-7.3,31.1-6.3c0.1-0.2,0.3-0.4,0.6-0.3
						c0.3,0,0.5,0.2,0.7,0.5c0.6,0.1,1.3,0.1,1.9,0.2H188l0,0c1.5,2.5,2.7,5.1,3.6,7.8c0,0.1,0.1,0.2,0.1,0.4
						c0.3,0.9,0.5,1.8,0.7,2.7c0.8,3.1,3.1,11.9-0.9,13.8C190.8,256.3,189.8,256.3,188.8,256.4z"/>
				</g>
				<g>
					<path class="st25" d="M250.1,237.3c0.1,2-1.2,3.9-3.1,4.4c-0.8,0.2-1.6,0.5-2.4,0.7c-10.6,3.2-21.2,6.5-31.9,9.5
						c-4.7,1.3-9.5,2.6-14.3,3.6c-2.1,0.5-4.6,1.7-6,0.1c-0.3-0.3-0.5-0.7-0.7-1.1c-1-2.1-1.9-4.2-2.7-6.4c-2-5.3-3.5-10.7-5.1-16.2
						c-0.2-0.7-0.4-1.5-0.2-2.2c0.3-0.9,1.1-1.4,1.8-1.9c0.8-0.5,1.6-1,2.4-1.5c8.5-5.3,18-8.6,27.2-12.6c6.6-2.9,13.1-5.7,19.7-8.5
						c1.2-0.5,2.5-0.4,3.6,0.1c0.7,0.3,1.3,0.8,1.8,1.5C244.1,213.1,249.4,223.5,250.1,237.3z"/>
				</g>
				<path class="st26" d="M250.1,237.3c0.1,2-1.2,3.9-3.1,4.4c-0.8,0.2-1.6,0.5-2.4,0.7c-10.6,3.2-21.2,6.5-31.9,9.5
					c-4.7,1.3-9.5,2.6-14.3,3.6c-2.1,0.5-4.6,1.7-6,0.1c-0.3-0.3-0.5-0.7-0.7-1.1c-1-2.1-1.9-4.2-2.7-6.4c0.5-0.6,1-1.1,1.5-1.5
					c2.9-2.5,6.4-3.9,9.9-5.5c11.9-5.6,22.5-13.9,30.9-24.1c2.9-3.5,4.5-8.6,7.1-11.5c0.7,0.3,1.3,0.8,1.8,1.5
					C244.1,213.1,249.4,223.5,250.1,237.3z"/>
				<g>
					<path class="st27" d="M205.5,247.7c0,1.2-1,2.2-2.2,2.2s-2.2-1-2.2-2.2s1-2.2,2.2-2.2S205.5,246.5,205.5,247.7z"/>
					<path class="st27" d="M212.5,245.9c0,1.2-1,2.2-2.2,2.2s-2.2-1-2.2-2.2s1-2.2,2.2-2.2S212.5,244.7,212.5,245.9z"/>
					<circle class="st26" cx="210.3" cy="245.9" r="1.3"/>
					<path class="st26" d="M204.5,247.7c0,0.7-0.6,1.3-1.3,1.3s-1.3-0.6-1.3-1.3s0.6-1.3,1.3-1.3S204.5,247,204.5,247.7z"/>
				</g>
				<g>
					<path class="st22" d="M146.4,257.7c0.5-1,1.2-1.8,1.9-2.7c0.7-0.8,1.5-1.6,2.2-2.4c0.8-0.7,1.6-1.4,2.5-2s1.9-1.2,2.9-1.5
						c-1.6,1.5-3.2,2.9-4.7,4.4C149.7,254.9,148.1,256.4,146.4,257.7z"/>
				</g>
				<g>
					<path class="st22" d="M151.1,264.3c0.5-1.1,1.2-2.1,1.9-3c0.7-1,1.5-1.9,2.3-2.7c0.8-0.9,1.7-1.7,2.6-2.4
						c0.9-0.7,2-1.4,3.1-1.8c-1.8,1.6-3.3,3.3-4.9,5C154.4,260.9,152.8,262.7,151.1,264.3z"/>
				</g>
				<g>
					<path class="st22" d="M158.5,268.2c0.4-1,0.9-1.9,1.5-2.8s1.3-1.7,2-2.5s1.5-1.5,2.4-2.2s1.8-1.2,2.8-1.6
						c-1.6,1.4-3,2.9-4.4,4.5C161.4,265.2,160,266.7,158.5,268.2z"/>
				</g>
				<g class="st28">
					<g>
						<path class="st25" d="M191.1,229.8c0.4,3.6,1.2,7.1,2.4,10.6c0.6,1.7,1.3,3.3,2,4.9c0.8,1.7,1.6,3.4,2.7,4.9
							c0.2,0.3,0.7,0,0.5-0.3c-0.8-1.6-1.7-3.1-2.5-4.7c-0.8-1.7-1.5-3.3-2.1-5.1c-1.2-3.3-2.2-6.8-2.8-10.3
							C191.3,229.6,191,229.6,191.1,229.8L191.1,229.8z"/>
					</g>
				</g>
			</g>
			<path class="st29" d="M176.4,232.5c0.9,0.2,1.9,0.5,2.5,1.2c0.9,1.1,0.3,2.9-0.9,3.8c-1.1,0.9-2.6,1.1-4.1,1.2
				c-5.9,0.7-11.8,1.4-17.8,1.2c-3-0.1-6-0.5-8.9-1.1c-0.9-0.2-2.6-0.4-3.1-1.3c-0.6-1,0.6-2.1,1.3-2.7c2.8-2.3,6.1-4,9.7-4.8
				c1.8-0.4,3.6-0.5,5.4-0.4c1.8,0.1,3.4,0.9,5.1,1.2C169.3,231.4,172.9,231.7,176.4,232.5z"/>
			<path class="st21" d="M175.5,230.5c0.9,0.1,1.9,0.3,2.5,1c1,1.1,0.5,2.9-0.6,3.8c-1.1,0.9-2.5,1.3-4,1.5
				c-5.8,1.2-11.7,2.3-17.6,2.6c-3,0.1-6,0-9-0.4c-0.9-0.1-2.6-0.1-3.2-1c-0.6-1,0.4-2.1,1.1-2.8c2.7-2.5,5.8-4.5,9.3-5.5
				c1.7-0.5,3.5-0.8,5.4-0.8c1.8,0,3.4,0.6,5.2,0.7C168.3,230,171.9,230,175.5,230.5z"/>
			<path class="st30" d="M195.1,226.5c-0.8,0.8-1.6,2.1-0.9,3c0.4,0.5,1,0.6,1.7,0.7c1.7,0.1,3.3-0.4,4.9-0.9
				c5.1-1.6,10-3.7,14.8-6.1c2-1,7.2-3.7,5.8-6.7c-1.4-2.9-5.9-0.2-7.8,0.5C207,219.5,200.1,221.5,195.1,226.5z"/>
			<path class="st12" d="M98,215c-1.1-0.2-2.6-0.1-2.9,1c-0.2,0.6,0.1,1.2,0.4,1.8c0.9,1.4,2.2,2.4,3.6,3.4c4.3,3.1,8.8,6,13.6,8.4
				c2,1,7.3,3.7,8.8,0.7c1.5-2.9-3.3-4.9-5-6C110.7,220.6,105,216.2,98,215z"/>
			<path class="st21" d="M182.1,261.5c0.5,0.9,1.1,1.9,2,2.5s2.3,0.8,3.3,0.2c1.1-0.8,1-2.2,0.8-3.4c-0.5-2.3-1.3-4.6-2.4-6.8
				c-0.5-1-1.3-2.1-2.5-2.3c-2.3-0.5-3.9,1.9-3.7,3.7C179.8,257.4,181.1,259.7,182.1,261.5z"/>
			<path class="st21" d="M176.7,264.6c0.5,1.1,1.1,2.1,2,2.8c0.9,0.7,2.3,0.9,3.3,0.2c1.1-0.9,1-2.5,0.8-3.9
				c-0.5-2.6-1.3-5.2-2.4-7.6c-0.5-1.1-1.3-2.3-2.5-2.6c-2.3-0.6-3.9,2.2-3.7,4.1C174.5,259.9,175.8,262.6,176.7,264.6z"/>
			<path class="st21" d="M171.7,267.1c0.4,1,1,1.9,1.8,2.6c0.8,0.6,2.1,0.8,2.9,0.2c1-0.8,0.9-2.2,0.7-3.5c-0.4-2.4-1.2-4.7-2.2-6.9
				c-0.5-1-1.2-2.1-2.2-2.4c-2.1-0.5-3.5,1.9-3.3,3.7C169.6,262.9,170.8,265.3,171.7,267.1z"/>
			<path class="st21" d="M168,272.4c0.2,0.3,0.5,0.5,0.8,0.6c0.4,0.2,0.9,0.2,1.3,0.1c0.5,0,1.1-0.1,1.6-0.4c0.6-0.3,1-0.9,1.2-1.6
				c0.5-2-0.8-4.6-1.6-6.4c-0.5-1-1.2-2.1-2.2-2.4c-2.1-0.5-3.5,1.9-3.3,3.7c0.2,1.3,0.7,2.6,1.2,3.8
				C167.2,270.6,167.5,271.7,168,272.4z"/>
		</g>
	</g>
</g>
<g id="DESIGNED_BY_FREEPIK">
</g>
</svg>
