<svg height="511pt" viewBox="-34 0 511 511.99932" width="511pt" xmlns="http://www.w3.org/2000/svg" xmlns:xlink="http://www.w3.org/1999/xlink"><linearGradient id="a" gradientUnits="userSpaceOnUse" x1=".498821944" x2="444.509162003" y1="256.000182973" y2="256.000182973"><stop offset="0" stop-color="#00f2fe"/><stop offset=".0208" stop-color="#03effe"/><stop offset=".2931" stop-color="#24d2fe"/><stop offset=".5538" stop-color="#3cbdfe"/><stop offset=".7956" stop-color="#4ab0fe"/><stop offset="1" stop-color="#4facfe"/></linearGradient><path d="m443.335938 445.273438c-2.25-10.8125-12.839844-17.761719-23.652344-15.511719-10.8125 2.246093-17.761719 12.835937-15.511719 23.648437.960937 4.632813-.214844 9.414063-3.222656 13.117188-1.664063 2.042968-5.339844 5.472656-11.277344 5.472656h-217.957031l146.816406-139.300781c16.402344 9.898437 31.335938 22.371093 44.148438 37.148437 7.238281 8.34375 19.867187 9.246094 28.214843 2.007813 8.34375-7.234375 9.242188-19.867188 2.007813-28.210938-25.617188-29.542969-58.164063-51.535156-94.214844-64.433593 27.910156-22.378907 45.816406-56.742188 45.816406-95.214844 0-11.632813-1.648437-23.046875-4.820312-34h35.820312c11.046875 0 20-8.953125 20-20s-8.953125-20-20-20h-41v-55.71875c0-15.945313-6.96875-31.019532-19.121094-41.351563-12.152343-10.328125-28.148437-14.78125-43.890624-12.214843l-144.207032 23.511718c-9.675781 1.578125-16.785156 9.9375-16.785156 19.738282v86.035156c0 1.527344.191406 3.011718.511719 4.441406-6.902344 15.515625-10.511719 32.355469-10.511719 49.558594 0 38.507812 17.941406 72.902344 45.894531 95.277344-24.253906 8.703124-47.015625 21.550781-67.113281 38.117187-39.644531 32.675781-67.207031 78.253906-77.613281 128.339844-3.394531 16.351562.6875 33.144531 11.203125 46.070312 10.441406 12.835938 25.917968 20.199219 42.460937 20.199219h334.339844c16.425781 0 31.84375-7.375 42.304687-20.230469 10.640626-13.078125 14.78125-30.023437 11.359376-46.496093zm-292.835938-384.308594 127.429688-20.773438c5.671874-.925781 9.664062 1.613282 11.542968 3.210938s5.03125 5.132812 5.03125 10.875v55.3125c-.179687.132812-.351562.273437-.523437.40625h-143.480469zm-10 123.03125c0-11.824219 2.523438-23.390625 7.363281-34h149.273438c4.839843 10.597656 7.367187 22.132812 7.367187 34 0 45.214844-36.785156 82-82.003906 82-45.214844 0-82-36.785156-82-82zm-96.601562 282.558594c-2.886719-3.546876-4.003907-8.171876-3.066407-12.6875 17.804688-85.683594 94.207031-147.867188 181.671875-147.867188 19.480469 0 38.589844 3.054688 56.722656 8.851562l-165.625 157.148438h-58.269531c-6.09375 0-9.78125-3.410156-11.433593-5.445312zm312.605468-42.554688c0 11.046875-8.957031 20-20 20h-32c-11.046875 0-20-8.953125-20-20s8.953125-20 20-20h32c11.042969 0 20 8.953125 20 20zm0 0" fill="url(#a)"/></svg>