<svg xmlns="http://www.w3.org/2000/svg" width="272.818" height="190.774" viewBox="0 0 272.818 190.774"><defs><style>.a{fill:#d3f2ff;}.b{fill:#abdbe6;}.c{fill:#596a83;}.d{fill:#d43e3a;}.e{fill:#dde4ea;}.f,.l,.m{fill:#fff;}.g{fill:#de6264;}.h,.l{opacity:0.4;}.i{fill:#2e3054;}.j{fill:#ecb49f;}.k{fill:#c79e7a;}.m{opacity:0.5;}.n{fill:#acd0ef;}.o{fill:#5fa469;}.p{fill:#ffd72d;}.q{fill:#4f5a79;}</style></defs><g transform="translate(-29.063 -39.99)"><path class="a" d="M290.743,156.784c-12.068,32.52-37.832,59.28-72.2,67.8-20.371,5.049-41.361,6.168-62.272,6.325-16.9.128-33.554-5.518-50.061-9.321-19.126-4.405-33.251-7.515-48.765-18.988-10.3-7.619-22.363-14.193-26.51-26.508-4.9-14.558.114-28.76,11.869-38.248,11.085-8.945,26.55-10.39,39.37-14.889,19.428-6.817,11.593-16.922,9.1-32.914C85.468,52.822,132,34.768,160.856,43.579c35.5,10.838,72.893,22.411,105.167,40.972C291.256,99.064,301.341,128.222,290.743,156.784Z" transform="translate(0 -0.147)"/><path class="b" d="M179.767,251.2c0,.842-15.975,1.525-35.682,1.525S108.4,252.045,108.4,251.2s15.975-1.525,35.682-1.525S179.767,250.36,179.767,251.2Z" transform="translate(-8.414 -22.237)"/><path class="c" d="M191.812,151.79a10.127,10.127,0,0,0-2.424,11.67c3.1,6.962,11.532,12.388,20.143,17.164,6.481,3.592,8.419,6.135,5.56,11.056-3.587,6.168-7.673,4.9-12.508,10.969-1.667,2.338-6.158,9.4-6.158,9.4l3.992,2.53s-.241-1.528,4.649-4.956c5.364-3.76,15.018-8.565,17.968-10.787s7.947-5.073,5.711-12.082-22.016-24.2-22.016-24.2Z" transform="translate(-16.902 -11.856)"/><path class="b" d="M139.04,94.148a3.173,3.173,0,1,1-3.173-3.173,3.173,3.173,0,0,1,3.173,3.173Z" transform="translate(-10.99 -5.407)"/><path class="b" d="M277.724,96.869a4.653,4.653,0,1,1-4.649-4.653A4.653,4.653,0,0,1,277.724,96.869Z" transform="translate(-25.383 -5.539)"/><path class="d" d="M258.447,204.4c20.094-21.572,5.922-47.163,5.922-47.163l2.751.425s18.82,20.935.208,43.778Z" transform="translate(-24.326 -12.433)"/><path class="d" d="M265.824,158.438a3.806,3.806,0,1,1-3.806-3.806A3.806,3.806,0,0,1,265.824,158.438Z" transform="translate(-24.301 -12.158)"/><path class="e" d="M169.437,229.124a18.19,18.19,0,1,1-18.191-18.189,18.19,18.19,0,0,1,18.191,18.189Z" transform="translate(-11.028 -18.129)"/><path class="c" d="M169.437,229.124a18.19,18.19,0,1,1-18.191-18.189,18.19,18.19,0,0,1,18.191,18.189Z" transform="translate(-11.028 -18.129)"/><path class="f" d="M161.214,230.167a9.4,9.4,0,1,1-9.4-9.4,9.4,9.4,0,0,1,9.4,9.4Z" transform="translate(-12.022 -19.172)"/><path class="d" d="M194.2,179.8s-9.73,19.862,1.057,32.581,36.59,8.257,36.59,8.257l-.212,8.7-124.357,4.685s5.5-46.19,27.705-58.017S187.216,170.428,194.2,179.8Z" transform="translate(-8.294 -13.738)"/><path class="g" d="M183.746,207.428c-3.6-13.32-22.84-15.439-43.357-5.076s-31.936,30.879-31.936,30.879l.968.139,62.187-2.221C181.531,226.052,186.472,217.532,183.746,207.428Z" transform="translate(-8.419 -16.524)"/><g class="h" transform="translate(106.755 161.117)"><path class="f" d="M116.279,201.865l-.307-.215a82.052,82.052,0,0,1,12.272-13.183c6.966-6,17.856-13.116,30.2-12.978,24.679.3,35.458,1.372,35.563,1.383l-.038.372c-.105-.011-10.872-1.08-35.531-1.381h-.383C134.831,175.856,116.462,201.6,116.279,201.865Z" transform="translate(-115.972 -175.486)"/></g><path class="i" d="M186.269,154.868a12.025,12.025,0,0,0-.423,13.112c4.228,6.978,17.343,8.46,23.264,13.32s8.815,6.659,6.826,12.526c-2.5,7.363-6.738,6.74-10.482,14.225C204.2,210.9,200.97,219.4,200.97,219.4l4.36,2s-.5-1.615,3.745-6.241c4.649-5.074,13.358-12.08,15.9-15.041s6.979-6.979,3.595-14.17-19.246-22.417-19.246-22.417Z" transform="translate(-16.442 -12.183)"/><path class="g" d="M293.92,177.738c0,5.315-1.8,9.622-4.017,9.622s-14.8-2.536-14.8-8.883,12.585-10.363,14.8-10.363S293.92,172.423,293.92,177.738Z" transform="translate(-26.092 -13.588)"/><path class="d" d="M295.2,177.738c0,5.315-1.8,9.622-4.017,9.622s-4.023-4.307-4.023-9.622,1.8-9.623,4.023-9.623S295.2,172.423,295.2,177.738Z" transform="translate(-27.371 -13.588)"/><path class="j" d="M231.316,117.739s13.113-8.036,7.614-16.072-13.535-8.038-17.765,2.535-2.837,9.738-10.874,13.968-21.276,11.412-25.5,21.141,11.42,16.92,22.841,18.188c0,0,7.191-2.538,8.882-8.46S225.394,122.391,231.316,117.739Z" transform="translate(-16.44 -5.932)"/><path class="d" d="M216.245,116.656c-1.341-1.073-3.108,2.008-6.361,3.7-8.169,4.253-21.065,11.487-25.365,21.276s11.608,17.017,23.215,18.295c0,0,7.309-2.554,9.029-8.51,1.585-5.487,7.913-23.616,13.609-30.093C230.854,120.768,219.336,119.129,216.245,116.656Z" transform="translate(-16.41 -8.107)"/><path class="i" d="M221.619,114.11s7.113,7.112,13.01,5.989l-1.685,2.433s-10.006,1.384-16.15-4.283Z" transform="translate(-19.909 -7.86)"/><path class="k" d="M230.581,139.468c-1-6.867.74-10.543-3.933-13.261-3.744-2.177-5.348-2-7.674.217-3.115,2.966-.965,14.584,2.371,22.528C224.233,142.738,229.977,139.412,230.581,139.468Z" transform="translate(-19.98 -8.98)"/><path class="e" d="M286.073,229.124a18.19,18.19,0,1,1-18.19-18.189,18.19,18.19,0,0,1,18.19,18.189Z" transform="translate(-23.398 -18.129)"/><path class="b" d="M283.428,251.958c0,.506-10.924.915-24.4.915s-24.4-.409-24.4-.915,10.924-.915,24.4-.915S283.428,251.452,283.428,251.958Z" transform="translate(-21.8 -22.382)"/><path class="c" d="M286.073,229.124a18.19,18.19,0,1,1-18.19-18.189,18.19,18.19,0,0,1,18.19,18.189Z" transform="translate(-23.398 -18.129)"/><path class="f" d="M278.322,230.167a9.395,9.395,0,1,1-9.4-9.4,9.394,9.394,0,0,1,9.4,9.4Z" transform="translate(-24.441 -19.172)"/><path class="j" d="M220,125.551c-4.91,4.023,1.609,20.185,8.8,26.952s12.13,5.1,20.963,2.809c6.973-1.8,8.872-3.292,11.831-.752s1.692-3.807-2.324-5.711-7.4,1.692-14.8,2.538-8.81-3.939-10.967-9.706c-2.637-8.27-.128-13.473-5.821-16.317C223.931,123.492,222.322,123.646,220,125.551Z" transform="translate(-20.067 -8.913)"/><path class="d" d="M285.666,212.555A22.948,22.948,0,0,0,246.479,235.6c5.583.284,13.193-1.6,20.824-5.533C277.025,225.051,284.018,218.13,285.666,212.555Z" transform="translate(-22.87 -17.377)"/><path class="l" d="M280.21,211.961a5.605,5.605,0,1,1-5.605-5.606,5.6,5.6,0,0,1,5.605,5.606Z" transform="translate(-25.445 -17.643)"/><path class="l" d="M294.609,176.59c0,3.976-1.341,7.2-2.995,7.2s-3-3.218-3-7.2,1.341-7.2,3-7.2S294.609,172.617,294.609,176.59Z" transform="translate(-27.526 -13.723)"/><path class="l" d="M296.1,173.375c0,1.859-1.23,3.368-2.749,3.368s-2.749-1.508-2.749-3.368,1.23-3.368,2.749-3.368S296.1,171.514,296.1,173.375Z" transform="translate(-27.736 -13.788)"/><path class="m" d="M306.1,116.986a5.605,5.605,0,1,1-5.606-5.606,5.6,5.6,0,0,1,5.606,5.606Z" transform="translate(-28.19 -7.571)"/><path class="l" d="M175.945,208.508a3.827,3.827,0,1,1-3.827-3.827,3.827,3.827,0,0,1,3.827,3.827Z" transform="translate(-14.765 -17.465)"/><path class="l" d="M180.14,203.639a1.58,1.58,0,1,1-.462-1.118A1.581,1.581,0,0,1,180.14,203.639Z" transform="translate(-15.686 -17.187)"/><path class="l" d="M281.187,209.4a2.437,2.437,0,1,1-.714-1.725,2.438,2.438,0,0,1,.714,1.725Z" transform="translate(-26.22 -17.708)"/><path class="i" d="M215.1,112.45a82.624,82.624,0,0,1-18.558-6.074c-10.152-4.653-27.284-11.546-41.243-5.624,0,0,11.792,5.053,7.836,12.488-.527.61,9.3-3.9,19.236-.731s22.208,7.191,28.338,4.023Z" transform="translate(-13.387 -6.201)"/><path class="m" d="M204.987,88.832a2.75,2.75,0,1,1-2.75-2.75,2.75,2.75,0,0,1,2.75,2.75Z" transform="translate(-18.073 -4.888)"/><path class="b" d="M265.431,135.524a1.48,1.48,0,1,1-1.481-1.48,1.48,1.48,0,0,1,1.481,1.48Z" transform="translate(-24.753 -9.974)"/><path class="f" d="M204.866,221.306l-2.861,4.716s4.009,5.444,7.916,6.1-3.952-4.121-.529-7.636S204.866,221.306,204.866,221.306Z" transform="translate(-18.34 -19.227)"/><path class="g" d="M232.5,137.527c-1-5.9-.153-9.828-4.827-12.158-3.744-1.872-5.347-1.716-7.674.186-3.113,2.55-1.629,9.983,1.706,16.806C224.591,137.018,231.892,137.479,232.5,137.527Z" transform="translate(-20.067 -8.914)"/><path class="l" d="M159.879,222.487a.738.738,0,0,1-.8.655H127.829a.669.669,0,1,1,0-1.311h31.252A.737.737,0,0,1,159.879,222.487Z" transform="translate(-10.389 -19.283)"/><path class="l" d="M241.863,233.375c0,.358-.536.654-1.194.654h-46.7c-.657,0-1.192-.293-1.192-.654s.536-.655,1.192-.655h46.7C241.328,232.72,241.863,233.012,241.863,233.375Z" transform="translate(-17.362 -20.439)"/><path class="l" d="M148.121,227.722a.655.655,0,0,1-.655.655H121.822a.655.655,0,1,1,0-1.311h25.642a.654.654,0,0,1,.655.655Z" transform="translate(-9.768 -19.839)"/><path class="n" d="M189.466,152.785a24.965,24.965,0,0,1-4.88-8.184c-.089.193-.154.368-.218.544a25.49,25.49,0,0,0,4.8,7.9c3.477,3.882,9.772,8.322,20.363,8.322.467,0,.947-.013,1.43-.03q.335-.2.682-.439C199.916,161.532,193.114,156.847,189.466,152.785Z" transform="translate(-16.47 -11.094)"/><path class="b" d="M319.219,243.284c-1.05-10.5-3.087-21.487-2.005-32.138.294-2.909,2.771-15.912,7.459-12.92,3.765,2.4,1.285,11.2,1.26,14.85a111.268,111.268,0,0,1-4.7,29.534Z" transform="translate(-30.525 -16.734)"/><path class="o" d="M72.825,179.493a16.731,16.731,0,0,1-12.342-16.985c.254-4.268,2.159-3.734,4.751-6.315,2.748-2.736,1.244-3.768-1.084-6.8-4.262-5.555-8.271-11.8-6.537-19.2,1.641-7,9.935-6.883,8.1-14.2-2.357-9.412-1.42-18.767-.333-28.434.636-5.655,2.7-19.462,10.478-19.673,7.338-.2,6.984,13.488,7.133,18.124.139,4.321-.779,7.311,2.538,9.744,4.244,3.117,9.159,4.149,10.044,10.378,1.043,7.345-7.086,10.438-7.491,16.956-.334,5.4,7.413,8.537,10.165,12.989,5.168,8.36-4.9,8.418-5.741,15.093a2.994,2.994,0,0,1-.531,1.1c2.82,2.129,6.71,3.262,8.318,6.694,1.869,3.991.5,8.083-2.255,11.156-5.542,6.177-15.955,11.617-24.283,9.635Q73.291,179.628,72.825,179.493Z" transform="translate(-2.984 -2.957)"/><path class="b" d="M90.916,246.826c0,.611-6.149,1.108-13.736,1.108s-13.734-.5-13.734-1.108,6.149-1.11,13.734-1.11S90.916,246.212,90.916,246.826Z" transform="translate(-3.646 -21.817)"/><g class="h" transform="translate(58.67 64.915)"><rect class="f" width="0.373" height="156.03" transform="translate(14.022)"/><path class="f" d="M78.191,128.753l19.374-19.374c-.035-.142-.074-.279-.114-.414L77.928,128.484Z" transform="translate(-63.852 -72.23)"/><path class="f" d="M78.191,122.39l17.337-17.337c-.084-.089-.168-.179-.256-.268L77.93,122.128Z" transform="translate(-63.852 -71.787)"/><path class="f" d="M78.191,152.584l15.673-15.674-.268-.256L77.929,152.321Z" transform="translate(-63.852 -75.166)"/><path class="f" d="M77.929,94.654l.263.263,7-7c0-.163-.009-.333-.013-.514Z" transform="translate(-63.852 -69.943)"/><path class="f" d="M77.929,156.069l.263.264,17.564-17.562-.284-.242Z" transform="translate(-63.852 -75.365)"/><path class="f" d="M97.838,168.074,77.929,187.987l.262.263,19.915-19.912Z" transform="translate(-63.852 -78.498)"/><rect class="f" width="28.161" height="0.372" transform="matrix(0.708, -0.706, 0.706, 0.708, 14.067, 87.792)"/><path class="f" d="M76.992,140.41,65.026,128.444c-.089.089-.17.179-.259.268l11.962,11.962Z" transform="translate(-62.456 -74.296)"/><path class="f" d="M76.718,144.99,62.466,130.736c-.095.08-.19.16-.284.242l14.276,14.275Z" transform="translate(-62.182 -74.539)"/><path class="f" d="M77.226,175.486,67.2,165.459c-.067.1-.141.2-.223.3l9.988,9.988Z" transform="translate(-62.69 -78.221)"/><path class="f" d="M77.929,181.6l.263.263,18.087-18.087c-.111-.064-.222-.131-.331-.2Z" transform="translate(-63.852 -78.021)"/><path class="f" d="M68.619,78.293l8.518,8.518.263-.263L68.748,77.9C68.706,78.029,68.661,78.16,68.619,78.293Z" transform="translate(-62.865 -68.935)"/><path class="f" d="M77.071,109.144,65.551,97.625c-.014.162-.028.324-.041.485l11.3,11.3Z" transform="translate(-62.535 -71.027)"/><path class="f" d="M77.04,113.523,65.251,101.734l-.027.5,11.553,11.553Z" transform="translate(-62.505 -71.463)"/></g><rect class="o" width="0.611" height="44.741" transform="translate(72.801 176.204)"/><path class="b" d="M78.484,242.995s-10.756-38.529-17.64-21.708S78.484,242.995,78.484,242.995Z" transform="translate(-3.241 -18.776)"/><path class="o" d="M80.351,242.875l-.065-1.162c-.07-1.237-1.624-30.38,6.084-38.537a6.141,6.141,0,0,1,5.373-2.074,4.394,4.394,0,0,1,3.719,2.5c4.136,8.678-13.726,37.087-14.488,38.292ZM90.969,201.8a5.473,5.473,0,0,0-4.057,1.884c-6.625,7.009-6.147,31.1-5.936,36.78,3.209-5.253,17.343-29.131,13.812-36.548a3.646,3.646,0,0,0-3.134-2.078,5.775,5.775,0,0,0-.685-.038Z" transform="translate(-5.414 -17.081)"/><path class="o" d="M319.327,247.693l.056-.447a64.165,64.165,0,0,1,2.18-9.225c.373-1.3.759-2.634,1.093-3.924.112-.435.234-1.115.376-1.9.664-3.7,1.671-9.29,4.615-9.29a2.78,2.78,0,0,1,1.223.311c4.143,2.039,1.925,9.891-.079,15.026a3.7,3.7,0,0,1,1.717-.478,2.056,2.056,0,0,1,1.82.978,3.7,3.7,0,0,1-.317,3.587c-1.117,2.078-3.4,3.143-5.4,4.082l-.465.2Zm8.321-24.113c-2.382,0-3.405,5.684-3.955,8.737-.144.8-.268,1.492-.387,1.952-.336,1.3-.723,2.641-1.1,3.941a67.211,67.211,0,0,0-2.1,8.679l5.884-.929.33-.156c2.008-.938,4.084-1.909,5.1-3.791a3.11,3.11,0,0,0,.333-2.924,1.379,1.379,0,0,0-1.244-.652,3.665,3.665,0,0,0-2.218.936l-1,.785.484-1.176c1.6-3.89,4.878-13.154.8-15.161A2.113,2.113,0,0,0,327.648,223.58Z" transform="translate(-30.782 -19.398)"/><path class="o" d="M318.836,246.982c1.471-6.773-1.877-17.749-4.551-24.261-.872-2.128-5.622-9.174-8.619-7.727-2.854,1.378,1.1,8.887,2.192,10.63a5.326,5.326,0,0,0-4.033-1.861c-2.937.048-2.308.613-2.015,3.018.453,3.713,3.266,5.779,5.844,7.975-1.92-.715-4.967-.593-4.864,2.2S318.836,246.982,318.836,246.982Z" transform="translate(-28.896 -18.538)"/><path class="m" d="M131.472,137.318v2.3l-14.941-1.378Z" transform="translate(-9.276 -10.322)"/><path class="m" d="M126.374,150.147v2.036l-13.239-1.223Z" transform="translate(-8.916 -11.682)"/><path class="m" d="M128.934,144.551v2.3l-22.592-1.378Z" transform="translate(-8.195 -11.089)"/><path class="i" d="M245.72,102.574s4.094.6,1.954,3.218-6.382-2.5-10.447-1.058S238.918,102.108,245.72,102.574Z" transform="translate(-21.932 -6.633)"/><path class="i" d="M230.628,111.654s-2.708,2.179-7.956,1.43l.188-3.559,7.117,1.877Z" transform="translate(-20.532 -7.374)"/><path class="p" d="M243.988,101.338c-.722.374-.536.414-2.217.38-2.743-.055-7.747.417-9.9,5.9-.3.774.243,1.688-1.2,2.435a8.435,8.435,0,0,1-3.975.426l-4.164-.493S213.571,97.6,226.656,92c8.871-3.79,14.966,2.95,16.774,6.814C244.286,100.651,244.713,100.965,243.988,101.338Z" transform="translate(-20.2 -5.397)"/><path class="f" d="M242.305,95.432c.689.7.92,1.591.513,1.99s-1.292.156-1.982-.544-.919-1.591-.514-1.991S241.615,94.732,242.305,95.432Z" transform="translate(-22.383 -5.801)"/><path class="f" d="M235.739,100.912a11.079,11.079,0,0,0-5.353,6.52c-.583,1.8-4.338,2.346-8.886,1.346.074.151.149.294.223.431a19.823,19.823,0,0,0,3.968.447c2.688,0,4.608-.736,5.052-2.105a10.572,10.572,0,0,1,5.18-6.309c2.367-1.326,6.027-1.451,7.752-1.43l-.041-.089c-.045-.1-.089-.2-.145-.3C241.666,99.413,238.127,99.574,235.739,100.912Z" transform="translate(-20.408 -6.303)"/><path class="b" d="M186.924,60.119c0,11.116-9.5,20.129-21.213,20.129S144.5,71.236,144.5,60.119,154,39.99,165.712,39.99,186.924,49,186.924,60.119Z" transform="translate(-12.242)"/><path class="f" d="M185.9,60.582a17.6,17.6,0,1,1-17.6-17.6,17.6,17.6,0,0,1,17.6,17.6Z" transform="translate(-12.899 -0.317)"/><path class="i" d="M170.479,60.019l9.291-9.29L171.1,64.049Z" transform="translate(-14.997 -1.139)"/><path class="i" d="M169.6,60.754l-7.431-3.1,8.052,7.122,1.237-1.858Z" transform="translate(-14.115 -1.874)"/><path class="q" d="M171.384,47.477a1.133,1.133,0,1,1-1.134-1.133A1.133,1.133,0,0,1,171.384,47.477Z" transform="translate(-14.853 -0.674)"/><path class="q" d="M171.384,77.041a1.133,1.133,0,1,1-1.134-1.132A1.133,1.133,0,0,1,171.384,77.041Z" transform="translate(-14.853 -3.809)"/><path class="q" d="M185.035,63.391a1.132,1.132,0,1,1,1.132-1.132A1.132,1.132,0,0,1,185.035,63.391Z" transform="translate(-16.421 -2.242)"/><path class="q" d="M155.466,63.391A1.132,1.132,0,1,1,156.6,62.26,1.132,1.132,0,0,1,155.466,63.391Z" transform="translate(-13.285 -2.242)"/><path class="b" d="M138.248,46.225V51.18l-38.089-2.972Z" transform="translate(-7.54 -0.661)"/><path class="b" d="M127.51,55.579v4.954L89.421,57.564Z" transform="translate(-6.401 -1.653)"/><rect class="p" width="41.029" height="33.853" transform="translate(125.215 123.29)"/><rect class="m" width="41.029" height="4.346" transform="translate(125.215 123.29)"/><path class="d" d="M159.209,131.9s-.379-.166-1.007-.5a23,23,0,0,1-2.523-1.548,17.161,17.161,0,0,1-1.579-1.237,10.869,10.869,0,0,1-1.587-1.688,6.429,6.429,0,0,1-.682-1.127,3.644,3.644,0,0,1-.358-1.471,2.849,2.849,0,0,1,.456-1.623,3.444,3.444,0,0,1,.51-.632,2.728,2.728,0,0,1,.288-.25l.148-.117.073-.059c.029-.021.089-.061.089-.061l.291-.172c.046-.026.08-.049.134-.078l.206-.089a4.037,4.037,0,0,1,.415-.159c.139-.034.28-.063.422-.089a2.786,2.786,0,0,1,1.708.316,3.64,3.64,0,0,1,1.129,1,6.984,6.984,0,0,1,.7,1.1,11.762,11.762,0,0,1,.83,2.145,18.092,18.092,0,0,1,.455,1.946,24.245,24.245,0,0,1,.367,2.932c.027.358.03.636.037.827s.005.3.005.3a.365.365,0,0,1-.509.342Zm-.4-1.185c-.012-.044-.022-.089-.033-.131-.171-.671-.423-1.631-.768-2.752-.173-.56-.378-1.162-.611-1.776a13.486,13.486,0,0,0-.858-1.826,5.166,5.166,0,0,0-.559-.8,2.354,2.354,0,0,0-.626-.527.946.946,0,0,0-.585-.1,1.447,1.447,0,0,1-.164.038c-.052.014-.089.043-.14.058l-.072.022c-.036.017-.084.05-.125.074l-.256.156c-.009.007-.089.058.014-.009l-.058.048-.089.069a1.216,1.216,0,0,0-.168.138,1.519,1.519,0,0,0-.245.291,1.011,1.011,0,0,0-.192.626,3.233,3.233,0,0,0,.63,1.637,12.288,12.288,0,0,0,1.267,1.548c.457.469.913.906,1.348,1.3.873.781,1.643,1.4,2.183,1.834a1.361,1.361,0,0,0,.106.086Z" transform="translate(-12.981 -8.589)"/><path class="d" d="M160.625,131.65s.1-.372.318-.995a24.409,24.409,0,0,1,1.064-2.536c.249-.515.536-1.067.881-1.634a13.593,13.593,0,0,1,1.21-1.742,9.6,9.6,0,0,1,.8-.862,4.959,4.959,0,0,1,1.049-.781,3.065,3.065,0,0,1,1.51-.431,2.7,2.7,0,0,1,.877.16,1.77,1.77,0,0,1,.392.179l.186.106c.021.01.184.135.119.084.026.023.08.067.08.067l.105.089.055.045a1.04,1.04,0,0,1,.089.1,2.275,2.275,0,0,1,.343.469,2.121,2.121,0,0,1,.185.5,2.165,2.165,0,0,1,.053.514,2.931,2.931,0,0,1-.524,1.514,5.966,5.966,0,0,1-.8.983,11.229,11.229,0,0,1-.843.779,16.744,16.744,0,0,1-1.686,1.245c-.545.367-1.08.679-1.575.958-.99.56-1.843.963-2.447,1.231s-.964.4-.964.4a.368.368,0,0,1-.472-.22.384.384,0,0,1-.01-.222Zm.154-.168s.3-.219.821-.605,1.265-.931,2.145-1.594c.435-.334.9-.7,1.385-1.093s.971-.823,1.447-1.271a7.319,7.319,0,0,0,1.215-1.43,1.167,1.167,0,0,0,.207-.542.13.13,0,0,0-.013-.056c0-.01,0,.023.021.015,0-.009-.05-.054-.05-.054l-.107-.089-.056-.045c-.1-.075.063.045.046.033l-.07-.037a.278.278,0,0,0-.107-.053.666.666,0,0,0-.211-.046,1.282,1.282,0,0,0-.591.174,5.565,5.565,0,0,0-1.4,1.143c-.432.472-.841.971-1.211,1.463s-.7.978-1.01,1.43c-.608.908-1.1,1.69-1.444,2.235l-.536.862Z" transform="translate(-13.951 -8.768)"/><path class="d" d="M150.841,133.552c-2.908,0-5.569-1.536-8.041-4.619-4.484-5.594-9.08-5.443-16.115-4.531a.7.7,0,1,1-.179-1.383c7.3-.945,12.455-1.1,17.383,5.043,3.554,4.432,7.361,5.229,11.979,2.5a.7.7,0,1,1,.708,1.2A11.371,11.371,0,0,1,150.841,133.552Z" transform="translate(-10.269 -8.753)"/></g></svg>