<?xml version="1.0" encoding="utf-8"?>
<!-- Generator: Adobe Illustrator 24.0.1, SVG Export Plug-In . SVG Version: 6.00 Build 0)  -->
<svg version="1.1" id="Layer_1" xmlns="http://www.w3.org/2000/svg" xmlns:xlink="http://www.w3.org/1999/xlink" x="0px" y="0px"
	 viewBox="0 0 18 18" style="enable-background:new 0 0 18 18;" xml:space="preserve">
<style type="text/css">
	.st0{fill:#3E4152;}
</style>
<g>
	<g>
		<path class="st0" d="M0.3,8.5C0.4,8.5,0.4,8.4,0.3,8.5c0.3-2.1,2.2-3.4,4.2-3c2,0.4,3.3,2.7,2.3,4.7c-0.3,0.6-0.7,1.3-1.1,1.9
			c-0.6,0.8-1.2,1.6-1.9,2.3c0,0-0.1-0.1-0.1-0.1c-0.3-0.4-0.6-0.7-0.9-1.1c-1-1.2-2-2.5-2.4-4.1C0.3,8.9,0.3,8.7,0.3,8.5z M3.8,9.6
			c0.6,0,1.1-0.5,1.1-1c0-0.6-0.5-1.1-1-1.1c-0.6,0-1.1,0.5-1.1,1C2.7,9.1,3.2,9.6,3.8,9.6z"/>
		<path class="st0" d="M13.2,6.7C13.1,6.6,13,6.4,13,6.3c-0.1-0.3-0.2-0.7-0.1-1c0.2-1.2,1.3-2.1,2.5-2c1.2,0.1,2.2,1.1,2.3,2.3
			c0,0.4-0.1,0.8-0.3,1.2C17,7.4,16.5,8,16,8.6c-0.2,0.3-0.5,0.5-0.7,0.8C14.5,8.6,13.7,7.7,13.2,6.7z M16,5.4
			c0-0.4-0.3-0.7-0.7-0.7c-0.4,0-0.7,0.3-0.7,0.7c0,0.4,0.3,0.7,0.7,0.7C15.7,6.2,16,5.8,16,5.4z"/>
	</g>
	<g>
		<path class="st0" d="M14.4,11.1c0,0,0.1,0,0.1,0l0.7-0.3c0.2-0.1,0.3-0.3,0.2-0.5c-0.1-0.2-0.3-0.3-0.5-0.2l-0.7,0.3
			c-0.2,0.1-0.3,0.3-0.2,0.5C14.1,11,14.2,11.1,14.4,11.1z"/>
		<path class="st0" d="M6.6,13.8c-0.1-0.2,0-0.4,0.2-0.5l1.2-0.5c0.2-0.1,0.4,0,0.5,0.2c0.1,0.2,0,0.4-0.2,0.5L7.1,14
			c0,0-0.1,0-0.1,0C6.8,14,6.7,13.9,6.6,13.8z M9.1,12.8c-0.1-0.2,0-0.4,0.2-0.5l1.2-0.5c0.2-0.1,0.4,0,0.5,0.2
			c0.1,0.2,0,0.4-0.2,0.5L9.6,13c0,0-0.1,0-0.1,0C9.3,13.1,9.1,13,9.1,12.8z M11.6,11.8c-0.1-0.2,0-0.4,0.2-0.5l1.2-0.5
			c0.2-0.1,0.4,0,0.5,0.2c0.1,0.2,0,0.4-0.2,0.5l-1.2,0.5c0,0-0.1,0-0.1,0C11.8,12.1,11.6,12,11.6,11.8z"/>
		<path class="st0" d="M5,14.8c0,0,0.1,0,0.1,0l0.7-0.3c0.2-0.1,0.3-0.3,0.2-0.5c-0.1-0.2-0.3-0.3-0.5-0.2L4.9,14
			c-0.2,0.1-0.3,0.3-0.2,0.5C4.7,14.7,4.8,14.8,5,14.8z"/>
	</g>
</g>
</svg>
