<?xml version="1.0" encoding="utf-8"?>
<!-- Generator: Adobe Illustrator 24.0.1, SVG Export Plug-In . SVG Version: 6.00 Build 0)  -->
<svg version="1.1" id="Layer_1" xmlns="http://www.w3.org/2000/svg" xmlns:xlink="http://www.w3.org/1999/xlink" x="0px" y="0px"
	 viewBox="0 0 280 330" style="enable-background:new 0 0 280 330;" xml:space="preserve">
<style type="text/css">
	.st0{opacity:0.19;fill:#7788E8;}
	.st1{clip-path:url(#SVGID_2_);}
	.st2{fill:url(#SVGID_3_);}
	.st3{fill:url(#SVGID_4_);}
	.st4{fill:url(#SVGID_5_);}
	.st5{fill:#FFFFFF;}
	.st6{fill:#254DA1;}
	.st7{fill:url(#SVGID_6_);}
	.st8{fill:url(#SVGID_7_);}
	.st9{fill:url(#SVGID_8_);}
	.st10{fill:url(#SVGID_9_);}
	.st11{fill:url(#SVGID_10_);}
	.st12{fill:url(#SVGID_11_);}
	.st13{fill:url(#SVGID_12_);}
	.st14{fill:url(#SVGID_13_);}
	.st15{fill:url(#SVGID_14_);}
	.st16{fill:url(#SVGID_15_);}
	.st17{fill:url(#SVGID_16_);}
	.st18{fill:url(#SVGID_17_);}
	.st19{fill:url(#SVGID_18_);}
	.st20{fill:url(#SVGID_19_);}
	.st21{fill:url(#SVGID_20_);}
	.st22{fill:url(#SVGID_21_);}
	.st23{fill:url(#SVGID_22_);}
	.st24{fill:url(#SVGID_23_);}
	.st25{fill:url(#SVGID_24_);}
	.st26{fill:url(#SVGID_25_);}
	.st27{fill:url(#SVGID_26_);}
	.st28{fill:url(#SVGID_27_);}
	.st29{fill:url(#SVGID_28_);}
	.st30{fill:url(#SVGID_29_);}
	.st31{fill:url(#SVGID_30_);}
	.st32{fill:url(#SVGID_31_);}
	.st33{fill:url(#SVGID_32_);}
	.st34{fill:url(#SVGID_33_);}
	.st35{fill:url(#SVGID_34_);}
	.st36{fill:url(#SVGID_35_);}
	.st37{fill:url(#SVGID_36_);}
	.st38{fill:url(#SVGID_37_);}
	.st39{fill:url(#SVGID_38_);}
	.st40{fill:url(#SVGID_39_);}
	.st41{fill:url(#SVGID_40_);}
	.st42{fill:url(#SVGID_41_);}
	.st43{fill:url(#SVGID_42_);}
	.st44{fill:url(#SVGID_43_);}
	.st45{fill:url(#SVGID_44_);}
	.st46{fill:url(#SVGID_45_);}
	.st47{fill:url(#SVGID_46_);}
	.st48{fill:url(#SVGID_47_);}
	.st49{fill:url(#SVGID_48_);}
	.st50{fill:url(#SVGID_49_);}
	.st51{fill:url(#SVGID_50_);}
	.st52{fill:url(#SVGID_51_);}
	.st53{fill:url(#SVGID_52_);}
	.st54{fill:url(#SVGID_53_);}
	.st55{fill:url(#SVGID_54_);}
	.st56{fill:url(#SVGID_55_);}
	.st57{fill:url(#SVGID_56_);}
	.st58{fill:url(#SVGID_57_);}
	.st59{fill:url(#SVGID_58_);}
	.st60{fill:url(#SVGID_59_);}
	.st61{fill:url(#SVGID_60_);}
	.st62{fill:url(#SVGID_61_);}
	.st63{fill:url(#SVGID_62_);}
	.st64{fill:url(#SVGID_63_);}
	.st65{fill:url(#SVGID_64_);}
	.st66{fill:url(#SVGID_65_);}
	.st67{fill:url(#SVGID_66_);}
	.st68{fill:url(#SVGID_67_);}
	.st69{fill:url(#SVGID_68_);}
	.st70{fill:url(#SVGID_69_);}
	.st71{fill:url(#SVGID_70_);}
	.st72{fill:url(#SVGID_71_);}
	.st73{fill:url(#SVGID_72_);}
	.st74{fill:url(#SVGID_73_);}
	.st75{fill:url(#SVGID_74_);}
	.st76{fill:url(#SVGID_75_);}
	.st77{fill:url(#SVGID_76_);}
	.st78{fill:url(#SVGID_77_);}
	.st79{fill:url(#SVGID_78_);}
	.st80{fill:url(#SVGID_79_);}
	.st81{fill:url(#SVGID_80_);}
	.st82{fill:url(#SVGID_81_);}
	.st83{fill:url(#SVGID_82_);}
	.st84{fill:url(#SVGID_83_);}
	.st85{fill:url(#SVGID_84_);}
	.st86{fill:url(#SVGID_85_);}
	.st87{fill:url(#SVGID_86_);}
	.st88{fill:url(#SVGID_87_);}
	.st89{fill:url(#SVGID_88_);}
	.st90{fill:url(#SVGID_89_);}
	.st91{fill:url(#SVGID_90_);}
	.st92{fill:url(#SVGID_91_);}
	.st93{fill:url(#SVGID_92_);}
	.st94{fill:url(#SVGID_93_);}
	.st95{fill:url(#SVGID_94_);}
	.st96{fill:url(#SVGID_95_);}
	.st97{fill:url(#SVGID_96_);}
	.st98{fill:#8EAF56;}
	.st99{fill:#FDC500;}
	.st100{fill:url(#SVGID_97_);}
	.st101{fill:#85CBD1;}
	.st102{fill:url(#SVGID_98_);}
</style>
<g>
	<circle class="st0" cx="143.5" cy="212.1" r="104.9"/>
	<g>
		<defs>
			<circle id="SVGID_1_" cx="144.7" cy="212.1" r="104.9"/>
		</defs>
		<clipPath id="SVGID_2_">
			<use xlink:href="#SVGID_1_"  style="overflow:visible;"/>
		</clipPath>
		<g class="st1">
			<linearGradient id="SVGID_3_" gradientUnits="userSpaceOnUse" x1="123.8734" y1="196.0561" x2="165.3093" y2="196.0561">
				<stop  offset="0" style="stop-color:#FCC198"/>
				<stop  offset="0.2145" style="stop-color:#FBBD96"/>
				<stop  offset="0.4156" style="stop-color:#F8B292"/>
				<stop  offset="0.537" style="stop-color:#F6A98F"/>
				<stop  offset="0.7334" style="stop-color:#F09186"/>
				<stop  offset="0.979" style="stop-color:#E76B77"/>
				<stop  offset="1" style="stop-color:#E66776"/>
			</linearGradient>
			<path class="st2" d="M125.9,187.3c0-1.2,1-2.1,2.2-2.1h33c1.2,0,2.2,1,2.2,2.1v21.5h2v-21.5c0-2.2-1.9-4.1-4.2-4.1h-33
				c-2.3,0-4.2,1.8-4.2,4.1v21.5h2V187.3z"/>
			<linearGradient id="SVGID_4_" gradientUnits="userSpaceOnUse" x1="144.557" y1="175.6783" x2="144.3773" y2="217.9158">
				<stop  offset="0" style="stop-color:#AAA0FF"/>
				<stop  offset="1" style="stop-color:#6B55FF"/>
			</linearGradient>
			<path class="st3" d="M196.7,192.7c-4.4,2.6-10,1.7-13.1,0.4c-3.1-1.3-7.4-3.5-12.2-2.2s-9.2,3.9-14,3.1
				c-4.8-0.9-13.1-6.5-17.9-2.6c-4.8,3.9-9.2,4.4-15.3,3.5c-6.1-0.9-6.1-3.5-12.2-3.5c-6.1,0-7.9,7-15.7,3.1s-11.8,2.2-11.8,2.2
				L85,241l119.1,0.1v-44.5C204.1,196.6,201.1,190.1,196.7,192.7z M125.4,211.9c-1.8,0-3.3-1.5-3.3-3.3c0-1.8,1.5-3.3,3.3-3.3
				s3.3,1.5,3.3,3.3C128.7,210.4,127.2,211.9,125.4,211.9z M163.3,211.9c-1.8,0-3.3-1.5-3.3-3.3c0-1.8,1.5-3.3,3.3-3.3
				c1.8,0,3.3,1.5,3.3,3.3C166.6,210.4,165.2,211.9,163.3,211.9z"/>
			<linearGradient id="SVGID_5_" gradientUnits="userSpaceOnUse" x1="144.3736" y1="237.6562" x2="144.3757" y2="342.001">
				<stop  offset="0" style="stop-color:#AAA0FF"/>
				<stop  offset="1" style="stop-color:#6B55FF"/>
			</linearGradient>
			<path class="st4" d="M84.6,222.8c0,0,2.6-6.5,10.9-2.2s9.2-2.6,15.3-3.1c6.1-0.4,7.4-0.9,13.1,3.1c5.7,3.9,9.6,0,15.7-2.6
				c6.1-2.6,10.9,3.9,16.6,3.9c5.7,0,5.2-1.7,11.8-3.9c6.5-2.2,9.6,3.1,16.1,3.5c6.5,0.4,10-5.2,14.4-4.4s5.7,4.8,5.7,4.8V344H85.9
				L84.6,222.8z"/>
			<g>
				<circle class="st5" cx="125.4" cy="237" r="3.3"/>
				<circle class="st5" cx="163.3" cy="237" r="3.3"/>
			</g>
			<g>
				<path class="st6" d="M162.3,236.3v24.6c0,12.3-8.1,22.3-18.1,22.3c-10,0-18.1-10-18.1-22.3v-24.6c-0.1-0.4-0.4-0.8-0.9-0.9
					c-0.5-0.1-1.1,0.3-1.3,0.9c0,8.5,0,17,0,25.5c0,13.6,9.1,24.6,20.3,24.6h0c11.2,0,20.3-11,20.3-24.6v-25.5
					c-0.2-0.6-0.8-1-1.3-0.9C162.7,235.5,162.4,235.9,162.3,236.3z"/>
				<linearGradient id="SVGID_6_" gradientUnits="userSpaceOnUse" x1="144.4992" y1="266.1377" x2="144.9899" y2="194.7426">
					<stop  offset="0" style="stop-color:#264EA2"/>
					<stop  offset="1" style="stop-color:#264DA2"/>
				</linearGradient>
				<path class="st7" d="M162.8,237.2v24.6c0,12.3-8.1,22.3-18.1,22.3c-10,0-18.1-10-18.1-22.3v-24.6c-0.1-0.4-0.4-0.8-0.9-0.9
					c-0.5-0.1-1.1,0.3-1.3,0.9c0,8.5,0,17,0,25.5c0,13.6,9.1,24.6,20.3,24.6h0c11.2,0,20.3-11,20.3-24.6v-25.5
					c-0.2-0.6-0.8-1-1.3-0.9C163.2,236.4,162.9,236.8,162.8,237.2z"/>
				<linearGradient id="SVGID_7_" gradientUnits="userSpaceOnUse" x1="144.954" y1="267.0313" x2="145.4447" y2="195.6362">
					<stop  offset="0" style="stop-color:#284FA3"/>
					<stop  offset="1" style="stop-color:#274DA3"/>
				</linearGradient>
				<path class="st8" d="M163.2,238.1v24.6c0,12.3-8.1,22.3-18.1,22.3c-10,0-18.1-10-18.1-22.3v-24.6c-0.1-0.4-0.4-0.8-0.9-0.9
					c-0.5-0.1-1.1,0.3-1.3,0.9c0,8.5,0,17,0,25.5c0,13.6,9.1,24.6,20.3,24.6h0c11.2,0,20.3-11,20.3-24.6v-25.5
					c-0.2-0.6-0.8-1-1.3-0.9C163.7,237.3,163.3,237.6,163.2,238.1z"/>
				<linearGradient id="SVGID_8_" gradientUnits="userSpaceOnUse" x1="145.4089" y1="267.9248" x2="145.8996" y2="196.5297">
					<stop  offset="0" style="stop-color:#2950A4"/>
					<stop  offset="1" style="stop-color:#274DA4"/>
				</linearGradient>
				<path class="st9" d="M163.7,239v24.6c0,12.3-8.1,22.3-18.1,22.3c-10,0-18.1-10-18.1-22.3V239c-0.1-0.4-0.4-0.8-0.9-0.9
					c-0.5-0.1-1.1,0.3-1.3,0.9c0,8.5,0,17,0,25.5c0,13.6,9.1,24.6,20.3,24.6h0c11.2,0,20.3-11,20.3-24.6V239c-0.2-0.6-0.8-1-1.3-0.9
					C164.1,238.2,163.8,238.5,163.7,239z"/>
				<linearGradient id="SVGID_9_" gradientUnits="userSpaceOnUse" x1="145.8637" y1="268.8184" x2="146.3544" y2="197.4233">
					<stop  offset="0" style="stop-color:#2B51A5"/>
					<stop  offset="1" style="stop-color:#284DA5"/>
				</linearGradient>
				<path class="st10" d="M164.1,239.9v24.6c0,12.3-8.1,22.3-18.1,22.3c-10,0-18.1-10-18.1-22.3v-24.6c-0.1-0.4-0.4-0.8-0.9-0.9
					c-0.5-0.1-1.1,0.3-1.3,0.9c0,8.5,0,17,0,25.5c0,13.6,9.1,24.6,20.3,24.6h0c11.2,0,20.3-11,20.3-24.6v-25.5
					c-0.2-0.6-0.8-1-1.3-0.9C164.6,239.1,164.2,239.4,164.1,239.9z"/>
				<linearGradient id="SVGID_10_" gradientUnits="userSpaceOnUse" x1="146.3185" y1="269.7119" x2="146.8092" y2="198.3168">
					<stop  offset="0" style="stop-color:#2C52A6"/>
					<stop  offset="1" style="stop-color:#294DA6"/>
				</linearGradient>
				<path class="st11" d="M164.6,240.8v24.6c0,12.3-8.1,22.3-18.1,22.3s-18.1-10-18.1-22.3v-24.6c-0.1-0.4-0.4-0.8-0.9-0.9
					c-0.5-0.1-1.1,0.3-1.3,0.9c0,8.5,0,17,0,25.5c0,13.6,9.1,24.6,20.3,24.6h0c11.2,0,20.3-11,20.3-24.6v-25.5
					c-0.2-0.6-0.8-1-1.3-0.9C165,240,164.7,240.3,164.6,240.8z"/>
				<linearGradient id="SVGID_11_" gradientUnits="userSpaceOnUse" x1="146.7734" y1="270.6055" x2="147.2641" y2="199.2104">
					<stop  offset="0" style="stop-color:#2E53A7"/>
					<stop  offset="1" style="stop-color:#2A4EA7"/>
				</linearGradient>
				<path class="st12" d="M165,241.7v24.6c0,12.3-8.1,22.3-18.1,22.3c-10,0-18.1-10-18.1-22.3v-24.6c-0.1-0.4-0.4-0.8-0.9-0.9
					c-0.5-0.1-1.1,0.3-1.3,0.9c0,8.5,0,17,0,25.5c0,13.6,9.1,24.6,20.3,24.6h0c11.2,0,20.3-11,20.3-24.6v-25.5
					c-0.2-0.6-0.8-1-1.3-0.9C165.5,240.9,165.1,241.2,165,241.7z"/>
				<linearGradient id="SVGID_12_" gradientUnits="userSpaceOnUse" x1="147.2282" y1="271.499" x2="147.7189" y2="200.1039">
					<stop  offset="0" style="stop-color:#2F54A8"/>
					<stop  offset="1" style="stop-color:#2B4EA8"/>
				</linearGradient>
				<path class="st13" d="M165.5,242.6v24.6c0,12.3-8.1,22.3-18.1,22.3c-10,0-18.1-10-18.1-22.3v-24.6c-0.1-0.4-0.4-0.8-0.9-0.9
					c-0.5-0.1-1.1,0.3-1.3,0.9c0,8.5,0,17,0,25.5c0,13.6,9.1,24.6,20.3,24.6h0c11.2,0,20.3-11,20.3-24.6v-25.5
					c-0.2-0.6-0.8-1-1.3-0.9C165.9,241.8,165.6,242.1,165.5,242.6z"/>
				<linearGradient id="SVGID_13_" gradientUnits="userSpaceOnUse" x1="147.6831" y1="272.3926" x2="148.1738" y2="200.9975">
					<stop  offset="0" style="stop-color:#3154A9"/>
					<stop  offset="1" style="stop-color:#2B4EA9"/>
				</linearGradient>
				<path class="st14" d="M165.9,243.5V268c0,12.3-8.1,22.3-18.1,22.3c-10,0-18.1-10-18.1-22.3v-24.6c-0.1-0.4-0.4-0.8-0.9-0.9
					c-0.5-0.1-1.1,0.3-1.3,0.9c0,8.5,0,17,0,25.5c0,13.6,9.1,24.6,20.3,24.6h0c11.2,0,20.3-11,20.3-24.6v-25.5
					c-0.2-0.6-0.8-1-1.3-0.9C166.4,242.7,166.1,243,165.9,243.5z"/>
				<linearGradient id="SVGID_14_" gradientUnits="userSpaceOnUse" x1="148.1379" y1="273.2861" x2="148.6286" y2="201.8911">
					<stop  offset="0" style="stop-color:#3255AB"/>
					<stop  offset="1" style="stop-color:#2C4EAB"/>
				</linearGradient>
				<path class="st15" d="M166.4,244.3v24.6c0,12.3-8.1,22.3-18.1,22.3c-10,0-18.1-10-18.1-22.3v-24.6c-0.1-0.4-0.4-0.8-0.9-0.9
					c-0.5-0.1-1.1,0.3-1.3,0.9c0,8.5,0,17,0,25.5c0,13.6,9.1,24.6,20.3,24.6h0c11.2,0,20.3-11,20.3-24.6v-25.5
					c-0.2-0.6-0.8-1-1.3-0.9C166.8,243.6,166.5,243.9,166.4,244.3z"/>
				<linearGradient id="SVGID_15_" gradientUnits="userSpaceOnUse" x1="148.5927" y1="274.1797" x2="149.0834" y2="202.7846">
					<stop  offset="0" style="stop-color:#3456AC"/>
					<stop  offset="1" style="stop-color:#2D4EAC"/>
				</linearGradient>
				<path class="st16" d="M166.9,245.2v24.6c0,12.3-8.1,22.3-18.1,22.3c-10,0-18.1-10-18.1-22.3v-24.6c-0.1-0.4-0.4-0.8-0.9-0.9
					c-0.5-0.1-1.1,0.3-1.3,0.9c0,8.5,0,17,0,25.5c0,13.6,9.1,24.6,20.3,24.6h0c11.2,0,20.3-11,20.3-24.6v-25.5
					c-0.2-0.6-0.8-1-1.3-0.9C167.3,244.4,167,244.8,166.9,245.2z"/>
				<linearGradient id="SVGID_16_" gradientUnits="userSpaceOnUse" x1="149.0476" y1="275.0732" x2="149.5383" y2="203.6781">
					<stop  offset="0" style="stop-color:#3557AD"/>
					<stop  offset="1" style="stop-color:#2E4EAD"/>
				</linearGradient>
				<path class="st17" d="M167.3,246.1v24.6c0,12.3-8.1,22.3-18.1,22.3c-10,0-18.1-10-18.1-22.3v-24.6c-0.1-0.4-0.4-0.8-0.9-0.9
					c-0.5-0.1-1.1,0.3-1.3,0.9c0,8.5,0,17,0,25.5c0,13.6,9.1,24.6,20.3,24.6h0c11.2,0,20.3-11,20.3-24.6v-25.5
					c-0.2-0.6-0.8-1-1.3-0.9C167.8,245.3,167.4,245.7,167.3,246.1z"/>
				<linearGradient id="SVGID_17_" gradientUnits="userSpaceOnUse" x1="149.5024" y1="275.9668" x2="149.9931" y2="204.5717">
					<stop  offset="0" style="stop-color:#3758AE"/>
					<stop  offset="1" style="stop-color:#2E4EAE"/>
				</linearGradient>
				<path class="st18" d="M167.8,247v24.6c0,12.3-8.1,22.3-18.1,22.3c-10,0-18.1-10-18.1-22.3V247c-0.1-0.4-0.4-0.8-0.9-0.9
					c-0.5-0.1-1.1,0.3-1.3,0.9c0,8.5,0,17,0,25.5c0,13.6,9.1,24.6,20.3,24.6h0c11.2,0,20.3-11,20.3-24.6V247c-0.2-0.6-0.8-1-1.3-0.9
					C168.2,246.2,167.9,246.6,167.8,247z"/>
				<linearGradient id="SVGID_18_" gradientUnits="userSpaceOnUse" x1="149.9573" y1="276.8603" x2="150.448" y2="205.4653">
					<stop  offset="0" style="stop-color:#3859AF"/>
					<stop  offset="1" style="stop-color:#2F4EAF"/>
				</linearGradient>
				<path class="st19" d="M168.2,247.9v24.6c0,12.3-8.1,22.3-18.1,22.3s-18.1-10-18.1-22.3v-24.6c-0.1-0.4-0.4-0.8-0.9-0.9
					c-0.5-0.1-1.1,0.3-1.3,0.9c0,8.5,0,17,0,25.5c0,13.6,9.1,24.6,20.3,24.6h0c11.2,0,20.3-11,20.3-24.6v-25.5
					c-0.2-0.6-0.8-1-1.3-0.9C168.7,247.1,168.3,247.5,168.2,247.9z"/>
				<linearGradient id="SVGID_19_" gradientUnits="userSpaceOnUse" x1="150.4121" y1="277.7539" x2="150.9028" y2="206.3588">
					<stop  offset="0" style="stop-color:#3A5AB0"/>
					<stop  offset="1" style="stop-color:#304EB0"/>
				</linearGradient>
				<path class="st20" d="M168.7,248.8v24.6c0,12.3-8.1,22.3-18.1,22.3c-10,0-18.1-10-18.1-22.3v-24.6c-0.1-0.4-0.4-0.8-0.9-0.9
					c-0.5-0.1-1.1,0.3-1.3,0.9c0,8.5,0,17,0,25.5c0,13.6,9.1,24.6,20.3,24.6h0c11.2,0,20.3-11,20.3-24.6v-25.5
					c-0.2-0.6-0.8-1-1.3-0.9C169.1,248,168.8,248.4,168.7,248.8z"/>
				<linearGradient id="SVGID_20_" gradientUnits="userSpaceOnUse" x1="150.8669" y1="278.6474" x2="151.3576" y2="207.2523">
					<stop  offset="0" style="stop-color:#3B5BB1"/>
					<stop  offset="1" style="stop-color:#314EB1"/>
				</linearGradient>
				<path class="st21" d="M169.1,249.7v24.6c0,12.3-8.1,22.3-18.1,22.3c-10,0-18.1-10-18.1-22.3v-24.6c-0.1-0.4-0.4-0.8-0.9-0.9
					c-0.5-0.1-1.1,0.3-1.3,0.9c0,8.5,0,17,0,25.5c0,13.6,9.1,24.6,20.3,24.6h0c11.2,0,20.3-11,20.3-24.6v-25.5
					c-0.2-0.6-0.8-1-1.3-0.9C169.6,248.9,169.2,249.3,169.1,249.7z"/>
				<linearGradient id="SVGID_21_" gradientUnits="userSpaceOnUse" x1="151.3218" y1="279.541" x2="151.8125" y2="208.1459">
					<stop  offset="0" style="stop-color:#3D5CB2"/>
					<stop  offset="1" style="stop-color:#324EB2"/>
				</linearGradient>
				<path class="st22" d="M169.6,250.6v24.6c0,12.3-8.1,22.3-18.1,22.3c-10,0-18.1-10-18.1-22.3v-24.6c-0.1-0.4-0.4-0.8-0.9-0.9
					c-0.5-0.1-1.1,0.3-1.3,0.9c0,8.5,0,17,0,25.5c0,13.6,9.1,24.6,20.3,24.6h0c11.2,0,20.3-11,20.3-24.6v-25.5
					c-0.2-0.6-0.8-1-1.3-0.9C170,249.8,169.7,250.2,169.6,250.6z"/>
				<linearGradient id="SVGID_22_" gradientUnits="userSpaceOnUse" x1="151.7766" y1="280.4345" x2="152.2673" y2="209.0395">
					<stop  offset="0" style="stop-color:#3E5DB3"/>
					<stop  offset="1" style="stop-color:#324FB3"/>
				</linearGradient>
				<path class="st23" d="M170,251.5v24.6c0,12.3-8.1,22.3-18.1,22.3c-10,0-18.1-10-18.1-22.3v-24.6c-0.1-0.4-0.4-0.8-0.9-0.9
					c-0.5-0.1-1.1,0.3-1.3,0.9c0,8.5,0,17,0,25.5c0,13.6,9.1,24.6,20.3,24.6h0c11.2,0,20.3-11,20.3-24.6v-25.5
					c-0.2-0.6-0.8-1-1.3-0.9C170.5,250.7,170.1,251,170,251.5z"/>
				<linearGradient id="SVGID_23_" gradientUnits="userSpaceOnUse" x1="152.2315" y1="281.3281" x2="152.7222" y2="209.933">
					<stop  offset="0" style="stop-color:#405EB4"/>
					<stop  offset="1" style="stop-color:#334FB4"/>
				</linearGradient>
				<path class="st24" d="M170.5,252.4V277c0,12.3-8.1,22.3-18.1,22.3c-10,0-18.1-10-18.1-22.3v-24.6c-0.1-0.4-0.4-0.8-0.9-0.9
					c-0.5-0.1-1.1,0.3-1.3,0.9c0,8.5,0,17,0,25.5c0,13.6,9.1,24.6,20.3,24.6h0c11.2,0,20.3-11,20.3-24.6v-25.5
					c-0.2-0.6-0.8-1-1.3-0.9C170.9,251.6,170.6,251.9,170.5,252.4z"/>
				<linearGradient id="SVGID_24_" gradientUnits="userSpaceOnUse" x1="152.6863" y1="282.2216" x2="153.177" y2="210.8266">
					<stop  offset="0" style="stop-color:#415FB5"/>
					<stop  offset="1" style="stop-color:#344FB5"/>
				</linearGradient>
				<path class="st25" d="M170.9,253.3v24.6c0,12.3-8.1,22.3-18.1,22.3c-10,0-18.1-10-18.1-22.3v-24.6c-0.1-0.4-0.4-0.8-0.9-0.9
					c-0.5-0.1-1.1,0.3-1.3,0.9c0,8.5,0,17,0,25.5c0,13.6,9.1,24.6,20.3,24.6h0c11.2,0,20.3-11,20.3-24.6v-25.5
					c-0.2-0.6-0.8-1-1.3-0.9C171.4,252.5,171.1,252.8,170.9,253.3z"/>
				<linearGradient id="SVGID_25_" gradientUnits="userSpaceOnUse" x1="153.1411" y1="283.1152" x2="153.6318" y2="211.7201">
					<stop  offset="0" style="stop-color:#4360B6"/>
					<stop  offset="1" style="stop-color:#354FB6"/>
				</linearGradient>
				<path class="st26" d="M171.4,254.2v24.6c0,12.3-8.1,22.3-18.1,22.3c-10,0-18.1-10-18.1-22.3v-24.6c-0.1-0.4-0.4-0.8-0.9-0.9
					c-0.5-0.1-1.1,0.3-1.3,0.9c0,8.5,0,17,0,25.5c0,13.6,9.1,24.6,20.3,24.6h0c11.2,0,20.3-11,20.3-24.6v-25.5
					c-0.2-0.6-0.8-1-1.3-0.9C171.8,253.4,171.5,253.7,171.4,254.2z"/>
				<linearGradient id="SVGID_26_" gradientUnits="userSpaceOnUse" x1="153.596" y1="284.0087" x2="154.0867" y2="212.6137">
					<stop  offset="0" style="stop-color:#4461B7"/>
					<stop  offset="1" style="stop-color:#364FB7"/>
				</linearGradient>
				<path class="st27" d="M171.9,255.1v24.6c0,12.3-8.1,22.3-18.1,22.3s-18.1-10-18.1-22.3v-24.6c-0.1-0.4-0.4-0.8-0.9-0.9
					c-0.5-0.1-1.1,0.3-1.3,0.9c0,8.5,0,17,0,25.5c0,13.6,9.1,24.6,20.3,24.6h0c11.2,0,20.3-11,20.3-24.6v-25.5
					c-0.2-0.6-0.8-1-1.3-0.9C172.3,254.3,172,254.6,171.9,255.1z"/>
				<linearGradient id="SVGID_27_" gradientUnits="userSpaceOnUse" x1="154.0508" y1="284.9023" x2="154.5415" y2="213.5072">
					<stop  offset="0" style="stop-color:#4662B8"/>
					<stop  offset="1" style="stop-color:#364FB8"/>
				</linearGradient>
				<path class="st28" d="M172.3,256v24.6c0,12.3-8.1,22.3-18.1,22.3c-10,0-18.1-10-18.1-22.3V256c-0.1-0.4-0.4-0.8-0.9-0.9
					c-0.5-0.1-1.1,0.3-1.3,0.9c0,8.5,0,17,0,25.5c0,13.6,9.1,24.6,20.3,24.6h0c11.2,0,20.3-11,20.3-24.6V256c-0.2-0.6-0.8-1-1.3-0.9
					C172.8,255.2,172.4,255.5,172.3,256z"/>
				<linearGradient id="SVGID_28_" gradientUnits="userSpaceOnUse" x1="154.5057" y1="285.7958" x2="154.9964" y2="214.4008">
					<stop  offset="0" style="stop-color:#4762B9"/>
					<stop  offset="1" style="stop-color:#374FB9"/>
				</linearGradient>
				<path class="st29" d="M172.8,256.9v24.6c0,12.3-8.1,22.3-18.1,22.3c-10,0-18.1-10-18.1-22.3v-24.6c-0.1-0.4-0.4-0.8-0.9-0.9
					c-0.5-0.1-1.1,0.3-1.3,0.9c0,8.5,0,17,0,25.5c0,13.6,9.1,24.6,20.3,24.6h0c11.2,0,20.3-11,20.3-24.6v-25.5
					c-0.2-0.6-0.8-1-1.3-0.9C173.2,256.1,172.9,256.4,172.8,256.9z"/>
				<linearGradient id="SVGID_29_" gradientUnits="userSpaceOnUse" x1="154.9605" y1="286.6894" x2="155.4512" y2="215.2943">
					<stop  offset="0" style="stop-color:#4963BA"/>
					<stop  offset="1" style="stop-color:#384FBA"/>
				</linearGradient>
				<path class="st30" d="M173.2,257.8v24.6c0,12.3-8.1,22.3-18.1,22.3c-10,0-18.1-10-18.1-22.3v-24.6c-0.1-0.4-0.4-0.8-0.9-0.9
					c-0.5-0.1-1.1,0.3-1.3,0.9c0,8.5,0,17,0,25.5c0,13.6,9.1,24.6,20.3,24.6h0c11.2,0,20.3-11,20.3-24.6v-25.5
					c-0.2-0.6-0.8-1-1.3-0.9C173.7,257,173.3,257.3,173.2,257.8z"/>
				<linearGradient id="SVGID_30_" gradientUnits="userSpaceOnUse" x1="155.4153" y1="287.5829" x2="155.906" y2="216.1879">
					<stop  offset="0" style="stop-color:#4A64BB"/>
					<stop  offset="1" style="stop-color:#394FBB"/>
				</linearGradient>
				<path class="st31" d="M173.7,258.6v24.6c0,12.3-8.1,22.3-18.1,22.3c-10,0-18.1-10-18.1-22.3v-24.6c-0.1-0.4-0.4-0.8-0.9-0.9
					c-0.5-0.1-1.1,0.3-1.3,0.9c0,8.5,0,17,0,25.5c0,13.6,9.1,24.6,20.3,24.6h0c11.2,0,20.3-11,20.3-24.6v-25.5
					c-0.2-0.6-0.8-1-1.3-0.9C174.1,257.9,173.8,258.2,173.7,258.6z"/>
				<linearGradient id="SVGID_31_" gradientUnits="userSpaceOnUse" x1="155.8702" y1="288.4765" x2="156.3609" y2="217.0814">
					<stop  offset="0" style="stop-color:#4C65BC"/>
					<stop  offset="1" style="stop-color:#394FBC"/>
				</linearGradient>
				<path class="st32" d="M174.1,259.5v24.6c0,12.3-8.1,22.3-18.1,22.3c-10,0-18.1-10-18.1-22.3v-24.6c-0.1-0.4-0.4-0.8-0.9-0.9
					c-0.5-0.1-1.1,0.3-1.3,0.9c0,8.5,0,17,0,25.5c0,13.6,9.1,24.6,20.3,24.6h0c11.2,0,20.3-11,20.3-24.6v-25.5
					c-0.2-0.6-0.8-1-1.3-0.9C174.6,258.7,174.2,259.1,174.1,259.5z"/>
				<linearGradient id="SVGID_32_" gradientUnits="userSpaceOnUse" x1="156.325" y1="289.37" x2="156.8157" y2="217.975">
					<stop  offset="0" style="stop-color:#4D66BE"/>
					<stop  offset="1" style="stop-color:#3A4FBE"/>
				</linearGradient>
				<path class="st33" d="M174.6,260.4V285c0,12.3-8.1,22.3-18.1,22.3c-10,0-18.1-10-18.1-22.3v-24.6c-0.1-0.4-0.4-0.8-0.9-0.9
					c-0.5-0.1-1.1,0.3-1.3,0.9c0,8.5,0,17,0,25.5c0,13.6,9.1,24.6,20.3,24.6h0c11.2,0,20.3-11,20.3-24.6v-25.5
					c-0.2-0.6-0.8-1-1.3-0.9C175,259.6,174.7,260,174.6,260.4z"/>
				<linearGradient id="SVGID_33_" gradientUnits="userSpaceOnUse" x1="156.7799" y1="290.2636" x2="157.2705" y2="218.8685">
					<stop  offset="0" style="stop-color:#4F67BF"/>
					<stop  offset="1" style="stop-color:#3B50BF"/>
				</linearGradient>
				<path class="st34" d="M175,261.3v24.6c0,12.3-8.1,22.3-18.1,22.3c-10,0-18.1-10-18.1-22.3v-24.6c-0.1-0.4-0.4-0.8-0.9-0.9
					c-0.5-0.1-1.1,0.3-1.3,0.9c0,8.5,0,17,0,25.5c0,13.6,9.1,24.6,20.3,24.6h0c11.2,0,20.3-11,20.3-24.6v-25.5
					c-0.2-0.6-0.8-1-1.3-0.9C175.5,260.5,175.1,260.9,175,261.3z"/>
				<linearGradient id="SVGID_34_" gradientUnits="userSpaceOnUse" x1="157.2347" y1="291.1571" x2="157.7254" y2="219.7621">
					<stop  offset="0" style="stop-color:#5068C0"/>
					<stop  offset="1" style="stop-color:#3C50C0"/>
				</linearGradient>
				<path class="st35" d="M175.5,262.2v24.6c0,12.3-8.1,22.3-18.1,22.3c-10,0-18.1-10-18.1-22.3v-24.6c-0.1-0.4-0.4-0.8-0.9-0.9
					c-0.5-0.1-1.1,0.3-1.3,0.9c0,8.5,0,17,0,25.5c0,13.6,9.1,24.6,20.3,24.6h0c11.2,0,20.3-11,20.3-24.6v-25.5
					c-0.2-0.6-0.8-1-1.3-0.9C175.9,261.4,175.6,261.8,175.5,262.2z"/>
				<linearGradient id="SVGID_35_" gradientUnits="userSpaceOnUse" x1="157.6895" y1="292.0507" x2="158.1802" y2="220.6556">
					<stop  offset="0" style="stop-color:#5269C1"/>
					<stop  offset="1" style="stop-color:#3D50C1"/>
				</linearGradient>
				<path class="st36" d="M175.9,263.1v24.6c0,12.3-8.1,22.3-18.1,22.3c-10,0-18.1-10-18.1-22.3v-24.6c-0.1-0.4-0.4-0.8-0.9-0.9
					c-0.5-0.1-1.1,0.3-1.3,0.9c0,8.5,0,17,0,25.5c0,13.6,9.1,24.6,20.3,24.6h0c11.2,0,20.3-11,20.3-24.6v-25.5
					c-0.2-0.6-0.8-1-1.3-0.9C176.4,262.3,176.1,262.7,175.9,263.1z"/>
				<linearGradient id="SVGID_36_" gradientUnits="userSpaceOnUse" x1="158.1444" y1="292.9442" x2="158.6351" y2="221.5492">
					<stop  offset="0" style="stop-color:#536AC2"/>
					<stop  offset="1" style="stop-color:#3D50C2"/>
				</linearGradient>
				<path class="st37" d="M176.4,264v24.6c0,12.3-8.1,22.3-18.1,22.3c-10,0-18.1-10-18.1-22.3V264c-0.1-0.4-0.4-0.8-0.9-0.9
					c-0.5-0.1-1.1,0.3-1.3,0.9c0,8.5,0,17,0,25.5c0,13.6,9.1,24.6,20.3,24.6h0c11.2,0,20.3-11,20.3-24.6V264c-0.2-0.6-0.8-1-1.3-0.9
					C176.8,263.2,176.5,263.6,176.4,264z"/>
				<linearGradient id="SVGID_37_" gradientUnits="userSpaceOnUse" x1="158.5992" y1="293.8378" x2="159.0899" y2="222.4427">
					<stop  offset="0" style="stop-color:#556BC3"/>
					<stop  offset="1" style="stop-color:#3E50C3"/>
				</linearGradient>
				<path class="st38" d="M176.9,264.9v24.6c0,12.3-8.1,22.3-18.1,22.3s-18.1-10-18.1-22.3v-24.6c-0.1-0.4-0.4-0.8-0.9-0.9
					c-0.5-0.1-1.1,0.3-1.3,0.9c0,8.5,0,17,0,25.5c0,13.6,9.1,24.6,20.3,24.6h0c11.2,0,20.3-11,20.3-24.6v-25.5
					c-0.2-0.6-0.8-1-1.3-0.9C177.3,264.1,177,264.5,176.9,264.9z"/>
				<linearGradient id="SVGID_38_" gradientUnits="userSpaceOnUse" x1="159.054" y1="294.7313" x2="159.5447" y2="223.3363">
					<stop  offset="0" style="stop-color:#566CC4"/>
					<stop  offset="1" style="stop-color:#3F50C4"/>
				</linearGradient>
				<path class="st39" d="M177.3,265.8v24.6c0,12.3-8.1,22.3-18.1,22.3c-10,0-18.1-10-18.1-22.3v-24.6c-0.1-0.4-0.4-0.8-0.9-0.9
					c-0.5-0.1-1.1,0.3-1.3,0.9c0,8.5,0,17,0,25.5c0,13.6,9.1,24.6,20.3,24.6h0c11.2,0,20.3-11,20.3-24.6v-25.5
					c-0.2-0.6-0.8-1-1.3-0.9C177.8,265,177.4,265.3,177.3,265.8z"/>
				<linearGradient id="SVGID_39_" gradientUnits="userSpaceOnUse" x1="159.5089" y1="295.6249" x2="159.9996" y2="224.2298">
					<stop  offset="0" style="stop-color:#586DC5"/>
					<stop  offset="1" style="stop-color:#4050C5"/>
				</linearGradient>
				<path class="st40" d="M177.8,266.7v24.6c0,12.3-8.1,22.3-18.1,22.3c-10,0-18.1-10-18.1-22.3v-24.6c-0.1-0.4-0.4-0.8-0.9-0.9
					c-0.5-0.1-1.1,0.3-1.3,0.9c0,8.5,0,17,0,25.5c0,13.6,9.1,24.6,20.3,24.6h0c11.2,0,20.3-11,20.3-24.6v-25.5
					c-0.2-0.6-0.8-1-1.3-0.9C178.2,265.9,177.9,266.2,177.8,266.7z"/>
				<linearGradient id="SVGID_40_" gradientUnits="userSpaceOnUse" x1="159.9637" y1="296.5184" x2="160.4544" y2="225.1234">
					<stop  offset="0" style="stop-color:#596EC6"/>
					<stop  offset="1" style="stop-color:#4150C6"/>
				</linearGradient>
				<path class="st41" d="M178.2,267.6v24.6c0,12.3-8.1,22.3-18.1,22.3c-10,0-18.1-10-18.1-22.3v-24.6c-0.1-0.4-0.4-0.8-0.9-0.9
					c-0.5-0.1-1.1,0.3-1.3,0.9c0,8.5,0,17,0,25.5c0,13.6,9.1,24.6,20.3,24.6h0c11.2,0,20.3-11,20.3-24.6v-25.5
					c-0.2-0.6-0.8-1-1.3-0.9C178.7,266.8,178.3,267.1,178.2,267.6z"/>
				<linearGradient id="SVGID_41_" gradientUnits="userSpaceOnUse" x1="160.4186" y1="297.412" x2="160.9093" y2="226.0169">
					<stop  offset="0" style="stop-color:#5B6FC7"/>
					<stop  offset="1" style="stop-color:#4150C7"/>
				</linearGradient>
				<path class="st42" d="M178.7,268.5v24.6c0,12.3-8.1,22.3-18.1,22.3c-10,0-18.1-10-18.1-22.3v-24.6c-0.1-0.4-0.4-0.8-0.9-0.9
					c-0.5-0.1-1.1,0.3-1.3,0.9c0,8.5,0,17,0,25.5c0,13.6,9.1,24.6,20.3,24.6h0c11.2,0,20.3-11,20.3-24.6v-25.5
					c-0.2-0.6-0.8-1-1.3-0.9C179.1,267.7,178.8,268,178.7,268.5z"/>
				<linearGradient id="SVGID_42_" gradientUnits="userSpaceOnUse" x1="160.8734" y1="298.3055" x2="161.3641" y2="226.9105">
					<stop  offset="0" style="stop-color:#5C70C8"/>
					<stop  offset="1" style="stop-color:#4250C8"/>
				</linearGradient>
				<path class="st43" d="M179.1,269.4V294c0,12.3-8.1,22.3-18.1,22.3c-10,0-18.1-10-18.1-22.3v-24.6c-0.1-0.4-0.4-0.8-0.9-0.9
					c-0.5-0.1-1.1,0.3-1.3,0.9c0,8.5,0,17,0,25.5c0,13.6,9.1,24.6,20.3,24.6h0c11.2,0,20.3-11,20.3-24.6v-25.5
					c-0.2-0.6-0.8-1-1.3-0.9C179.6,268.6,179.2,268.9,179.1,269.4z"/>
				<linearGradient id="SVGID_43_" gradientUnits="userSpaceOnUse" x1="161.3282" y1="299.1991" x2="161.8189" y2="227.804">
					<stop  offset="0" style="stop-color:#5E70C9"/>
					<stop  offset="1" style="stop-color:#4350C9"/>
				</linearGradient>
				<path class="st44" d="M179.6,270.3v24.6c0,12.3-8.1,22.3-18.1,22.3c-10,0-18.1-10-18.1-22.3v-24.6c-0.1-0.4-0.4-0.8-0.9-0.9
					c-0.5-0.1-1.1,0.3-1.3,0.9c0,8.5,0,17,0,25.5c0,13.6,9.1,24.6,20.3,24.6h0c11.2,0,20.3-11,20.3-24.6v-25.5
					c-0.2-0.6-0.8-1-1.3-0.9C180,269.5,179.7,269.8,179.6,270.3z"/>
				<linearGradient id="SVGID_44_" gradientUnits="userSpaceOnUse" x1="161.7831" y1="300.0927" x2="162.2738" y2="228.6976">
					<stop  offset="0" style="stop-color:#5F71CA"/>
					<stop  offset="1" style="stop-color:#4451CA"/>
				</linearGradient>
				<path class="st45" d="M180,271.2v24.6c0,12.3-8.1,22.3-18.1,22.3c-10,0-18.1-10-18.1-22.3v-24.6c-0.1-0.4-0.4-0.8-0.9-0.9
					c-0.5-0.1-1.1,0.3-1.3,0.9c0,8.5,0,17,0,25.5c0,13.6,9.1,24.6,20.3,24.6h0c11.2,0,20.3-11,20.3-24.6v-25.5
					c-0.2-0.6-0.8-1-1.3-0.9C180.5,270.4,180.2,270.7,180,271.2z"/>
				<linearGradient id="SVGID_45_" gradientUnits="userSpaceOnUse" x1="162.2379" y1="300.9862" x2="162.7286" y2="229.5911">
					<stop  offset="0" style="stop-color:#6172CB"/>
					<stop  offset="1" style="stop-color:#4451CB"/>
				</linearGradient>
				<path class="st46" d="M180.5,272v24.6c0,12.3-8.1,22.3-18.1,22.3s-18.1-10-18.1-22.3V272c-0.1-0.4-0.4-0.8-0.9-0.9
					c-0.5-0.1-1.1,0.3-1.3,0.9c0,8.5,0,17,0,25.5c0,13.6,9.1,24.6,20.3,24.6h0c11.2,0,20.3-11,20.3-24.6V272c-0.2-0.6-0.8-1-1.3-0.9
					C180.9,271.3,180.6,271.6,180.5,272z"/>
				<linearGradient id="SVGID_46_" gradientUnits="userSpaceOnUse" x1="162.6928" y1="301.8797" x2="163.1835" y2="230.4847">
					<stop  offset="0" style="stop-color:#6273CC"/>
					<stop  offset="1" style="stop-color:#4551CC"/>
				</linearGradient>
				<path class="st47" d="M181,272.9v24.6c0,12.3-8.1,22.3-18.1,22.3c-10,0-18.1-10-18.1-22.3v-24.6c-0.1-0.4-0.4-0.8-0.9-0.9
					c-0.5-0.1-1.1,0.3-1.3,0.9c0,8.5,0,17,0,25.5c0,13.6,9.1,24.6,20.3,24.6h0c11.2,0,20.3-11,20.3-24.6v-25.5
					c-0.2-0.6-0.8-1-1.3-0.9C181.4,272.1,181.1,272.5,181,272.9z"/>
				<linearGradient id="SVGID_47_" gradientUnits="userSpaceOnUse" x1="163.1476" y1="302.7733" x2="163.6383" y2="231.3782">
					<stop  offset="0" style="stop-color:#6474CD"/>
					<stop  offset="1" style="stop-color:#4651CD"/>
				</linearGradient>
				<path class="st48" d="M181.4,273.8v24.6c0,12.3-8.1,22.3-18.1,22.3c-10,0-18.1-10-18.1-22.3v-24.6c-0.1-0.4-0.4-0.8-0.9-0.9
					c-0.5-0.1-1.1,0.3-1.3,0.9c0,8.5,0,17,0,25.5c0,13.6,9.1,24.6,20.3,24.6h0c11.2,0,20.3-11,20.3-24.6v-25.5
					c-0.2-0.6-0.8-1-1.3-0.9C181.9,273,181.5,273.4,181.4,273.8z"/>
				<linearGradient id="SVGID_48_" gradientUnits="userSpaceOnUse" x1="163.6024" y1="303.6668" x2="164.0931" y2="232.2718">
					<stop  offset="0" style="stop-color:#6575CE"/>
					<stop  offset="1" style="stop-color:#4751CE"/>
				</linearGradient>
				<path class="st49" d="M181.9,274.7v24.6c0,12.3-8.1,22.3-18.1,22.3c-10,0-18.1-10-18.1-22.3v-24.6c-0.1-0.4-0.4-0.8-0.9-0.9
					c-0.5-0.1-1.1,0.3-1.3,0.9c0,8.5,0,17,0,25.5c0,13.6,9.1,24.6,20.3,24.6h0c11.2,0,20.3-11,20.3-24.6v-25.5
					c-0.2-0.6-0.8-1-1.3-0.9C182.3,273.9,182,274.3,181.9,274.7z"/>
				<linearGradient id="SVGID_49_" gradientUnits="userSpaceOnUse" x1="164.0573" y1="304.5604" x2="164.548" y2="233.1653">
					<stop  offset="0" style="stop-color:#6776CF"/>
					<stop  offset="1" style="stop-color:#4851CF"/>
				</linearGradient>
				<path class="st50" d="M182.3,275.6v24.6c0,12.3-8.1,22.3-18.1,22.3c-10,0-18.1-10-18.1-22.3v-24.6c-0.1-0.4-0.4-0.8-0.9-0.9
					c-0.5-0.1-1.1,0.3-1.3,0.9c0,8.5,0,17,0,25.5c0,13.6,9.1,24.6,20.3,24.6h0c11.2,0,20.3-11,20.3-24.6v-25.5
					c-0.2-0.6-0.8-1-1.3-0.9C182.8,274.8,182.4,275.2,182.3,275.6z"/>
				<linearGradient id="SVGID_50_" gradientUnits="userSpaceOnUse" x1="164.5121" y1="305.4539" x2="165.0028" y2="234.0589">
					<stop  offset="0" style="stop-color:#6877D1"/>
					<stop  offset="1" style="stop-color:#4851D1"/>
				</linearGradient>
				<path class="st51" d="M182.8,276.5v24.6c0,12.3-8.1,22.3-18.1,22.3c-10,0-18.1-10-18.1-22.3v-24.6c-0.1-0.4-0.4-0.8-0.9-0.9
					c-0.5-0.1-1.1,0.3-1.3,0.9c0,8.5,0,17,0,25.5c0,13.6,9.1,24.6,20.3,24.6h0c11.2,0,20.3-11,20.3-24.6v-25.5
					c-0.2-0.6-0.8-1-1.3-0.9C183.2,275.7,182.9,276.1,182.8,276.5z"/>
				<linearGradient id="SVGID_51_" gradientUnits="userSpaceOnUse" x1="164.967" y1="306.3475" x2="165.4577" y2="234.9524">
					<stop  offset="0" style="stop-color:#6A78D2"/>
					<stop  offset="1" style="stop-color:#4951D2"/>
				</linearGradient>
				<path class="st52" d="M183.2,277.4V302c0,12.3-8.1,22.3-18.1,22.3c-10,0-18.1-10-18.1-22.3v-24.6c-0.1-0.4-0.4-0.8-0.9-0.9
					c-0.5-0.1-1.1,0.3-1.3,0.9c0,8.5,0,17,0,25.5c0,13.6,9.1,24.6,20.3,24.6h0c11.2,0,20.3-11,20.3-24.6v-25.5
					c-0.2-0.6-0.8-1-1.3-0.9C183.7,276.6,183.3,277,183.2,277.4z"/>
				<linearGradient id="SVGID_52_" gradientUnits="userSpaceOnUse" x1="165.4218" y1="307.2411" x2="165.9125" y2="235.846">
					<stop  offset="0" style="stop-color:#6B79D3"/>
					<stop  offset="1" style="stop-color:#4A51D3"/>
				</linearGradient>
				<path class="st53" d="M183.7,278.3v24.6c0,12.3-8.1,22.3-18.1,22.3c-10,0-18.1-10-18.1-22.3v-24.6c-0.1-0.4-0.4-0.8-0.9-0.9
					c-0.5-0.1-1.1,0.3-1.3,0.9c0,8.5,0,17,0,25.5c0,13.6,9.1,24.6,20.3,24.6h0c11.2,0,20.3-11,20.3-24.6v-25.5
					c-0.2-0.6-0.8-1-1.3-0.9C184.1,277.5,183.8,277.9,183.7,278.3z"/>
				<linearGradient id="SVGID_53_" gradientUnits="userSpaceOnUse" x1="165.8766" y1="308.1346" x2="166.3673" y2="236.7395">
					<stop  offset="0" style="stop-color:#6D7AD4"/>
					<stop  offset="1" style="stop-color:#4B51D4"/>
				</linearGradient>
				<path class="st54" d="M184.1,279.2v24.6c0,12.3-8.1,22.3-18.1,22.3c-10,0-18.1-10-18.1-22.3v-24.6c-0.1-0.4-0.4-0.8-0.9-0.9
					c-0.5-0.1-1.1,0.3-1.3,0.9c0,8.5,0,17,0,25.5c0,13.6,9.1,24.6,20.3,24.6h0c11.2,0,20.3-11,20.3-24.6v-25.5
					c-0.2-0.6-0.8-1-1.3-0.9C184.6,278.4,184.2,278.7,184.1,279.2z"/>
				<linearGradient id="SVGID_54_" gradientUnits="userSpaceOnUse" x1="166.3315" y1="309.0281" x2="166.8222" y2="237.6331">
					<stop  offset="0" style="stop-color:#6E7BD5"/>
					<stop  offset="1" style="stop-color:#4C51D5"/>
				</linearGradient>
				<path class="st55" d="M184.6,280.1v24.6c0,12.3-8.1,22.3-18.1,22.3c-10,0-18.1-10-18.1-22.3v-24.6c-0.1-0.4-0.4-0.8-0.9-0.9
					c-0.5-0.1-1.1,0.3-1.3,0.9c0,8.5,0,17,0,25.5c0,13.6,9.1,24.6,20.3,24.6h0c11.2,0,20.3-11,20.3-24.6v-25.5
					c-0.2-0.6-0.8-1-1.3-0.9C185,279.3,184.7,279.6,184.6,280.1z"/>
				<linearGradient id="SVGID_55_" gradientUnits="userSpaceOnUse" x1="166.7863" y1="309.9217" x2="167.277" y2="238.5266">
					<stop  offset="0" style="stop-color:#707CD6"/>
					<stop  offset="1" style="stop-color:#4C51D6"/>
				</linearGradient>
				<path class="st56" d="M185,281v24.6c0,12.3-8.1,22.3-18.1,22.3c-10,0-18.1-10-18.1-22.3V281c-0.1-0.4-0.4-0.8-0.9-0.9
					c-0.5-0.1-1.1,0.3-1.3,0.9c0,8.5,0,17,0,25.5c0,13.6,9.1,24.6,20.3,24.6h0c11.2,0,20.3-11,20.3-24.6V281c-0.2-0.6-0.8-1-1.3-0.9
					C185.5,280.2,185.2,280.5,185,281z"/>
				<linearGradient id="SVGID_56_" gradientUnits="userSpaceOnUse" x1="167.2412" y1="310.8152" x2="167.7319" y2="239.4202">
					<stop  offset="0" style="stop-color:#717DD7"/>
					<stop  offset="1" style="stop-color:#4D52D7"/>
				</linearGradient>
				<path class="st57" d="M185.5,281.9v24.6c0,12.3-8.1,22.3-18.1,22.3s-18.1-10-18.1-22.3v-24.6c-0.1-0.4-0.4-0.8-0.9-0.9
					c-0.5-0.1-1.1,0.3-1.3,0.9c0,8.5,0,17,0,25.5c0,13.6,9.1,24.6,20.3,24.6h0c11.2,0,20.3-11,20.3-24.6v-25.5
					c-0.2-0.6-0.8-1-1.3-0.9C185.9,281.1,185.6,281.4,185.5,281.9z"/>
				<linearGradient id="SVGID_57_" gradientUnits="userSpaceOnUse" x1="167.696" y1="311.7088" x2="168.1867" y2="240.3137">
					<stop  offset="0" style="stop-color:#737DD8"/>
					<stop  offset="1" style="stop-color:#4E52D8"/>
				</linearGradient>
				<path class="st58" d="M186,282.8v24.6c0,12.3-8.1,22.3-18.1,22.3c-10,0-18.1-10-18.1-22.3v-24.6c-0.1-0.4-0.4-0.8-0.9-0.9
					c-0.5-0.1-1.1,0.3-1.3,0.9c0,8.5,0,17,0,25.5c0,13.6,9.1,24.6,20.3,24.6h0c11.2,0,20.3-11,20.3-24.6v-25.5
					c-0.2-0.6-0.8-1-1.3-0.9C186.4,282,186.1,282.3,186,282.8z"/>
				<linearGradient id="SVGID_58_" gradientUnits="userSpaceOnUse" x1="168.1508" y1="312.6024" x2="168.6415" y2="241.2073">
					<stop  offset="0" style="stop-color:#747ED9"/>
					<stop  offset="1" style="stop-color:#4F52D9"/>
				</linearGradient>
				<path class="st59" d="M186.4,283.7v24.6c0,12.3-8.1,22.3-18.1,22.3c-10,0-18.1-10-18.1-22.3v-24.6c-0.1-0.4-0.4-0.8-0.9-0.9
					c-0.5-0.1-1.1,0.3-1.3,0.9c0,8.5,0,17,0,25.5c0,13.6,9.1,24.6,20.3,24.6h0c11.2,0,20.3-11,20.3-24.6v-25.5
					c-0.2-0.6-0.8-1-1.3-0.9C186.9,282.9,186.5,283.2,186.4,283.7z"/>
				<linearGradient id="SVGID_59_" gradientUnits="userSpaceOnUse" x1="168.6057" y1="313.4959" x2="169.0964" y2="242.1008">
					<stop  offset="0" style="stop-color:#767FDA"/>
					<stop  offset="1" style="stop-color:#4F52DA"/>
				</linearGradient>
				<path class="st60" d="M186.9,284.6v24.6c0,12.3-8.1,22.3-18.1,22.3c-10,0-18.1-10-18.1-22.3v-24.6c-0.1-0.4-0.4-0.8-0.9-0.9
					c-0.5-0.1-1.1,0.3-1.3,0.9c0,8.5,0,17,0,25.5c0,13.6,9.1,24.6,20.3,24.6h0c11.2,0,20.3-11,20.3-24.6v-25.5
					c-0.2-0.6-0.8-1-1.3-0.9C187.3,283.8,187,284.1,186.9,284.6z"/>
				<linearGradient id="SVGID_60_" gradientUnits="userSpaceOnUse" x1="169.0605" y1="314.3895" x2="169.5512" y2="242.9944">
					<stop  offset="0" style="stop-color:#7780DB"/>
					<stop  offset="1" style="stop-color:#5052DB"/>
				</linearGradient>
				<path class="st61" d="M187.3,285.5V310c0,12.3-8.1,22.3-18.1,22.3c-10,0-18.1-10-18.1-22.3v-24.6c-0.1-0.4-0.4-0.8-0.9-0.9
					c-0.5-0.1-1.1,0.3-1.3,0.9c0,8.5,0,17,0,25.5c0,13.6,9.1,24.6,20.3,24.6h0c11.2,0,20.3-11,20.3-24.6v-25.5
					c-0.2-0.6-0.8-1-1.3-0.9C187.8,284.7,187.4,285,187.3,285.5z"/>
				<linearGradient id="SVGID_61_" gradientUnits="userSpaceOnUse" x1="169.5154" y1="315.283" x2="170.0061" y2="243.8879">
					<stop  offset="0" style="stop-color:#7981DC"/>
					<stop  offset="1" style="stop-color:#5152DC"/>
				</linearGradient>
				<path class="st62" d="M187.8,286.3v24.6c0,12.3-8.1,22.3-18.1,22.3c-10,0-18.1-10-18.1-22.3v-24.6c-0.1-0.4-0.4-0.8-0.9-0.9
					c-0.5-0.1-1.1,0.3-1.3,0.9c0,8.5,0,17,0,25.5c0,13.6,9.1,24.6,20.3,24.6h0c11.2,0,20.3-11,20.3-24.6v-25.5
					c-0.2-0.6-0.8-1-1.3-0.9C188.2,285.6,187.9,285.9,187.8,286.3z"/>
				<linearGradient id="SVGID_62_" gradientUnits="userSpaceOnUse" x1="169.9702" y1="316.1765" x2="170.4609" y2="244.7815">
					<stop  offset="0" style="stop-color:#7A82DD"/>
					<stop  offset="1" style="stop-color:#5252DD"/>
				</linearGradient>
				<path class="st63" d="M188.2,287.2v24.6c0,12.3-8.1,22.3-18.1,22.3c-10,0-18.1-10-18.1-22.3v-24.6c-0.1-0.4-0.4-0.8-0.9-0.9
					c-0.5-0.1-1.1,0.3-1.3,0.9c0,8.5,0,17,0,25.5c0,13.6,9.1,24.6,20.3,24.6h0c11.2,0,20.3-11,20.3-24.6v-25.5
					c-0.2-0.6-0.8-1-1.3-0.9C188.7,286.4,188.3,286.8,188.2,287.2z"/>
				<linearGradient id="SVGID_63_" gradientUnits="userSpaceOnUse" x1="170.425" y1="317.0701" x2="170.9157" y2="245.675">
					<stop  offset="0" style="stop-color:#7C83DE"/>
					<stop  offset="1" style="stop-color:#5352DE"/>
				</linearGradient>
				<path class="st64" d="M188.7,288.1v24.6c0,12.3-8.1,22.3-18.1,22.3c-10,0-18.1-10-18.1-22.3v-24.6c-0.1-0.4-0.4-0.8-0.9-0.9
					c-0.5-0.1-1.1,0.3-1.3,0.9c0,8.5,0,17,0,25.5c0,13.6,9.1,24.6,20.3,24.6h0c11.2,0,20.3-11,20.3-24.6v-25.5
					c-0.2-0.6-0.8-1-1.3-0.9C189.1,287.3,188.8,287.7,188.7,288.1z"/>
				<linearGradient id="SVGID_64_" gradientUnits="userSpaceOnUse" x1="170.8799" y1="317.9637" x2="171.3706" y2="246.5686">
					<stop  offset="0" style="stop-color:#7D84DF"/>
					<stop  offset="1" style="stop-color:#5352DF"/>
				</linearGradient>
				<path class="st65" d="M189.1,289v24.6c0,12.3-8.1,22.3-18.1,22.3s-18.1-10-18.1-22.3V289c-0.1-0.4-0.4-0.8-0.9-0.9
					c-0.5-0.1-1.1,0.3-1.3,0.9c0,8.5,0,17,0,25.5c0,13.6,9.1,24.6,20.3,24.6h0c11.2,0,20.3-11,20.3-24.6V289c-0.2-0.6-0.8-1-1.3-0.9
					C189.6,288.2,189.2,288.6,189.1,289z"/>
				<linearGradient id="SVGID_65_" gradientUnits="userSpaceOnUse" x1="171.3347" y1="318.8572" x2="171.8254" y2="247.4621">
					<stop  offset="0" style="stop-color:#7F85E0"/>
					<stop  offset="1" style="stop-color:#5452E0"/>
				</linearGradient>
				<path class="st66" d="M189.6,289.9v24.6c0,12.3-8.1,22.3-18.1,22.3c-10,0-18.1-10-18.1-22.3v-24.6c-0.1-0.4-0.4-0.8-0.9-0.9
					c-0.5-0.1-1.1,0.3-1.3,0.9c0,8.5,0,17,0,25.5c0,13.6,9.1,24.6,20.3,24.6h0c11.2,0,20.3-11,20.3-24.6v-25.5
					c-0.2-0.6-0.8-1-1.3-0.9C190,289.1,189.7,289.5,189.6,289.9z"/>
				<linearGradient id="SVGID_66_" gradientUnits="userSpaceOnUse" x1="171.7896" y1="319.7508" x2="172.2803" y2="248.3557">
					<stop  offset="0" style="stop-color:#8086E1"/>
					<stop  offset="1" style="stop-color:#5552E1"/>
				</linearGradient>
				<path class="st67" d="M190,290.8v24.6c0,12.3-8.1,22.3-18.1,22.3c-10,0-18.1-10-18.1-22.3v-24.6c-0.1-0.4-0.4-0.8-0.9-0.9
					c-0.5-0.1-1.1,0.3-1.3,0.9c0,8.5,0,17,0,25.5c0,13.6,9.1,24.6,20.3,24.6h0c11.2,0,20.3-11,20.3-24.6v-25.5
					c-0.2-0.6-0.8-1-1.3-0.9C190.5,290,190.2,290.4,190,290.8z"/>
				<linearGradient id="SVGID_67_" gradientUnits="userSpaceOnUse" x1="172.2444" y1="320.6443" x2="172.7351" y2="249.2492">
					<stop  offset="0" style="stop-color:#8287E2"/>
					<stop  offset="1" style="stop-color:#5653E2"/>
				</linearGradient>
				<path class="st68" d="M190.5,291.7v24.6c0,12.3-8.1,22.3-18.1,22.3c-10,0-18.1-10-18.1-22.3v-24.6c-0.1-0.4-0.4-0.8-0.9-0.9
					c-0.5-0.1-1.1,0.3-1.3,0.9c0,8.5,0,17,0,25.5c0,13.6,9.1,24.6,20.3,24.6h0c11.2,0,20.3-11,20.3-24.6v-25.5
					c-0.2-0.6-0.8-1-1.3-0.9C190.9,290.9,190.6,291.3,190.5,291.7z"/>
				<linearGradient id="SVGID_68_" gradientUnits="userSpaceOnUse" x1="172.6992" y1="321.5379" x2="173.1899" y2="250.1428">
					<stop  offset="0" style="stop-color:#8388E4"/>
					<stop  offset="1" style="stop-color:#5753E4"/>
				</linearGradient>
				<path class="st69" d="M191,292.6v24.6c0,12.3-8.1,22.3-18.1,22.3c-10,0-18.1-10-18.1-22.3v-24.6c-0.1-0.4-0.4-0.8-0.9-0.9
					c-0.5-0.1-1.1,0.3-1.3,0.9c0,8.5,0,17,0,25.5c0,13.6,9.1,24.6,20.3,24.6h0c11.2,0,20.3-11,20.3-24.6v-25.5
					c-0.2-0.6-0.8-1-1.3-0.9C191.4,291.8,191.1,292.2,191,292.6z"/>
				<linearGradient id="SVGID_69_" gradientUnits="userSpaceOnUse" x1="173.1541" y1="322.4314" x2="173.6448" y2="251.0363">
					<stop  offset="0" style="stop-color:#8589E5"/>
					<stop  offset="1" style="stop-color:#5753E5"/>
				</linearGradient>
				<path class="st70" d="M191.4,293.5v24.6c0,12.3-8.1,22.3-18.1,22.3c-10,0-18.1-10-18.1-22.3v-24.6c-0.1-0.4-0.4-0.8-0.9-0.9
					c-0.5-0.1-1.1,0.3-1.3,0.9c0,8.5,0,17,0,25.5c0,13.6,9.1,24.6,20.3,24.6h0c11.2,0,20.3-11,20.3-24.6v-25.5
					c-0.2-0.6-0.8-1-1.3-0.9C191.9,292.7,191.5,293,191.4,293.5z"/>
				<linearGradient id="SVGID_70_" gradientUnits="userSpaceOnUse" x1="173.6089" y1="323.325" x2="174.0996" y2="251.9299">
					<stop  offset="0" style="stop-color:#868AE6"/>
					<stop  offset="1" style="stop-color:#5853E6"/>
				</linearGradient>
				<path class="st71" d="M191.9,294.4V319c0,12.3-8.1,22.3-18.1,22.3c-10,0-18.1-10-18.1-22.3v-24.6c-0.1-0.4-0.4-0.8-0.9-0.9
					c-0.5-0.1-1.1,0.3-1.3,0.9c0,8.5,0,17,0,25.5c0,13.6,9.1,24.6,20.3,24.6h0c11.2,0,20.3-11,20.3-24.6v-25.5
					c-0.2-0.6-0.8-1-1.3-0.9C192.3,293.6,192,293.9,191.9,294.4z"/>
				<linearGradient id="SVGID_71_" gradientUnits="userSpaceOnUse" x1="174.0638" y1="324.2185" x2="174.5544" y2="252.8234">
					<stop  offset="0" style="stop-color:#888BE7"/>
					<stop  offset="1" style="stop-color:#5953E7"/>
				</linearGradient>
				<path class="st72" d="M192.3,295.3v24.6c0,12.3-8.1,22.3-18.1,22.3c-10,0-18.1-10-18.1-22.3v-24.6c-0.1-0.4-0.4-0.8-0.9-0.9
					c-0.5-0.1-1.1,0.3-1.3,0.9c0,8.5,0,17,0,25.5c0,13.6,9.1,24.6,20.3,24.6h0c11.2,0,20.3-11,20.3-24.6v-25.5
					c-0.2-0.6-0.8-1-1.3-0.9C192.8,294.5,192.4,294.8,192.3,295.3z"/>
				<linearGradient id="SVGID_72_" gradientUnits="userSpaceOnUse" x1="174.5186" y1="325.1121" x2="175.0093" y2="253.717">
					<stop  offset="0" style="stop-color:#898BE8"/>
					<stop  offset="1" style="stop-color:#5A53E8"/>
				</linearGradient>
				<path class="st73" d="M192.8,296.2v24.6c0,12.3-8.1,22.3-18.1,22.3c-10,0-18.1-10-18.1-22.3v-24.6c-0.1-0.4-0.4-0.8-0.9-0.9
					c-0.5-0.1-1.1,0.3-1.3,0.9c0,8.5,0,17,0,25.5c0,13.6,9.1,24.6,20.3,24.6h0c11.2,0,20.3-11,20.3-24.6v-25.5
					c-0.2-0.6-0.8-1-1.3-0.9C193.2,295.4,192.9,295.7,192.8,296.2z"/>
				<linearGradient id="SVGID_73_" gradientUnits="userSpaceOnUse" x1="174.9734" y1="326.0056" x2="175.4641" y2="254.6105">
					<stop  offset="0" style="stop-color:#8B8CE9"/>
					<stop  offset="1" style="stop-color:#5A53E9"/>
				</linearGradient>
				<path class="st74" d="M193.2,297.1v24.6c0,12.3-8.1,22.3-18.1,22.3c-10,0-18.1-10-18.1-22.3v-24.6c-0.1-0.4-0.4-0.8-0.9-0.9
					c-0.5-0.1-1.1,0.3-1.3,0.9c0,8.5,0,17,0,25.5c0,13.6,9.1,24.6,20.3,24.6h0c11.2,0,20.3-11,20.3-24.6v-25.5
					c-0.2-0.6-0.8-1-1.3-0.9C193.7,296.3,193.3,296.6,193.2,297.1z"/>
				<linearGradient id="SVGID_74_" gradientUnits="userSpaceOnUse" x1="175.4283" y1="326.8992" x2="175.919" y2="255.5041">
					<stop  offset="0" style="stop-color:#8C8DEA"/>
					<stop  offset="1" style="stop-color:#5B53EA"/>
				</linearGradient>
				<path class="st75" d="M193.7,298v24.6c0,12.3-8.1,22.3-18.1,22.3c-10,0-18.1-10-18.1-22.3V298c-0.1-0.4-0.4-0.8-0.9-0.9
					c-0.5-0.1-1.1,0.3-1.3,0.9c0,8.5,0,17,0,25.5c0,13.6,9.1,24.6,20.3,24.6h0c11.2,0,20.3-11,20.3-24.6V298c-0.2-0.6-0.8-1-1.3-0.9
					C194.1,297.2,193.8,297.5,193.7,298z"/>
				<linearGradient id="SVGID_75_" gradientUnits="userSpaceOnUse" x1="175.8831" y1="327.7927" x2="176.3738" y2="256.3976">
					<stop  offset="0" style="stop-color:#8E8EEB"/>
					<stop  offset="1" style="stop-color:#5C53EB"/>
				</linearGradient>
				<path class="st76" d="M194.1,298.9v24.6c0,12.3-8.1,22.3-18.1,22.3s-18.1-10-18.1-22.3v-24.6c-0.1-0.4-0.4-0.8-0.9-0.9
					c-0.5-0.1-1.1,0.3-1.3,0.9c0,8.5,0,17,0,25.5c0,13.6,9.1,24.6,20.3,24.6h0c11.2,0,20.3-11,20.3-24.6v-25.5
					c-0.2-0.6-0.8-1-1.3-0.9C194.6,298.1,194.3,298.4,194.1,298.9z"/>
				<linearGradient id="SVGID_76_" gradientUnits="userSpaceOnUse" x1="176.338" y1="328.6862" x2="176.8286" y2="257.2912">
					<stop  offset="0" style="stop-color:#8F8FEC"/>
					<stop  offset="1" style="stop-color:#5D53EC"/>
				</linearGradient>
				<path class="st77" d="M194.6,299.7v24.6c0,12.3-8.1,22.3-18.1,22.3c-10,0-18.1-10-18.1-22.3v-24.6c-0.1-0.4-0.4-0.8-0.9-0.9
					c-0.5-0.1-1.1,0.3-1.3,0.9c0,8.5,0,17,0,25.5c0,13.6,9.1,24.6,20.3,24.6h0c11.2,0,20.3-11,20.3-24.6v-25.5
					c-0.2-0.6-0.8-1-1.3-0.9C195,299,194.7,299.3,194.6,299.7z"/>
				<linearGradient id="SVGID_77_" gradientUnits="userSpaceOnUse" x1="176.7928" y1="329.5798" x2="177.2835" y2="258.1848">
					<stop  offset="0" style="stop-color:#9190ED"/>
					<stop  offset="1" style="stop-color:#5E53ED"/>
				</linearGradient>
				<path class="st78" d="M195.1,300.6v24.6c0,12.3-8.1,22.3-18.1,22.3c-10,0-18.1-10-18.1-22.3v-24.6c-0.1-0.4-0.4-0.8-0.9-0.9
					c-0.5-0.1-1.1,0.3-1.3,0.9c0,8.5,0,17,0,25.5c0,13.6,9.1,24.6,20.3,24.6h0c11.2,0,20.3-11,20.3-24.6v-25.5
					c-0.2-0.6-0.8-1-1.3-0.9C195.5,299.8,195.2,300.2,195.1,300.6z"/>
				<linearGradient id="SVGID_78_" gradientUnits="userSpaceOnUse" x1="177.2476" y1="330.4734" x2="177.7383" y2="259.0783">
					<stop  offset="0" style="stop-color:#9291EE"/>
					<stop  offset="1" style="stop-color:#5E54EE"/>
				</linearGradient>
				<path class="st79" d="M195.5,301.5v24.6c0,12.3-8.1,22.3-18.1,22.3c-10,0-18.1-10-18.1-22.3v-24.6c-0.1-0.4-0.4-0.8-0.9-0.9
					c-0.5-0.1-1.1,0.3-1.3,0.9c0,8.5,0,17,0,25.5c0,13.6,9.1,24.6,20.3,24.6h0c11.2,0,20.3-11,20.3-24.6v-25.5
					c-0.2-0.6-0.8-1-1.3-0.9C196,300.7,195.6,301.1,195.5,301.5z"/>
				<linearGradient id="SVGID_79_" gradientUnits="userSpaceOnUse" x1="177.7025" y1="331.3669" x2="178.1932" y2="259.9719">
					<stop  offset="0" style="stop-color:#9492EF"/>
					<stop  offset="1" style="stop-color:#5F54EF"/>
				</linearGradient>
				<path class="st80" d="M196,302.4V327c0,12.3-8.1,22.3-18.1,22.3c-10,0-18.1-10-18.1-22.3v-24.6c-0.1-0.4-0.4-0.8-0.9-0.9
					c-0.5-0.1-1.1,0.3-1.3,0.9c0,8.5,0,17,0,25.5c0,13.6,9.1,24.6,20.3,24.6h0c11.2,0,20.3-11,20.3-24.6v-25.5
					c-0.2-0.6-0.8-1-1.3-0.9C196.4,301.6,196.1,302,196,302.4z"/>
				<linearGradient id="SVGID_80_" gradientUnits="userSpaceOnUse" x1="178.1573" y1="332.2605" x2="178.648" y2="260.8654">
					<stop  offset="0" style="stop-color:#9593F0"/>
					<stop  offset="1" style="stop-color:#6054F0"/>
				</linearGradient>
				<path class="st81" d="M196.4,303.3v24.6c0,12.3-8.1,22.3-18.1,22.3c-10,0-18.1-10-18.1-22.3v-24.6c-0.1-0.4-0.4-0.8-0.9-0.9
					c-0.5-0.1-1.1,0.3-1.3,0.9c0,8.5,0,17,0,25.5c0,13.6,9.1,24.6,20.3,24.6h0c11.2,0,20.3-11,20.3-24.6v-25.5
					c-0.2-0.6-0.8-1-1.3-0.9C196.9,302.5,196.5,302.9,196.4,303.3z"/>
				<linearGradient id="SVGID_81_" gradientUnits="userSpaceOnUse" x1="178.6122" y1="333.154" x2="179.1028" y2="261.7589">
					<stop  offset="0" style="stop-color:#9794F1"/>
					<stop  offset="1" style="stop-color:#6154F1"/>
				</linearGradient>
				<path class="st82" d="M196.9,304.2v24.6c0,12.3-8.1,22.3-18.1,22.3c-10,0-18.1-10-18.1-22.3v-24.6c-0.1-0.4-0.4-0.8-0.9-0.9
					c-0.5-0.1-1.1,0.3-1.3,0.9c0,8.5,0,17,0,25.5c0,13.6,9.1,24.6,20.3,24.6h0c11.2,0,20.3-11,20.3-24.6v-25.5
					c-0.2-0.6-0.8-1-1.3-0.9C197.3,303.4,197,303.8,196.9,304.2z"/>
				<linearGradient id="SVGID_82_" gradientUnits="userSpaceOnUse" x1="179.067" y1="334.0476" x2="179.5577" y2="262.6525">
					<stop  offset="0" style="stop-color:#9895F2"/>
					<stop  offset="1" style="stop-color:#6254F2"/>
				</linearGradient>
				<path class="st83" d="M197.3,305.1v24.6c0,12.3-8.1,22.3-18.1,22.3c-10,0-18.1-10-18.1-22.3v-24.6c-0.1-0.4-0.4-0.8-0.9-0.9
					c-0.5-0.1-1.1,0.3-1.3,0.9c0,8.5,0,17,0,25.5c0,13.6,9.1,24.6,20.3,24.6h0c11.2,0,20.3-11,20.3-24.6v-25.5
					c-0.2-0.6-0.8-1-1.3-0.9C197.8,304.3,197.4,304.7,197.3,305.1z"/>
				<linearGradient id="SVGID_83_" gradientUnits="userSpaceOnUse" x1="179.5218" y1="334.9411" x2="180.0125" y2="263.5461">
					<stop  offset="0" style="stop-color:#9A96F3"/>
					<stop  offset="1" style="stop-color:#6254F3"/>
				</linearGradient>
				<path class="st84" d="M197.8,306v24.6c0,12.3-8.1,22.3-18.1,22.3s-18.1-10-18.1-22.3V306c-0.1-0.4-0.4-0.8-0.9-0.9
					c-0.5-0.1-1.1,0.3-1.3,0.9c0,8.5,0,17,0,25.5c0,13.6,9.1,24.6,20.3,24.6h0c11.2,0,20.3-11,20.3-24.6V306c-0.2-0.6-0.8-1-1.3-0.9
					C198.2,305.2,197.9,305.6,197.8,306z"/>
				<linearGradient id="SVGID_84_" gradientUnits="userSpaceOnUse" x1="179.9767" y1="335.8347" x2="180.4674" y2="264.4396">
					<stop  offset="0" style="stop-color:#9B97F4"/>
					<stop  offset="1" style="stop-color:#6354F4"/>
				</linearGradient>
				<path class="st85" d="M198.2,306.9v24.6c0,12.3-8.1,22.3-18.1,22.3c-10,0-18.1-10-18.1-22.3v-24.6c-0.1-0.4-0.4-0.8-0.9-0.9
					c-0.5-0.1-1.1,0.3-1.3,0.9c0,8.5,0,17,0,25.5c0,13.6,9.1,24.6,20.3,24.6h0c11.2,0,20.3-11,20.3-24.6v-25.5
					c-0.2-0.6-0.8-1-1.3-0.9C198.7,306.1,198.3,306.4,198.2,306.9z"/>
				<linearGradient id="SVGID_85_" gradientUnits="userSpaceOnUse" x1="180.4315" y1="336.7282" x2="180.9222" y2="265.3332">
					<stop  offset="0" style="stop-color:#9D98F5"/>
					<stop  offset="1" style="stop-color:#6454F5"/>
				</linearGradient>
				<path class="st86" d="M198.7,307.8v24.6c0,12.3-8.1,22.3-18.1,22.3c-10,0-18.1-10-18.1-22.3v-24.6c-0.1-0.4-0.4-0.8-0.9-0.9
					c-0.5-0.1-1.1,0.3-1.3,0.9c0,8.5,0,17,0,25.5c0,13.6,9.1,24.6,20.3,24.6h0c11.2,0,20.3-11,20.3-24.6v-25.5
					c-0.2-0.6-0.8-1-1.3-0.9C199.1,307,198.8,307.3,198.7,307.8z"/>
				<linearGradient id="SVGID_86_" gradientUnits="userSpaceOnUse" x1="180.8864" y1="337.6218" x2="181.377" y2="266.2267">
					<stop  offset="0" style="stop-color:#9E99F7"/>
					<stop  offset="1" style="stop-color:#6554F7"/>
				</linearGradient>
				<path class="st87" d="M199.1,308.7v24.6c0,12.3-8.1,22.3-18.1,22.3c-10,0-18.1-10-18.1-22.3v-24.6c-0.1-0.4-0.4-0.8-0.9-0.9
					c-0.5-0.1-1.1,0.3-1.3,0.9c0,8.5,0,17,0,25.5c0,13.6,9.1,24.6,20.3,24.6h0c11.2,0,20.3-11,20.3-24.6v-25.5
					c-0.2-0.6-0.8-1-1.3-0.9C199.6,307.9,199.3,308.2,199.1,308.7z"/>
				<linearGradient id="SVGID_87_" gradientUnits="userSpaceOnUse" x1="181.3412" y1="338.5153" x2="181.8319" y2="267.1202">
					<stop  offset="0" style="stop-color:#A099F8"/>
					<stop  offset="1" style="stop-color:#6554F8"/>
				</linearGradient>
				<path class="st88" d="M199.6,309.6v24.6c0,12.3-8.1,22.3-18.1,22.3c-10,0-18.1-10-18.1-22.3v-24.6c-0.1-0.4-0.4-0.8-0.9-0.9
					c-0.5-0.1-1.1,0.3-1.3,0.9c0,8.5,0,17,0,25.5c0,13.6,9.1,24.6,20.3,24.6h0c11.2,0,20.3-11,20.3-24.6v-25.5
					c-0.2-0.6-0.8-1-1.3-0.9C200,308.8,199.7,309.1,199.6,309.6z"/>
				<linearGradient id="SVGID_88_" gradientUnits="userSpaceOnUse" x1="181.796" y1="339.4089" x2="182.2867" y2="268.0138">
					<stop  offset="0" style="stop-color:#A19AF9"/>
					<stop  offset="1" style="stop-color:#6654F9"/>
				</linearGradient>
				<path class="st89" d="M200.1,310.5v24.6c0,12.3-8.1,22.3-18.1,22.3c-10,0-18.1-10-18.1-22.3v-24.6c-0.1-0.4-0.4-0.8-0.9-0.9
					c-0.5-0.1-1.1,0.3-1.3,0.9c0,8.5,0,17,0,25.5c0,13.6,9.1,24.6,20.3,24.6h0c11.2,0,20.3-11,20.3-24.6v-25.5
					c-0.2-0.6-0.8-1-1.3-0.9C200.5,309.7,200.2,310,200.1,310.5z"/>
				<linearGradient id="SVGID_89_" gradientUnits="userSpaceOnUse" x1="182.2509" y1="340.3024" x2="182.7416" y2="268.9073">
					<stop  offset="0" style="stop-color:#A39BFA"/>
					<stop  offset="1" style="stop-color:#6755FA"/>
				</linearGradient>
				<path class="st90" d="M200.5,311.4V336c0,12.3-8.1,22.3-18.1,22.3c-10,0-18.1-10-18.1-22.3v-24.6c-0.1-0.4-0.4-0.8-0.9-0.9
					c-0.5-0.1-1.1,0.3-1.3,0.9c0,8.5,0,17,0,25.5c0,13.6,9.1,24.6,20.3,24.6h0c11.2,0,20.3-11,20.3-24.6v-25.5
					c-0.2-0.6-0.8-1-1.3-0.9C201,310.6,200.6,310.9,200.5,311.4z"/>
				<linearGradient id="SVGID_90_" gradientUnits="userSpaceOnUse" x1="182.7057" y1="341.196" x2="183.1964" y2="269.8009">
					<stop  offset="0" style="stop-color:#A49CFB"/>
					<stop  offset="1" style="stop-color:#6855FB"/>
				</linearGradient>
				<path class="st91" d="M201,312.3v24.6c0,12.3-8.1,22.3-18.1,22.3c-10,0-18.1-10-18.1-22.3v-24.6c-0.1-0.4-0.4-0.8-0.9-0.9
					c-0.5-0.1-1.1,0.3-1.3,0.9c0,8.5,0,17,0,25.5c0,13.6,9.1,24.6,20.3,24.6h0c11.2,0,20.3-11,20.3-24.6v-25.5
					c-0.2-0.6-0.8-1-1.3-0.9C201.4,311.5,201.1,311.8,201,312.3z"/>
				<linearGradient id="SVGID_91_" gradientUnits="userSpaceOnUse" x1="183.1606" y1="342.0895" x2="183.6512" y2="270.6945">
					<stop  offset="0" style="stop-color:#A69DFC"/>
					<stop  offset="1" style="stop-color:#6955FC"/>
				</linearGradient>
				<path class="st92" d="M201.4,313.2v24.6c0,12.3-8.1,22.3-18.1,22.3c-10,0-18.1-10-18.1-22.3v-24.6c-0.1-0.4-0.4-0.8-0.9-0.9
					c-0.5-0.1-1.1,0.3-1.3,0.9c0,8.5,0,17,0,25.5c0,13.6,9.1,24.6,20.3,24.6h0c11.2,0,20.3-11,20.3-24.6v-25.5
					c-0.2-0.6-0.8-1-1.3-0.9C201.9,312.4,201.5,312.7,201.4,313.2z"/>
				<linearGradient id="SVGID_92_" gradientUnits="userSpaceOnUse" x1="183.6154" y1="342.9831" x2="184.1061" y2="271.588">
					<stop  offset="0" style="stop-color:#A79EFD"/>
					<stop  offset="1" style="stop-color:#6955FD"/>
				</linearGradient>
				<path class="st93" d="M201.9,314v24.6c0,12.3-8.1,22.3-18.1,22.3c-10,0-18.1-10-18.1-22.3V314c-0.1-0.4-0.4-0.8-0.9-0.9
					c-0.5-0.1-1.1,0.3-1.3,0.9c0,8.5,0,17,0,25.5c0,13.6,9.1,24.6,20.3,24.6h0c11.2,0,20.3-11,20.3-24.6V314c-0.2-0.6-0.8-1-1.3-0.9
					C202.3,313.3,202,313.6,201.9,314z"/>
				<linearGradient id="SVGID_93_" gradientUnits="userSpaceOnUse" x1="184.0702" y1="343.8766" x2="184.5609" y2="272.4816">
					<stop  offset="0" style="stop-color:#A99FFE"/>
					<stop  offset="1" style="stop-color:#6A55FE"/>
				</linearGradient>
				<path class="st94" d="M202.3,314.9v24.6c0,12.3-8.1,22.3-18.1,22.3c-10,0-18.1-10-18.1-22.3v-24.6c-0.1-0.4-0.4-0.8-0.9-0.9
					c-0.5-0.1-1.1,0.3-1.3,0.9c0,8.5,0,17,0,25.5c0,13.6,9.1,24.6,20.3,24.6h0c11.2,0,20.3-11,20.3-24.6v-25.5
					c-0.2-0.6-0.8-1-1.3-0.9C202.8,314.1,202.4,314.5,202.3,314.9z"/>
				<linearGradient id="SVGID_94_" gradientUnits="userSpaceOnUse" x1="184.5251" y1="344.7702" x2="185.0158" y2="273.3751">
					<stop  offset="0" style="stop-color:#AAA0FF"/>
					<stop  offset="1" style="stop-color:#6B55FF"/>
				</linearGradient>
				<path class="st95" d="M202.8,315.8v24.6c0,12.3-8.1,22.3-18.1,22.3s-18.1-10-18.1-22.3v-24.6c-0.1-0.4-0.4-0.8-0.9-0.9
					c-0.5-0.1-1.1,0.3-1.3,0.9c0,8.5,0,17,0,25.5c0,13.6,9.1,24.6,20.3,24.6h0c11.2,0,20.3-11,20.3-24.6v-25.5
					c-0.2-0.6-0.8-1-1.3-0.9C203.2,315,202.9,315.4,202.8,315.8z"/>
			</g>
			<linearGradient id="SVGID_95_" gradientUnits="userSpaceOnUse" x1="123.8734" y1="260.9417" x2="164.437" y2="260.9417">
				<stop  offset="0" style="stop-color:#FCC198"/>
				<stop  offset="0.2145" style="stop-color:#FBBD96"/>
				<stop  offset="0.4156" style="stop-color:#F8B292"/>
				<stop  offset="0.537" style="stop-color:#F6A98F"/>
				<stop  offset="0.7334" style="stop-color:#F09186"/>
				<stop  offset="0.979" style="stop-color:#E76B77"/>
				<stop  offset="1" style="stop-color:#E66776"/>
			</linearGradient>
			<path class="st96" d="M162.3,236.3v24.6c0,12.3-8.1,22.3-18.1,22.3c-10,0-18.1-10-18.1-22.3v-24.6c-0.1-0.4-0.4-0.8-0.9-0.9
				c-0.5-0.1-1.1,0.3-1.3,0.9c0,8.5,0,17,0,25.5c0,13.6,9.1,24.6,20.3,24.6h0c11.2,0,20.3-11,20.3-24.6v-25.5
				c-0.2-0.6-0.8-1-1.3-0.9C162.7,235.5,162.4,235.9,162.3,236.3z"/>
		</g>
	</g>
	<g>
		<linearGradient id="SVGID_96_" gradientUnits="userSpaceOnUse" x1="74.8394" y1="65.9638" x2="74.7985" y2="75.5678">
			<stop  offset="0" style="stop-color:#AAA0FF"/>
			<stop  offset="1" style="stop-color:#6B55FF"/>
		</linearGradient>
		<circle class="st97" cx="74.8" cy="75" r="5.8"/>
		<circle class="st98" cx="60.1" cy="26.9" r="3.3"/>
		<circle class="st99" cx="262.7" cy="113" r="4.3"/>
		<g>
			
				<linearGradient id="SVGID_97_" gradientUnits="userSpaceOnUse" x1="1037.8385" y1="-681.72" x2="1037.749" y2="-660.679" gradientTransform="matrix(0.807 -0.5906 0.5906 0.807 -297.3701 1177.6799)">
				<stop  offset="0" style="stop-color:#FF5159"/>
				<stop  offset="0.4918" style="stop-color:#FA676F"/>
				<stop  offset="1" style="stop-color:#F4828B"/>
			</linearGradient>
			<path class="st100" d="M138.1,23.9c3-0.5,6.6-3.1,8-5.8c1.4-2.8,3.6-2.8,4.9,0c1.4,2.8,5,5.4,8,5.8c3,0.4,3.7,2.5,1.5,4.7
				c-2.2,2.2-3.6,6.4-3,9.4c0.5,3-1.3,4.3-4,2.9c-2.7-1.4-7.2-1.4-9.9,0c-2.7,1.4-4.5,0.1-4-2.9c0.5-3-0.9-7.3-3.1-9.4
				C134.3,26.4,135,24.3,138.1,23.9z"/>
		</g>
		<g>
			<path class="st101" d="M18.5,108.4c3-0.5,6.6-3.1,8-5.8c1.4-2.8,3.6-2.8,4.9,0c1.4,2.8,5,5.4,8,5.8c3,0.4,3.7,2.5,1.5,4.7
				c-2.2,2.2-3.6,6.4-3,9.4c0.5,3-1.3,4.3-4,2.9c-2.7-1.4-7.2-1.4-9.9,0c-2.7,1.4-4.5,0.1-4-2.9c0.5-3-0.9-7.3-3.1-9.4
				S15.5,108.9,18.5,108.4z"/>
		</g>
		<linearGradient id="SVGID_98_" gradientUnits="userSpaceOnUse" x1="231.7319" y1="43.3944" x2="249.5969" y2="43.3944">
			<stop  offset="0" style="stop-color:#BDCCF9"/>
			<stop  offset="1" style="stop-color:#A2B6F4"/>
		</linearGradient>
		<path class="st102" d="M248.3,46.5l-4.6,4.6c-1.7,1.7-4.5,1.7-6.2,0l-4.6-4.6c-1.7-1.7-1.7-4.5,0-6.2l4.6-4.6
			c1.7-1.7,4.5-1.7,6.2,0l4.6,4.6C250,42,250,44.8,248.3,46.5z"/>
	</g>
</g>
</svg>
