<?xml version="1.0" encoding="utf-8"?>
<!-- Generator: Adobe Illustrator 24.0.1, SVG Export Plug-In . SVG Version: 6.00 Build 0)  -->
<svg version="1.1" id="Layer_1" xmlns="http://www.w3.org/2000/svg" xmlns:xlink="http://www.w3.org/1999/xlink" x="0px" y="0px"
	 viewBox="0 0 50 50" style="enable-background:new 0 0 50 50;" xml:space="preserve">
<style type="text/css">
	.st0{fill:url(#SVGID_1_);}
	.st1{fill:#FFFFFF;}
</style>
<linearGradient id="SVGID_1_" gradientUnits="userSpaceOnUse" x1="25" y1="-0.4286" x2="25" y2="48.4804">
	<stop  offset="0" style="stop-color:#FA6A85"/>
	<stop  offset="0.9888" style="stop-color:#E42141"/>
</linearGradient>
<path class="st0" d="M50,25C50,11.2,38.8,0,25,0S0,11.2,0,25s11.2,25,25,25S50,38.8,50,25z"/>
<path class="st1" d="M13.9,17.5c0-1.4,0.5-2.8,1.4-4.3c0.9-1.4,2.2-2.6,3.9-3.6c1.7-0.9,3.7-1.4,6-1.4c2.1,0,4,0.4,5.7,1.2
	c1.6,0.8,2.9,1.9,3.8,3.2C35.6,14,36,15.4,36,17c0,1.3-0.3,2.4-0.8,3.3s-1.1,1.8-1.8,2.4c-0.7,0.7-2,1.8-3.8,3.5
	c-0.5,0.5-0.9,0.9-1.2,1.2c-0.3,0.3-0.5,0.7-0.7,1c-0.1,0.3-0.3,0.6-0.3,0.9c-0.1,0.3-0.2,0.8-0.4,1.5c-0.3,1.5-1.2,2.3-2.6,2.3
	c-0.8,0-1.4-0.3-1.9-0.8s-0.8-1.2-0.8-2.2c0-1.2,0.2-2.3,0.6-3.2c0.4-0.9,0.9-1.7,1.5-2.4c0.6-0.7,1.5-1.5,2.6-2.4
	c0.9-0.8,1.6-1.5,2-1.9s0.8-0.9,1.1-1.4c0.3-0.5,0.4-1.1,0.4-1.7c0-1.2-0.4-2.2-1.3-3s-2-1.2-3.4-1.2c-1.6,0-2.8,0.4-3.6,1.2
	c-0.8,0.8-1.4,2-1.9,3.6c-0.5,1.7-1.5,2.5-2.9,2.5c-0.8,0-1.5-0.3-2.1-0.9C14.2,18.8,13.9,18.2,13.9,17.5z M24.7,41.8
	c-0.9,0-1.7-0.3-2.4-0.9c-0.7-0.6-1-1.4-1-2.4c0-0.9,0.3-1.7,1-2.3c0.6-0.6,1.4-1,2.4-1c0.9,0,1.7,0.3,2.3,1c0.6,0.6,1,1.4,1,2.3
	c0,1-0.3,1.8-1,2.4C26.4,41.5,25.6,41.8,24.7,41.8z"/>
</svg>
