<?xml version="1.0" encoding="utf-8"?>
<!-- Generator: Adobe Illustrator 24.0.1, SVG Export Plug-In . SVG Version: 6.00 Build 0)  -->
<svg version="1.1" id="Layer_1" xmlns="http://www.w3.org/2000/svg" xmlns:xlink="http://www.w3.org/1999/xlink" x="0px" y="0px"
	 viewBox="0 0 100 100" style="enable-background:new 0 0 100 100;" xml:space="preserve">
<style type="text/css">
	.st0{fill:#FFFFFF;}
	.st1{fill:#2497FB;}
	.st2{fill:#3E4152;}
</style>
<path class="st0" d="M50,57c-13.2,0-23.9-10.7-23.9-23.9C26.1,20,36.8,9.3,50,9.3c13.2,0,23.9,10.7,23.9,23.9
	C73.9,46.3,63.2,57,50,57z"/>
<circle class="st1" cx="50" cy="33.1" r="18"/>
<path class="st2" d="M77.9,33.1C77.9,17.8,65.4,5.3,50,5.3S22.1,17.8,22.1,33.1c0,14.2,10.6,25.9,24.4,27.6c0,0.1,0,0.1,0,0.2
	l2.4,35c0,0.6,0.5,1,1.1,1.1c0.6,0,1.2-0.4,1.2-1.1l2.4-35c0-0.1,0-0.2,0-0.2C67.2,59,77.9,47.3,77.9,33.1z M50,57
	c-13.2,0-23.9-10.7-23.9-23.9C26.1,20,36.8,9.3,50,9.3c13.2,0,23.9,10.7,23.9,23.9C73.9,46.3,63.2,57,50,57z"/>
</svg>
