<?xml version="1.0" encoding="utf-8"?>
<!-- Generator: Adobe Illustrator 24.0.1, SVG Export Plug-In . SVG Version: 6.00 Build 0)  -->
<svg version="1.1" id="Layer_1" xmlns="http://www.w3.org/2000/svg" xmlns:xlink="http://www.w3.org/1999/xlink" x="0px" y="0px"
	 viewBox="0 0 50 50" style="enable-background:new 0 0 50 50;" xml:space="preserve">
<style type="text/css">
	.st0{fill:#FFFFFF;}
</style>
<g transform="translate(0 0)">
	<path class="st0" d="M24.9,9.6c4.9,0,9.5,2.4,12.5,6.3l6.3-6.3C35-1,19.7-2.4,9.4,6.3S-2.3,30.3,6.1,40.6s24.2,11.7,34.6,3.3
		c3.8-3.3,6.5-7.3,7.9-12c0.5-2.4,0.8-4.6,0.8-6.8v-2.2H27.1v9h11.7c-2.4,5.4-7.9,9-13.9,9c-8.7,0-15.5-6.8-15.8-15.5
		C9.4,16.4,16.5,9.6,24.9,9.6L24.9,9.6z"/>
</g>
</svg>
