<?xml version="1.0" encoding="utf-8"?>
<!-- Generator: Adobe Illustrator 24.0.1, SVG Export Plug-In . SVG Version: 6.00 Build 0)  -->
<svg version="1.1" id="Layer_1" xmlns="http://www.w3.org/2000/svg" xmlns:xlink="http://www.w3.org/1999/xlink" x="0px" y="0px"
	 viewBox="0 0 18 17.9" style="enable-background:new 0 0 18 17.9;" xml:space="preserve">
<style type="text/css">
	.st0{fill:#EA4335;}
</style>
<g transform="translate(0 0)">
	<path class="st0" d="M9,3.3c1.8,0,3.5,0.9,4.6,2.3l2.3-2.3C12.7-0.6,7.1-1.1,3.3,2.1S-1,10.9,2.1,14.7S11,19,14.8,15.9
		c1.4-1.2,2.4-2.7,2.9-4.4C17.9,10.6,18,9.8,18,9V8.2H9.8v3.3h4.3c-0.9,2-2.9,3.3-5.1,3.3c-3.2,0-5.7-2.5-5.8-5.7
		C3.3,5.8,5.9,3.3,9,3.3L9,3.3z"/>
</g>
</svg>
