<?xml version="1.0" encoding="utf-8"?>
<!-- Generator: Adobe Illustrator 24.0.1, SVG Export Plug-In . SVG Version: 6.00 Build 0)  -->
<svg version="1.1" id="Layer_1" xmlns="http://www.w3.org/2000/svg" xmlns:xlink="http://www.w3.org/1999/xlink" x="0px" y="0px"
	 viewBox="0 0 50 50" style="enable-background:new 0 0 50 50;" xml:space="preserve">
<style type="text/css">
	.st0{fill:url(#SVGID_1_);}
	.st1{fill:#FFFFFF;}
</style>
<linearGradient id="SVGID_1_" gradientUnits="userSpaceOnUse" x1="5.1199" y1="3.5736" x2="43.6913" y2="45.1451">
	<stop  offset="0" style="stop-color:#D92EA0"/>
	<stop  offset="1" style="stop-color:#763FE5"/>
</linearGradient>
<path class="st0" d="M50,25C50,11.2,38.8,0,25,0S0,11.2,0,25s11.2,25,25,25S50,38.8,50,25z"/>
<g>
	<g>
		<g>
			<path class="st1" d="M25,8c-2.1,0-3.8,1.7-3.8,3.8s1.7,3.8,3.8,3.8s3.8-1.7,3.8-3.8S27.1,8,25,8z"/>
		</g>
	</g>
	<g>
		<g>
			<path class="st1" d="M35.4,24.9c-2.1,0-3.8,1.7-3.8,3.8c0,2.1,1.7,3.8,3.9,3.7c1.5,0.2,3.6-1.5,3.6-3.7
				C39.1,26.6,37.4,24.9,35.4,24.9z"/>
		</g>
	</g>
	<g>
		<g>
			<path class="st1" d="M14.6,24.9c-2.1,0-3.8,1.7-3.8,3.8c0,2.2,2.1,3.9,3.6,3.7c2.2,0.1,3.9-1.7,3.9-3.7
				C18.4,26.6,16.7,24.9,14.6,24.9z"/>
		</g>
	</g>
	<g>
		<g>
			<path class="st1" d="M29.5,30.8l-3.5-3.5v-3.4c0-0.5-0.4-0.9-0.9-0.9c-0.5,0-0.9,0.4-0.9,0.9v3.4l-3.5,3.5c-0.4,0.4-0.4,1,0,1.3
				c0.4,0.4,1,0.4,1.3,0L25,29l3.1,3.1c0.4,0.4,1,0.4,1.3,0C29.8,31.7,29.8,31.1,29.5,30.8z"/>
		</g>
	</g>
	<g>
		<g>
			<path class="st1" d="M39.5,32.4c-1,1.1-2.5,1.9-4.2,1.9s-3.1-0.7-4.2-1.9c-0.9,1-1.5,2.3-1.5,3.8v0.9c0,0.5,0.4,0.9,0.9,0.9h9.4
				c0.5,0,0.9-0.4,0.9-0.9v-0.9C41,34.7,40.4,33.4,39.5,32.4z"/>
		</g>
	</g>
	<g>
		<g>
			<path class="st1" d="M29.2,15.5c-1,1.1-2.6,1.9-4.2,1.9s-3.2-0.7-4.2-1.9c-0.9,1-1.5,2.3-1.5,3.8v0.9c0,0.5,0.4,0.9,0.9,0.9h9.5
				c0.5,0,0.9-0.4,0.9-0.9v-0.9C30.7,17.8,30.1,16.5,29.2,15.5z"/>
		</g>
	</g>
	<g>
		<g>
			<path class="st1" d="M18.8,32.4c-1,1.1-2.5,1.9-4.2,1.9s-3.1-0.7-4.2-1.9c-0.9,1-1.5,2.3-1.5,3.8v0.9C9,37.6,9.4,38,9.9,38h9.4
				c0.5,0,0.9-0.4,0.9-0.9v-0.9C20.3,34.7,19.7,33.4,18.8,32.4z"/>
		</g>
	</g>
</g>
</svg>
