<?xml version="1.0" encoding="utf-8"?>
<!-- Generator: Adobe Illustrator 24.0.1, SVG Export Plug-In . SVG Version: 6.00 Build 0)  -->
<svg version="1.1" id="Layer_1" xmlns="http://www.w3.org/2000/svg" xmlns:xlink="http://www.w3.org/1999/xlink" x="0px" y="0px"
	 viewBox="0 0 24 24" style="enable-background:new 0 0 24 24;" xml:space="preserve">
<style type="text/css">
	.st0{fill:#878787;}
</style>
<g>
	<g>
		<path class="st0" d="M21.9,6.9c0,1.5-1.2,2.8-2.7,2.8c-1,0-1.9-0.6-2.4-1.4c-0.5,0.9-1.4,1.4-2.4,1.4S12.5,9.1,12,8.3
			c-0.5,0.9-1.4,1.4-2.4,1.4S7.7,9.1,7.2,8.3C6.7,9.1,5.8,9.7,4.8,9.7c-1.5,0-2.7-1.2-2.7-2.8L6.3,2h12.3L21.9,6.9z"/>
	</g>
	<path class="st0" d="M19.3,10.8c-0.9,0-1.7-0.3-2.4-0.8c-0.7,0.5-1.5,0.8-2.4,0.8s-1.7-0.3-2.4-0.8c-0.7,0.5-1.5,0.8-2.4,0.8
		S8,10.5,7.3,10c-0.7,0.5-1.5,0.8-2.4,0.8c-0.4,0-0.8-0.1-1.2-0.2V22h16.5V10.7C19.9,10.8,19.6,10.8,19.3,10.8z M12.4,19.2L12,19.6
		l-0.4-0.4c-1.6-1.5-2.7-2.4-2.7-3.6c0-1,0.8-1.7,1.7-1.7c0.5,0,1.1,0.3,1.4,0.7c0.3-0.4,0.9-0.7,1.4-0.7c1,0,1.7,0.8,1.7,1.7
		C15.2,16.7,14.1,17.7,12.4,19.2z"/>
</g>
</svg>
