<?xml version="1.0" encoding="utf-8"?>
<!-- Generator: Adobe Illustrator 24.0.1, SVG Export Plug-In . SVG Version: 6.00 Build 0)  -->
<svg version="1.1" id="Layer_1" xmlns="http://www.w3.org/2000/svg" xmlns:xlink="http://www.w3.org/1999/xlink" x="0px" y="0px"
	 viewBox="0 0 280 330" style="enable-background:new 0 0 280 330;" xml:space="preserve">
<style type="text/css">
	.st0{fill:#254DA1;}
	.st1{opacity:0.19;fill:#7788E8;}
	.st2{fill:url(#SVGID_1_);}
	.st3{fill:#7788E8;}
	.st4{fill:#FFFFFF;}
	.st5{fill:url(#SVGID_2_);}
	.st6{fill:#8EAF56;}
	.st7{fill:url(#SVGID_3_);}
	.st8{fill:#85CBD1;}
	.st9{fill:url(#SVGID_4_);}
</style>
<g>
	<g>
		<path class="st0" d="M116.1,310.5c-1,0-1.7-0.1-2-0.1l0.1-1.1c2.6,0.2,6.9,0,7.6-1.3c5.3-12.3,1.1-48.5,1-48.8l1.1-0.1
			c0.2,1.5,4.3,36.9-1.1,49.4c0,0,0,0,0,0C122,310.2,118.4,310.5,116.1,310.5z"/>
		<path class="st0" d="M167.4,310.5c-2.3,0-5.9-0.3-6.8-2c0,0,0,0,0,0c-5.5-12.5-1.3-47.9-1.1-49.4l1.1,0.1c0,0.4-4.3,36.5,1,48.8
			c0.7,1.3,5,1.5,7.6,1.3l0.1,1.1C169.1,310.4,168.4,310.5,167.4,310.5z"/>
		<path class="st0" d="M155.7,131.8C155.7,131.8,155.7,131.8,155.7,131.8c-0.4,0-0.6-0.3-0.6-0.6c0-0.1,1.3-11.6-4.1-17.7
			c-2.2-2.5-5.3-3.7-9.1-3.7c-3.8,0-7,1.3-9.4,3.8c-5.8,6.1-5.2,17.6-5.2,17.7c0,0.3-0.2,0.6-0.5,0.6c-0.3,0-0.6-0.2-0.6-0.5
			c0-0.5-0.6-12.1,5.5-18.6c2.6-2.7,6-4.1,10.2-4.1c4.2,0,7.5,1.4,9.9,4.1c5.7,6.5,4.4,18.1,4.4,18.6
			C156.2,131.5,156,131.8,155.7,131.8z"/>
		<g>
			<rect x="94.7" y="129.6" class="st1" width="94.4" height="16.9"/>
			<path class="st1" d="M186.4,171c0,0-5.1,56.2,15.1,72.6l-10.9,16.3C190.6,259.9,170.1,222.4,186.4,171z"/>
			<path class="st1" d="M97.9,170.4c0,0,3.4,56.9-16.8,73.3l9.9,16.3C91,259.9,110.3,212.3,97.9,170.4z"/>
			<linearGradient id="SVGID_1_" gradientUnits="userSpaceOnUse" x1="142.2341" y1="168.6236" x2="148.3695" y2="317.1011">
				<stop  offset="0" style="stop-color:#AAA0FF"/>
				<stop  offset="0.4144" style="stop-color:#9081FF"/>
				<stop  offset="1" style="stop-color:#6B55FF"/>
			</linearGradient>
			<path class="st2" d="M87.6,142.7h108.6c0,0-31.3,64.3-5.6,117.3L90.9,260C90.9,260,117.1,200.5,87.6,142.7z"/>
			<path class="st3" d="M94.7,129.6c0,0,1.6,7.6,1.6,13.1h-8.7L94.7,129.6z"/>
			<path class="st3" d="M189.2,129.6c0,0-1.6,7.6-1.6,13.1h8.7L189.2,129.6z"/>
		</g>
		<path class="st0" d="M122.6,243.7C122.5,243.7,122.5,243.7,122.6,243.7c-4.1-0.7-12.7-6.2-20.1-12.7c-4.2-3.7-14-13.1-13.6-20
			c0.3-4.3,4.2-6.7,11.8-7.1c0.3,0,0.6,0.2,0.6,0.5c0,0.3-0.2,0.6-0.5,0.6c-6.9,0.4-10.5,2.5-10.8,6.1c-0.3,4.5,4.6,11.5,13.2,19.1
			c7.3,6.4,15.6,11.8,19.4,12.4c0.3,0.1,0.5,0.3,0.5,0.6C123.1,243.5,122.8,243.7,122.6,243.7z"/>
		<path class="st0" d="M160.4,243.7c-0.3,0-0.5-0.2-0.5-0.5c-0.1-0.3,0.1-0.6,0.5-0.6c3.8-0.7,12.2-6,19.4-12.4
			c8.7-7.7,13.5-14.6,13.2-19.1c-0.2-3.6-3.8-5.7-10.8-6.1c-0.3,0-0.5-0.3-0.5-0.6c0-0.3,0.3-0.5,0.6-0.5c7.6,0.4,11.6,2.8,11.8,7.1
			c0.4,6.9-9.4,16.3-13.6,20C173.1,237.5,164.5,242.9,160.4,243.7C160.5,243.7,160.4,243.7,160.4,243.7z"/>
		<path class="st0" d="M155.7,145.4C155.7,145.4,155.7,145.4,155.7,145.4c-0.4,0-0.6-0.3-0.6-0.6c0-0.1,1.3-11.6-4.1-17.7
			c-2.2-2.5-5.3-3.7-9.1-3.7c-3.8,0-7,1.3-9.4,3.8c-5.8,6.1-5.2,17.6-5.2,17.7c0,0.3-0.2,0.6-0.5,0.6c-0.3,0-0.6-0.2-0.6-0.5
			c0-0.5-0.6-12.1,5.5-18.6c2.6-2.7,6-4.1,10.2-4.1c4.2,0,7.5,1.4,9.9,4.1c5.7,6.5,4.4,18.1,4.4,18.6
			C156.2,145.2,156,145.4,155.7,145.4z"/>
	</g>
	<ellipse class="st1" cx="140.1" cy="311.4" rx="64.5" ry="6.6"/>
	<g>
		<g>
			<path class="st0" d="M170.3,171.4c-0.2,0-0.3,0-0.5-0.1l-13-6.8c-0.5-0.3-0.7-0.8-0.4-1.3c0.3-0.5,0.8-0.7,1.3-0.4l13,6.8
				c0.5,0.3,0.7,0.8,0.4,1.3C171,171.2,170.6,171.4,170.3,171.4z"/>
			<path class="st0" d="M119.5,171.4c-0.4,0-0.7-0.2-0.9-0.5c-0.3-0.5-0.1-1.1,0.4-1.3l13-6.8c0.5-0.3,1.1-0.1,1.3,0.4
				c0.3,0.5,0.1,1.1-0.4,1.3l-13,6.8C119.8,171.3,119.7,171.4,119.5,171.4z"/>
			<g>
				<circle class="st0" cx="129.4" cy="175.3" r="3.7"/>
				<circle class="st4" cx="129.4" cy="177.8" r="1.2"/>
			</g>
			<g>
				<circle class="st0" cx="158.5" cy="175.3" r="3.7"/>
				<circle class="st4" cx="158.5" cy="177.8" r="1.2"/>
			</g>
		</g>
		<path class="st0" d="M128.2,202.9c-0.3,0-0.5-0.1-0.7-0.3c-0.4-0.4-0.3-1,0.1-1.4c9.9-8.6,18.3-8.6,23.7-7.2
			c5.8,1.6,9.1,5.2,9.3,5.4c0.4,0.4,0.3,1-0.1,1.4c-0.4,0.4-1,0.3-1.4-0.1c-0.1-0.1-3.2-3.4-8.5-4.9c-7-1.9-14.4,0.4-21.8,6.8
			C128.6,202.9,128.4,202.9,128.2,202.9z"/>
	</g>
	<g>
		<linearGradient id="SVGID_2_" gradientUnits="userSpaceOnUse" x1="89.0992" y1="65.3176" x2="89.058" y2="74.9843">
			<stop  offset="0" style="stop-color:#AAA0FF"/>
			<stop  offset="1" style="stop-color:#6B55FF"/>
		</linearGradient>
		<circle class="st5" cx="89.1" cy="74.5" r="5.9"/>
		<circle class="st6" cx="74.3" cy="26" r="3.3"/>
		<g>
			
				<linearGradient id="SVGID_3_" gradientUnits="userSpaceOnUse" x1="1050.2556" y1="-673.8487" x2="1050.1655" y2="-652.6704" gradientTransform="matrix(0.807 -0.5906 0.5906 0.807 -297.3701 1177.6799)">
				<stop  offset="0" style="stop-color:#FF5159"/>
				<stop  offset="0.4918" style="stop-color:#FA676F"/>
				<stop  offset="1" style="stop-color:#F4828B"/>
			</linearGradient>
			<path class="st7" d="M152.7,22.9c3.1-0.5,6.7-3.1,8-5.9s3.6-2.8,5,0s5,5.4,8.1,5.8s3.8,2.6,1.6,4.7c-2.2,2.2-3.6,6.4-3,9.5
				c0.5,3-1.3,4.4-4,2.9c-2.7-1.4-7.2-1.4-10,0c-2.7,1.4-4.6,0.1-4-2.9c0.5-3.1-0.9-7.3-3.1-9.5S149.7,23.4,152.7,22.9z"/>
		</g>
		<g>
			<path class="st8" d="M32.4,108.1c3.1-0.5,6.7-3.1,8-5.9s3.6-2.8,5,0c1.4,2.8,5,5.4,8.1,5.8s3.8,2.6,1.6,4.7
				c-2.2,2.2-3.6,6.4-3,9.5c0.5,3-1.3,4.4-4,2.9c-2.7-1.4-7.2-1.4-10,0c-2.7,1.4-4.6,0.1-4-2.9c0.5-3.1-0.9-7.3-3.1-9.5
				C28.7,110.7,29.4,108.5,32.4,108.1z"/>
		</g>
		<linearGradient id="SVGID_4_" gradientUnits="userSpaceOnUse" x1="246.8128" y1="42.601" x2="265.1996" y2="42.601">
			<stop  offset="0" style="stop-color:#BDCCF9"/>
			<stop  offset="1" style="stop-color:#A2B6F4"/>
		</linearGradient>
		<path class="st9" d="M264.1,45.4l-5.3,5.3c-1.5,1.5-4,1.5-5.5,0l-5.3-5.3c-1.5-1.5-1.5-4,0-5.5l5.3-5.3c1.5-1.5,4-1.5,5.5,0
			l5.3,5.3C265.6,41.4,265.6,43.8,264.1,45.4z"/>
	</g>
</g>
</svg>
