<?xml version="1.0" encoding="utf-8"?>
<!-- Generator: Adobe Illustrator 24.0.1, SVG Export Plug-In . SVG Version: 6.00 Build 0)  -->
<svg version="1.1" id="Layer_1" xmlns="http://www.w3.org/2000/svg" xmlns:xlink="http://www.w3.org/1999/xlink" x="0px" y="0px"
	 viewBox="0 0 280 330" style="enable-background:new 0 0 280 330;" xml:space="preserve">
<style type="text/css">
	.st0{fill:#CFD6E3;}
	.st1{clip-path:url(#SVGID_2_);}
	.st2{fill:#254DA1;}
	.st3{fill:url(#SVGID_3_);}
	.st4{fill:url(#SVGID_4_);}
	.st5{fill:#E2EEF7;}
	.st6{opacity:0.68;fill:none;stroke:#254DA1;stroke-width:3;stroke-miterlimit:10;}
	.st7{fill:#FFFFFF;}
	.st8{fill:url(#SVGID_5_);}
	.st9{fill:url(#SVGID_6_);}
	.st10{opacity:0.68;fill:#254DA1;}
	.st11{fill:#FDC500;}
	.st12{fill:#85CBD1;}
	.st13{fill:url(#SVGID_7_);}
	.st14{fill:#8EAF56;}
</style>
<g>
	<g>
		<path class="st0" d="M135.4,138.4c0,0,14.6-33.6,38.5-27c23.9,6.6,26.7,18.4,47.5,50.6s56.8,49.6,42.3,84.6
			c-14.6,35-44.4,22.2-85.3,29.8c-40.9,7.6-28.8,30.8-60.7,31.2s-64.1-13.2-71.1-62.4s-30.8-49.9,7.6-63.4
			C92.7,168.2,125,171,135.4,138.4z"/>
		<g>
			<defs>
				<path id="SVGID_1_" d="M100.7,80.9c0,0,49.2,23.9,73.1,30.5c23.9,6.6,26.7,18.4,47.5,50.6s56.8,49.6,42.3,84.6
					c-14.6,35-44.4,22.2-85.3,29.8c-40.9,7.6-28.8,30.8-60.7,31.2s-64.1-13.2-71.1-62.4s-57.9-94.3-19.4-107.8
					C65.7,123.8,90.3,113.4,100.7,80.9z"/>
			</defs>
			<clipPath id="SVGID_2_">
				<use xlink:href="#SVGID_1_"  style="overflow:visible;"/>
			</clipPath>
			<g class="st1">
				
					<rect x="75.8" y="165.1" transform="matrix(0.7071 -0.7071 0.7071 0.7071 -91.1565 113.5856)" class="st2" width="31.5" height="3.5"/>
				<linearGradient id="SVGID_3_" gradientUnits="userSpaceOnUse" x1="79.258" y1="153.6135" x2="79.258" y2="232.8472">
					<stop  offset="0" style="stop-color:#FCC198"/>
					<stop  offset="0.2145" style="stop-color:#FBBD96"/>
					<stop  offset="0.4156" style="stop-color:#F8B292"/>
					<stop  offset="0.537" style="stop-color:#F6A98F"/>
					<stop  offset="0.7334" style="stop-color:#F09186"/>
					<stop  offset="0.979" style="stop-color:#E76B77"/>
					<stop  offset="1" style="stop-color:#E66776"/>
				</linearGradient>
				<path class="st3" d="M99.7,151.6c0,0,1.7,1,0.7,3.1c-1,2.1-6.9,7.3-8.3,9.4c-1.4,2.1-2.8,6.2-3.1,6.6c0,0,3.1-1,3.8-1.4
					c0.7-0.3,3.5-1.7,3.8-0.7c0.3,1-8,8.3-8.3,8.7s-4.5,3.5-7.6,4.2c-3.1,0.7-6.9,4.2-7.6,8.7c-0.7,4.5-3.5,14.6-2.8,20.5
					c0.7,5.9,2.1,11.4,2.1,11.4l-12.5,9.7c0,0-4.5-15.9,0-31.5s9-20.1,9.7-25c0.7-4.9,0.3-9.4,8-10.7c7.6-1.4,9.4-1.4,11.1-3.1
					C90.3,159.5,97.3,153,99.7,151.6z"/>
				<linearGradient id="SVGID_4_" gradientUnits="userSpaceOnUse" x1="123.608" y1="202.8114" x2="162.8778" y2="202.8114">
					<stop  offset="0" style="stop-color:#FCC198"/>
					<stop  offset="0.2145" style="stop-color:#FBBD96"/>
					<stop  offset="0.4156" style="stop-color:#F8B292"/>
					<stop  offset="0.537" style="stop-color:#F6A98F"/>
					<stop  offset="0.7334" style="stop-color:#F09186"/>
					<stop  offset="0.979" style="stop-color:#E76B77"/>
					<stop  offset="1" style="stop-color:#E66776"/>
				</linearGradient>
				<path class="st4" d="M128.1,181.7c0,0-12.5,12.8,4.2,28.8c3.5,6.2,0,16.6,0,16.6l26-6.6c0,0,10.4-31.9,0-37.8
					C147.9,176.9,135,177.6,128.1,181.7z"/>
				<circle class="st5" cx="118.7" cy="139.8" r="22.5"/>
				<circle class="st6" cx="118.7" cy="139.8" r="22.5"/>
				<g>
					<path class="st7" d="M109.2,130.3c2.1,2.5,7.5,4.2,9.6,0c1.7-3.4,4-7.1,7.2-8.4c-2.4-1.6-5.4-2.5-8.5-2.5
						c-7.4,0-13.6,5.2-15.2,12.2C104.7,130.2,107.9,128.8,109.2,130.3z"/>
					<path class="st0" d="M130.3,139.8c-3.5,4.9-3.4,15.2-12,20.4c0.1,0,0.3,0,0.4,0c11.3,0,20.5-9.2,20.5-20.5
						c0-1.7-0.2-3.3-0.6-4.9C136.4,135.1,132.8,136.1,130.3,139.8z"/>
				</g>
				<linearGradient id="SVGID_5_" gradientUnits="userSpaceOnUse" x1="61.549" y1="241.3519" x2="61.549" y2="241.3519">
					<stop  offset="0" style="stop-color:#AAA0FF"/>
					<stop  offset="1" style="stop-color:#6B55FF"/>
				</linearGradient>
				<path class="st8" d="M61.5,241.4"/>
				<linearGradient id="SVGID_6_" gradientUnits="userSpaceOnUse" x1="57.6161" y1="259.7888" x2="251.8211" y2="259.7888">
					<stop  offset="0" style="stop-color:#AAA0FF"/>
					<stop  offset="1" style="stop-color:#6B55FF"/>
				</linearGradient>
				<path class="st9" d="M59.3,239.4c0,0,1.2,1.6,2.2,1.9c0,0-5.5-3.1-3.5-9.4c2.1-6.2,11.8-13.5,15.3-10.7s1,3.8,2.8,7.6
					c1.7,3.8,4.5,4.2,3.8,5.9c-0.7,1.7,0,2.4,0,2.4s10.7,10.1,27.7,2.8s18.7-21.5,32.6-25c13.9-3.5,71.4,9.7,84.2,23.6
					c12.8,13.9,27.4,30.8,27.4,30.8l-35,26l-72.4,9.7c0,0-13.5-23.9-27-29.8c-13.5-5.9-18.7-0.7-35.4-11.1s-15.6-15.9-15.6-15.9
					L59.3,239.4z"/>
				<path class="st10" d="M66.4,248.3c0,0,1.7-12.5,8-16.6c0,0-9.7,4.5-10.1,10.1c0,0-2.6-2.5-3.9-1.1l5.7,7.4"/>
				<path class="st2" d="M165.2,290.2c0,0-22.5-4.2-25.6-28.1s8.7-26,6.2-37.8s-8.7-6.6-14.6-17.7c-5.9-11.1-13.5-29.5,5.9-39.5
					s28.4,5.2,32.6,17c4.2,11.8,28.4,20.8,38.5,21.8c10.1,1,27,18.7,10.1,35s-26.7,24.3-9.4,37.8
					C208.9,278.8,238.3,311.7,165.2,290.2z"/>
			</g>
		</g>
	</g>
	<g>
		<path class="st11" d="M129.9,51.2c-1.6-1.9-2.7-3.6-3.2-5.2c-0.5-1.5-0.6-3.6-0.4-6.1c0.2-2.5,0.3-4.3,0.2-5.2
			c-0.2-1.4-0.7-2.6-1.5-3.6c-1.1-1.3-2.4-2.1-3.6-2.2c-1.3-0.1-2.6,0.3-3.8,1.4c-1.2,1-1.9,2.2-2.1,3.6c-0.2,1.3,0.3,2.6,1.3,3.8
			l-5.2,4.4c-2.1-2.6-3-5.3-2.5-8.2c0.4-2.9,2.1-5.6,4.9-8c2.9-2.5,5.8-3.6,8.6-3.5c2.9,0.1,5.4,1.5,7.6,4.1c2,2.3,2.9,5.6,2.6,9.7
			l-0.4,4.9c0,1.9,0.8,3.9,2.5,6L129.9,51.2z M135.2,58.2c-0.7-0.8-1-1.8-0.9-2.7c0.1-1,0.6-1.8,1.5-2.6c0.9-0.8,1.9-1.1,2.9-1
			c1,0.1,1.8,0.5,2.5,1.4c0.7,0.8,1,1.7,0.9,2.6c-0.1,1-0.6,1.9-1.5,2.7c-0.9,0.8-1.9,1.2-2.9,1.1C136.6,59.5,135.8,59,135.2,58.2z"
			/>
	</g>
	<g>
		<path class="st12" d="M222,106.2c-0.2-1.6-0.1-2.9,0.2-4c0.3-1,1-2.2,2.1-3.4c1.1-1.3,1.7-2.2,2-2.7c0.4-0.8,0.6-1.6,0.5-2.5
			c-0.1-1.1-0.5-2-1.1-2.5c-0.6-0.5-1.5-0.8-2.6-0.6c-1.1,0.1-1.9,0.5-2.4,1.2c-0.6,0.7-0.8,1.5-0.7,2.5l-4.5,0.5
			c-0.2-2.2,0.4-4,1.7-5.4c1.3-1.4,3.2-2.2,5.6-2.5c2.5-0.3,4.4,0.2,5.9,1.3c1.5,1.1,2.4,2.8,2.6,5c0.2,2-0.5,4.1-2.2,6.2l-2,2.5
			c-0.7,1-1,2.4-0.8,4.2L222,106.2z M222.3,111.9c-0.1-0.7,0.1-1.3,0.5-1.8c0.4-0.5,1-0.8,1.8-0.9c0.8-0.1,1.4,0.1,1.9,0.5
			c0.5,0.4,0.8,1,0.9,1.7c0.1,0.7-0.1,1.3-0.5,1.8c-0.4,0.5-1,0.8-1.8,0.9s-1.5-0.1-1.9-0.5C222.7,113.1,222.4,112.6,222.3,111.9z"
			/>
	</g>
	<g>
		<linearGradient id="SVGID_7_" gradientUnits="userSpaceOnUse" x1="32.9443" y1="148.6913" x2="51.1574" y2="148.6913">
			<stop  offset="0" style="stop-color:#FF5159"/>
			<stop  offset="0.4918" style="stop-color:#FA676F"/>
			<stop  offset="1" style="stop-color:#F4828B"/>
		</linearGradient>
		<path class="st13" d="M44.5,154.9c-0.7-1.6-1.7-2.7-2.8-3.2l-3-1.1c-2.5-1-4.2-2.4-5-4.3c-0.9-2.1-1-3.9-0.3-5.7
			c0.7-1.7,2.3-3.1,4.5-4.1c2.2-1,4.2-1.2,6.1-0.6c1.8,0.6,3.2,1.8,4.1,3.8l-4.1,1.8c-0.4-0.9-1-1.5-1.9-1.8
			c-0.8-0.3-1.7-0.2-2.7,0.2c-1,0.5-1.7,1.1-1.9,1.9c-0.3,0.8-0.2,1.7,0.3,2.8c0.4,0.8,0.9,1.4,1.7,1.9c0.5,0.3,1.5,0.8,3.1,1.3
			c1.6,0.6,2.7,1.2,3.5,1.9c0.8,0.7,1.5,1.8,2.2,3.3L44.5,154.9z M51,160.1c-0.2,0.6-0.7,1.1-1.4,1.4s-1.4,0.4-2,0.1
			c-0.6-0.2-1-0.7-1.3-1.3c-0.3-0.6-0.3-1.3-0.1-1.9c0.2-0.6,0.7-1.1,1.4-1.4c0.7-0.3,1.4-0.4,2-0.1c0.6,0.2,1,0.7,1.3,1.3
			C51.2,158.9,51.2,159.5,51,160.1z"/>
	</g>
	<circle class="st11" cx="79.5" cy="96.2" r="3"/>
	<circle class="st14" cx="162.1" cy="96.5" r="3.6"/>
</g>
</svg>
