<?xml version="1.0" encoding="utf-8"?>
<!-- Generator: Adobe Illustrator 24.0.1, SVG Export Plug-In . SVG Version: 6.00 Build 0)  -->
<svg version="1.1" id="Layer_1" xmlns="http://www.w3.org/2000/svg" xmlns:xlink="http://www.w3.org/1999/xlink" x="0px" y="0px"
	 viewBox="0 0 280 330" style="enable-background:new 0 0 280 330;" xml:space="preserve">
<style type="text/css">
	.st0{fill:url(#SVGID_1_);}
	.st1{fill:#8EAF56;}
	.st2{fill:#FDC500;}
	.st3{fill:url(#SVGID_2_);}
	.st4{fill:#85CBD1;}
	.st5{fill:url(#SVGID_3_);}
	.st6{opacity:0.19;fill:#7788E8;enable-background:new    ;}
	.st7{fill:url(#SVGID_4_);}
	.st8{fill:url(#SVGID_5_);}
	.st9{fill:#FFFFFF;}
</style>
<g>
	
		<linearGradient id="SVGID_1_" gradientUnits="userSpaceOnUse" x1="74.8385" y1="264.0362" x2="74.7976" y2="254.4322" gradientTransform="matrix(1 0 0 -1 0 330)">
		<stop  offset="0" style="stop-color:#AAA0FF"/>
		<stop  offset="1" style="stop-color:#6B55FF"/>
	</linearGradient>
	<circle class="st0" cx="74.8" cy="75" r="5.8"/>
	<circle class="st1" cx="60.1" cy="26.9" r="3.3"/>
	<circle class="st2" cx="262.7" cy="113" r="4.3"/>
	<g>
		
			<linearGradient id="SVGID_2_" gradientUnits="userSpaceOnUse" x1="1149.6931" y1="1056.1866" x2="1149.6036" y2="1035.1456" gradientTransform="matrix(0.807 -0.5906 -0.5906 -0.807 -166.5395 1545.9813)">
			<stop  offset="0" style="stop-color:#FF5159"/>
			<stop  offset="0.4918" style="stop-color:#FA676F"/>
			<stop  offset="1" style="stop-color:#F4828B"/>
		</linearGradient>
		<path class="st3" d="M138.1,23.9c3-0.5,6.6-3.1,8-5.8c1.4-2.8,3.6-2.8,4.9,0c1.4,2.8,5,5.4,8,5.8s3.7,2.5,1.5,4.7s-3.6,6.4-3,9.4
			c0.5,3-1.3,4.3-4,2.9c-2.7-1.4-7.2-1.4-9.9,0s-4.5,0.1-4-2.9s-0.9-7.3-3.1-9.4C134.3,26.4,135,24.3,138.1,23.9z"/>
	</g>
	<g>
		<path class="st4" d="M18.5,108.4c3-0.5,6.6-3.1,8-5.8c1.4-2.8,3.6-2.8,4.9,0c1.4,2.8,5,5.4,8,5.8s3.7,2.5,1.5,4.7s-3.6,6.4-3,9.4
			c0.5,3-1.3,4.3-4,2.9s-7.2-1.4-9.9,0s-4.5,0.1-4-2.9s-0.9-7.3-3.1-9.4S15.5,108.9,18.5,108.4z"/>
	</g>
	
		<linearGradient id="SVGID_3_" gradientUnits="userSpaceOnUse" x1="231.7319" y1="286.6" x2="249.5969" y2="286.6" gradientTransform="matrix(1 0 0 -1 0 330)">
		<stop  offset="0" style="stop-color:#BDCCF9"/>
		<stop  offset="1" style="stop-color:#A2B6F4"/>
	</linearGradient>
	<path class="st5" d="M248.3,46.5l-4.6,4.6c-1.7,1.7-4.5,1.7-6.2,0l-4.6-4.6c-1.7-1.7-1.7-4.5,0-6.2l4.6-4.6c1.7-1.7,4.5-1.7,6.2,0
		l4.6,4.6C250,42,250,44.8,248.3,46.5z"/>
</g>
<g>
	<path class="st6" d="M238.7,217.2c0,10.2-1.5,20-4.2,29.3c-2.6,9-6.5,17.5-11.3,25.2c-18.2,29.2-50.6,48.7-87.6,48.7
		c-57,0-103.1-46.2-103.1-103.1c0-2,0.1-4.1,0.2-6.1c1.9-33.5,19.9-62.8,46.4-80.2c16.3-10.7,35.7-16.9,56.6-16.9
		C192.6,114.1,238.7,160.3,238.7,217.2z"/>
</g>
<linearGradient id="SVGID_4_" gradientUnits="userSpaceOnUse" x1="88.5" y1="241.7135" x2="148.932" y2="241.7135">
	<stop  offset="0" style="stop-color:#AAA0FF"/>
	<stop  offset="1" style="stop-color:#6B55FF"/>
</linearGradient>
<path class="st7" d="M185.5,187.6v41c0,14-11.3,25.4-25.3,25.4h-37.4l-18.3,15.7c1.9,0.7,3.9,1.1,6.1,1.1h40.1l28,24
	c0.8,0.7,1.7,1,2.7,1c0.6,0,1.2-0.1,1.7-0.4c1.5-0.7,2.4-2.2,2.4-3.8v-20.8c9.2,0,16.6-7.5,16.6-16.6v-49.9
	C202.2,195.1,194.7,187.6,185.5,187.6z"/>
<linearGradient id="SVGID_5_" gradientUnits="userSpaceOnUse" x1="62.7857" y1="216.7592" x2="212.0408" y2="216.7592">
	<stop  offset="0" style="stop-color:#AAA0FF"/>
	<stop  offset="1" style="stop-color:#6B55FF"/>
</linearGradient>
<path class="st8" d="M160.6,162.7H85.7c-9.2,0-16.6,7.5-16.6,16.6v49.9c0,9.2,7.5,16.6,16.6,16.6v20.8c0,1.6,0.9,3.1,2.4,3.8
	c0.5,0.3,1.1,0.4,1.7,0.4c1,0,2-0.3,2.7-1l28-24h40.1c9.2,0,16.6-7.5,16.6-16.6v-49.9C177.2,170.1,169.8,162.7,160.6,162.7z"/>
<g>
	<path id="XMLID_89_" class="st9" d="M123.7,213.2C123.7,213.2,123.7,213.2,123.7,213.2c-4.5,0-8.8,1.8-12,5c-1.1,1.1-1.1,3,0,4.1
		c0.6,0.6,1.3,0.9,2.1,0.9c0.7,0,1.5-0.3,2.1-0.9c2.1-2.1,4.9-3.2,7.8-3.2s5.7,1.2,7.8,3.2c1.1,1.1,3,1.1,4.1,0s1.1-3,0-4.1
		C132.4,215,128.2,213.2,123.7,213.2z"/>
	<path id="XMLID_90_" class="st9" d="M113.9,200.9c0.7-0.7,1.1-1.7,1.1-2.8s-0.4-2-1.1-2.8c-0.7-0.7-1.7-1.1-2.8-1.1
		c-1,0-2,0.4-2.8,1.1c-0.7,0.7-1.1,1.7-1.1,2.8s0.4,2,1.1,2.8c0.7,0.7,1.7,1.1,2.8,1.1S113.2,201.6,113.9,200.9z"/>
	<path id="XMLID_91_" class="st9" d="M136.1,194.2c-1,0-2,0.4-2.8,1.1c-0.7,0.7-1.1,1.7-1.1,2.8s0.4,2,1.1,2.8
		c0.7,0.7,1.7,1.1,2.8,1.1s2-0.4,2.8-1.1c0.7-0.7,1.1-1.7,1.1-2.8s-0.4-2-1.1-2.8C138.1,194.7,137.1,194.2,136.1,194.2z"/>
</g>
</svg>
