<?xml version="1.0" encoding="utf-8"?>
<!-- Generator: Adobe Illustrator 24.0.1, SVG Export Plug-In . SVG Version: 6.00 Build 0)  -->
<svg version="1.1" id="Layer_1" xmlns="http://www.w3.org/2000/svg" xmlns:xlink="http://www.w3.org/1999/xlink" x="0px" y="0px"
	 viewBox="0 0 280 330" style="enable-background:new 0 0 280 330;" xml:space="preserve">
<style type="text/css">
	.st0{opacity:0.19;fill:#7788E8;enable-background:new    ;}
	.st1{fill:url(#SVGID_1_);}
	.st2{fill:#8EAF56;}
	.st3{fill:#FDC500;}
	.st4{fill:url(#SVGID_2_);}
	.st5{fill:#85CBD1;}
	.st6{fill:url(#SVGID_3_);}
	.st7{fill:url(#SVGID_4_);}
	.st8{fill:url(#SVGID_5_);}
	.st9{fill:url(#SVGID_6_);}
	.st10{fill:#FF7676;}
</style>
<path class="st0" d="M143.5,107.2c-57.9,0-104.9,47-104.9,104.9c0,57.9,47,104.9,104.9,104.9s104.9-47,104.9-104.9
	C248.4,154.2,201.4,107.2,143.5,107.2z"/>
<g>
	
		<linearGradient id="SVGID_1_" gradientUnits="userSpaceOnUse" x1="74.8385" y1="-232.0362" x2="74.7976" y2="-222.4322" gradientTransform="matrix(1 0 0 1 0 298)">
		<stop  offset="0" style="stop-color:#AAA0FF"/>
		<stop  offset="1" style="stop-color:#6B55FF"/>
	</linearGradient>
	<circle class="st1" cx="74.8" cy="75" r="5.8"/>
	<circle class="st2" cx="60.1" cy="26.9" r="3.3"/>
	<circle class="st3" cx="262.7" cy="113" r="4.3"/>
	<g>
		
			<linearGradient id="SVGID_2_" gradientUnits="userSpaceOnUse" x1="1261.6252" y1="-1068.653" x2="1261.5358" y2="-1047.6119" gradientTransform="matrix(0.807 -0.5906 0.5906 0.807 -249.5061 1622.1487)">
			<stop  offset="0" style="stop-color:#FF5159"/>
			<stop  offset="0.4918" style="stop-color:#FA676F"/>
			<stop  offset="1" style="stop-color:#F4828B"/>
		</linearGradient>
		<path class="st4" d="M138.1,23.9c3-0.5,6.6-3.1,8-5.8c1.4-2.8,3.6-2.8,4.9,0c1.4,2.8,5,5.4,8,5.8s3.7,2.5,1.5,4.7s-3.6,6.4-3,9.4
			c0.5,3-1.3,4.3-4,2.9c-2.7-1.4-7.2-1.4-9.9,0s-4.5,0.1-4-2.9s-0.9-7.3-3.1-9.4C134.3,26.4,135,24.3,138.1,23.9z"/>
	</g>
	<g>
		<path class="st5" d="M18.5,108.4c3-0.5,6.6-3.1,8-5.8c1.4-2.8,3.6-2.8,4.9,0c1.4,2.8,5,5.4,8,5.8s3.7,2.5,1.5,4.7s-3.6,6.4-3,9.4
			c0.5,3-1.3,4.3-4,2.9s-7.2-1.4-9.9,0s-4.5,0.1-4-2.9s-0.9-7.3-3.1-9.4S15.5,108.9,18.5,108.4z"/>
	</g>
	
		<linearGradient id="SVGID_3_" gradientUnits="userSpaceOnUse" x1="231.7319" y1="-254.6" x2="249.5969" y2="-254.6" gradientTransform="matrix(1 0 0 1 0 298)">
		<stop  offset="0" style="stop-color:#BDCCF9"/>
		<stop  offset="1" style="stop-color:#A2B6F4"/>
	</linearGradient>
	<path class="st6" d="M248.3,46.5l-4.6,4.6c-1.7,1.7-4.5,1.7-6.2,0l-4.6-4.6c-1.7-1.7-1.7-4.5,0-6.2l4.6-4.6c1.7-1.7,4.5-1.7,6.2,0
		l4.6,4.6C250,42,250,44.8,248.3,46.5z"/>
</g>
<linearGradient id="SVGID_4_" gradientUnits="userSpaceOnUse" x1="138.1654" y1="177.1429" x2="138.1654" y2="219.1702">
	<stop  offset="0" style="stop-color:#AAA0FF"/>
	<stop  offset="1" style="stop-color:#6B55FF"/>
</linearGradient>
<path class="st7" d="M148.7,177.7h-50c-0.9,0-1.8,0.5-2.2,1.4c0,0-6.9,14-9,18.2c-0.7,1.3-1,2.7-0.8,3.9c0.9,8.7,8.1,15.3,16.9,15.3
	c3.6,0,7-1.1,9.9-3.2c3.1,4.9,8.5,8.1,14.4,8.1c4.6,0,9-1.9,12.1-5.1c3.2,3.2,7.5,5.1,12.1,5.1c5.9,0,11.3-3.1,14.4-8.1
	c2.9,2.1,6.3,3.2,9.9,3.2c5.4,0,10.2-2.5,13.3-6.4c-1.5,0.2-3.1,0.3-4.6,0.3C166.2,210.5,150.6,196.1,148.7,177.7z"/>
<linearGradient id="SVGID_5_" gradientUnits="userSpaceOnUse" x1="96.8045" y1="168.0081" x2="150.1308" y2="168.0081">
	<stop  offset="0" style="stop-color:#AAA0FF"/>
	<stop  offset="1" style="stop-color:#6B55FF"/>
</linearGradient>
<path class="st8" d="M106.1,163.2c-4.1,0-7.7,2.6-9.1,6.5c-0.3,0.7-0.1,1.6,0.3,2.2c0.5,0.6,1.2,1,2,1h49.3c0.1-3.4,0.6-6.6,1.6-9.7
	H106.1z"/>
<linearGradient id="SVGID_6_" gradientUnits="userSpaceOnUse" x1="139.9976" y1="217.6429" x2="139.9976" y2="271.4176">
	<stop  offset="0" style="stop-color:#AAA0FF"/>
	<stop  offset="1" style="stop-color:#6B55FF"/>
</linearGradient>
<path class="st9" d="M182.7,221.3c-0.6-0.5-1.3-0.6-2-0.5c-3.9,0.8-7.9,0.5-11.6-0.8c-0.8-0.3-1.8-0.1-2.4,0.5
	c-6.9,6.2-17.5,7.3-25.5,2.7c-0.8-0.4-1.7-0.4-2.4,0c-7.9,4.6-18.6,3.5-25.5-2.7c-0.7-0.6-1.6-0.8-2.4-0.5
	c-3.7,1.3-7.8,1.6-11.6,0.8c-0.7-0.1-1.5,0-2,0.5c-0.6,0.5-0.9,1.2-0.9,1.9v36.9c0,5.3,4.3,9.7,9.7,9.7h31.5c1.3,0,2.4-1.1,2.4-2.4
	v-31.4c0-1.3,1.1-2.4,2.4-2.4l24.3,0.1c1.3,0,2.4,1.1,2.4,2.4v31.4c0,1.3,1.1,2.4,2.4,2.4l2.3-0.1c5.3,0,9.7-4.3,9.7-9.7v-36.9
	C183.6,222.5,183.3,221.8,182.7,221.3z M130.3,250.4c0,1.3-1.1,2.4-2.4,2.4h-14.5c-1.3,0-2.4-1.1-2.4-2.4v-14.5
	c0-1.3,1.1-2.4,2.4-2.4h14.5c1.3,0,2.4,1.1,2.4,2.4V250.4z"/>
<path class="st0" d="M185,146.4c-15.2,0-27.5,12.4-27.5,27.5s12.4,27.5,27.5,27.5c15.2,0,27.5-12.4,27.5-27.5
	C212.6,158.8,200.2,146.4,185,146.4z"/>
<g>
	<path class="st10" d="M192.1,173.7c0,6-2.4,10-7.3,10c-5,0-7.2-4.4-7.2-9.9c0-5.5,2.4-10,7.4-10C190,163.8,192.1,168.4,192.1,173.7
		z M182.1,173.8c0,4.4,1,6.5,2.8,6.5s2.7-2.2,2.7-6.6c0-4.3-0.9-6.5-2.7-6.5C183.2,167.2,182,169.3,182.1,173.8z"/>
</g>
</svg>
