<svg xmlns="http://www.w3.org/2000/svg" width="37.517" height="32.923" viewBox="0 0 37.517 32.923"><defs><style>.a{fill:#55d4be;}.b{fill:#24bfb2;}.c{fill:#f2edec;}.d{fill:#fce780;}.e{fill:#fee2ca;}.f{fill:#fdd0ab;}</style></defs><g transform="translate(-6.569 0.001)"><path class="a" d="M72.107,148.677H66.023a2.028,2.028,0,0,1-2.028-2.028V130.032A2.028,2.028,0,0,1,66.023,128h6.084a2.028,2.028,0,0,1,2.028,2.028v16.617A2.028,2.028,0,0,1,72.107,148.677Z" transform="translate(-57.426 -115.755)"/><path class="b" d="M66.023,145.635V128a2.028,2.028,0,0,0-2.028,2.028v16.617a2.028,2.028,0,0,0,2.028,2.028h6.084a2.028,2.028,0,0,0,2.028-2.028h-7.1A1.014,1.014,0,0,1,66.023,145.635Z" transform="translate(-57.426 -115.755)"/><circle class="c" cx="1.521" cy="1.521" r="1.521" transform="translate(10.117 26.838)"/><path class="d" d="M197.322,14.641h0a2.535,2.535,0,0,0-2.535-2.535H182.009a9.573,9.573,0,0,0,1.531-4.451C184.306,2.3,182.384.237,180.478,0a.8.8,0,0,0-.891.793s-.481,5.009-1.405,6.858c-2.3,4.594-8.236,6.891-8.236,6.891V30.874A5.579,5.579,0,0,0,174,32.385h18.758a2.535,2.535,0,0,0,0-5.07h1.014a2.535,2.535,0,0,0,2.535-2.535h0a2.535,2.535,0,0,0-2.535-2.535h1.014a2.535,2.535,0,0,0,2.535-2.535h0a2.535,2.535,0,0,0-2.535-2.535A2.534,2.534,0,0,0,197.322,14.641Z" transform="translate(-153.236 0)"/><path class="e" d="M197.322,14.641h0a2.535,2.535,0,0,0-2.535-2.535H182.009a9.573,9.573,0,0,0,1.531-4.451C184.306,2.3,182.384.237,180.478,0a.8.8,0,0,0-.891.793s-.481,5.009-1.405,6.858c-2.3,4.594-8.236,6.891-8.236,6.891V30.874A5.579,5.579,0,0,0,174,32.385h18.758a2.535,2.535,0,0,0,0-5.07h1.014a2.535,2.535,0,0,0,2.535-2.535h0a2.535,2.535,0,0,0-2.535-2.535h1.014a2.535,2.535,0,0,0,2.535-2.535h0a2.535,2.535,0,0,0-2.535-2.535A2.534,2.534,0,0,0,197.322,14.641Z" transform="translate(-153.236 0)"/><g transform="translate(16.709 13.627)"><path class="f" d="M192.758,305.691H174a5.579,5.579,0,0,1-4.056-1.511v1.531A5.579,5.579,0,0,0,174,307.223h18.758a2.536,2.536,0,0,0,2.417-3.3A2.536,2.536,0,0,1,192.758,305.691Z" transform="translate(-169.944 -288.464)"/><path class="f" d="M405.568,143.923h-2.535v2.028h2.535a2.535,2.535,0,0,0,2.535-2.535h0a2.524,2.524,0,0,0-.212-1.014A2.534,2.534,0,0,1,405.568,143.923Z" transform="translate(-380.726 -142.402)"/><path class="f" d="M405.568,196.9h-2.535v2.028h2.535a2.535,2.535,0,0,0,2.535-2.535h0a2.524,2.524,0,0,0-.212-1.014A2.534,2.534,0,0,1,405.568,196.9Z" transform="translate(-380.726 -190.307)"/><path class="f" d="M404.553,249.873h-1.521V251.9h1.521a2.535,2.535,0,0,0,2.535-2.535h0a2.523,2.523,0,0,0-.212-1.014A2.535,2.535,0,0,1,404.553,249.873Z" transform="translate(-380.725 -238.212)"/></g></g></svg>