<?xml version="1.0" encoding="utf-8"?>
<!-- Generator: Adobe Illustrator 24.0.1, SVG Export Plug-In . SVG Version: 6.00 Build 0)  -->
<svg version="1.1" id="Layer_1" xmlns="http://www.w3.org/2000/svg" xmlns:xlink="http://www.w3.org/1999/xlink" x="0px" y="0px"
	 viewBox="0 0 280 330" style="enable-background:new 0 0 280 330;" xml:space="preserve">
<style type="text/css">
	.st0{opacity:0.19;fill:#7788E8;enable-background:new    ;}
	.st1{fill:url(#SVGID_1_);}
	.st2{fill:#8EAF56;}
	.st3{fill:#FDC500;}
	.st4{fill:url(#SVGID_2_);}
	.st5{fill:#85CBD1;}
	.st6{fill:url(#SVGID_3_);}
	.st7{fill:url(#SVGID_4_);}
	.st8{fill:url(#SVGID_5_);}
	.st9{fill:#FF7676;}
</style>
<circle class="st0" cx="143.5" cy="212.1" r="104.9"/>
<g>
	
		<linearGradient id="SVGID_1_" gradientUnits="userSpaceOnUse" x1="74.8385" y1="264.0362" x2="74.7976" y2="254.4322" gradientTransform="matrix(1 0 0 -1 0 330)">
		<stop  offset="0" style="stop-color:#AAA0FF"/>
		<stop  offset="1" style="stop-color:#6B55FF"/>
	</linearGradient>
	<circle class="st1" cx="74.8" cy="75" r="5.8"/>
	<circle class="st2" cx="60.1" cy="26.9" r="3.3"/>
	<circle class="st3" cx="262.7" cy="113" r="4.3"/>
	<g>
		
			<linearGradient id="SVGID_2_" gradientUnits="userSpaceOnUse" x1="1149.6931" y1="1056.1866" x2="1149.6036" y2="1035.1456" gradientTransform="matrix(0.807 -0.5906 -0.5906 -0.807 -166.5395 1545.9813)">
			<stop  offset="0" style="stop-color:#FF5159"/>
			<stop  offset="0.4918" style="stop-color:#FA676F"/>
			<stop  offset="1" style="stop-color:#F4828B"/>
		</linearGradient>
		<path class="st4" d="M138.1,23.9c3-0.5,6.6-3.1,8-5.8c1.4-2.8,3.6-2.8,4.9,0c1.4,2.8,5,5.4,8,5.8s3.7,2.5,1.5,4.7s-3.6,6.4-3,9.4
			c0.5,3-1.3,4.3-4,2.9c-2.7-1.4-7.2-1.4-9.9,0s-4.5,0.1-4-2.9s-0.9-7.3-3.1-9.4C134.3,26.4,135,24.3,138.1,23.9z"/>
	</g>
	<g>
		<path class="st5" d="M18.5,108.4c3-0.5,6.6-3.1,8-5.8c1.4-2.8,3.6-2.8,4.9,0c1.4,2.8,5,5.4,8,5.8s3.7,2.5,1.5,4.7s-3.6,6.4-3,9.4
			c0.5,3-1.3,4.3-4,2.9s-7.2-1.4-9.9,0s-4.5,0.1-4-2.9s-0.9-7.3-3.1-9.4S15.5,108.9,18.5,108.4z"/>
	</g>
	
		<linearGradient id="SVGID_3_" gradientUnits="userSpaceOnUse" x1="231.7319" y1="286.6" x2="249.5969" y2="286.6" gradientTransform="matrix(1 0 0 -1 0 330)">
		<stop  offset="0" style="stop-color:#BDCCF9"/>
		<stop  offset="1" style="stop-color:#A2B6F4"/>
	</linearGradient>
	<path class="st6" d="M248.3,46.5l-4.6,4.6c-1.7,1.7-4.5,1.7-6.2,0l-4.6-4.6c-1.7-1.7-1.7-4.5,0-6.2l4.6-4.6c1.7-1.7,4.5-1.7,6.2,0
		l4.6,4.6C250,42,250,44.8,248.3,46.5z"/>
</g>
<g>
	<path class="st0" d="M184.2,136c-23.2,0-42.1,18.9-42.1,42.1c0,23.2,18.9,42.1,42.1,42.1c23.2,0,42.1-18.9,42.1-42.1
		C226.3,154.9,207.4,136,184.2,136z"/>
	<linearGradient id="SVGID_4_" gradientUnits="userSpaceOnUse" x1="135.54" y1="230.3115" x2="135.54" y2="272.2429">
		<stop  offset="0" style="stop-color:#AAA0FF"/>
		<stop  offset="1" style="stop-color:#6B55FF"/>
	</linearGradient>
	<path class="st7" d="M161.5,265.6c0,14.3-11.6,25.9-25.9,25.9c-14.3,0-25.9-11.6-25.9-25.9c0-14.3,11.6-25.9,25.9-25.9
		C149.9,239.7,161.5,251.3,161.5,265.6z"/>
	<linearGradient id="SVGID_5_" gradientUnits="userSpaceOnUse" x1="85.6698" y1="207.3107" x2="206.4195" y2="207.3107">
		<stop  offset="0" style="stop-color:#AAA0FF"/>
		<stop  offset="1" style="stop-color:#6B55FF"/>
	</linearGradient>
	<path class="st8" d="M186.2,233.1c-0.7,0-1.4,0.1-2.1,0.1c-30.4,0-55.1-24.7-55.1-55.1c0-10.7,3.1-20.6,8.4-29.1
		c-0.6,0-1.3-0.1-1.9-0.1c-25,0-45.4,20.4-45.4,45.4v18.1c0,12.8-5.6,24.9-15.5,33.3c-2.5,2.2-4,5.3-4,8.6c0,6.3,5.1,11.3,11.3,11.3
		H189c6.3,0,11.3-5.1,11.3-11.3c0-3.3-1.4-6.5-4-8.7C192.1,242.1,188.8,237.8,186.2,233.1z"/>
	<g>
		<path class="st9" d="M196.4,177.8c0,9.8-3.9,16.5-12,16.5c-8.2,0-11.8-7.3-11.8-16.3c0-9.1,3.9-16.4,12.1-16.4
			C193.1,161.6,196.4,169.1,196.4,177.8z M180,178c0,7.2,1.7,10.7,4.6,10.7c2.9,0,4.4-3.6,4.4-10.8c0-7-1.5-10.7-4.5-10.7
			C181.8,167.2,179.9,170.6,180,178z"/>
	</g>
</g>
</svg>
