<?xml version="1.0" encoding="utf-8"?>
<!-- Generator: Adobe Illustrator 24.0.1, SVG Export Plug-In . SVG Version: 6.00 Build 0)  -->
<svg version="1.1" id="Layer_1" xmlns="http://www.w3.org/2000/svg" xmlns:xlink="http://www.w3.org/1999/xlink" x="0px" y="0px"
	 viewBox="0 0 100 100" style="enable-background:new 0 0 100 100;" xml:space="preserve">
<style type="text/css">
	.st0{fill:#4EB96F;}
	.st1{fill:#3B97D2;}
	.st2{fill:#EBECEC;}
	.st3{fill:#E64C3B;}
	.st4{fill:#EFC319;}
	.st5{fill:#FFFFFF;}
</style>
<g>
	<path class="st0" d="M49.4,79.7c0.7-4.8,0.4-8.6,0.7-10.4c0.4-1.8,0-14,0-14s3.6-3.9,4.5-3.9c0.9,0,16.5-1.4,16.5-1.4
		s13.1-3.8,13.2-4.1c0.2-0.4,9.1-10.8,9.2-10.9C87.3,17.1,70.2,4.2,50.2,4.2C24.9,4.2,4.4,24.7,4.4,50c0,19.8,12.6,36.7,30.3,43.1
		l6.6-4.1C41.2,89,48.7,84.5,49.4,79.7z"/>
	<path class="st1" d="M96,50c0-3.6-0.4-7.2-1.2-10.6c-1.2,0.6-2.1,1.2-2.6,1.6c-1.4,1.3-9.3,7.7-11.5,9.8s-4.8,1.6-5.5,1.3
		c-0.7-0.4-11.8,0-11.8,0l-10,0v8.2c0,0-1.6,9.3-2.1,10c-0.5,0.7-5.1,14.8-5.1,14.8l-7.3,8l-0.4,1.2c3.7,1,7.7,1.5,11.7,1.5
		C75.5,95.8,96,75.3,96,50z"/>
	<g>
		<g>
			<path class="st2" d="M68.8,8.1c-3-1.3-6.2-2.4-9.5-3l-9.1,9.4l-9-9.4c-3.6,0.7-7,1.8-10.2,3.3l19.4,19L68.8,8.1z"/>
			<path class="st2" d="M91.8,30.9L77.9,45H22.6L8.5,30.9C7.1,34,6,37.4,5.3,40.9l9.2,9.2l-9,9.7c0.7,3.3,1.8,6.5,3.2,9.4l14.4-14.4
				h22.5v22.4L31.1,91.7c3.2,1.5,6.5,2.6,10.1,3.3L55.1,81V54.8h26.2l13.9-13.7C94.4,37.5,93.3,34.1,91.8,30.9z"/>
		</g>
	</g>
	<g>
		<path class="st3" d="M50.1,15.3c-8.5,0-15.4,6.9-15.4,15.4s15.4,20.9,15.4,20.9s15.4-12.4,15.4-20.9S58.6,15.3,50.1,15.3z
			 M50.1,39.6c-4.9,0-8.9-4-8.9-8.9s4-8.9,8.9-8.9s8.9,4,8.9,8.9S55.1,39.6,50.1,39.6z"/>
		<circle class="st4" cx="50.1" cy="30.7" r="8.9"/>
	</g>
	<path class="st5" d="M50,5c24.8,0,45,20.2,45,45S74.8,95,50,95S5,74.8,5,50S25.2,5,50,5 M50,2C23.5,2,2,23.5,2,50s21.5,48,48,48
		s48-21.5,48-48S76.5,2,50,2L50,2z"/>
</g>
</svg>
