<svg xmlns="http://www.w3.org/2000/svg" width="112.559" height="145.608" viewBox="0 0 112.559 145.608"><defs><style>.a{fill:#ddd;}.b{fill:#c6cce9;}.c{fill:#9aa4ce;}.d{fill:#737eac;}.e{fill:#6c7ba9;}</style></defs><g transform="translate(-253.387 -186.055)"><ellipse class="a" cx="56.28" cy="13.282" rx="56.28" ry="13.282" transform="translate(253.387 305.098)"/><path class="b" d="M371.959,432.672H295.673a11,11,0,0,1-11-11V341.824a11,11,0,0,1,11-11h76.285a11,11,0,0,1,11,11v79.852A11,11,0,0,1,371.959,432.672Z" transform="translate(-24.149 -111.734)"/><path class="c" d="M374.12,312.627H293.513a8.835,8.835,0,0,1-8.835-8.835V291.785a8.835,8.835,0,0,1,8.835-8.835H374.12a8.835,8.835,0,0,1,8.835,8.835v12.006A8.835,8.835,0,0,1,374.12,312.627Z" transform="translate(-24.15 -74.783)"/><g transform="translate(260.533 209.198)"><g transform="translate(0 0)"><path class="b" d="M289.393,287.464a9.5,9.5,0,0,0-4.695,8.311v12.784a9.5,9.5,0,0,0,4.695,8.311,17.476,17.476,0,0,0,0-29.406Z" transform="translate(-284.699 -287.464)"/><path class="b" d="M667.574,316.87a9.5,9.5,0,0,0,4.694-8.311V295.775a9.5,9.5,0,0,0-4.694-8.311,17.476,17.476,0,0,0,0,29.406Z" transform="translate(-574 -287.464)"/></g></g><path class="c" d="M435.409,222.553c-10.531,0-19.1-8.187-19.1-18.249s8.568-18.249,19.1-18.249,19.1,8.186,19.1,18.249S445.94,222.553,435.409,222.553Zm0-32.419c-8.282,0-15.02,6.357-15.02,14.17s6.738,14.17,15.02,14.17,15.02-6.357,15.02-14.17S443.691,190.134,435.409,190.134Z" transform="translate(-125.742)"/><path class="b" d="M435.409,351.679c-10.531,0-19.1-8.186-19.1-18.249s8.568-18.249,19.1-18.249,19.1,8.187,19.1,18.249S445.94,351.679,435.409,351.679Zm0-32.419c-8.282,0-15.02,6.357-15.02,14.17s6.738,14.17,15.02,14.17,15.02-6.357,15.02-14.17S443.691,319.26,435.409,319.26Z" transform="translate(-125.742 -99.658)"/><g transform="translate(285.277 260.421)"><circle class="d" cx="13.925" cy="13.925" r="13.925" transform="translate(9.766 14.476)"/><circle class="b" cx="7.303" cy="7.303" r="7.303" transform="translate(13.442 32.341) rotate(-45)"/><g transform="translate(0 0)"><path class="e" d="M396.321,521.313a34.835,34.835,0,0,1,6.14-6.6c1.652-1.39-.729-3.75-2.37-2.37a38.047,38.047,0,0,0-6.664,7.281c-1.243,1.768,1.662,3.445,2.894,1.691Z" transform="translate(-393.124 -511.922)"/><g transform="translate(0.006 0)"><path class="e" d="M402.742,519.622a38.068,38.068,0,0,0-6.664-7.281c-1.64-1.38-4.023.979-2.37,2.37a34.819,34.819,0,0,1,6.14,6.6c1.23,1.752,4.137.079,2.894-1.691Z" transform="translate(-393.15 -511.923)"/></g></g><g transform="translate(38.879 0)"><path class="e" d="M573.107,519.622a38.067,38.067,0,0,0-6.664-7.281c-1.64-1.38-4.023.979-2.37,2.37a34.818,34.818,0,0,1,6.14,6.6c1.23,1.752,4.137.079,2.894-1.691Z" transform="translate(-563.509 -511.923)"/><path class="e" d="M566.686,521.313a34.843,34.843,0,0,1,6.14-6.6c1.652-1.39-.729-3.75-2.37-2.37a38.056,38.056,0,0,0-6.664,7.281c-1.242,1.768,1.662,3.445,2.894,1.691Z" transform="translate(-563.49 -511.922)"/></g></g></g></svg>