<svg xmlns="http://www.w3.org/2000/svg" width="14" height="17" viewBox="0 0 14 17"><defs><style>.a{fill:#80838c;}</style></defs><g transform="translate(-2)"><path class="a" d="M6.547,3.646A.547.547,0,0,1,6,3.1V.547a.547.547,0,0,1,1.094,0V3.1A.547.547,0,0,1,6.547,3.646Z" transform="translate(-1.05)"/><path class="a" d="M11.547,3.646A.547.547,0,0,1,11,3.1V.547a.547.547,0,0,1,1.094,0V3.1A.547.547,0,0,1,11.547,3.646Z" transform="translate(-2.363)"/><path class="a" d="M16.047,3.646A.547.547,0,0,1,15.5,3.1V.547a.547.547,0,0,1,1.094,0V3.1A.547.547,0,0,1,16.047,3.646Z" transform="translate(-3.544)"/><path class="a" d="M14.34,18.094H6.556a.547.547,0,1,1,0-1.094H14.34a.547.547,0,1,1,0,1.094Z" transform="translate(-1.083 -4.982)"/><path class="a" d="M14.34,14.094H6.556a.547.547,0,1,1,0-1.094H14.34a.547.547,0,1,1,0,1.094Z" transform="translate(-1.083 -3.81)"/><path class="a" d="M10.557,10.094H6.547A.547.547,0,0,1,6.547,9h4.01a.547.547,0,1,1,0,1.094Z" transform="translate(-1.035 -2.638)"/><path class="a" d="M13.974,17.542H4.026A1.987,1.987,0,0,1,2,15.6V3.943A1.987,1.987,0,0,1,4.026,2h9.947A1.987,1.987,0,0,1,16,3.943V15.6A1.987,1.987,0,0,1,13.974,17.542ZM4.026,3.06a.9.9,0,0,0-.921.883V15.6a.9.9,0,0,0,.921.883h9.947a.9.9,0,0,0,.921-.883V3.943a.9.9,0,0,0-.921-.883Z" transform="translate(0 -0.542)"/></g></svg>