<svg height="512pt" viewBox="0 0 512 512" width="512pt" xmlns="http://www.w3.org/2000/svg" xmlns:xlink="http://www.w3.org/1999/xlink"><linearGradient id="a" gradientUnits="userSpaceOnUse" x1="-.0003004387" x2="511.9787075613" y1="256.0002035613" y2="256.0002035613"><stop offset="0" stop-color="#00f2fe"/><stop offset=".0208" stop-color="#03effe"/><stop offset=".2931" stop-color="#24d2fe"/><stop offset=".5538" stop-color="#3cbdfe"/><stop offset=".7956" stop-color="#4ab0fe"/><stop offset="1" stop-color="#4facfe"/></linearGradient><path d="m491.980469 391.984375h-30.761719c6.828125-11.777344 10.761719-25.433594 10.761719-40 0-11.042969-8.953125-19.996094-20-19.996094-11.042969 0-20 8.953125-20 19.996094 0 22.054687-17.941407 40-39.996094 40h-148.996094c-22.054687 0-39.996093-17.945313-39.996093-40v-67.996094h38.996093v20c0 11.042969 8.957031 20 20 20 11.046875 0 20-8.957031 20-20v-20h70.996094v20c0 11.042969 8.953125 20 20 20s20-8.957031 20-20v-20h56.996094c.339843 0 .667969-.035156 1-.050781.335937.015625.664062.050781 1 .050781 11.046875 0 20-8.953125 20-20v-20c0-44.109375-35.886719-79.996093-79.996094-79.996093h-8v-8c0-36.941407-30.054687-66.996094-66.996094-66.996094-36.945312 0-67 30.054687-67 66.996094v8h-7c-44.109375 0-79.996093 35.886718-79.996093 79.996093v107.996094c0 14.566406 3.933593 28.222656 10.765624 40h-50.761718v-311.988281c0-44.109375-35.886719-79.996094-79.996094-79.996094h-23c-11.046875 0-20 8.953125-20 20 0 11.042969 8.953125 20 20 20h23c22.054688 0 39.996094 17.941406 39.996094 39.996094v315.09375c-1.636719.550781-3.261719 1.160156-4.863282 1.855468-14.699218 6.375-26.039062 18.089844-31.925781 32.992188-5.890625 14.902344-5.621093 31.207031.753907 45.90625 6.371093 14.699219 18.089843 26.039062 32.992187 31.925781 7.140625 2.824219 14.601563 4.230469 22.058594 4.230469 8.101562 0 16.191406-1.664062 23.847656-4.980469 14.699219-6.375 26.039063-18.09375 31.925781-32.996093 5.378906-13.605469 5.605469-28.382813.753906-42.042969h206.90625c-5.089843 14.34375-4.582031 29.832031 1.5 43.863281 6.375 14.699219 18.09375 26.039062 32.996094 31.925781 7.140625 2.824219 14.601563 4.230469 22.058594 4.230469 8.097656 0 16.191406-1.664062 23.847656-4.980469 14.699219-6.375 26.039063-18.09375 31.925782-32.996093 5.378906-13.605469 5.605468-28.382813.75-42.042969h13.457031c11.046875 0 20-8.953125 20-19.996094 0-11.046875-8.957031-20-20-20zm-201.992188-235.992187c0-14.886719 12.109375-26.996094 27-26.996094 14.886719 0 26.996094 12.109375 26.996094 26.996094v8h-53.996094zm-47 48h148.996094c22.054687 0 39.996094 17.941406 39.996094 39.996093h-228.988281c0-22.054687 17.941406-39.996093 39.996093-39.996093zm-122.402343 255.335937c-1.960938 4.964844-5.738282 8.867187-10.636719 10.992187-4.902344 2.125-10.335938 2.214844-15.300781.25-4.964844-1.960937-8.867188-5.738281-10.992188-10.636718-2.125-4.898438-2.210938-10.332032-.25-15.296875 1.960938-4.964844 5.738281-8.871094 10.636719-10.996094 2.554687-1.105469 5.246093-1.660156 7.945312-1.660156 2.484375 0 4.972657.472656 7.351563 1.410156 4.96875 1.960937 8.871094 5.742187 10.996094 10.640625 2.121093 4.898438 2.210937 10.328125.25 15.296875zm308.742187-25.9375c4.964844 1.960937 8.867187 5.742187 10.992187 10.640625s2.214844 10.328125.25 15.296875c-1.960937 4.964844-5.738281 8.867187-10.636718 10.992187-4.898438 2.125-10.332032 2.214844-15.296875.25-4.964844-1.960937-8.871094-5.738281-10.996094-10.636718-2.121094-4.898438-2.210937-10.332032-.25-15.296875 1.960937-4.964844 5.742187-8.871094 10.640625-10.996094 2.550781-1.105469 5.246094-1.660156 7.945312-1.660156 2.484376 0 4.972657.472656 7.351563 1.410156zm0 0" fill="url(#a)"/></svg>