<svg xmlns="http://www.w3.org/2000/svg" width="218" height="218" viewBox="0 0 218 218"><defs><style>.a{fill:#f6f6f6;}.b{fill:#ddd;}.c{fill:#c6cce9;}.d{fill:#9aa4ce;}.e{fill:#737eac;}</style></defs><g transform="translate(-0.333 -0.333)"><rect class="a" width="218" height="218" transform="translate(0.333 0.333)"/><g transform="translate(33.91 11.766)"><ellipse class="b" cx="75.423" cy="17.8" rx="75.423" ry="17.8" transform="translate(0 159.535)"/><path class="c" d="M220.368,269.758H118.134A14.737,14.737,0,0,1,103.4,255.022V148.008a14.737,14.737,0,0,1,14.736-14.736H220.368A14.737,14.737,0,0,1,235.1,148.008V255.022A14.737,14.737,0,0,1,220.368,269.758Z" transform="translate(-93.828 -88.995)"/><path class="d" d="M223.264,138.221H115.238A11.841,11.841,0,0,1,103.4,126.38V110.29a11.841,11.841,0,0,1,11.84-11.841H223.264A11.841,11.841,0,0,1,235.1,110.29v16.09A11.841,11.841,0,0,1,223.264,138.221Z" transform="translate(-93.828 -68.815)"/><g transform="translate(9.576 31.014)"><path class="c" d="M109.7,101.732a12.733,12.733,0,0,0-6.291,11.138V130A12.732,12.732,0,0,0,109.7,141.14a23.42,23.42,0,0,0,0-39.408Z" transform="translate(-103.413 -101.732)"/><path class="c" d="M386.8,141.14A12.733,12.733,0,0,0,393.088,130V112.87a12.733,12.733,0,0,0-6.291-11.138,23.42,23.42,0,0,0,0,39.408Z" transform="translate(-261.394 -101.732)"/></g><path class="d" d="M224.728,76.892c-14.114,0-25.6-10.971-25.6-24.457s11.482-24.457,25.6-24.457,25.6,10.971,25.6,24.457S238.842,76.892,224.728,76.892Zm0-43.447c-11.1,0-20.129,8.519-20.129,18.99s9.03,18.99,20.129,18.99,20.129-8.519,20.129-18.99S235.827,33.446,224.728,33.446Z" transform="translate(-149.305 -27.979)"/><path class="c" d="M224.728,170.8c-14.114,0-25.6-10.971-25.6-24.457s11.482-24.457,25.6-24.457,25.6,10.971,25.6,24.457S238.842,170.8,224.728,170.8Zm0-43.447c-11.1,0-20.129,8.519-20.129,18.99s9.03,18.99,20.129,18.99,20.129-8.519,20.129-18.99S235.827,127.358,224.728,127.358Z" transform="translate(-149.305 -82.4)"/><g transform="translate(43.364 110.267)"><path class="e" d="M252.27,343.845h-.084c-.481-2.373-2.977-4.192-5.957-4.192H217.475c-2.986,0-5.486,1.825-5.962,4.205l-.118,0,.037.8-.005.09.007.028c.087,9.519,9.221,17.247,20.419,17.247,11.234,0,20.4-7.781,20.421-17.347Z" transform="translate(-199.774 -318.857)"/><path class="c" d="M255.564,362.938v-.013h0c-.015-1.187-1.413-2.148-3.135-2.148H235.237c-1.726,0-3.123.961-3.138,2.148h0v.019h0c.013,4.687,5.26,8.482,11.731,8.482s11.717-3.795,11.734-8.482h0Z" transform="translate(-211.773 -331.098)"/><path class="e" d="M188.091,297.581c.321-1.26,1.053-2.921,2.572-2.987a2.412,2.412,0,0,1,2.318,1.843c.339,2.781,4.752,2.815,4.409,0a6.861,6.861,0,0,0-6.334-6.229c-3.71-.212-6.365,2.857-7.216,6.2-.7,2.751,3.55,3.925,4.251,1.172Z" transform="translate(-183.762 -290.198)"/><path class="e" d="M317.355,296.411c-.853-3.349-3.507-6.4-7.216-6.2a6.855,6.855,0,0,0-6.334,6.229c-.342,2.81,4.07,2.786,4.41,0a2.413,2.413,0,0,1,2.318-1.843c1.516.065,2.251,1.73,2.572,2.987.7,2.748,4.953,1.583,4.251-1.172Z" transform="translate(-253.314 -290.2)"/></g></g></g></svg>