<?xml version="1.0" encoding="utf-8"?>
<!-- Generator: Adobe Illustrator 24.0.1, SVG Export Plug-In . SVG Version: 6.00 Build 0)  -->
<svg version="1.1" id="Layer_1" xmlns="http://www.w3.org/2000/svg" xmlns:xlink="http://www.w3.org/1999/xlink" x="0px" y="0px"
	 viewBox="0 0 100 100" style="enable-background:new 0 0 100 100;" xml:space="preserve">
<style type="text/css">
	.st0{fill:#6BDAEE;}
	.st1{fill:#171B55;}
	.st2{fill:#1C9CE5;}
	.st3{fill:#0FE7DC;}
</style>
<g>
	<circle class="st0" cx="49.4" cy="49.6" r="43.2"/>
	<path class="st1" d="M6.9,69.6c-0.3,0-0.6-0.2-0.7-0.5C3.4,62.9,2,56.3,2,49.5c0-12.7,4.9-24.6,13.9-33.6S36.8,2,49.5,2
		c12.7,0,24.6,4.9,33.6,13.9S97,36.8,97,49.5c0,4.1-0.5,8.2-1.6,12.2c-0.1,0.4-0.5,0.7-0.9,0.6c-0.4-0.1-0.7-0.5-0.6-0.9
		c1-3.8,1.5-7.8,1.5-11.8c0-25.3-20.6-46-46-46s-46,20.6-46,46c0,6.6,1.4,13,4.1,19c0.2,0.4,0,0.8-0.4,1C7.1,69.5,7,69.6,6.9,69.6z"
		/>
	<circle class="st2" cx="45.1" cy="14.4" r="3.2"/>
	<circle class="st2" cx="53.7" cy="14.4" r="3.2"/>
	<path class="st2" d="M70.7,42.4h16.2c1.4,0,2.5,1.3,2.4,2.7l-4.6,37.1C84.1,86.1,80.8,89,77,89H21.6c-3.9,0-7.2-2.9-7.6-6.7
		L9.3,45.1c-0.2-1.4,0.9-2.7,2.4-2.7h16.1"/>
	<path class="st1" d="M77,89.6H21.6c-4.2,0-7.8-3.2-8.3-7.3L8.6,45.2c-0.1-0.9,0.2-1.7,0.7-2.4c0.6-0.7,1.4-1,2.3-1h16.1v1.4H11.7
		c-0.5,0-1,0.2-1.3,0.6S9.9,44.5,10,45l4.6,37.1c0.4,3.5,3.4,6.1,7,6.1H77c3.5,0,6.5-2.6,7-6.1L88.5,45c0.1-0.5-0.1-1-0.4-1.3
		c-0.3-0.4-0.8-0.6-1.3-0.6H70.7v-1.4h16.2c0.9,0,1.7,0.4,2.3,1c0.6,0.7,0.9,1.5,0.7,2.4l-4.6,37.1C84.7,86.5,81.2,89.6,77,89.6z"/>
	<path class="st1" d="M49.5,97c-9,0-17.7-2.5-25.2-7.3c-0.4-0.2-0.5-0.7-0.2-1.1c0.2-0.4,0.7-0.5,1.1-0.2c7.3,4.6,15.8,7,24.4,7
		c5.1,0,10.1-0.8,14.9-2.5c0.4-0.1,0.8,0.1,1,0.5c0.1,0.4-0.1,0.8-0.5,1C60,96.1,54.8,97,49.5,97z"/>
	<path class="st1" d="M67,93.6c-0.3,0-0.6-0.2-0.7-0.5c-0.2-0.4,0-0.8,0.4-1c0.9-0.4,1.8-0.8,2.7-1.2c0.4-0.2,0.8,0,1,0.4
		c0.2,0.4,0,0.8-0.4,1c-0.9,0.4-1.9,0.9-2.8,1.2C67.2,93.6,67.1,93.6,67,93.6z"/>
	<circle class="st3" cx="82.3" cy="69.3" r="14"/>
	<path class="st1" d="M82.3,84c-8.1,0-14.7-6.6-14.7-14.7s6.6-14.7,14.7-14.7S97,61.2,97,69.3S90.4,84,82.3,84z M82.3,56
		c-7.4,0-13.4,6-13.4,13.4s6,13.4,13.4,13.4s13.4-6,13.4-13.4S89.7,56,82.3,56z"/>
	<path class="st1" d="M10.1,75.4c-0.3,0-0.5-0.1-0.7-0.4c-0.5-0.8-1.1-1.7-1.5-2.6c-0.2-0.4-0.1-0.8,0.3-1.1
		c0.4-0.2,0.8-0.1,1.1,0.3c0.5,0.8,1,1.7,1.5,2.5c0.2,0.4,0.1,0.8-0.2,1.1C10.4,75.4,10.3,75.4,10.1,75.4z"/>
	<rect x="34.9" y="41.8" class="st1" width="29.2" height="1.4"/>
	<path class="st1" d="M22.2,80.7c-0.4,0-0.7-0.3-0.8-0.7l-1.7-22.3c0-0.4,0.3-0.8,0.7-0.8c0.4,0,0.8,0.3,0.8,0.7L23,79.9
		C23,80.3,22.7,80.7,22.2,80.7C22.3,80.7,22.2,80.7,22.2,80.7z"/>
	<path class="st1" d="M30.3,80.7c-0.4,0-0.8-0.3-0.8-0.8V57.7c0-0.4,0.3-0.8,0.8-0.8c0.4,0,0.8,0.3,0.8,0.8V80
		C31.1,80.4,30.8,80.7,30.3,80.7z"/>
	<path class="st1" d="M39.8,80.7c-0.4,0-0.8-0.3-0.8-0.8V51.3c0-0.4,0.3-0.8,0.8-0.8c0.4,0,0.8,0.3,0.8,0.8V80
		C40.6,80.4,40.3,80.7,39.8,80.7z"/>
	<path class="st1" d="M49.3,80.7C49.3,80.7,49.3,80.7,49.3,80.7c-0.4,0-0.8-0.4-0.8-0.8l0.2-28.5c0-0.4,0.3-0.8,0.8-0.8
		c0.4,0,0.8,0.4,0.8,0.8L50.1,80C50.1,80.4,49.7,80.7,49.3,80.7z"/>
	<path class="st1" d="M58.8,80.7c-0.4,0-0.8-0.3-0.8-0.8V51.5c0-0.4,0.3-0.8,0.8-0.8c0.4,0,0.8,0.3,0.8,0.8V80
		C59.6,80.4,59.2,80.7,58.8,80.7z"/>
	<path class="st1" d="M27.6,52.9c-1.9,0-3.5-1.6-3.5-3.5c0-1.9,1.6-3.5,3.5-3.5s3.5,1.6,3.5,3.5C31.1,51.3,29.5,52.9,27.6,52.9z
		 M27.6,47.2c-1.2,0-2.2,1-2.2,2.2c0,1.2,1,2.2,2.2,2.2s2.2-1,2.2-2.2C29.8,48.2,28.8,47.2,27.6,47.2z"/>
	<path class="st1" d="M71.5,52.9c-1.9,0-3.5-1.6-3.5-3.5c0-1.9,1.6-3.5,3.5-3.5c1.9,0,3.5,1.6,3.5,3.5C75,51.3,73.5,52.9,71.5,52.9z
		 M71.5,47.2c-1.2,0-2.2,1-2.2,2.2c0,1.2,1,2.2,2.2,2.2c1.2,0,2.2-1,2.2-2.2C73.7,48.2,72.7,47.2,71.5,47.2z"/>
	<path class="st1" d="M45.1,18.3c-1,0-2-0.4-2.7-1.1c-1.5-1.5-1.5-4,0-5.5c1.5-1.5,4-1.5,5.5,0l0,0c1.5,1.5,1.5,4,0,5.5
		C47.1,17.9,46.1,18.3,45.1,18.3z M45.1,11.9c-0.6,0-1.3,0.2-1.8,0.7c-1,1-1,2.6,0,3.6c1,1,2.6,1,3.6,0c1-1,1-2.6,0-3.6
		C46.4,12.1,45.8,11.9,45.1,11.9z"/>
	<path class="st1" d="M53.7,18.3c-1,0-2-0.4-2.7-1.1c-0.7-0.7-1.1-1.7-1.1-2.7s0.4-2,1.1-2.7c1.5-1.5,4-1.5,5.5,0
		c0.7,0.7,1.1,1.7,1.1,2.7s-0.4,2-1.1,2.7l0,0l0,0C55.6,17.9,54.7,18.3,53.7,18.3z M53.7,11.9c-0.6,0-1.3,0.2-1.8,0.7
		c-0.5,0.5-0.7,1.1-0.7,1.8s0.3,1.3,0.7,1.8c1,1,2.6,1,3.6,0l0,0c0.5-0.5,0.7-1.1,0.7-1.8s-0.3-1.3-0.7-1.8
		C54.9,12.1,54.3,11.9,53.7,11.9z"/>
	<path class="st1" d="M27.2,50.4c-0.1,0-0.2,0-0.4-0.1c-0.3-0.2-0.4-0.6-0.2-0.9l20.2-33.1c0.2-0.3,0.6-0.4,0.9-0.2
		c0.3,0.2,0.4,0.6,0.2,0.9L27.8,50C27.7,50.3,27.5,50.4,27.2,50.4z"/>
	<path class="st1" d="M71.6,50.6c-0.2,0-0.5-0.1-0.6-0.3L50.8,17c-0.2-0.3-0.1-0.7,0.2-0.9c0.3-0.2,0.7-0.1,0.9,0.2l20.2,33.2
		c0.2,0.3,0.1,0.7-0.2,0.9C71.8,50.5,71.7,50.6,71.6,50.6z"/>
	<path class="st1" d="M78.7,76.5L72.2,70c-0.3-0.3-0.3-0.8,0-1.1c0.3-0.3,0.8-0.3,1.1,0l5.5,5.5l12-11.8c0.3-0.3,0.8-0.3,1.1,0
		c0.3,0.3,0.3,0.8,0,1.1L78.7,76.5z"/>
</g>
</svg>
