<?xml version="1.0" encoding="utf-8"?>
<!-- Generator: Adobe Illustrator 24.0.1, SVG Export Plug-In . SVG Version: 6.00 Build 0)  -->
<svg version="1.1" id="Layer_1" xmlns="http://www.w3.org/2000/svg" xmlns:xlink="http://www.w3.org/1999/xlink" x="0px" y="0px"
	 viewBox="0 0 280 330" style="enable-background:new 0 0 280 330;" xml:space="preserve">
<style type="text/css">
	.st0{opacity:0.19;fill:#7788E8;enable-background:new    ;}
	.st1{fill:url(#SVGID_1_);}
	.st2{fill:#8EAF56;}
	.st3{fill:#FDC500;}
	.st4{fill:url(#SVGID_2_);}
	.st5{fill:#85CBD1;}
	.st6{fill:url(#SVGID_3_);}
	.st7{fill:url(#SVGID_4_);}
	.st8{fill:#FFFFFF;}
	.st9{fill:url(#SVGID_5_);}
</style>
<g>
	<circle class="st0" cx="143.5" cy="212.1" r="104.9"/>
	<g>
	</g>
	<g>
		
			<linearGradient id="SVGID_1_" gradientUnits="userSpaceOnUse" x1="74.8385" y1="264.0362" x2="74.7976" y2="254.4322" gradientTransform="matrix(1 0 0 -1 0 330)">
			<stop  offset="0" style="stop-color:#AAA0FF"/>
			<stop  offset="1" style="stop-color:#6B55FF"/>
		</linearGradient>
		<circle class="st1" cx="74.8" cy="75" r="5.8"/>
		<circle class="st2" cx="60.1" cy="26.9" r="3.3"/>
		<circle class="st3" cx="262.7" cy="113" r="4.3"/>
		<g>
			
				<linearGradient id="SVGID_2_" gradientUnits="userSpaceOnUse" x1="1149.6931" y1="1056.1866" x2="1149.6036" y2="1035.1456" gradientTransform="matrix(0.807 -0.5906 -0.5906 -0.807 -166.5395 1545.9813)">
				<stop  offset="0" style="stop-color:#FF5159"/>
				<stop  offset="0.4918" style="stop-color:#FA676F"/>
				<stop  offset="1" style="stop-color:#F4828B"/>
			</linearGradient>
			<path class="st4" d="M138.1,23.9c3-0.5,6.6-3.1,8-5.8c1.4-2.8,3.6-2.8,4.9,0c1.4,2.8,5,5.4,8,5.8s3.7,2.5,1.5,4.7s-3.6,6.4-3,9.4
				c0.5,3-1.3,4.3-4,2.9c-2.7-1.4-7.2-1.4-9.9,0s-4.5,0.1-4-2.9s-0.9-7.3-3.1-9.4C134.3,26.4,135,24.3,138.1,23.9z"/>
		</g>
		<g>
			<path class="st5" d="M18.5,108.4c3-0.5,6.6-3.1,8-5.8c1.4-2.8,3.6-2.8,4.9,0c1.4,2.8,5,5.4,8,5.8s3.7,2.5,1.5,4.7s-3.6,6.4-3,9.4
				c0.5,3-1.3,4.3-4,2.9s-7.2-1.4-9.9,0s-4.5,0.1-4-2.9s-0.9-7.3-3.1-9.4S15.5,108.9,18.5,108.4z"/>
		</g>
		
			<linearGradient id="SVGID_3_" gradientUnits="userSpaceOnUse" x1="231.7319" y1="286.6" x2="249.5969" y2="286.6" gradientTransform="matrix(1 0 0 -1 0 330)">
			<stop  offset="0" style="stop-color:#BDCCF9"/>
			<stop  offset="1" style="stop-color:#A2B6F4"/>
		</linearGradient>
		<path class="st6" d="M248.3,46.5l-4.6,4.6c-1.7,1.7-4.5,1.7-6.2,0l-4.6-4.6c-1.7-1.7-1.7-4.5,0-6.2l4.6-4.6c1.7-1.7,4.5-1.7,6.2,0
			l4.6,4.6C250,42,250,44.8,248.3,46.5z"/>
	</g>
</g>
<g>
	<linearGradient id="SVGID_4_" gradientUnits="userSpaceOnUse" x1="143.5" y1="174.2607" x2="143.5" y2="276.4415">
		<stop  offset="0" style="stop-color:#AAA0FF"/>
		<stop  offset="1" style="stop-color:#6B55FF"/>
	</linearGradient>
	<path class="st7" d="M196.2,276.9H90.8c-1.1,0-2.2-0.5-2.9-1.3c-0.7-0.8-1.1-1.9-1-3l9.9-94.6c0.2-2,1.9-3.5,3.9-3.5h85.4
		c2,0,3.7,1.5,3.9,3.5l9.9,94.6c0.1,1.1-0.2,2.2-1,3C198.3,276.5,197.3,276.9,196.2,276.9z"/>
	<circle class="st8" cx="123.3" cy="193.4" r="5.9"/>
	<circle class="st8" cx="163.7" cy="193.4" r="5.9"/>
	<linearGradient id="SVGID_5_" gradientUnits="userSpaceOnUse" x1="121.4414" y1="171.5444" x2="165.5596" y2="171.5444">
		<stop  offset="0" style="stop-color:#FCC198"/>
		<stop  offset="0.2145" style="stop-color:#FBBD96"/>
		<stop  offset="0.4156" style="stop-color:#F8B292"/>
		<stop  offset="0.537" style="stop-color:#F6A98F"/>
		<stop  offset="0.7334" style="stop-color:#F09186"/>
		<stop  offset="0.979" style="stop-color:#E76B77"/>
		<stop  offset="1" style="stop-color:#E66776"/>
	</linearGradient>
	<path class="st9" d="M123.3,193.8c-1,0-1.9-0.8-1.9-1.9v-20.6c0-12.2,9.9-22.1,22.1-22.1c12.2,0,22.1,9.9,22.1,22.1v20.6
		c0,1-0.8,1.9-1.9,1.9c-1,0-1.9-0.8-1.9-1.9v-20.6c0-10.1-8.2-18.3-18.3-18.3s-18.3,8.2-18.3,18.3v20.6
		C125.2,193,124.4,193.8,123.3,193.8z"/>
</g>
</svg>
