<?xml version="1.0" encoding="utf-8"?>
<!-- Generator: Adobe Illustrator 24.0.1, SVG Export Plug-In . SVG Version: 6.00 Build 0)  -->
<svg version="1.1" id="Layer_1" xmlns="http://www.w3.org/2000/svg" xmlns:xlink="http://www.w3.org/1999/xlink" x="0px" y="0px"
	 viewBox="0 0 50 50" style="enable-background:new 0 0 50 50;" xml:space="preserve">
<style type="text/css">
	.st0{fill:url(#SVGID_1_);}
	.st1{fill:#FFFFFF;}
</style>
<linearGradient id="SVGID_1_" gradientUnits="userSpaceOnUse" x1="25" y1="52.4286" x2="25" y2="3.5196" gradientTransform="matrix(1 0 0 -1 0 52)">
	<stop  offset="0" style="stop-color:#FA6A85"/>
	<stop  offset="0.9888" style="stop-color:#E42141"/>
</linearGradient>
<path class="st0" d="M50,25C50,11.2,38.8,0,25,0S0,11.2,0,25s11.2,25,25,25S50,38.8,50,25z"/>
<g>
	<g>
		<g>
			<path class="st1" d="M33.1,10c-3.8,0-6.9,3.1-6.9,6.9s3.1,6.9,6.9,6.9c3.8,0,6.9-3.1,6.9-6.9S36.9,10,33.1,10z M37.4,14.9l-5,5
				C32.3,20,32,20,31.9,20c-0.1,0-0.4,0-0.5-0.1l-2.5-2.5c-0.3-0.3-0.3-0.6,0-0.9c0.3-0.3,0.6-0.3,0.9,0l2,2l4.5-4.5
				c0.3-0.3,0.6-0.3,0.9,0C37.5,14.1,37.5,14.6,37.4,14.9z"/>
		</g>
	</g>
	<g>
		<g>
			<circle class="st1" cx="33.1" cy="36.9" r="3.1"/>
		</g>
	</g>
	<g>
		<g>
			<circle class="st1" cx="20.6" cy="36.9" r="3.1"/>
		</g>
	</g>
	<g>
		<g>
			<path class="st1" d="M37.6,23.9c-0.1,0-0.4,0-0.6,0.1c-1.1,0.6-2.5,1-3.9,1c-4.5,0-8.1-3.6-8.1-8.1c0-0.4-0.3-0.6-0.6-0.6h-8.8
				L15,13c-0.1-0.3-0.4-0.5-0.6-0.5h-3.8c-0.4,0-0.6,0.3-0.6,0.6c0,0.4,0.3,0.6,0.6,0.6h3.3l3,15.3c0.5,2,2.3,3.5,4.4,3.5h14.4
				c0.4,0,0.6-0.3,0.6-0.6s-0.3-0.6-0.6-0.6H21.2c-1,0-2-0.5-2.5-1.4L37,27.4c0.3,0,0.5-0.3,0.5-0.5l0.4-2.4
				C37.9,24.2,37.9,24,37.6,23.9z"/>
		</g>
	</g>
</g>
</svg>
