<svg height="512pt" viewBox="0 0 512 512" width="512pt" xmlns="http://www.w3.org/2000/svg" xmlns:xlink="http://www.w3.org/1999/xlink"><linearGradient id="a" gradientUnits="userSpaceOnUse" x1="0" x2="512" y1="256" y2="256"><stop offset="0" stop-color="#00f2fe"/><stop offset=".0208" stop-color="#03effe"/><stop offset=".2931" stop-color="#24d2fe"/><stop offset=".5538" stop-color="#3cbdfe"/><stop offset=".7956" stop-color="#4ab0fe"/><stop offset="1" stop-color="#4facfe"/></linearGradient><path d="m472 332v-252c0-22.054688-17.945312-40-40-40h-352c-22.054688 0-40 17.945312-40 40v352c0 22.054688 17.945312 40 40 40h352c22.054688 0 40-17.945312 40-40 0-11.046875 8.953125-20 20-20s20 8.953125 20 20c0 44.113281-35.886719 80-80 80h-352c-44.113281 0-80-35.886719-80-80v-352c0-44.113281 35.886719-80 80-80h352c44.113281 0 80 35.886719 80 80v252c0 11.046875-8.953125 20-20 20s-20-8.953125-20-20zm-236-142v202c0 11.046875 8.953125 20 20 20s20-8.953125 20-20v-202c0-11.046875-8.953125-20-20-20s-20 8.953125-20 20zm20-90c-11.046875 0-20 8.953125-20 20s8.953125 20 20 20 20-8.953125 20-20-8.953125-20-20-20zm0 0" fill="url(#a)"/></svg>