<?xml version="1.0" encoding="utf-8"?>
<!-- Generator: Adobe Illustrator 24.0.1, SVG Export Plug-In . SVG Version: 6.00 Build 0)  -->
<svg version="1.1" id="Layer_1" xmlns="http://www.w3.org/2000/svg" xmlns:xlink="http://www.w3.org/1999/xlink" x="0px" y="0px"
	 viewBox="0 0 50 50" style="enable-background:new 0 0 50 50;" xml:space="preserve">
<style type="text/css">
	.st0{fill:url(#SVGID_1_);}
	.st1{fill:url(#SVGID_2_);}
</style>
<linearGradient id="SVGID_1_" gradientUnits="userSpaceOnUse" x1="8.2999" y1="2.2966" x2="41.0856" y2="46.868">
	<stop  offset="0" style="stop-color:#D1DEE3"/>
	<stop  offset="1" style="stop-color:#B5C3CC"/>
</linearGradient>
<path class="st0" d="M50,25C50,11.2,38.8,0,25,0S0,11.2,0,25s11.2,25,25,25S50,38.8,50,25z"/>
<linearGradient id="SVGID_2_" gradientUnits="userSpaceOnUse" x1="12.7949" y1="10.9831" x2="34.0091" y2="41.4116">
	<stop  offset="0" style="stop-color:#7A8D96"/>
	<stop  offset="1" style="stop-color:#4A5861"/>
</linearGradient>
<path class="st1" d="M28,10H16c-1.6,0-3,1.4-3,3v24c0,1.7,1.3,3,3,3h18c1.7,0,3-1.3,3-3V19L28,10z M31,34H19v-3h12V34z M31,28H19v-3
	h12V28z M26.5,20.5v-8.3l8.3,8.3H26.5z"/>
</svg>
