<?xml version="1.0" encoding="utf-8"?>
<!-- Generator: Adobe Illustrator 24.0.1, SVG Export Plug-In . SVG Version: 6.00 Build 0)  -->
<svg version="1.1" id="Layer_1" xmlns="http://www.w3.org/2000/svg" xmlns:xlink="http://www.w3.org/1999/xlink" x="0px" y="0px"
	 viewBox="0 0 50 50" style="enable-background:new 0 0 50 50;" xml:space="preserve">
<style type="text/css">
	.st0{fill:url(#SVGID_1_);}
	.st1{fill:#FFFFFF;}
</style>
<linearGradient id="SVGID_1_" gradientUnits="userSpaceOnUse" x1="5.1199" y1="3.5736" x2="43.6913" y2="45.1451">
	<stop  offset="0" style="stop-color:#1A79F1"/>
	<stop  offset="1" style="stop-color:#27B5FF"/>
</linearGradient>
<path class="st0" d="M50,25C50,11.2,38.8,0,25,0S0,11.2,0,25s11.2,25,25,25S50,38.8,50,25z"/>
<g>
	<g>
		<path class="st1" d="M39.8,17.2C39.8,17.1,39.8,17.1,39.8,17.2c0-0.1,0-0.2-0.1-0.3v0c0-0.1-0.1-0.1-0.1-0.2l0,0
			c0,0-0.1-0.1-0.1-0.1l0,0h0l0,0L25.4,9.6c-0.3-0.1-0.6-0.1-0.9,0l-4.7,2.3l14,7.2l0,0c0,0,0,0,0.1,0c0,0,0,0.1,0.1,0.1
			c0,0,0,0,0,0.1v0V27c0,0.1-0.1,0.2-0.2,0.3L31,28.7c-0.2,0.1-0.4,0-0.5-0.1c0,0,0-0.1,0-0.2V21l-14.1-7.3l0,0l-5.7,2.8l0,0h0l0,0
			c0,0-0.1,0.1-0.1,0.1l0,0c-0.1,0.1-0.1,0.1-0.2,0.2v0c0,0.1-0.1,0.1-0.1,0.2c0,0,0,0,0,0.1c0,0.1,0,0.1,0,0.2v0v15.3
			c0,0.4,0.2,0.7,0.6,0.9l13.8,6.9c0.2,0.1,0.4,0.1,0.7,0.1l0.1,0c0.1,0,0.1,0,0.2-0.1l13.9-6.9c0.3-0.2,0.6-0.5,0.6-0.9V17.4v0
			C39.8,17.3,39.8,17.2,39.8,17.2z"/>
	</g>
</g>
</svg>
