<?xml version="1.0" encoding="utf-8"?>
<!-- Generator: Adobe Illustrator 24.0.1, SVG Export Plug-In . SVG Version: 6.00 Build 0)  -->
<svg version="1.1" id="Layer_1" xmlns="http://www.w3.org/2000/svg" xmlns:xlink="http://www.w3.org/1999/xlink" x="0px" y="0px"
	 viewBox="0 0 50 50" style="enable-background:new 0 0 50 50;" xml:space="preserve">
<style type="text/css">
	.st0{fill:url(#SVGID_1_);}
	.st1{fill:#FFFFFF;}
</style>
<linearGradient id="SVGID_1_" gradientUnits="userSpaceOnUse" x1="9.5249" y1="5.5783" x2="41.4535" y2="45.6497">
	<stop  offset="0" style="stop-color:#E34329"/>
	<stop  offset="1" style="stop-color:#FC822F"/>
</linearGradient>
<circle class="st0" cx="25" cy="25" r="25"/>
<path class="st1" d="M33,28.2c-0.3,0.3-0.5,0.8-0.3,1.2l1.2,7.2c0.2,1.1-0.9,2-2,1.4l-6.4-3.4c-0.5-0.2-0.9-0.2-1.2,0L17.9,38
	c-0.9,0.5-2.2-0.3-2-1.4l1.2-7.2c0.2-0.5,0-0.9-0.3-1.2l-5.3-5c-0.8-0.8-0.3-2.2,0.8-2.3l7.2-1.1c0.5,0,0.8-0.3,1.1-0.8l3.1-6.6
	c0.5-0.9,1.9-0.9,2.5,0l3.3,6.6c0.2,0.5,0.6,0.6,1.1,0.8l7.2,1.1c1.1,0.2,1.6,1.6,0.8,2.3L33,28.2z"/>
</svg>
