<svg xmlns="http://www.w3.org/2000/svg" xmlns:xlink="http://www.w3.org/1999/xlink" width="221.738" height="181.171" viewBox="0 0 221.738 181.171"><defs><style>.a{fill:#dadde8;}.b{fill:#fbc900;}.c{fill:#225d6b;}.aa,.d,.z{fill:#fff;}.e{fill:#00cfa6;}.f{fill:#ffd4b3;}.g{fill:none;}.h{opacity:0.9;}.i{fill:#b5cee5;}.j{fill:#74ecf3;}.k{fill:#a5c6e5;}.l{fill:#fdcbbe;}.m{fill:#37447f;}.n{fill:#e9ffff;}.o,.p{fill:#c6ccdb;}.aa,.p{opacity:0.4;}.q{fill:url(#a);}.r{fill:#8395aa;}.s{fill:#fff3e3;}.t{fill:#d8ba9a;}.u{fill:#ff9975;}.v{fill:#ffc55e;}.w{fill:#fdc8a8;}.x{fill:#4d4fed;}.y{fill:#3b42d1;}.z{opacity:0.3;}.ab{fill:#f48baa;}.ac{fill:#283042;}.ad{fill:#a13518;}.ae{fill:#f6f1ec;}</style><radialGradient id="a" cx="0.5" cy="0.5" r="0.403" gradientTransform="translate(-0.41) scale(1.819 1)" gradientUnits="objectBoundingBox"><stop offset="0" stop-color="#f6f7fc"/><stop offset="0.311" stop-color="#f3f6fc"/><stop offset="0.512" stop-color="#ebf2fc"/><stop offset="0.682" stop-color="#dcebfc"/><stop offset="0.834" stop-color="#c7e1fc"/><stop offset="0.974" stop-color="#acd4fc"/><stop offset="1" stop-color="#a6d1fc"/></radialGradient></defs><g transform="translate(-23.738 -12.079)"><path class="a" d="M57.561,263.09c-4.664.286-1.945,4.92,84.6,3.576,5.935-.092,16,1.343,22.7,1.026,46.153-2.181,90.458.49,90.458-3.858,0-3.824-80.63-9.144-114.119-4.081C127.591,261.808,68.661,262.406,57.561,263.09Z" transform="translate(-9.845 -74.486)"/><g transform="translate(135.924 101.122)"><path class="b" d="M271.414,156.358c-.35,16.038-14.832,22.578-20.752,23.986-13.64,3.24-13.626,13.675-13.168,17.889.227,2.105-.521,5.179-2.108,8.362L202.257,202.3c.925-.828,1.839-1.665,2.723-2.515a36.5,36.5,0,0,0,5.953-7.564c.382-.638.732-1.293,1.062-1.957a.653.653,0,0,0,.2-.293c.09-.252.19-.494.291-.732.057-.119.114-.24.169-.36,3.633-7.685,13.461-6.958,19.238-1.608.625.577,1.644-.29,1.012-.878a16.334,16.334,0,0,0-12.055-4.648,11.089,11.089,0,0,0-6.171,2.388c.249-.594.505-1.188.771-1.773,1.465-3.226,4.761-5.765,7.416-8.018a31.894,31.894,0,0,1,4.087-2.966.617.617,0,0,0,.07-.021,12.847,12.847,0,0,0,2.074-1.142,21.643,21.643,0,0,1,4.111-1.5c2.409-.6,4.828-.974,7.2-1.422a.665.665,0,0,0,.369.043,10.878,10.878,0,0,1,5.841.242c1.357.539,2.583,1.337,3.959,1.843,4.148,1.524,8.735,1.306,12.129-1.715.641-.572-.233-1.584-.879-1.007-3.675,3.272-8.727,2.675-12.851.569a13.545,13.545,0,0,0-3.364-1.232,19.934,19.934,0,0,0,5.96-3.006c.688-.518-.19-1.524-.879-1.009-5.52,4.142-12.406,3.944-18.808,5.662a.2.2,0,0,1-.049.015,13.829,13.829,0,0,0,2.008-3.36c1.26-2.992,1.317-7.387,4.977-8.544.81-.255.582-1.573-.238-1.317-3.033.962-4.17,3.488-5.018,6.351-.975,3.286-2.357,6.2-5.016,8.131a33.175,33.175,0,0,0-5.175,3.272,44.071,44.071,0,0,0-7.269,6.675c-2.142,2.559-3.223,5.914-4.458,8.982a13.134,13.134,0,0,0-.674,1.536,34.123,34.123,0,0,1-5.328,7.747,43.8,43.8,0,0,1-4.037,3.856,14.874,14.874,0,0,0-.259-10.4A14.025,14.025,0,0,0,199.219,187c-1.287-1.616-3.063-2.764-4.122-4.573-2.329-3.971,1.634-7.385,3.8-10.226.524-.684-.585-1.432-1.107-.75-1.855,2.43-4.257,4.522-4.644,7.715-.485,3.972,2.806,6.064,5.058,8.713a12.789,12.789,0,0,1,1.452,14.092l-11.1-1.438c-3.342-6.608-4.673-13.966-3.214-20.646,5.415-24.8,22.936-20.589,32.232-23.477,5.912-1.837,3.451-9.3,19.318-10.213,6.152-.355,20.4-.611,23.917-2.54,3.224-2.034,10.865-5.617,13.752-2.622C279.352,145.995,271.507,151.933,271.414,156.358Z" transform="translate(-184.761 -139.883)"/><path class="c" d="M234.558,190.967c-2.343,1.973-4.85,4.189-6.077,6.889-.266.585-.522,1.179-.771,1.773a11.094,11.094,0,0,1,6.171-2.388,13.108,13.108,0,0,1,2.4.061c-.056-.317-.12-.65-.194-1.032A28.462,28.462,0,0,0,234.558,190.967Z" transform="translate(-197.787 -155.376)"/><path class="c" d="M228.481,214.905a44.052,44.052,0,0,0-1.428,8.48l-17.179-2.227c.925-.828,1.839-1.665,2.723-2.515a36.5,36.5,0,0,0,5.953-7.564c.383-.638.732-1.293,1.063-1.957a.653.653,0,0,0,.2-.293c.09-.252.19-.494.291-.732.057-.119.114-.24.169-.36,2.149-4.55,6.47-6.134,10.837-5.573a10.794,10.794,0,0,1-.2,3.835C230.395,209.008,229.282,211.961,228.481,214.905Z" transform="translate(-192.377 -158.739)"/><path class="c" d="M211.655,195.7a13.134,13.134,0,0,0-.674,1.536,34.123,34.123,0,0,1-5.328,7.747,43.806,43.806,0,0,1-4.037,3.856,14.874,14.874,0,0,0-.259-10.4,14.025,14.025,0,0,0-2.138-3.625c-1.287-1.616-3.063-2.764-4.122-4.573-2.329-3.971,1.634-7.385,3.8-10.226.524-.684-.585-1.432-1.107-.75-1.855,2.43-4.257,4.522-4.644,7.715-.485,3.972,2.806,6.064,5.058,8.713a12.789,12.789,0,0,1,1.452,14.092l-11.1-1.438c-3.342-6.608-4.673-13.966-3.214-20.646,4.037-18.484,14.8-20.851,23.869-22.054,3.392,4.251,6.825,8.475,9.849,13.006a26.08,26.08,0,0,1,1.892,3.327,39.091,39.091,0,0,0-4.845,4.742C213.972,189.275,212.891,192.63,211.655,195.7Z" transform="translate(-184.761 -147.695)"/><path class="d" d="M254.217,175.758c-1.377-.506-2.6-1.3-3.959-1.843a10.879,10.879,0,0,0-5.841-.242.659.659,0,0,1-.369-.042c-2.376.448-4.795.819-7.2,1.422a21.565,21.565,0,0,0-4.111,1.5,12.764,12.764,0,0,1-2.074,1.142.614.614,0,0,1-.07.021,31.944,31.944,0,0,0-4.087,2.966c-2.655,2.253-5.951,4.793-7.416,8.018-.266.585-.522,1.179-.771,1.773a11.094,11.094,0,0,1,6.171-2.388,16.333,16.333,0,0,1,12.055,4.648c.631.587-.387,1.454-1.012.878-5.777-5.35-15.6-6.077-19.238,1.608-.056.12-.112.241-.169.36-.1.238-.2.481-.291.732a.657.657,0,0,1-.2.293c-.331.664-.68,1.319-1.062,1.957a36.478,36.478,0,0,1-5.953,7.564c-.883.85-1.8,1.687-2.723,2.515l-2.6-.337a12.79,12.79,0,0,0-1.452-14.092c-2.252-2.649-5.543-4.741-5.058-8.713.387-3.193,2.79-5.285,4.644-7.715.522-.681,1.631.065,1.107.75-2.17,2.841-6.133,6.255-3.8,10.226,1.059,1.809,2.836,2.958,4.122,4.573a14.037,14.037,0,0,1,2.138,3.625,14.874,14.874,0,0,1,.259,10.4,43.9,43.9,0,0,0,4.037-3.856,34.079,34.079,0,0,0,5.328-7.747,13.136,13.136,0,0,1,.674-1.536c1.235-3.068,2.317-6.423,4.458-8.982a44.074,44.074,0,0,1,7.269-6.675,33.227,33.227,0,0,1,5.175-3.272c2.659-1.931,4.04-4.844,5.016-8.131.849-2.862,1.984-5.388,5.018-6.351.821-.257,1.048,1.062.238,1.317-3.66,1.157-3.717,5.552-4.977,8.544a13.83,13.83,0,0,1-2.008,3.36.222.222,0,0,0,.049-.015c6.4-1.717,13.288-1.52,18.808-5.662.689-.514,1.568.492.879,1.009a19.917,19.917,0,0,1-5.96,3.006,13.573,13.573,0,0,1,3.364,1.232c4.123,2.107,9.176,2.7,12.851-.569.644-.577,1.52.435.879,1.007C262.953,177.065,258.365,177.282,254.217,175.758Z" transform="translate(-188.392 -146.221)"/></g><g transform="translate(162.224 144.231)"><path class="e" d="M231.774,240.375,227.193,222.4c.072.021.146.031.217.053,2.38.712,4.648,1.629,6.919,2.457a.668.668,0,0,0,.3.225,10.881,10.881,0,0,1,4.9,3.192c.893,1.157,1.538,2.467,2.463,3.607,2.788,3.429,6.842,5.586,11.3,4.721a.668.668,0,0,0-.24-1.313c-4.831.935-8.869-2.158-11.338-6.076a13.516,13.516,0,0,0-2.262-2.777,19.923,19.923,0,0,0,6.658.459c.857-.093.615-1.406-.24-1.316-6.861.74-12.679-2.946-19.059-4.74l-.008-.032a13.711,13.711,0,0,0,3.4-1.844c2.612-1.928,4.906-5.678,8.643-4.8.827.194,1.3-1.056.469-1.253-3.1-.724-5.367.867-7.559,2.894a18.335,18.335,0,0,1-5.3,3.621l-3.938-15.451c4.458-.505,7.379-5.379,19.576.95,5.469,2.836,17.846,9.894,21.858,10.035,3.81-.1,12.209.722,13.162,4.771,1.578,6.711-8.2,7.809-10.541,11.564-8.495,13.609-24.284,11.833-30.094,10.02A23.617,23.617,0,0,0,231.774,240.375Z" transform="translate(-222.509 -201.758)"/><path class="d" d="M228.515,225.659l-.353-1.383a18.348,18.348,0,0,0,5.3-3.621c2.192-2.027,4.46-3.618,7.559-2.894.836.2.358,1.447-.469,1.253-3.737-.875-6.031,2.874-8.643,4.8A13.731,13.731,0,0,1,228.515,225.659Z" transform="translate(-224.223 -206.558)"/><path class="d" d="M243.858,240.264c-.925-1.14-1.57-2.45-2.463-3.607a10.883,10.883,0,0,0-4.9-3.192.676.676,0,0,1-.3-.225c-2.27-.828-4.539-1.745-6.919-2.457-.072-.022-.146-.032-.217-.053l-.385-1.509c6.381,1.795,12.2,5.48,19.059,4.74.855-.091,1.1,1.223.24,1.316a19.923,19.923,0,0,1-6.658-.459,13.534,13.534,0,0,1,2.262,2.777c2.469,3.918,6.507,7.011,11.338,6.076a.668.668,0,0,1,.24,1.313C250.7,245.849,246.645,243.693,243.858,240.264Z" transform="translate(-224.38 -210.087)"/></g><g transform="translate(47.783 73.461)"><path class="b" d="M95.265,100.433l.509,10.738c-.888-.139-1.766-.288-2.645-.424a.423.423,0,0,0-.233-.112,7.458,7.458,0,0,1-3.865-1.515c-.686-.649-1.168-1.427-1.883-2.062a9.311,9.311,0,0,0-9-1.778c-.687.2-.537,1.03.155.826a8.264,8.264,0,0,1,8.99,2.654,7.2,7.2,0,0,0,1.746,1.546,20.1,20.1,0,0,0-5.375.459c-.7.158-.541.984.153.827,4.362-.987,8.126-.143,12,.481l.109,2.3c-2.032,1.572-3.948,3.963-6.777,3.828-.664-.031-1.088.834-.418.867,2.487.117,4.37-1.175,6.206-2.739.343-.292.69-.572,1.041-.844l.454,9.6c-2.292.644-5.342.843-10.194-.52-4.34-1.219-14.14-4.392-17.382-4.026-3.088.5-9.861.922-10.506-1.6-1.072-4.177,6.877-6,8.887-8.708,7.294-9.8,20.019-10.447,24.665-9.931A22.414,22.414,0,0,0,95.265,100.433Z" transform="translate(-58.25 -100.181)"/><path class="d" d="M109.046,120.555l.053,1.111c-.35.272-.7.552-1.041.844-1.836,1.566-3.72,2.857-6.206,2.739-.67-.033-.246-.9.418-.867C105.1,124.519,107.014,122.127,109.046,120.555Z" transform="translate(-71.371 -106.36)"/><path class="d" d="M95.612,109.081c.714.635,1.2,1.412,1.883,2.062a7.464,7.464,0,0,0,3.865,1.515.423.423,0,0,1,.233.112c.879.136,1.757.284,2.645.424l.042.9c-3.878-.625-7.642-1.469-12-.481-.7.157-.85-.669-.153-.827a20.152,20.152,0,0,1,5.375-.459,7.194,7.194,0,0,1-1.746-1.546,8.264,8.264,0,0,0-8.99-2.654c-.692.2-.842-.623-.155-.826A9.307,9.307,0,0,1,95.612,109.081Z" transform="translate(-66.716 -102.205)"/></g><g transform="translate(155.877 91.194)"><path class="f" d="M234.212,159.906l-9.063-8.658c.821-.328,1.641-.644,2.452-.97a.5.5,0,0,0,.277-.023,8.11,8.11,0,0,1,4.307-.674c1.071.2,2.083.6,3.164.771,3.255.51,6.578-.318,8.62-3.022.385-.511-.4-1.124-.789-.608-2.211,2.928-5.993,3.229-9.315,2.289a10.128,10.128,0,0,0-2.64-.411,14.885,14.885,0,0,0,3.92-3.066c.428-.479-.361-1.087-.789-.61-2.686,3-6.37,4.178-9.969,5.6l-1.944-1.857c.355-2.32-.045-5.262,2.322-6.563.555-.305.2-1.236-.365-.928-2.078,1.145-2.542,3.158-2.744,5.375-.038.414-.09.819-.15,1.221l-8.106-7.745c1.311-1.679,3.584-3.369,8.556-4.662,4.446-1.157,14.827-3.419,17.12-5.342,2.062-1.958,7.127-5.692,9.675-3.922,4.223,2.932-.649,8.419-.072,11.669,2.081,11.78-7.556,18.673-11.68,20.566A17.926,17.926,0,0,0,234.212,159.906Z" transform="translate(-213.399 -125.634)"/><path class="d" d="M225.971,155.4l-.938-.9c.061-.4.112-.806.15-1.221.2-2.216.666-4.23,2.744-5.375.562-.308.92.623.365.928C225.928,150.137,226.327,153.079,225.971,155.4Z" transform="translate(-216.927 -132.37)"/><path class="d" d="M240.133,158.672c-1.082-.17-2.094-.575-3.164-.771a8.111,8.111,0,0,0-4.307.674.5.5,0,0,1-.277.023c-.811.327-1.632.642-2.452.97l-.762-.728c3.6-1.419,7.283-2.6,9.969-5.6.428-.477,1.218.13.789.61a14.887,14.887,0,0,1-3.92,3.066,10.1,10.1,0,0,1,2.64.411c3.322.94,7.1.64,9.315-2.289.387-.515,1.174.1.789.608C246.71,158.355,243.388,159.183,240.133,158.672Z" transform="translate(-218.182 -133.954)"/></g><g transform="translate(23.738 97.137)"><g transform="translate(34.368 0.996)"><path class="e" d="M116.063,164.095l-11.834,8.948c-.024-.061-.057-.118-.081-.179-.772-2-1.316-3.983-1.933-5.938a.424.424,0,0,0,.013-.291,7.14,7.14,0,0,1-.2-4.649c.424-1.023,1.112-1.909,1.5-2.952,1.178-3.141.62-6.84-2.59-9.917-.608-.582-1.531,0-.918.583a8.056,8.056,0,0,1,1.523,10.359,7.688,7.688,0,0,0-.952,2.547,20.1,20.1,0,0,0-3.388-5.13c-.558-.614-1.475-.029-.92.583,4.465,4.914,4.791,10.4,6.952,15.735l-.021.016a18.633,18.633,0,0,0-3.4-1.981c-3.021-1.366-7.322-1.933-8.729-5-.311-.679-1.583-.654-1.27.033,1.168,2.544,3.724,3.755,6.587,4.776a25.115,25.115,0,0,1,5.9,2.863l-10.172,7.692c-2.921-3.185-8.478-3.879-10.284-14.96-.812-4.968-2.133-16.408-4.284-19.458-2.232-2.824-6.31-9.37-3.6-11.326,4.493-3.242,10.892,3.748,15.225,4.35,15.71,2.19,23.195,14.565,25.019,19.475A21.143,21.143,0,0,0,116.063,164.095Z" transform="translate(-73.066 -135.593)"/><path class="d" d="M110.486,187.19l-.911.688a25.114,25.114,0,0,0-5.9-2.863c-2.863-1.021-5.419-2.231-6.587-4.776-.313-.687.959-.713,1.27-.033,1.407,3.069,5.708,3.637,8.729,5A18.652,18.652,0,0,1,110.486,187.19Z" transform="translate(-80.337 -148.973)"/><path class="d" d="M113.561,164.813c-.392,1.043-1.079,1.928-1.5,2.952a7.145,7.145,0,0,0,.2,4.649.424.424,0,0,1-.013.291c.617,1.955,1.161,3.937,1.933,5.938.023.061.056.119.081.179l-.994.751c-2.16-5.331-2.487-10.822-6.952-15.735-.555-.613.362-1.2.92-.583a20.038,20.038,0,0,1,3.388,5.13,7.673,7.673,0,0,1,.952-2.547,8.057,8.057,0,0,0-1.523-10.359c-.612-.585.31-1.166.918-.583C114.181,157.972,114.739,161.672,113.561,164.813Z" transform="translate(-83.098 -141.374)"/></g><path class="b" d="M39.884,139.747a31.49,31.49,0,0,1,24.252,20.134c3.665,11.34,13.89,12.907,18.005,13.18A22.388,22.388,0,0,1,90.412,176l-3.022,25.7c-.844-.861-1.7-1.715-2.563-2.546a47.1,47.1,0,0,0-7.627-5.879c-.639-.4-1.293-.778-1.956-1.141a.853.853,0,0,0-.294-.207c-.25-.109-.491-.226-.728-.342l-.359-.189c-7.663-4.052-7.3-11.76-2.264-15.546.543-.41-.343-1.351-.9-.938-2.8,2.108-4.625,5.282-4.124,8.886a9.94,9.94,0,0,0,2.56,5.27c-.592-.288-1.182-.581-1.765-.882-3.214-1.653-5.82-4.659-8.124-7.111a35.309,35.309,0,0,1-3.053-3.7.463.463,0,0,0-.023-.059,12.92,12.92,0,0,0-1.193-1.823,19.013,19.013,0,0,1-1.618-3.5c-.677-2.007-1.127-3.987-1.651-5.945a.405.405,0,0,0,.029-.287,6.95,6.95,0,0,1,.028-4.61c.479-1,1.218-1.852,1.664-2.871,1.345-3.069.968-6.751-2.115-9.907-.584-.6-1.544-.054-.955.546a7.844,7.844,0,0,1,1.017,10.308,7.676,7.676,0,0,0-1.088,2.49,19.4,19.4,0,0,0-3.159-5.195c-.532-.626-1.486-.079-.957.547,4.257,5.017,4.31,10.465,6.222,15.817a.183.183,0,0,1,.016.042,18.588,18.588,0,0,0-3.364-2.105c-2.977-1.455-7.287-2.165-8.552-5.251-.279-.683-1.563-.7-1.282-.01,1.051,2.558,3.568,3.844,6.4,4.952,3.256,1.273,6.161,2.813,8.149,5.219a35.081,35.081,0,0,0,3.392,4.612,52.553,52.553,0,0,0,6.8,6.791c2.585,2.091,5.912,3.458,8.963,4.9.487.275,1,.532,1.529.768a45.031,45.031,0,0,1,7.784,5.41,53,53,0,0,1,3.925,3.794,18.289,18.289,0,0,0-10.188-1.367,11.94,11.94,0,0,0-3.477,1.153c-1.538.779-2.6,2.019-4.335,2.588-3.809,1.252-7.3-2.417-10.159-4.573-.69-.52-1.382.249-.7.767,2.448,1.843,4.584,4.07,7.728,4.861,3.911.987,5.843-1.315,8.359-2.706,3.633-2.01,9.456-1.611,13.76.976l-1.012,8.611a36.05,36.05,0,0,1-20.12-.566c-24.5-8.057-21-21.358-24.163-29.189-2.012-4.981-9.236-4.151-10.7-16.911-.569-4.947-1.328-16.317-3.344-19.409-2.11-2.872-5.894-9.492-3.062-11.336C29.443,131.865,35.544,139,39.884,139.747Z" transform="translate(-23.738 -134.163)"/><path class="d" d="M60.15,164.369c-.447,1.019-1.185,1.873-1.664,2.871a6.95,6.95,0,0,0-.028,4.61.4.4,0,0,1-.029.287c.524,1.958.974,3.938,1.651,5.945a19.081,19.081,0,0,0,1.618,3.5,12.88,12.88,0,0,1,1.193,1.823.462.462,0,0,1,.023.059,35.313,35.313,0,0,0,3.053,3.7c2.3,2.452,4.91,5.458,8.124,7.111.583.3,1.174.594,1.765.882a9.942,9.942,0,0,1-2.56-5.27c-.5-3.6,1.322-6.778,4.124-8.886.553-.413,1.439.527.9.938-5.037,3.787-5.4,11.494,2.264,15.546l.36.189c.237.116.478.232.728.342a.852.852,0,0,1,.294.207c.663.364,1.317.741,1.956,1.141a47.1,47.1,0,0,1,7.627,5.879c.865.832,1.719,1.685,2.563,2.546l-.237,2.016c-4.3-2.587-10.127-2.986-13.76-.976-2.515,1.391-4.449,3.693-8.359,2.706-3.143-.791-5.28-3.018-7.728-4.861-.686-.518.006-1.288.7-.767,2.862,2.156,6.35,5.825,10.159,4.573,1.736-.569,2.8-1.809,4.335-2.588a11.94,11.94,0,0,1,3.477-1.153A18.289,18.289,0,0,1,92.878,208.1a52.861,52.861,0,0,0-3.925-3.794,45.043,45.043,0,0,0-7.784-5.41c-.53-.237-1.042-.493-1.529-.768-3.05-1.446-6.378-2.814-8.963-4.9a52.554,52.554,0,0,1-6.8-6.791,35.079,35.079,0,0,1-3.392-4.612c-1.987-2.407-4.893-3.947-8.149-5.219-2.836-1.108-5.352-2.393-6.4-4.952-.281-.691,1-.673,1.282.01,1.265,3.086,5.575,3.8,8.552,5.251a18.563,18.563,0,0,1,3.364,2.105.243.243,0,0,0-.016-.042c-1.912-5.352-1.965-10.8-6.222-15.817-.529-.626.426-1.173.957-.547a19.421,19.421,0,0,1,3.159,5.195,7.661,7.661,0,0,1,1.088-2.49,7.844,7.844,0,0,0-1.017-10.308c-.589-.6.372-1.143.955-.546C61.118,157.617,61.494,161.3,60.15,164.369Z" transform="translate(-30.456 -140.242)"/><g transform="translate(65.535 56.663)"><path class="g" d="M122.728,224.23c2.983.771,5.626-.511,5.9-2.861s-1.917-4.881-4.9-5.652-5.627.51-5.9,2.861S119.743,223.459,122.728,224.23Z" transform="translate(-117.801 -215.492)"/></g><g transform="translate(65.607 60.84)"><path class="g" d="M121.99,222.452a5.037,5.037,0,0,1-4.086-.965,6.888,6.888,0,0,0,7.359,4.728,13.125,13.125,0,0,0-1.06-1.917,7.576,7.576,0,0,0-1.284-1.671c-.241-.194-.21-.311-.157-.366A4.683,4.683,0,0,1,121.99,222.452Z" transform="translate(-117.904 -221.487)"/></g></g><g class="h" transform="translate(140.266 134.674)"><path class="i" d="M190.993,188.064h.031v-.023h-.033C190.993,188.049,190.993,188.057,190.993,188.064Z" transform="translate(-190.992 -188.041)"/></g><g transform="translate(142.091 135.759)"><path class="j" d="M193.614,189.621h.031V189.6h-.033C193.612,189.605,193.613,189.614,193.614,189.621Z" transform="translate(-193.611 -189.599)"/><path class="k" d="M193.644,189.621h-.031l0-.022h.033Z" transform="translate(-193.611 -189.599)"/></g><g class="h" transform="translate(146.552 125.041)"><path class="i" d="M200.015,174.231h.024v-.017h-.026A.15.15,0,0,1,200.015,174.231Z" transform="translate(-200.014 -174.214)"/></g><g transform="translate(147.961 125.877)"><path class="j" d="M202.038,175.432h.024v-.017h-.026A.124.124,0,0,0,202.038,175.432Z" transform="translate(-202.037 -175.415)"/><path class="k" d="M202.063,175.432h-.024s0-.012,0-.017h.026Z" transform="translate(-202.037 -175.415)"/></g><g class="h" transform="translate(138.684 136.96)"><path class="i" d="M188.723,191.346h.032v-.024h-.034C188.722,191.33,188.723,191.338,188.723,191.346Z" transform="translate(-188.721 -191.322)"/></g><g transform="translate(140.584 138.091)"><path class="j" d="M191.452,192.967h.033v-.022h-.035A.218.218,0,0,1,191.452,192.967Z" transform="translate(-191.449 -192.945)"/><path class="k" d="M191.485,192.967h-.033a.215.215,0,0,0,0-.022h.035v.022Z" transform="translate(-191.449 -192.945)"/></g><path class="l" d="M114.178,19.588c2.3-.88,4.832,1.017,5.464,2.241s-4.5,1.447-6.459,2.471-3.275-.222-3.909-1.447S110.976,20.816,114.178,19.588Z" transform="translate(-25.91 -2.209)"/><path class="m" d="M203.564,174.2c0,7.71-5.972,14.018-13.27,14.018H120.028c-7.3,0-13.271-6.308-13.271-14.018V26.1c0-7.71,5.972-14.018,13.271-14.018h70.266c7.3,0,13.27,6.308,13.27,14.018V174.2Z" transform="translate(-25.179 0)"/><path class="d" d="M202.152,172.357c0,7.311-5.664,13.294-12.585,13.294H122.93c-6.922,0-12.585-5.983-12.585-13.294V31.9c0-7.312,5.664-13.294,12.585-13.294h66.637c6.922,0,12.585,5.982,12.585,13.294V172.357Z" transform="translate(-26.267 -1.98)"/><g transform="translate(84.078 16.627)"><path class="n" d="M202.152,172.357c0,7.311-5.664,13.294-12.585,13.294H122.93c-6.922,0-12.585-5.983-12.585-13.294V31.9c0-7.312,5.664-13.294,12.585-13.294h66.637c6.922,0,12.585,5.982,12.585,13.294V172.357Z" transform="translate(-110.345 -18.607)"/></g><g transform="translate(84.077 16.627)"><path class="d" d="M222.307,64.177V31.9c0-7.312-5.664-13.294-12.585-13.294H176.8Q199.479,41.466,222.307,64.177Z" transform="translate(-130.499 -18.607)"/><path class="d" d="M200.158,103.008l4.3,4.3v-7q-38.708-38.292-76.988-77.015a12.594,12.594,0,0,1-2.935-4.656,12.087,12.087,0,0,0-6.581,2.449,11.818,11.818,0,0,1,1.369,1.17l80.01,80.01C199.62,102.5,199.9,102.747,200.158,103.008Z" transform="translate(-112.653 -18.616)"/><path class="d" d="M189.924,145.821l-4.715-4.715c-.286-.236-.564-.484-.827-.748L110.345,66.321V105.1l87.109,87.109a12.577,12.577,0,0,1,2.07,2.725,13.7,13.7,0,0,0,2.629-8.1V149.187A13.385,13.385,0,0,1,189.924,145.821Z" transform="translate(-110.344 -33.078)"/><path class="d" d="M113.534,181.809q25.564,25.56,51.266,50.984h4.294l-11.164-11.164-47.585-47.586v5.489A12.188,12.188,0,0,1,113.534,181.809Z" transform="translate(-110.344 -65.749)"/><path class="d" d="M110.345,232.607v4.653c0,7.311,5.664,13.294,12.585,13.294h5.485Q119.377,241.584,110.345,232.607Z" transform="translate(-110.344 -83.51)"/></g><g transform="translate(82.311 41.802)"><path class="o" d="M241.513,118.332c-2.354-2.385-3.615-6.111-4.464-9.564a.8.8,0,0,1-.147.05l-2.268.523a.787.787,0,0,1-.945-.591c-.006-.026-.006-.051-.01-.076a.23.23,0,0,1-.082.079l-1.9,1.026a13.72,13.72,0,0,0-.345,4.195,38.1,38.1,0,0,0,4.784,5.813,6.365,6.365,0,0,0,2.324,1.336l.157.55c.065.035.133.076.2.107a3.122,3.122,0,0,0,2.7-.187v-3.26Z" transform="translate(-145.271 -71.098)"/><path class="o" d="M212.431,84.9c-1.288-5.579-.616-10.5,1.5-10.985l.178-.042-2.731.631-.015,0-.036.007c-5.756,1.327-7.91,6.587-6.622,12.167s5.524,9.365,11.283,8.038l.046-.012h0l.008,0a11.044,11.044,0,0,0,1.129-.332l.527-.154h.006l.322-.077C216.008,93.884,213.606,90,212.431,84.9Z" transform="translate(-137.087 -60.544)"/><path class="o" d="M236.565,88.208V54.741a13.443,13.443,0,0,0-1.12,3.489c-2.087,3.143-6.532,7.142-18.1,9.841l-.178.042c-2.115.487-2.787,5.406-1.5,10.985,1.175,5.1,3.578,8.982,5.6,9.242a1.562,1.562,0,0,0,.22.013A25.87,25.87,0,0,0,224,93.806a23.222,23.222,0,0,1,1.5-2.7l1.9-1.027c.254-.137.739.27,1.083.911a2.583,2.583,0,0,1,.309.907.786.786,0,0,1,.542-.452l2.269-.523a.782.782,0,0,1,.148-.02c-.28-1.255-.517-2.434-.747-3.456A31.4,31.4,0,0,1,236.565,88.208Zm-15.089-19.86c-4.324,1.249-3.1,2.246-4.377,4.092-1.411,2.039-1.088-2.046-.036-3.227.288-.323,1.281-.806,3.645-1.4A35.568,35.568,0,0,0,233,62,28.007,28.007,0,0,1,221.476,68.348Z" transform="translate(-140.322 -54.741)"/><path class="o" d="M221.205,70.966c-2.365.592-3.357,1.074-3.645,1.4-1.053,1.182-1.376,5.266.036,3.227,1.276-1.846.053-2.843,4.377-4.092A28,28,0,0,0,233.5,65.152,35.574,35.574,0,0,1,221.205,70.966Z" transform="translate(-140.819 -57.893)"/><path class="p" d="M221.205,70.966c-2.365.592-3.357,1.074-3.645,1.4-1.053,1.182-1.376,5.266.036,3.227,1.276-1.846.053-2.843,4.377-4.092A28,28,0,0,0,233.5,65.152,35.574,35.574,0,0,1,221.205,70.966Z" transform="translate(-140.819 -57.893)"/><path class="o" d="M204.051,117.13l-2.9-10.148-.157-.55a6.376,6.376,0,0,1-2.324-1.336,38.1,38.1,0,0,1-4.784-5.813,13.717,13.717,0,0,1,.345-4.195l1.9-1.026a.23.23,0,0,0,.082-.079.706.706,0,0,0,.01.076.787.787,0,0,0,.945.591l2.268-.523a.791.791,0,0,0,.591-.945.783.783,0,0,0-.8-.609.774.774,0,0,0-.148.02l-2.269.523a.786.786,0,0,0-.542.452,2.569,2.569,0,0,0-.309-.907c-.344-.642-.828-1.048-1.083-.911l-1.9,1.027a23.22,23.22,0,0,0-1.5,2.7,3.6,3.6,0,0,1-.333.548l3.824,8.909a35.211,35.211,0,0,1,.8,12.2,35.2,35.2,0,0,1-4.611-4.217c.051-.1.1-.214.153-.315-6.472-6.773-13.289-15.98-23.849-14.077l-2.776.133-.077-3.12c2.634-2.053,5.442-9.839,3.948-12.511a1.168,1.168,0,0,0-.2-.276c-.109-1.353-.277-2.854-.49-4.382a4.029,4.029,0,0,0,.4-2.226c0-.339-.023-.7-.058-1.076a14.774,14.774,0,0,0-.767-3.536.839.839,0,0,0-.131-.234,4.1,4.1,0,0,0,.773-3.555,6.3,6.3,0,0,0-3.551-4.25,2.371,2.371,0,0,0,.36-2.021,2.256,2.256,0,0,0-2.1-1.22h-.017c-.116-.007-.233-.008-.353,0h-.047c-.108,0-.216.015-.325.029l-.077.01c-.1.015-.2.034-.294.056-.034.008-.068.015-.1.024-.089.023-.177.051-.265.081-.04.013-.08.026-.12.04-.082.031-.162.068-.241.1-.043.02-.085.037-.127.059-.079.041-.156.088-.233.136-.038.024-.077.044-.115.069a3.3,3.3,0,0,0-.323.247,3.742,3.742,0,0,1-.336.261c-.039.027-.077.05-.116.075-.075.048-.148.094-.223.135-.045.025-.09.048-.135.07-.068.034-.136.065-.2.095-.047.02-.094.04-.14.058-.065.024-.129.046-.193.067-.047.015-.1.032-.142.046s-.113.029-.169.043c-.133.032-.263.06-.389.08l-.028,0c-.09.014-.178.026-.263.036v-.007c-.013-.3-.02-.583-.037-.816,0-.014,0-.028,0-.041,0-.034-.006-.068-.009-.1,0-.017,0-.033-.006-.049s-.007-.054-.011-.079,0-.03-.007-.044-.01-.047-.015-.069,0-.023-.008-.033a.532.532,0,0,0-.028-.078l-.007-.011a.211.211,0,0,0-.029-.043.121.121,0,0,0-.015-.012.088.088,0,0,0-.029-.017l-.019,0a.091.091,0,0,0-.036,0l-.022.006a.226.226,0,0,0-.046.026l-.021.014a.669.669,0,0,0-.078.074c-1.24,1.357-3.409,1.628-5.652,1.994-3.74.61-7.688,1.485-7.892,8.1h0l.017.01c.047.029.094.056.141.085a5.074,5.074,0,0,0,.013,1.083q.021.182.056.364c.116.6.441,4.708,1.019,7.243,0,.083.006.166.01.249-1.124-.06-1.81.8-1.686,2.1.235,2.466,2.149,2.183,2.7,4.269a6.708,6.708,0,0,0,.2.647,15.616,15.616,0,0,0,1.04,2.541,1.685,1.685,0,0,0,.242.327c.2.409.428.85.675,1.328a5.344,5.344,0,0,0,2.051,1.814l-.757,5.9a32.323,32.323,0,0,0-18.416,7.116l-14.522,12.057c.1.075.193.159.289.238l-6.116,5.367c-.779,1.055-3.453,5.427-2.931,7.3.278,1.632,1.883,4.088,3.286,5.577l19,18.5a.484.484,0,0,0,.339.1c1.5,1.738,3.537,3.918,5.818,6.283a1,1,0,0,0,.284.3c.049.031.09.061.137.093l.046.031a4.521,4.521,0,0,1,.842.721q-.09,1.175-.186,2.365l-.569-.029c-1.088-.056-.989,1.051-1.076,2.4-.065,1.017-.217,1.885.176,2.275-.141.629-.264,1.242-.353,1.815l-7.8,26.657h22.19l4.476-9.394,1.184,9.394h20.169l-3.185-26.42c.923-.057.839-1.115.922-2.4.086-1.352.327-2.441-.762-2.5l-.539-.026c.008-.079.015-.16.024-.248l3.707-44.606,10.016,6.072c.15-.584.32-1.218.506-1.883,4.449,2.275,7.644,4.1,9.581,5.257,1.414.863,2.231,1.382,2.24,1.388h0a5.251,5.251,0,0,0,.907.04,4.445,4.445,0,0,0,.493-.049,3.669,3.669,0,0,0,.413.054,7.308,7.308,0,0,0,3.887-1.593Zm-65.236,23.658c0,.089,0,.183,0,.279,0,.061,0,.122,0,.186,0,.117,0,.24-.006.365,0,.093,0,.188-.006.285s0,.222-.008.339c0,.091,0,.186-.008.28s0,.19-.008.287-.006.214-.01.325c0,.084-.006.17-.008.256q-.022.679-.053,1.444l-.006.157q-.01.262-.022.534c0,.045,0,.091-.006.137-.093,2.142-.227,4.7-.4,7.513a16.094,16.094,0,0,1-1.85-.953h0l-14.618-21.441h0l.194-.171c.069-.061.137-.122.207-.185s.124-.113.186-.171c.082-.075.164-.153.246-.231l.16-.153c.134-.13.268-.263.4-.4l.1-.1c.111-.114.222-.233.334-.355l.146-.161q.155-.172.311-.355c.046-.054.091-.106.137-.161.148-.177.3-.359.449-.551l.681-.559c.509.561,1,1.092,1.479,1.568l9.81-6.176a4.821,4.821,0,0,1,.451-.34l1.666,16.87c.007.045.013.1.019.164,0,.02,0,.043,0,.064,0,.049.007.1.01.16,0,.027,0,.054,0,.083,0,.066.006.139.008.215,0,.025,0,.047,0,.073,0,.1,0,.214,0,.332,0,.035,0,.074,0,.11,0,.089,0,.182,0,.279C138.815,140.681,138.815,140.735,138.815,140.788Z" transform="translate(-107.809 -56.409)"/></g><path class="q" d="M190.934,12.1a14.685,14.685,0,0,1,7.305,12.348V174.31c0,7.876-6.43,11.168-14.049,11.168l-66.4-.12c-7.685,0-11.03-11.148-11.03-11.148,0,7.71,5.972,14.018,13.271,14.018h70.266c7.3,0,13.27-6.308,13.27-14.018V26.1C203.564,18.621,197.938,12.46,190.934,12.1Z" transform="translate(-25.178 -0.007)"/><path class="r" d="M213.5,30.178a1.162,1.162,0,0,1-1.162,1.162h-1.963a1.162,1.162,0,0,1-1.162-1.162h0a1.162,1.162,0,0,1,1.162-1.162h1.963a1.162,1.162,0,0,1,1.162,1.162Z" transform="translate(-56.253 -5.137)"/><path class="r" d="M128.6,30.178a1.162,1.162,0,0,1-1.162,1.162h-6.093a1.162,1.162,0,0,1-1.162-1.162h0a1.162,1.162,0,0,1,1.162-1.162h6.093a1.162,1.162,0,0,1,1.162,1.162Z" transform="translate(-29.252 -5.137)"/><path class="r" d="M226.024,30.178a1.162,1.162,0,0,1-1.162,1.162h-6.093a1.162,1.162,0,0,1-1.162-1.162h0a1.162,1.162,0,0,1,1.162-1.162h6.093a1.162,1.162,0,0,1,1.162,1.162Z" transform="translate(-58.798 -5.137)"/><g transform="translate(134.875 140.856)"><path class="s" d="M191.24,239.869H212.7l-3.487-28.926c-.826-4.5-3.459-14.514-7.35-14.01l-18.609,5.089s3.859,7.14,4.682,11.632Z" transform="translate(-183.255 -196.915)"/></g><g transform="translate(113.229 149.074)"><path class="s" d="M162.05,208.71a50.624,50.624,0,0,0-1.568,6.373l-8.3,28.364h23.464l11.5-23.824a31.451,31.451,0,0,0-.616-10.913Z" transform="translate(-152.185 -208.71)"/></g><path class="t" d="M202.051,208.71H165.9c-.573,1.756-1.166,3.75-1.549,5.522,7.656,1.357,11.859,1.361,17.669,2.624,13.026,2.831,15.306-.095,17.5,4.635.544,1.173,3.378,17.177,3.777,21.956h3.67l-3.487-28.926A52.4,52.4,0,0,0,202.051,208.71Z" transform="translate(-42.646 -59.636)"/><path class="t" d="M185.339,250.264l9-18.9c.233-1.5-5.3,6.778-10.692,18.9Z" transform="translate(-48.5 -66.453)"/><path class="m" d="M202.967,106.614l-1.982,21.925L192.943,148.9l-12.907-20.66.771-20.567Z" transform="translate(-47.403 -28.671)"/><path class="m" d="M166.045,180.54,203,183.607c.173-2.624.209-2.577.365-4.219l5.108-61.463c.049-3.543-12.9-9.362-12.9-9.362-1.228,5.3,1.131,10.737-2.951,14.689-1.991,1.933-.647,8.712-3.023,10.19-1.145.716.229,13.816-1.276,13.506l-14.082-29.933c.114-3.585.764-5.351,2.281-8.691-13.857,2.908-9.574,7.615-11.638,13.742l2.794,28.3C167.946,152.041,167.273,166.086,166.045,180.54Z" transform="translate(-42.809 -29.19)"/><path class="u" d="M169.15,140.181a10.648,10.648,0,0,1,3.5-8.473c-.115-.215-.628-.465-.646-.755-.213-3.527-3.1-6.293-6.454-7.759a14.7,14.7,0,0,1-.661,3.381l2.794,28.3c.206,1.3-.154,10.055-.9,20.667a1.541,1.541,0,0,1,.286-.054,6.287,6.287,0,0,1,.217-1.113C170.5,165.961,169.807,150.683,169.15,140.181Z" transform="translate(-42.808 -33.7)"/><g transform="translate(131.415 81.008)"><path class="u" d="M179.777,111.013a17.186,17.186,0,0,0-1.46,6.817l1.323,2.814Z" transform="translate(-178.297 -111.013)"/><path class="u" d="M207.565,133.013c3,4.8,1.124,11.474.664,16.752-2.891,33.173-5.958,34.465-16.541,35.543a114.6,114.6,0,0,1-13.379.132c-.44.124,6.658,3.559,6.215,3.677l22.543,1.979c.173-2.624.209-2.577.365-4.219l4.209-53.722Z" transform="translate(-178.289 -117.685)"/></g><path class="u" d="M204.525,212.548c-.093,1.439.014,2.615-1.145,2.556l-38.241-1.952c-1.157-.059-.9-1.216-.81-2.655h0c.092-1.439-.013-2.616,1.145-2.557l38.241,1.951c1.159.06.9,1.219.811,2.657Z" transform="translate(-42.612 -59.401)"/><path class="b" d="M206.79,212.9a4.112,4.112,0,0,1-4.5,3.573l-4.49-.231a3.984,3.984,0,0,1-4.006-4.01h0a4.114,4.114,0,0,1,4.5-3.575l4.49.231a3.985,3.985,0,0,1,4.006,4.012Z" transform="translate(-51.575 -59.617)"/><path class="v" d="M205.232,213.482a2.362,2.362,0,0,1-2.583,2.053l-2.58-.132a2.289,2.289,0,0,1-2.3-2.3h0a2.363,2.363,0,0,1,2.583-2.054l2.58.132a2.289,2.289,0,0,1,2.3,2.3Z" transform="translate(-52.78 -60.343)"/><g transform="translate(164.186 83.549)"><path class="w" d="M255.7,134.137,250.956,131c-6.3-1.554-11.691-10.309-18.553-16.337v17.8h-7.078l12.391,5.988c6.8,3.81,11.7,6.925,11.7,6.925C254.936,146.073,255.864,139.067,255.7,134.137Z" transform="translate(-225.325 -114.66)"/></g><g transform="translate(180.427 93.047)"><path class="w" d="M254.1,142.662s-4.885-13.118-5.466-14.368c2.915,3.087,5.753,5.69,8.788,6.665a22.419,22.419,0,0,1-2.314,3.57C254.74,139.108,254.416,142.052,254.1,142.662Z" transform="translate(-248.635 -128.294)"/></g><g transform="translate(161.003 83.527)"><path class="w" d="M252.433,133.872c-.855,4.643,1.565,12.158-4.181,10.339-3.677-1.168-15.069-8.467-17.063-12.394-1.729-3.4-2.692-11.122-4.668-13.9-2.768-1.831-.816-1.753-3.519-3.284l1.431,5.106-2.26-.615a8.575,8.575,0,0,1,.082,4.053c-.311,1.43-.686,2.84-1.019,4.265-.143.605-.29,1.213-.4,1.826l-.035.185c-.009.1-.022.222-.041.4-.015.14,2.372-1.363,3.631-2.1.44-.257,3.548,6.856,4.008,7.074a172.64,172.64,0,0,1,19.635,10.541c5.519.7,4.922-6.307,4.763-11.237Z" transform="translate(-220.756 -114.629)"/></g><g transform="translate(150.73 77.677)"><path class="m" d="M230.443,137.752c1.18-4.578,3.435-11.914,5.633-16.268-7.8-8.162-16.07-19.651-30.065-13.518l5.648,9.562-1.892,7.69Z" transform="translate(-206.011 -106.233)"/></g><g transform="translate(163.5 30.338)"><g transform="translate(17.117 44.95)"><path class="w" d="M257.453,118.456l3.233-8.289c.486-1.249-.5-3.345-3.663-4.325-2.1-.647-8.115-3.038-8.115-3.038l5.628,13.111Z" transform="translate(-248.909 -102.804)"/></g><path class="b" d="M258.681,109.69c-5.5-2.659-14.024-17.184-13.272-19.411s6.433-4.187,8.659-3.436,1.863,14.844,8.379,19.987C264.291,108.286,260.8,110.714,258.681,109.69Z" transform="translate(-230.717 -52.964)"/><path class="v" d="M256.464,100.911l3.333-1.767a.894.894,0,0,1,.869.068,6.467,6.467,0,0,0-.146,2.521l-2.827,1.5a1.373,1.373,0,0,1-1.229-2.32Z" transform="translate(-233.95 -56.718)"/><path class="v" d="M258.486,104.208l2.641-1.4a5.794,5.794,0,0,0,.511,1.732,5.925,5.925,0,0,0,.236.844l-2.158,1.144a1.373,1.373,0,0,1-1.23-2.32Z" transform="translate(-234.563 -57.855)"/><path class="v" d="M259.83,107.106l2.322-1.232a5.305,5.305,0,0,0,.957,1.885c.024.079.042.16.07.237l-2.246,1.19a1.231,1.231,0,0,1-1.1-2.08Z" transform="translate(-234.984 -58.785)"/><path class="v" d="M261.332,109.691l2.218-1.177.026.035a5.3,5.3,0,0,0,.852,1.676l-2.2,1.166a1.006,1.006,0,0,1-.9-1.7Z" transform="translate(-235.462 -59.586)"/><path class="v" d="M257.7,108.216a34.013,34.013,0,0,1-4.587-5.71c-1.754-2.488-3.535-5.664-1.917-8.765.89-1.71,2.783-2.28,4.662-2.172-.55-2.568-1.011-4.462-1.788-4.725-2.226-.752-7.907,1.212-8.659,3.436s7.775,16.752,13.272,19.411a3.484,3.484,0,0,0,3.356-.492A4.3,4.3,0,0,1,257.7,108.216Z" transform="translate(-230.717 -52.964)"/><path class="m" d="M224.724,76.461c1.37,5.936,5.878,9.964,12.005,8.553a11.037,11.037,0,1,0-4.958-21.5C225.645,64.927,223.354,70.524,224.724,76.461Z" transform="translate(-224.341 -45.846)"/><g transform="translate(5.192)"><path class="x" d="M239.025,61.992l-4.942,1.141c-2.25.52-2.965,5.753-1.6,11.689s4.3,10.329,6.553,9.81c0,0,4.649-1.372,4.883-1.4Z" transform="translate(-231.793 -45.476)"/><path class="y" d="M241.787,61.356,236.845,62.5c-2.25.518-2.964,5.751-1.6,11.688s4.158,10.251,6.407,9.733c4.357-1.03,4.384-1.252,5.03-1.32Z" transform="translate(-232.63 -45.283)"/><path class="b" d="M260.6,40.268c-2.716.626-.1,10.436-22.618,15.631-2.251.518-2.965,5.752-1.6,11.689s4.3,10.329,6.553,9.809c16.039-3.7,25.647,4.5,27.18,4.147,3.964-.913,4.832-11.834,2.42-22.294S264.567,39.354,260.6,40.268Z" transform="translate(-232.975 -38.869)"/><path class="v" d="M265.089,41.335a3.524,3.524,0,0,1,.45,3.013c-.163.558-.315,1.119-.447,1.685-.023.1-.084.389-.116.543-.036.176-.071.35-.1.527-.2,1.118-5.682-1.4-5.827-.274,0,0-2.448,5.055-.059,17.015.611,3.051,1.552,9.005-2.791,9.672-3.252.5-6.941.848-11.024,1.746-2.435.534-3.55.67-3.55.67,1.046,1.338,2.147,2.032,3.12,1.807,16.039-3.7,25.647,4.5,27.18,4.147,3.964-.913,4.832-11.834,2.42-22.294C272.437,51.348,268.579,43.739,265.089,41.335Z" transform="translate(-234.773 -39.211)"/><path class="b" d="M284.038,58.15c2.76,11.971,1.32,22.523-3.217,23.571s-10.454-7.809-13.215-19.781-1.32-22.523,3.217-23.57S281.277,46.181,284.038,58.15Z" transform="translate(-242.229 -38.286)"/><path class="b" d="M272.453,40.328c-3.082.711-4.42,6.877-3.6,14.861,3.156,1.908,6.648,1.1,7.76.849,1.25-.291,2.746,1.568,3.339,4.145s.063,4.9-1.187,5.191c-1.1.252-4.887,1.127-6.727,3.422,2.751,7.347,6.584,12.146,9.618,11.446,3.906-.9,5.011-10.566,2.469-21.59S276.359,39.427,272.453,40.328Z" transform="translate(-242.961 -38.885)"/><path class="v" d="M272.453,40.328c-3.082.711-4.42,6.877-3.6,14.861,3.156,1.908,6.648,1.1,7.76.849,1.25-.291,2.746,1.568,3.339,4.145s.063,4.9-1.187,5.191c-1.1.252-4.887,1.127-6.727,3.422,2.751,7.347,6.584,12.146,9.618,11.446,3.906-.9,5.011-10.566,2.469-21.59S276.359,39.427,272.453,40.328Z" transform="translate(-242.961 -38.885)"/><path class="v" d="M272.453,40.328c-3.082.711-4.42,6.877-3.6,14.861,3.156,1.908,6.648,1.1,7.76.849,1.25-.291,2.746,1.568,3.339,4.145s.063,4.9-1.187,5.191c-1.1.252-4.887,1.127-6.727,3.422,2.751,7.347,6.584,12.146,9.618,11.446,3.906-.9,5.011-10.566,2.469-21.59S276.359,39.427,272.453,40.328Z" transform="translate(-242.961 -38.885)"/><path class="z" d="M274.719,84.211l.511,1.183c4.872,1.45,10.3,6.606,10.3,6.606a9.985,9.985,0,0,0,1.251-3.206A50.59,50.59,0,0,0,274.719,84.211Z" transform="translate(-244.812 -52.215)"/><path class="z" d="M286.7,87.542q.153-.825.25-1.742c-3.551-1.612-12.67-3.341-12.981-3.4.178.48,0,0,.187.457A49.32,49.32,0,0,1,286.7,87.542Z" transform="translate(-244.584 -51.667)"/><path class="aa" d="M255.362,53.385A29.786,29.786,0,0,1,243.1,60.139c-4.6,1.328-3.3,2.39-4.658,4.354-1.5,2.169-1.157-2.177-.038-3.434.306-.344,1.363-.858,3.879-1.487A37.839,37.839,0,0,0,255.362,53.385Z" transform="translate(-233.504 -42.86)"/><g transform="translate(25.885 16.306)"><path class="m" d="M276.516,62.581a10.291,10.291,0,0,1-7.571-.89A56.537,56.537,0,0,0,272.129,75.3c1.748-2.18,5.25-3.077,6.54-3.38Z" transform="translate(-268.945 -61.691)"/></g><path class="ab" d="M277.422,62.982c-2.829.9-1.264,6.362-1.592,7.662a4.241,4.241,0,0,1-1.942,2.592c-.634.379-1.358.882-1.961-.84a31.3,31.3,0,0,0,1.106,3.295c1.9-2.223,5.158-3.058,6.539-3.381Z" transform="translate(-243.965 -45.776)"/><path class="b" d="M278.272,68.084c.6,2.579,2.092,4.434,3.341,4.147s1.782-2.613,1.187-5.191-2.09-4.436-3.341-4.147S277.677,65.506,278.272,68.084Z" transform="translate(-245.815 -45.74)"/><path class="v" d="M283.021,68.719c-.043,1.782-1.176,2.9-2.217,2.3-2.009-1.157-3.477-7.021-1.313-8.12l-.032.006c-1.251.29-1.782,2.613-1.187,5.191s2.092,4.434,3.341,4.147c.984-.229,1.523-1.716,1.417-3.6A.725.725,0,0,0,283.021,68.719Z" transform="translate(-245.815 -45.751)"/></g><path class="ac" d="M256.648,99.12a.837.837,0,0,0,1.006.628l2.414-.556a.841.841,0,0,0,.629-1.006h0a.835.835,0,0,0-1-.627l-2.415.556a.84.84,0,0,0-.63,1Z" transform="translate(-234.133 -56.256)"/><path class="ac" d="M258.536,103.974a.732.732,0,0,0,.906.5l2.081-.6a.73.73,0,0,0,.5-.905h0a.73.73,0,0,0-.906-.5l-2.082.6a.733.733,0,0,0-.5.906Z" transform="translate(-234.703 -57.744)"/><path class="ac" d="M260.836,108.154a.614.614,0,0,0,.759.422l1.744-.5a.615.615,0,0,0,.422-.759h0a.615.615,0,0,0-.76-.422l-1.745.5a.612.612,0,0,0-.421.757Z" transform="translate(-235.402 -59.088)"/><path class="w" d="M250.856,97.36c-.27.144-1.648,3.139-1.947,3.452l3.051,4.469a14.682,14.682,0,0,1,.224-5.462l2.026-1.092c.27-.145.187-.814-.179-1.492h0c-.366-.683-.881-1.115-1.152-.97Z" transform="translate(-231.792 -55.863)"/><path class="w" d="M256.409,100.323a1.183,1.183,0,0,0-.243,1.616h0a1.183,1.183,0,0,0,1.473.706l3.333-1.767a1.182,1.182,0,0,0,.243-1.616h0a1.183,1.183,0,0,0-1.473-.706Z" transform="translate(-233.933 -56.539)"/><path class="w" d="M258.431,103.423a1.181,1.181,0,0,0-.245,1.615h0a1.183,1.183,0,0,0,1.474.705l3.333-1.766a1.183,1.183,0,0,0,.244-1.616h0a1.183,1.183,0,0,0-1.474-.706Z" transform="translate(-234.546 -57.479)"/><path class="w" d="M259.775,106.331a1.058,1.058,0,0,0-.218,1.448h0a1.06,1.06,0,0,0,1.321.632l2.988-1.584a1.06,1.06,0,0,0,.218-1.449h0a1.06,1.06,0,0,0-1.321-.633Z" transform="translate(-234.967 -58.419)"/><path class="w" d="M261.277,109.024a.864.864,0,0,0-.178,1.183h0a.867.867,0,0,0,1.079.517l2.439-1.294a.864.864,0,0,0,.179-1.182h0a.866.866,0,0,0-1.079-.518Z" transform="translate(-235.445 -59.329)"/></g><g transform="translate(184.202 81.627)"><path class="w" d="M254.539,115.042c2.618,9.56-.736,17.457.986,25.358a5.035,5.035,0,0,0,4.533,4.185c3.8-.744,6.7-1.638,5.674-11.183l-4.792-16.762C257.478,115.841,252.469,107.486,254.539,115.042Z" transform="translate(-254.053 -111.903)"/></g><path class="w" d="M157.376,111.9c-2.759.856-21.281,13.136-24.159,15.653l-8.411,7.38c-.871,1.18-3.98,6.268-3.013,8.056l10.906,3.325c1.611-2.485,4.04-3.346,6.868-6.957l9.176-7.531a1.891,1.891,0,0,1,.741-.6c1.768-.842,3.651-1.7,5.6-2.485Z" transform="translate(-29.683 -30.275)"/><g transform="translate(113.229 130.989)"><g transform="translate(13.076 7.891)"><path class="w" d="M175.277,201.457s1.956-.4,1.353-1.9A13.124,13.124,0,0,0,173.4,194.5a1.294,1.294,0,0,0-2.163.42,2.4,2.4,0,0,0,.281,2.68C173.225,199.344,174.092,201.4,175.277,201.457Z" transform="translate(-170.955 -194.077)"/></g><g transform="translate(10.837 8.794)"><path class="w" d="M171.621,202.5s2.314-.4,1.712-1.9a12.184,12.184,0,0,0-3.152-4.8,1.293,1.293,0,0,0-2.162.42,2.4,2.4,0,0,0,.281,2.68C170.01,200.64,171.1,202.707,171.621,202.5Z" transform="translate(-167.74 -195.374)"/></g><g transform="translate(8.577 9.863)"><path class="w" d="M167.769,203.6s2.877.028,2.275-1.471a12.208,12.208,0,0,0-3.152-4.8,1.3,1.3,0,0,0-2.163.42c-.47.908-.2,3,.534,3.459C167.4,202.559,166.723,203.725,167.769,203.6Z" transform="translate(-164.496 -196.908)"/></g><g transform="translate(0 0)"><path class="w" d="M167.452,189.14a2.765,2.765,0,0,1,1.571,3.322c-.945,2.514-2.825,4.306-3.876,4.293-3.537-.043-2.83.971-3.918-.157-6.553-6.794-11.179-12.154-8.033-10.7,1.519.7,3.275-4,3.922-3.008C160.537,188.128,167.452,189.14,167.452,189.14Z" transform="translate(-152.186 -182.752)"/></g></g><g transform="translate(91.955 109.043)"><path class="w" d="M152.492,177.9,135.647,153.2c-3.812-.219-12.707-4.585-13.951.532-.383,1.579,1.717,4.947,3.5,6.842l20.219,19.68C146.108,180.969,152.492,177.9,152.492,177.9Z" transform="translate(-121.65 -151.253)"/></g><path class="w" d="M140.846,149.576a22.505,22.505,0,0,0,3.055-3.188l3.842-3.154a70.879,70.879,0,0,0-10.329-7.826,2.179,2.179,0,0,1-.423-.333l-1.092.958a1.744,1.744,0,0,1,.688,1.147c.355,1.9,4.105,6.526,4.8,8.3.71,1.8-2.354,3.183-1.423,4.848l15.779,22.12c1.9,2.145,2.23,1.3,5.158,1.868a18.574,18.574,0,0,1-4.506-1.922Z" transform="translate(-34.017 -37.303)"/><path class="m" d="M172.741,107.315c1.777-.13-10.511-1.91-22.192,7.372L135.1,127.515c3.612,2.835,7.65,8.241,10.858,11.462l10.438-6.571c.169-.235,13.841-9.876,22.134-8C176.954,113.6,177.722,110.468,172.741,107.315Z" transform="translate(-33.774 -28.817)"/><path class="ad" d="M207.157,67.189c3.225-.122,3.892,5.4,3.892,5.4.9-.091.968-4.175-.2-7.436C210.111,63.114,204.826,67.278,207.157,67.189Z" transform="translate(-55.45 -15.926)"/><path class="ab" d="M207.157,67.189c3.225-.122,3.892,5.4,3.892,5.4.9-.091.968-4.175-.2-7.436C210.111,63.114,204.826,67.278,207.157,67.189Z" transform="translate(-55.45 -15.926)"/><g transform="translate(136.243 54.452)"><path class="w" d="M185.218,97.724c-.025,2.546,4.373,3.6,8.577,3.614h0c4.2.027,7.621-2.025,7.651-4.567l-.473-19.247c.024-2.54-2.672-4.609-6.875-4.627h0c-4.2-.015-6.257,2.046-6.284,4.6Z" transform="translate(-185.218 -72.897)"/></g><path class="w" d="M201.935,95.684l-14.384,1.183v1.019c2.365,2.69,8.826,5.337,10.431,5.519,1.487.171,4.028-1.253,4.028-3.44Z" transform="translate(-49.682 -25.356)"/><path class="w" d="M179.959,78.677l-1.741-.41c-1.441-.323-2.359.634-2.213,2.182.254,2.654,2.338,2.312,2.893,4.618l3.109-1.242Z" transform="translate(-46.176 -20.055)"/><path class="w" d="M203.237,79.226c-.99,2.721-4.2,6.076-6.8,6.324-2.716.259-14.147-2.083-15.469-4.571-3.651-6.879-4.871-26.207,8.8-26.808,3.648-.16,8.159-2.06,10.705,4.437C202.371,63.452,204.105,76.844,203.237,79.226Z" transform="translate(-46.95 -12.65)"/><g transform="translate(130.288 37.671)"><path class="ad" d="M191.082,48.946c1.026-1.121-.529,5.167,2.415,3.372,1.318-.8,4.518.18,6.261,3.19l-13.319,2.6c-.84-.036-1.678-.066-2.518-.075a3.94,3.94,0,0,0-3.888,3.553c-1.125-.61-2.254-1.212-3.362-1.9C177.017,48.427,187.563,52.8,191.082,48.946Z" transform="translate(-176.671 -48.811)"/></g><path class="ad" d="M204.878,49.466c.486,1.437-.782,3.277-2.836,4.109s-5.653-1.172-6.142-2.608,1.9-.107,3.935-1.893C201.523,47.6,204.388,48.03,204.878,49.466Z" transform="translate(-52.195 -10.942)"/><path class="ad" d="M202.522,57c.408,2.094-.167,4.378-3.647,5.533-6.245,2.073-7.8-1.993-16.49-.347-.743.14.616,1.939-1.733,3.792-2.393,1.889-1.58,5.845-1.58,5.845-1.266-.048-1.918-8.912-2.1-9.837-.879-4.49,4.131-9.245,11.185-10.622S201.644,52.507,202.522,57Z" transform="translate(-46.444 -11.8)"/><path class="ab" d="M176.67,59.486c.347-11.257,10.893-6.886,14.411-10.738.43-.471.407.364.451,1.359a4.375,4.375,0,0,0,2.489-1.034,3.951,3.951,0,0,1,3.2-.861c-2.7.215-3.033,1.9-5.321,2.78-3.122,1.194-6.456.078-10.862,2.622-2.2,1.267-2.556,4.909-2.83,7.385-.256,2.319.6,4.5.58,6.826a7.967,7.967,0,0,0,.1,1.3,8.808,8.808,0,0,0,.126,1.836c-1.266-.048-1.918-8.912-2.1-9.837a5.407,5.407,0,0,1-.068-1.538C176.786,59.554,176.727,59.522,176.67,59.486Z" transform="translate(-46.382 -10.943)"/><path class="ad" d="M203.975,82.79c1.715,3.067-1.9,12.474-4.858,13.713-3.321,1.379-15.143-2.007-16.733-5.084-2.9-5.617-2.952-6.6-1.258-6.874,1.1-.178,4.807,3.587,7.595,3.53,1.991-.041.53-3.582,6.921-4.377,4.7-.585,4.031.427,5.4.9C203.086,85.314,203.059,81.153,203.975,82.79Z" transform="translate(-47.391 -21.329)"/><g transform="translate(143.938 64.543)"><path class="w" d="M205.093,87.381a.331.331,0,0,1,.017.036,3.555,3.555,0,0,1-2.87,4.86,5.43,5.43,0,0,1-5.966-3.112c-.006-.012-.007-.025-.013-.039Z" transform="translate(-196.262 -87.381)"/><path class="ae" d="M204.7,87.771c.006.01.012.023.016.032a3.226,3.226,0,0,1-2.6,4.409,4.925,4.925,0,0,1-5.411-2.823.2.2,0,0,1-.011-.034Z" transform="translate(-196.393 -87.499)"/></g></g></svg>