<?xml version="1.0" encoding="utf-8"?>
<!-- Generator: Adobe Illustrator 24.0.1, SVG Export Plug-In . SVG Version: 6.00 Build 0)  -->
<svg version="1.1" id="Layer_1" xmlns="http://www.w3.org/2000/svg" xmlns:xlink="http://www.w3.org/1999/xlink" x="0px" y="0px"
	 viewBox="0 0 360 150" style="enable-background:new 0 0 360 150;" xml:space="preserve">
<style type="text/css">
	.st0{fill:#3B33BE;}
	.st1{fill:#FFA985;}
	.st2{fill:#E88E67;}
	.st3{fill:#FEEA74;}
	.st4{fill:#A0614B;}
	.st5{fill:#2E2E2E;}
	.st6{fill:#FFFFFF;}
	.st7{fill:#FF6666;}
	.st8{fill:#5E2FA9;}
	.st9{fill:#4E258E;}
	.st10{fill:#4099FF;}
	.st11{fill:#9D55E9;}
	.st12{fill:#3D34BF;}
	.st13{fill:#71B8FF;}
</style>
<g id="Bg">
	<path class="st0" d="M0.2,0h359.7v150H0.2V0z"/>
</g>
<g>
	<g id="Girl-1_1_">
		<path class="st1" d="M144.3,62.9c1.3-1.6,2.2-0.3,2,1c-0.2,1.3-2.1,6.1-2.8,3.8C142.7,65.5,144.3,62.9,144.3,62.9z"/>
		<path class="st2" d="M143.1,64.1c1.3-1,2.1-0.2,1.8,0.6c-0.2,0.8-1.9,3.8-2.6,2.4C141.6,65.7,143.1,64.1,143.1,64.1z"/>
		<path class="st1" d="M128,62.9c-1.3-1.6-2.2-0.3-2,1c0.2,1.3,2.1,6.1,2.8,3.8C129.6,65.5,128,62.9,128,62.9z"/>
		<path class="st2" d="M127.4,63.7c0.8-1.4,1.8-1,1.9-0.2c0.1,0.8-0.3,4.2-1.5,3.2C126.6,65.7,127.4,63.7,127.4,63.7z"/>
		<path class="st3" d="M103.8,120.4c-0.1,0-0.2-0.1-0.2-0.2l-0.1-0.7c0,0,0,0,0-0.1c0-0.1,0.2-2.1,0.3-3.1c0.7-4.3,2.2-8.6,3.4-11.9
			c1.3-3.5,3.3-8.6,6.2-13.6c3.4-5.8,7.3-10.1,11.5-12.7c3.2-2,8.1-3.4,12.1-3.4c2.3,0,4.4,0.3,6.3,0.8c5,1.5,9.7,5.3,15.1,12.3
			c4,5.2,6.5,13.4,7.7,17.9c1.5,6,2.2,11.3,1.8,12.2c-0.1,0.2-0.3,0.2-0.3,0.2c-0.6,0-4.5,0.3-4.6,0.3l-8.6,0.6
			c-0.1,0-0.2-0.1-0.3-0.2c0-0.1,0.1-0.2,0.2-0.3l8.6-0.6c0.2,0,3.7-0.3,4.5-0.3c0.2-0.7-0.2-5.4-1.9-11.7
			c-1.1-4.4-3.6-12.6-7.6-17.8c-5.3-7-9.9-10.7-14.8-12.2c-1.9-0.6-3.9-0.8-6.2-0.8c-4,0-8.8,1.3-11.9,3.3
			c-10.3,6.5-15.7,21.3-17.5,26.1c-1.2,3.2-2.7,7.5-3.3,11.8c-0.1,0.9-0.3,2.8-0.3,3l0.1,0.5c0.6,0,2.4,0,3.1-0.1
			c2.8-0.2,6.5-0.7,6.9-0.8c0.3-0.1,0.6-0.1,0.9-0.2c1.1-0.2,1.6-0.3,3.1-0.1c0.1,0,0.2,0.1,0.2,0.3c0,0.1-0.1,0.2-0.3,0.2
			c-1.5-0.2-1.9-0.1-3,0.1c-0.2,0-0.5,0.1-0.9,0.2c-0.4,0.1-4.1,0.6-7,0.8C106.3,120.3,103.9,120.4,103.8,120.4
			C103.8,120.4,103.8,120.4,103.8,120.4z"/>
		<path class="st1" d="M105.6,120.3c0,0,3.4,9.8,8.7,9.9c5.3,0,6.9-3.3,9.8-9c2.3-4.6,5.4-14.9,6.4-17.3c1-2.4,2.8-1.1,3.6-2.8
			c1.6-3.2,2.9-6.8,0.6-9.4c-0.9-1-3.6-1.7-4.1-1.1c-1.4,1.9-1.6,4.8-2.7,6.6c-7.1,11.9-14.7,22.1-14.7,22.1L105.6,120.3z"/>
		<path class="st2" d="M113.1,122.7c-0.1,0-0.2-0.1-0.2-0.1c-0.3-0.6-0.2-1.3-0.2-1.8c0,0,0,0,0-0.1c0-0.1,0-0.1,0-0.1
			c0,0,0,0.1-0.1,0.1c0,0.1-0.1,0.1-0.2,0.2c-0.2,0.3-0.4,0.4-0.5,0.5c-0.2,0.2-0.2,0.2-0.3,0.4l0,0.1c-0.1,0.1-0.2,0.2-0.3,0.1
			c-0.1-0.1-0.2-0.2-0.1-0.3l0-0.1c0.1-0.3,0.1-0.3,0.4-0.6c0.1-0.1,0.2-0.3,0.4-0.5c0,0,0.1-0.1,0.1-0.2c0.2-0.2,0.4-0.5,0.7-0.5
			c0.1,0,0.1,0,0.2,0.1c0.1,0.1,0.1,0.2,0,0.9c0,0,0,0,0,0c-0.1,0.4-0.1,1,0.1,1.6C113.4,122.5,113.3,122.7,113.1,122.7
			C113.2,122.7,113.1,122.7,113.1,122.7z"/>
		<path class="st1" d="M130.4,69.7c0,0.3,0.3,5.7-0.2,8.8c1.5,2.1,5.4,2.5,6.3,2.4c1.2-0.2,2.6-0.4,3.6-1c2.3-1.3,1.2-2.5,1.1-4.3
			c-0.2-3.1,0.4-5.7,0.4-5.7S130.4,69,130.4,69.7z"/>
		<path class="st2" d="M131.1,71.1c0,0.3-0.1,0.6-0.1,0.9c-0.1,0.8-0.2-0.8-0.1,1.7c0.1,2.5,3.7,4.1,5,4c3.4-0.2,5-3.4,5-3.6
			c-0.1-2.1-0.8-3.7-5-3.3C135,70.8,131.1,70.3,131.1,71.1z"/>
		<path class="st1" d="M127.7,60.6c0.7,2.9,0,3.9,0.2,6.4c0.2,1.4,0.8,4.9,1.6,5.8c0.9,0.9,2.8,3.3,5.5,3.8c0.4,0.1,1.5,0.1,2,0
			c2.4-0.5,4.7-3,5.3-3.6c0.7-0.7,2-5.5,1.7-7c-0.5-3.4,1.5-4.6,0.8-10c-0.7-5.3-5.1-6.9-6.2-7.1c-1.2-0.2-7.1,0.1-9.1,3.5
			C127.6,55.7,127.2,58.9,127.7,60.6z"/>
		<path class="st3" d="M135.8,82c-1.6,0-3.2-0.3-4.5-0.8c-1.1-0.4-1.9-1.1-2.2-2c-0.3-0.6-0.3-1.3,0-1.9c0.1-0.1,0.2-0.2,0.3-0.1
			c0.1,0.1,0.2,0.2,0.1,0.3c-0.2,0.5-0.2,1,0,1.5c0.3,0.7,1,1.3,1.9,1.7c2.4,1,5.6,1,8.4,0.2c1.3-0.4,2.2-1.3,2.6-2.3
			c0.2-0.8,0.1-1.5-0.3-2.1c-0.1-0.1-0.1-0.3,0.1-0.4c0.1-0.1,0.3-0.1,0.4,0.1c0.6,0.7,0.7,1.7,0.4,2.6c-0.4,1.2-1.5,2.2-2.9,2.6
			C138.6,81.8,137.2,82,135.8,82z"/>
		<path class="st4" d="M138.2,61c-0.9,0.1-0.6,0.7-0.1,1c0.9,0.4,2.3,0.2,3.3,0.3c0.3,0,0.9,0.3,1.1-0.1c0.1-0.4-0.4-0.7-0.7-0.8
			c-0.8-0.3-1.6-0.4-2.5-0.4C139.1,60.9,138.5,60.9,138.2,61z"/>
		<path class="st4" d="M131,61.2c-0.2,0-0.1,0,0.6-0.1c0.3-0.1,2.4-0.7,2.3,0.3c0,0.3-0.6,0.4-0.9,0.5c-0.9,0.3-1.7,0.4-2.6,0.4
			c-0.2,0-0.7,0.1-0.9-0.1c-0.4-0.5,0.7-0.7,1-0.9C130.6,61.2,131.2,61.1,131,61.2z"/>
		<path class="st2" d="M136,69.6c-0.5,0-1-0.1-1.3-0.3c-0.2-0.2-0.6-0.6-0.2-1.7c0.6-1.4,0.5-3.1-0.2-4.7c-0.1-0.1,0-0.3,0.1-0.3
			c0.1-0.1,0.3,0,0.3,0.1c0.8,1.8,0.8,3.6,0.2,5.1c-0.2,0.5-0.2,0.9,0,1.1c0.4,0.3,1.5,0.3,1.9,0c0.1-0.1,0.3-0.1,0.3,0.1
			c0.1,0.1,0.1,0.3-0.1,0.3C137,69.5,136.5,69.6,136,69.6z"/>
		<path class="st2" d="M136.8,66.6c-0.1,0-0.2-0.1-0.2-0.2c-0.1-0.8,0-1.5,0.1-2.3c0-0.1,0.2-0.2,0.3-0.2c0.1,0,0.2,0.2,0.2,0.3
			c-0.1,0.7-0.2,1.5-0.1,2.2C137.1,66.5,137,66.6,136.8,66.6C136.8,66.6,136.8,66.6,136.8,66.6z"/>
		<path class="st5" d="M132.9,70.4c1.1,0.4,1.2,1.9,2.9,2c1.7,0.1,2.1-1.8,3-2.3c-0.9,0.5-2.9,0.5-2.9,0.5S133.3,70.6,132.9,70.4z"
			/>
		<path class="st6" d="M137,71.3c0.1-0.1,0.6-0.6,0.8-0.7l-2,0.3c0,0-1,0-1.8,0c0.1,0.1,0.4,0.3,0.6,0.5c0,0,0.1,0.1,0.2,0.1
			C135.1,71.5,136.2,71.7,137,71.3z"/>
		<path class="st2" d="M135.9,70.4c-2,0-2.3,0.5-3.3-0.3c0,0-0.1,0.1,0,0.2c0.2,0.2,0.5,0.4,0.7,0.4c0.8,0.4,2,0.3,2.6,0.3
			c0.6,0,1.5-0.1,2.5-0.6c0.1-0.1,0.4-0.2,0.8-0.4c0.1-0.1,0-0.2-0.1-0.1C138,70.5,137.5,70.3,135.9,70.4z"/>
		<path class="st2" d="M139.8,70.1c-0.1,0-0.2,0-0.2-0.1c-0.2-0.2-0.3-0.5-0.4-0.8c0-0.1,0-0.3,0.2-0.3c0.1,0,0.3,0,0.3,0.2
			c0.1,0.2,0.2,0.5,0.4,0.7c0.1,0.1,0,0.3-0.1,0.3C139.9,70.1,139.8,70.1,139.8,70.1z"/>
		<path class="st2" d="M132,70.6c0,0-0.1,0-0.1,0c-0.1-0.1-0.2-0.2-0.1-0.3c0.1-0.1,0.3-0.5,0.3-0.8c0-0.1,0.1-0.2,0.3-0.2
			c0.1,0,0.2,0.1,0.2,0.3c0,0.4-0.3,0.8-0.4,1C132.1,70.5,132,70.6,132,70.6z"/>
		<path class="st2" d="M138.7,64.4c-0.1,0-0.1,0-0.2-0.1c-0.1-0.1-0.1-0.3,0-0.3c0.6-0.5,2-0.8,3.1,0c0.1,0.1,0.1,0.2,0.1,0.3
			c-0.1,0.1-0.2,0.1-0.3,0.1c-1-0.7-2.1-0.3-2.5,0C138.8,64.4,138.8,64.4,138.7,64.4z"/>
		<path class="st2" d="M130.2,64.5c-0.1,0-0.1,0-0.2-0.1c-0.1-0.1-0.1-0.3,0-0.3c1.1-0.9,2.4-0.6,3.1-0.2c0.1,0.1,0.1,0.2,0.1,0.3
			c-0.1,0.1-0.2,0.1-0.3,0.1c-0.4-0.3-1.6-0.6-2.5,0.1C130.3,64.5,130.3,64.5,130.2,64.5z"/>
		<path class="st2" d="M134.6,72.9c0.3,0.5,0.6,0.9,1.1,0.9c0.8,0.1,1.2-0.4,1.6-1c0.1-0.1-0.1,0.4-1.4,0.4
			C134.7,73.2,134.5,72.8,134.6,72.9z"/>
		<path class="st5" d="M139.1,64.5c0,0,0.2,0.7,0.9,0.8c0.4,0.1,1.1,0,1.2-0.8c0-0.2-1-0.3-1.2-0.3
			C139.1,64.3,139.1,64.5,139.1,64.5z"/>
		<path class="st5" d="M132.7,64.5c-0.1,0.9-0.6,0.8-0.9,0.8c-0.8,0-1.1-0.6-1.1-0.9C130.7,64.1,132.8,64.2,132.7,64.5z"/>
		<path class="st7" d="M130,86.2c0,0-0.3-0.8,0.6-0.8c0.5,0,2,0.6,4.5,0.6c2.4,0.1,5-0.1,5.4-0.1c0.6,0.1,0.4,0.8,0.4,0.8
			s-3,3.3-6,2.4C131.9,88.2,130,86.2,130,86.2z"/>
		<path class="st3" d="M130,86.2c0,0,2.3,14.6,2.7,15.7c0.4,1.1,6.5,1.2,7.3,0.2c0.2-0.3,0.4-4.1,0.6-7.9c0-0.7,0.1-1.4,0.1-2
			c0.1-3,0.2-5.4,0.2-5.4C136.9,87.6,132,87.5,130,86.2z"/>
		<path class="st7" d="M135.2,89.7c-0.9,0.1-0.7,1.7,0.4,1.5C136.5,91,136,89.6,135.2,89.7z"/>
		<path class="st1" d="M163.7,118.3c0,0-3.4,13.4-7.6,12.6c-5.6-0.6-8-5.5-9.7-8.3c-3.3-5.6-3.7-10.9-6.4-16.8
			c-0.8-1.7-1.5-1.9-3.9-3.2c-2-1.1-5-3.4-5.3-4.3c-0.2-0.7-1.2-4.4-1.5-4.9c-0.8-1.2-1.2-3.1-0.2-2.4c3.3,2.2,11.2,5,11.2,3.2
			l0.1-2.7c0.3-1,0.9-1.6,1.6-1.5c0,0,0.7,7.3,2.6,11.3c1.1,2.2,5.3,10.4,7.8,14.6c1,1.8,1.8,3.1,1.8,3.1L163.7,118.3z"/>
		<path class="st2" d="M157.4,123c-0.1,0-0.2,0-0.2-0.1c-0.4-0.8-1-1.6-1.6-2.2c0,0,0-0.1-0.1-0.1c-0.3-0.4-0.6-0.7-0.5-1
			c0-0.1,0.1-0.2,0.2-0.2c0.2-0.1,0.3,0,0.7,0.3c0,0,0.1,0,0.1,0c0.1,0.1,0.3,0.1,0.4,0.2c0.2,0.1,0.5,0.1,0.7,0.3
			c0.1,0.1,0.1,0.2,0.1,0.3c-0.1,0.1-0.2,0.1-0.3,0.1c-0.2-0.1-0.3-0.2-0.6-0.2c-0.1,0-0.3-0.1-0.4-0.2c0,0,0.1,0.1,0.1,0.2
			c0,0,0.1,0.1,0.1,0.1c0.5,0.6,1.2,1.5,1.6,2.3c0.1,0.1,0,0.3-0.1,0.3C157.5,123,157.4,123,157.4,123z"/>
		<path class="st2" d="M133.5,95.3c0,0-0.1,0-0.1,0c-0.3-0.2-0.7-0.3-1-0.5c-1.1-0.5-2.2-1-3.1-1.8c-0.1-0.1-0.1-0.2,0-0.3
			c0.1-0.1,0.2-0.1,0.3,0c0.9,0.8,2,1.3,3,1.8c0.3,0.2,0.7,0.3,1,0.5c0.1,0.1,0.2,0.2,0.1,0.3C133.7,95.3,133.6,95.3,133.5,95.3z"/>
		<path class="st2" d="M133.4,97.3c0,0-0.1,0-0.1,0c-0.5-0.4-1.2-0.7-1.8-1c-0.3-0.1-0.6-0.3-0.8-0.4l0,0c-0.1,0-0.1,0-0.2-0.1l0,0
			c-0.1-0.1-0.2-0.2-0.1-0.4c0.1-0.2,0.3-0.1,0.4,0l0.1,0.1c0.2,0.1,0.5,0.3,0.8,0.4c0.6,0.3,1.3,0.7,1.9,1.1
			c0.1,0.1,0.1,0.2,0.1,0.3C133.6,97.3,133.5,97.3,133.4,97.3z"/>
		<path class="st2" d="M133.8,99.2C133.8,99.2,133.8,99.2,133.8,99.2c-1-0.4-1.9-0.9-2.9-1.5c-0.1-0.1-0.1-0.2-0.1-0.3
			c0.1-0.1,0.2-0.1,0.3-0.1c1,0.6,1.9,1.1,2.8,1.4c0.1,0,0.2,0.2,0.1,0.3C134,99.1,133.9,99.2,133.8,99.2z"/>
		<path class="st2" d="M135.1,100.1c-0.1,0-0.2-0.1-0.2-0.2c0-0.2,0-0.5,0.1-0.7c0.1-0.4,0.1-0.8,0-1.1c0-0.2-0.1-0.3-0.3-0.5
			c-0.2-0.3-0.4-0.7-0.3-1.1c0.1-0.9,0.1-1,0.4-1.4l0-0.1c0.1-0.1,0.2-0.1,0.3-0.1c0.1,0.1,0.1,0.2,0.1,0.3l0,0.1
			c-0.2,0.4-0.2,0.4-0.3,1.2c0,0.3,0.1,0.5,0.3,0.8c0.1,0.2,0.2,0.4,0.3,0.7c0.1,0.4,0,0.8,0,1.3c0,0.2-0.1,0.5-0.1,0.7
			C135.3,100,135.2,100.1,135.1,100.1z"/>
		<path class="st7" d="M131.3,87.4c-0.5-0.1-0.4,0.4-0.1,0.5C131.5,88.1,131.7,87.5,131.3,87.4z"/>
		<path class="st8" d="M132.6,57.3c-3-0.3-4.1,0.4-4,1.3c0.1,1.6-0.9,0.8-0.4,3.7c0.2,1.1-0.1,3.2-0.1,3.2c-1.1-3-2.1-4.5-3.2-6.9
			C123.7,56.3,132.8,57.4,132.6,57.3z"/>
		<path class="st9" d="M144,65.3c1.1-3,1-2.4,2.1-4.8s-0.2-9.7-0.3-11.7c-0.1-2-8.8-6.9-14.4-4.7c-4.9,1.9-7.3,5.8-9.5,5.7
			c0.3,0.9,1.5,1.5,2.6,0.8c-0.7,1.1-3,1.7-4.2,0.7c0,0,1.1,10.6,10.2,7.8c3.7-1.2,6.7-3.5,10.9-3.7c-1.4,0.3-2,1.7-1.8,1.6
			c3-0.3,4.1,0.4,4,1.3c-0.1,1.6,0.9,0.8,0.4,3.7C143.6,63.2,144,65.3,144,65.3z"/>
		<path class="st8" d="M144,65.3c1.1-3,1-2.4,2.1-4.8s-0.2-9.7-0.3-11.7c0.9,4.7-3.1,6.1-4.6,6.6c-1.4,0.3-2,1.7-1.8,1.6
			c3-0.3,4.1,0.4,4,1.3c-0.1,1.6,0.9,0.8,0.4,3.7C143.6,63.2,144,65.3,144,65.3z"/>
		<path class="st8" d="M129.7,57.2c-0.8,0-1.6-0.1-2.4-0.4c-1.6-0.6-3-1.6-3.9-3.1c-0.1-0.1-0.1-0.2,0-0.3c0.1-0.1,0.1-0.1,0.2-0.1
			c1.8,0.1,3.2,0,4.4-0.5c1.4-0.6,2.4-1.6,2.9-2.8c-0.8,0-1.7,0-2.5-0.1c-0.1,0-0.2,0-0.2-0.1c0-0.1-0.1-0.2,0-0.2
			c0.5-1.5,1.8-2.7,3.5-3.3c1.4-0.5,3-0.6,4.6-0.6c0,0,0,0,0,0c0.8,0,2.8,0.4,4.7,1.1c1.6,0.7,3.5,1.8,3.7,3.6
			c0,0.1-0.1,0.3-0.2,0.3c-0.1,0-0.3-0.1-0.3-0.2c-0.3-2.8-6-4.3-7.9-4.3c-1.6,0-3.1,0-4.4,0.5c-1.4,0.5-2.5,1.5-3,2.6
			c0.8,0,1.6,0,2.5,0c0.1,0,0.2,0,0.2,0.1c0,0.1,0.1,0.1,0,0.2c-0.5,1.5-1.7,2.8-3.3,3.5c-1.2,0.5-2.5,0.7-4.1,0.6
			c1.8,2.4,5.2,3.4,7.9,2.4c0.9-0.3,1.7-0.9,2.4-1.4c0.3-0.2,0.7-0.4,1-0.6c0.9-0.6,2.4-1.3,3.9-1.2c0.1,0,0.2,0.1,0.2,0.3
			c0,0.1-0.1,0.2-0.3,0.2c-1.4-0.1-2.7,0.6-3.6,1.1c-0.3,0.2-0.7,0.4-1,0.6c-0.8,0.5-1.6,1.1-2.5,1.4
			C131.4,57,130.6,57.2,129.7,57.2z"/>
	</g>
	<g>
		<g>
			<path class="st6" d="M210.7,118.8c-3,0-5.5-0.5-7.6-1.5c-5.3-2.5-8.2-7.9-11-13.7c-0.2,0-0.5,0.1-0.8,0.1c-1.4,0.3-4,0.8-6.6,0.4
				c-3.3-0.5-5.6-2.2-7-5.1c-0.1-0.1,0-0.3,0.1-0.4c0.1-0.1,0.3-0.1,0.4,0c0.6,0.5,1.8,0.8,3.4,0.8c2.5-0.1,5.3-1,5.9-1.6
				c1.6-1.8,2.3-4.1,2.6-5.8l0.3,0.1l-0.3-0.1c0.1-0.7,0.2-1.4,0.2-2c0.2-1.9,0.3-3.8,2-5.4c2.1-2.1,4.7-3.3,7.9-3.6
				c2.9-0.3,6.2,0.1,9.6,0.5c3.5,0.4,7.4,0.9,11.6,0.7c2.1-0.1,5,0.2,7.3,2c1.6,1.3,2.5,3.3,3.1,5.1c1.3,3.5,2.3,7.1,3,10.8
				c0.5,2.8,0.9,6.1-0.4,8.9c-1.5,3.2-4.9,5-7.3,6.1c-4.4,2-9.1,3.2-14,3.6C212.3,118.8,211.5,118.8,210.7,118.8z M192.1,103
				c0.2,0,0.3,0.1,0.4,0.2c2.8,5.8,5.7,11.2,10.8,13.6c2.6,1.2,5.7,1.6,9.7,1.3c4.8-0.4,9.4-1.5,13.8-3.5c3.7-1.7,5.9-3.5,7-5.8
				c1.2-2.6,0.9-5.8,0.4-8.5c-0.7-3.6-1.7-7.2-3-10.7c-0.6-1.7-1.4-3.6-3-4.8c-2.1-1.7-4.9-1.9-6.9-1.9c-4.2,0.2-8.2-0.3-11.6-0.7
				c-7-0.8-12.5-1.5-17,3c-1.5,1.5-1.7,3.2-1.8,5.1c-0.1,0.7-0.1,1.4-0.3,2.1l0,0c-0.3,1.7-1.1,4.2-2.8,6.1
				c-0.8,0.9-3.7,1.7-6.3,1.8c-0.9,0-2,0-2.8-0.3c3.2,5.3,9.8,4,12.4,3.5C191.6,103.1,191.9,103,192.1,103z"/>
		</g>
	</g>
	<g>
		<g>
			<path class="st6" d="M112,53.1C112,53.1,111.9,53.1,112,53.1c-0.2,0-0.5-0.1-0.7-0.1c-1.4-0.1-3.3-0.3-4.7-3.2
				c-1.4-3-8.6-3.7-15.6-4.4c-4.8-0.5-9.7-0.9-12.9-2.2c-4.4-1.8-6.1-5.1-6.8-7.6c-1.1-4-0.2-8.8,2.3-11.9c4.1-5.2,12.9-4.4,17.6-4
				c0.8,0.1,1.5,0.1,2,0.1c5.9,0.2,12,0.7,15.7,4.9c2.7,3.1,3.9,7.8,3.2,12.7c-0.4,2.7-0.9,3.8-1.5,4.9c-0.4,0.9-0.9,1.9-1.3,3.8
				c-0.3,1.4-0.2,4.6,2.7,6.5c0.1,0.1,0.2,0.2,0.1,0.3C112.2,53,112.1,53.1,112,53.1z M85.8,19.9c-4.3,0-9.1,0.7-11.8,4.1
				c-2.3,3-3.2,7.6-2.2,11.4c0.6,2.4,2.3,5.6,6.5,7.2c3.1,1.2,8,1.7,12.7,2.2c7.5,0.7,14.5,1.4,16,4.7c1.1,2.5,2.7,2.8,3.9,2.9
				c-2.4-2.1-2.5-5.1-2.2-6.5l0,0c0.4-2,0.9-3,1.3-3.9c0.5-1.1,1-2.1,1.4-4.8c0.7-4.7-0.4-9.3-3-12.2c-3.6-4-9.5-4.5-15.3-4.7
				c-0.5,0-1.2-0.1-2.1-0.1C89.7,20.1,87.8,19.9,85.8,19.9z M109.1,46L109.1,46L109.1,46z"/>
		</g>
	</g>
	<g>
		<g>
			<path class="st6" d="M87.8,97.4C87.8,97.4,87.8,97.4,87.8,97.4c-2.7-0.2-5.1-2.4-6.3-4.6c-0.1-0.2-0.2-0.3-0.3-0.5
				c-0.3-0.5-0.6-1-0.9-1.4c-0.4-0.4-1-0.7-1.6-0.8c-5.4-1.7-11-0.3-16.4,1c-1.1,0.3-2.2,0.5-3.3,0.8c-8.8,2-15.3,0.7-19.5-3.8
				c-2.5-2.7-4.2-6.7-4.6-11.1c-0.2-2-0.1-3.6,0.3-5c0.9-3.4,3.4-6.2,7.8-8.5c10.8-5.7,23.6-6.3,35.1-1.6c4.9,2,8,4.7,9.4,8.2
				c1.7,4.2,0.9,8.8,0.2,13.3l-0.1,0.4l-0.3,0l0.3,0c-0.1,0.4-0.2,0.9-0.3,1.4c-0.7,3.2-2,9.1,0.8,11.7c0.1,0.1,0.1,0.2,0.1,0.3
				C88.1,97.3,88,97.4,87.8,97.4z M73.3,88.6c1.9,0,3.8,0.2,5.6,0.8c0.6,0.2,1.3,0.5,1.8,1c0.5,0.4,0.8,1,1.1,1.6
				c0.1,0.2,0.2,0.3,0.2,0.5c1,1.8,2.9,3.7,5,4.2c-2.3-3.1-1.1-8.6-0.4-11.6c0.1-0.6,0.2-1,0.3-1.4l0,0l0.1-0.4
				c0.7-4.4,1.5-9-0.1-13c-1.4-3.4-4.3-5.9-9.1-7.9c-11.3-4.6-23.9-4-34.5,1.6c-4.2,2.2-6.7,4.9-7.5,8.1c-0.4,1.4-0.4,3-0.3,4.8
				c0.4,4.2,2,8.1,4.4,10.7c4,4.3,10.4,5.6,18.9,3.7c1.1-0.2,2.2-0.5,3.3-0.8C65.8,89.5,69.5,88.6,73.3,88.6z"/>
		</g>
	</g>
	<g>
		<g>
			<path class="st6" d="M174.7,65.8c-0.1,0-0.1,0-0.2-0.1c-0.1-0.1-0.1-0.2,0-0.2c0.7-1.6-0.9-5.2-2.9-9.4
				c-3.4-7.3-7.6-16.3-1.3-20.3c3.2-2.1,9.6-4.3,16.2-5.6c7.4-1.5,13.7-1.7,17.4-0.6c1.9,0.6,3.1,1.5,3.6,2.8
				c1,2.4,2.8,14.7-1.9,21.3c-2,2.9-4.9,4.3-8.7,4.3c-0.2,0-0.4,0-0.7,0c-4-0.2-8.5,0-11.8,0.5c-4.1,0.6-6.5,1.7-6.9,3
				C176.5,65.4,174.8,65.8,174.7,65.8C174.7,65.8,174.7,65.8,174.7,65.8z M197.9,29.4c-9.1,0-22.2,3.6-27.3,6.9
				c-6,3.8-1.9,12.7,1.4,19.7c1.8,3.9,3.4,7.2,3,9.2c0.5-0.4,1.4-1.3,2-3.7c0.4-1.6,2.9-2.7,7.3-3.4c3.4-0.5,7.8-0.7,11.9-0.6
				c3.9,0.2,6.9-1.2,9-4.1c2.4-3.5,3-8.5,3-12c0-4.1-0.7-7.7-1.1-8.8c-0.5-1.1-1.6-2-3.3-2.5C202.2,29.6,200.2,29.4,197.9,29.4z"/>
		</g>
	</g>
	<g>
		<path class="st10" d="M92.5,77.9c-0.2,0-0.3-0.1-0.3-0.3c0-1.5,0.2-3,0.5-4.5c0.1-0.6,0.2-1.2,0.3-1.8c0.4-2.5,0.2-4.5-0.7-5.9
			c-0.1-0.1,0-0.3,0.1-0.4c0.1-0.1,0.3,0,0.4,0.1c1,1.6,1.2,3.6,0.8,6.3c-0.1,0.6-0.2,1.2-0.3,1.8c-0.3,1.4-0.6,2.9-0.5,4.3
			C92.8,77.7,92.7,77.9,92.5,77.9C92.5,77.9,92.5,77.9,92.5,77.9z"/>
		<path class="st10" d="M95.2,72.2C95.1,72.2,95.1,72.2,95.2,72.2c-0.3-0.1-0.3-0.2-0.3-0.4c0.7-2,1.6-4,2.6-5.9
			c0.1-0.1,0.3-0.2,0.4-0.1c0.1,0.1,0.2,0.3,0.1,0.4C97,68,96.2,70,95.5,72C95.4,72.1,95.3,72.2,95.2,72.2z"/>
	</g>
	<g>
		<path class="st6" d="M66.5,25.8c-0.1,0-0.3-0.1-0.3-0.3c-0.1-1.5,0.9-2.9,1.7-3.8c1.4-1.6,2.7-2.6,4.2-3c0.1,0,0.3,0,0.3,0.2
			c0,0.1,0,0.3-0.2,0.3c-1.3,0.4-2.6,1.3-3.9,2.8c-0.7,0.8-1.6,2.1-1.6,3.4C66.8,25.6,66.6,25.8,66.5,25.8
			C66.5,25.8,66.5,25.8,66.5,25.8z"/>
		<path class="st6" d="M69.3,24.2C69.3,24.2,69.2,24.2,69.3,24.2C69.1,24.1,69,24,69,23.8c0.3-0.9,0.8-1.7,1.5-2.4
			c0.1-0.1,0.3-0.1,0.4,0c0.1,0.1,0.1,0.3,0,0.4c-0.6,0.6-1.1,1.4-1.4,2.2C69.5,24.1,69.4,24.2,69.3,24.2z"/>
	</g>
	<g>
		<path class="st6" d="M170.4,66.2c-0.1,0-0.2-0.1-0.2-0.2v0c0-0.8-0.1-1.6-0.1-2.4c0-0.4-0.1-0.9-0.2-1.4c-1.3-0.8-2.5-1.7-3.6-2.6
			c-0.6-0.5-1.2-1.1-1.1-1.9c0-0.1,0-0.1,0.1-0.2c0.1,0,0.1-0.1,0.2,0c1.4,0.3,3.2,1,4.2,2.6c0.4,0.6,0.6,1.2,0.7,1.8
			c0.3,0.2,0.6,0.4,1,0.6c0.1,0.1,0.1,0.2,0.1,0.3c-0.1,0.1-0.2,0.1-0.3,0.1c-0.2-0.1-0.4-0.2-0.6-0.4c0,0.3,0.1,0.7,0.1,1
			c0.1,0.8,0.1,1.6,0.1,2.4C170.6,66.1,170.5,66.2,170.4,66.2C170.4,66.2,170.4,66.2,170.4,66.2z M165.6,58c0.1,0.4,0.5,0.8,0.9,1.2
			c1,0.8,2.1,1.6,3.2,2.3c-0.1-0.4-0.3-0.8-0.5-1.2C168.3,59,166.8,58.3,165.6,58z"/>
		<path class="st6" d="M211.3,33.6c-0.1,0-0.2-0.1-0.2-0.2c-0.4-1.8-1.4-3.5-2.9-4.7c-0.1-0.1-0.1-0.2,0-0.3c0.1-0.1,0.2-0.1,0.3,0
			c1.6,1.2,2.7,3,3.1,4.9C211.6,33.4,211.5,33.5,211.3,33.6C211.3,33.6,211.3,33.6,211.3,33.6z"/>
		<path class="st6" d="M212,29.2c-0.1,0-0.2,0-0.2-0.1c-0.6-1.2-1.4-2.4-2.4-3.4c-0.1-0.1-0.1-0.2,0-0.3c0.1-0.1,0.2-0.1,0.3,0
			c1,1,1.8,2.2,2.5,3.5c0.1,0.1,0,0.3-0.1,0.3C212,29.2,212,29.2,212,29.2z"/>
	</g>
	<g>
		<path class="st6" d="M196.3,118.3c-0.1,0-0.2,0-0.2-0.1c-1.9-1.9-3.5-4.1-4.8-6.5c-0.1-0.1,0-0.3,0.1-0.4c0.1-0.1,0.3,0,0.4,0.1
			c1.2,2.3,2.8,4.5,4.7,6.3c0.1,0.1,0.1,0.3,0,0.4C196.4,118.3,196.4,118.3,196.3,118.3z"/>
		<path class="st6" d="M199.4,120.4c-0.4,0-0.9,0-1.3-0.1c-0.8,0-1.7-0.1-2.6-0.5c-0.7-0.3-1.3-0.9-1.8-1.4
			c-0.8-0.9-1.7-1.8-2.4-2.8c-0.1-0.1-0.1-0.3,0.1-0.4c0.1-0.1,0.3-0.1,0.4,0.1c0.7,0.9,1.5,1.9,2.3,2.7c0.5,0.5,1,1,1.7,1.3
			c0.7,0.3,1.5,0.4,2.3,0.4c1,0.1,2.2,0.1,3.2-0.2c0.2-0.1,0.3,0,0.4,0.2c0.1,0.2,0,0.3-0.2,0.4
			C200.9,120.3,200.1,120.4,199.4,120.4z"/>
	</g>
	<g>
		<path class="st3" d="M270.4,63.1h-2.5v5.6h-3.2V53.3h5.7c1.8,0,3.2,0.4,4.2,1.2c1,0.8,1.5,2,1.5,3.4c0,1.1-0.2,1.9-0.7,2.6
			c-0.5,0.7-1.1,1.3-2.1,1.7l3.3,6.3v0.1h-3.4L270.4,63.1z M267.9,60.5h2.6c0.8,0,1.4-0.2,1.9-0.6c0.4-0.4,0.7-1,0.7-1.7
			c0-0.7-0.2-1.3-0.6-1.7c-0.4-0.4-1-0.6-1.9-0.6h-2.5V60.5z"/>
		<path class="st3" d="M289.1,62H283v4.1h7.1v2.5h-10.3V53.3h10.3v2.6H283v3.7h6.1V62z"/>
		<path class="st3" d="M302.6,62.4h-6.1v6.3h-3.2V53.3h10v2.6h-6.9v4h6.1V62.4z"/>
		<path class="st3" d="M314.8,62h-6.1v4.1h7.1v2.5h-10.3V53.3h10.3v2.6h-7.1v3.7h6.1V62z"/>
		<path class="st3" d="M324.7,63.1h-2.5v5.6H319V53.3h5.7c1.8,0,3.2,0.4,4.2,1.2c1,0.8,1.5,2,1.5,3.4c0,1.1-0.2,1.9-0.7,2.6
			c-0.5,0.7-1.1,1.3-2.1,1.7l3.3,6.3v0.1h-3.4L324.7,63.1z M322.1,60.5h2.6c0.8,0,1.4-0.2,1.9-0.6c0.4-0.4,0.7-1,0.7-1.7
			c0-0.7-0.2-1.3-0.6-1.7c-0.4-0.4-1-0.6-1.9-0.6h-2.5V60.5z"/>
	</g>
	<g>
		<g>
			<path class="st11" d="M31.5,46.7c-0.2,0-0.3-0.1-0.3-0.3v-4.1c0-0.2,0.1-0.3,0.3-0.3s0.3,0.1,0.3,0.3v4.1
				C31.8,46.5,31.7,46.7,31.5,46.7z"/>
			<path class="st11" d="M33.6,44.6h-4.1c-0.2,0-0.3-0.1-0.3-0.3s0.1-0.3,0.3-0.3h4.1c0.2,0,0.3,0.1,0.3,0.3S33.8,44.6,33.6,44.6z"
				/>
		</g>
		<g>
			<g>
				<line class="st0" x1="177" y1="86.7" x2="177" y2="90.8"/>
				<path class="st10" d="M177,91.1c-0.2,0-0.3-0.1-0.3-0.3v-4.1c0-0.2,0.1-0.3,0.3-0.3c0.2,0,0.3,0.1,0.3,0.3v4.1
					C177.3,91,177.1,91.1,177,91.1z"/>
			</g>
			<g>
				<line class="st0" x1="174.9" y1="88.7" x2="179" y2="88.7"/>
				<path class="st10" d="M179,89h-4.1c-0.2,0-0.3-0.1-0.3-0.3c0-0.2,0.1-0.3,0.3-0.3h4.1c0.2,0,0.3,0.1,0.3,0.3
					C179.3,88.9,179.2,89,179,89z"/>
			</g>
		</g>
		<g>
			<g>
				<g>
					<g>
						<path class="st10" d="M49.6,24.6c-0.3,0-0.5-0.2-0.5-0.5v-0.3c0-0.3,0.2-0.5,0.5-0.5c0.3,0,0.5,0.2,0.5,0.5v0.3
							C50.1,24.4,49.9,24.6,49.6,24.6z"/>
						<path class="st10" d="M49.6,30.3c-0.3,0-0.5-0.2-0.5-0.5v-0.6c0-0.3,0.2-0.5,0.5-0.5c0.3,0,0.5,0.2,0.5,0.5v0.6
							C50.1,30,49.9,30.3,49.6,30.3z M49.6,27.4c-0.3,0-0.5-0.2-0.5-0.5v-0.6c0-0.3,0.2-0.5,0.5-0.5c0.3,0,0.5,0.2,0.5,0.5v0.6
							C50.1,27.2,49.9,27.4,49.6,27.4z"/>
						<path class="st10" d="M49.6,32.7c-0.3,0-0.5-0.2-0.5-0.5v-0.3c0-0.3,0.2-0.5,0.5-0.5c0.3,0,0.5,0.2,0.5,0.5v0.3
							C50.1,32.5,49.9,32.7,49.6,32.7z"/>
					</g>
				</g>
			</g>
			<g>
				<g>
					<g>
						<path class="st10" d="M45.7,28.5h-0.3c-0.3,0-0.5-0.2-0.5-0.5c0-0.3,0.2-0.5,0.5-0.5h0.3c0.3,0,0.5,0.2,0.5,0.5
							C46.2,28.3,46,28.5,45.7,28.5z"/>
						<path class="st10" d="M51.3,28.5h-0.6c-0.3,0-0.5-0.2-0.5-0.5c0-0.3,0.2-0.5,0.5-0.5h0.6c0.3,0,0.5,0.2,0.5,0.5
							C51.8,28.3,51.6,28.5,51.3,28.5z M48.5,28.5h-0.6c-0.3,0-0.5-0.2-0.5-0.5c0-0.3,0.2-0.5,0.5-0.5h0.6c0.3,0,0.5,0.2,0.5,0.5
							C49,28.3,48.8,28.5,48.5,28.5z"/>
						<path class="st10" d="M53.8,28.5h-0.3c-0.3,0-0.5-0.2-0.5-0.5c0-0.3,0.2-0.5,0.5-0.5h0.3c0.3,0,0.5,0.2,0.5,0.5
							C54.3,28.3,54.1,28.5,53.8,28.5z"/>
					</g>
				</g>
			</g>
		</g>
		<g>
			<g>
				<g>
					<g>
						<path class="st11" d="M157.4,26.6c-0.3,0-0.5-0.2-0.5-0.5v-0.3c0-0.3,0.2-0.5,0.5-0.5c0.3,0,0.5,0.2,0.5,0.5v0.3
							C157.9,26.4,157.7,26.6,157.4,26.6z"/>
						<path class="st11" d="M157.4,32.2c-0.3,0-0.5-0.2-0.5-0.5v-0.6c0-0.3,0.2-0.5,0.5-0.5c0.3,0,0.5,0.2,0.5,0.5v0.6
							C157.9,32,157.7,32.2,157.4,32.2z M157.4,29.4c-0.3,0-0.5-0.2-0.5-0.5v-0.6c0-0.3,0.2-0.5,0.5-0.5c0.3,0,0.5,0.2,0.5,0.5v0.6
							C157.9,29.2,157.7,29.4,157.4,29.4z"/>
						<path class="st11" d="M157.4,34.7c-0.3,0-0.5-0.2-0.5-0.5v-0.3c0-0.3,0.2-0.5,0.5-0.5c0.3,0,0.5,0.2,0.5,0.5v0.3
							C157.9,34.5,157.7,34.7,157.4,34.7z"/>
					</g>
				</g>
			</g>
			<g>
				<g>
					<g>
						<path class="st11" d="M153.5,30.5h-0.3c-0.3,0-0.5-0.2-0.5-0.5c0-0.3,0.2-0.5,0.5-0.5h0.3c0.3,0,0.5,0.2,0.5,0.5
							C154,30.3,153.8,30.5,153.5,30.5z"/>
						<path class="st11" d="M159.1,30.5h-0.6c-0.3,0-0.5-0.2-0.5-0.5c0-0.3,0.2-0.5,0.5-0.5h0.6c0.3,0,0.5,0.2,0.5,0.5
							C159.6,30.3,159.4,30.5,159.1,30.5z M156.3,30.5h-0.6c-0.3,0-0.5-0.2-0.5-0.5c0-0.3,0.2-0.5,0.5-0.5h0.6
							c0.3,0,0.5,0.2,0.5,0.5C156.8,30.3,156.6,30.5,156.3,30.5z"/>
						<path class="st11" d="M161.6,30.5h-0.3c-0.3,0-0.5-0.2-0.5-0.5c0-0.3,0.2-0.5,0.5-0.5h0.3c0.3,0,0.5,0.2,0.5,0.5
							C162.1,30.3,161.9,30.5,161.6,30.5z"/>
					</g>
				</g>
			</g>
		</g>
		<g>
			<path class="st11" d="M225.9,61.5c-0.2,0-0.3-0.1-0.3-0.3v-2.3c0-0.2,0.1-0.3,0.3-0.3c0.2,0,0.3,0.1,0.3,0.3v2.3
				C226.2,61.3,226.1,61.5,225.9,61.5z"/>
			<path class="st11" d="M227.1,60.3h-2.3c-0.2,0-0.3-0.1-0.3-0.3c0-0.2,0.1-0.3,0.3-0.3h2.3c0.2,0,0.3,0.1,0.3,0.3
				C227.4,60.1,227.3,60.3,227.1,60.3z"/>
		</g>
		<g>
			<g>
				<line class="st0" x1="77.3" y1="110.9" x2="77.3" y2="113.3"/>
				<path class="st10" d="M77.3,113.6c-0.2,0-0.3-0.1-0.3-0.3v-2.3c0-0.2,0.1-0.3,0.3-0.3c0.2,0,0.3,0.1,0.3,0.3v2.3
					C77.6,113.5,77.4,113.6,77.3,113.6z"/>
			</g>
			<g>
				<line class="st0" x1="76.1" y1="112.1" x2="78.4" y2="112.1"/>
				<path class="st10" d="M78.4,112.4h-2.3c-0.2,0-0.3-0.1-0.3-0.3s0.1-0.3,0.3-0.3h2.3c0.2,0,0.3,0.1,0.3,0.3
					S78.6,112.4,78.4,112.4z"/>
			</g>
		</g>
	</g>
	<g>
		<path class="st6" d="M281.7,88.3l-0.4-1.3h-0.1c-0.4,0.6-0.9,0.9-1.3,1.1s-1,0.3-1.7,0.3c-0.9,0-1.6-0.2-2.1-0.7s-0.8-1.2-0.8-2
			c0-0.9,0.3-1.6,1-2.1c0.7-0.5,1.8-0.7,3.2-0.8l1.6,0v-0.5c0-0.6-0.1-1-0.4-1.3s-0.7-0.4-1.3-0.4c-0.5,0-0.9,0.1-1.3,0.2
			s-0.8,0.3-1.2,0.5l-0.6-1.4c0.5-0.3,1-0.5,1.6-0.6c0.6-0.1,1.1-0.2,1.7-0.2c1.2,0,2,0.3,2.6,0.8s0.9,1.3,0.9,2.4v6.1H281.7z
			 M278.9,87c0.7,0,1.3-0.2,1.7-0.6c0.4-0.4,0.6-0.9,0.6-1.7v-0.8l-1.2,0c-0.9,0-1.6,0.2-2,0.5c-0.4,0.3-0.6,0.7-0.6,1.2
			c0,0.4,0.1,0.7,0.4,0.9S278.4,87,278.9,87z"/>
		<path class="st6" d="M296.3,85.7c0,0.9-0.3,1.6-1,2s-1.6,0.7-2.8,0.7c-1.2,0-2.2-0.2-2.9-0.6v-1.7c1.1,0.5,2.1,0.7,3,0.7
			c1.2,0,1.8-0.4,1.8-1.1c0-0.2-0.1-0.4-0.2-0.6c-0.1-0.2-0.3-0.3-0.6-0.5c-0.3-0.2-0.7-0.4-1.3-0.6c-1-0.4-1.8-0.8-2.1-1.2
			c-0.4-0.4-0.6-0.9-0.6-1.6c0-0.8,0.3-1.4,0.9-1.8c0.6-0.4,1.5-0.6,2.6-0.6c1.1,0,2.1,0.2,3,0.7l-0.6,1.5c-1-0.4-1.8-0.6-2.5-0.6
			c-1,0-1.5,0.3-1.5,0.9c0,0.3,0.1,0.5,0.4,0.7c0.3,0.2,0.8,0.5,1.7,0.8c0.8,0.3,1.3,0.6,1.6,0.8c0.3,0.2,0.6,0.5,0.8,0.8
			S296.3,85.2,296.3,85.7z"/>
		<path class="st6" d="M301.8,86.9c0.5,0,0.9-0.1,1.4-0.2v1.5c-0.2,0.1-0.5,0.2-0.8,0.2c-0.3,0.1-0.7,0.1-1,0.1
			c-1.8,0-2.7-1-2.7-2.9v-4.9h-1.2v-0.9l1.3-0.7l0.7-1.9h1.2v2h2.6v1.5h-2.6v4.9c0,0.5,0.1,0.8,0.3,1
			C301.1,86.8,301.4,86.9,301.8,86.9z"/>
		<path class="st6" d="M313.1,83.7c0,1.5-0.4,2.6-1.1,3.5s-1.8,1.3-3.2,1.3c-0.9,0-1.6-0.2-2.3-0.6c-0.7-0.4-1.2-0.9-1.5-1.7
			c-0.4-0.7-0.5-1.6-0.5-2.5c0-1.5,0.4-2.6,1.1-3.5c0.8-0.8,1.8-1.2,3.2-1.2c1.3,0,2.4,0.4,3.1,1.3
			C312.7,81.1,313.1,82.3,313.1,83.7z M306.5,83.7c0,2.1,0.8,3.2,2.3,3.2c1.5,0,2.3-1.1,2.3-3.2c0-2.1-0.8-3.1-2.3-3.1
			c-0.8,0-1.4,0.3-1.8,0.8C306.7,81.9,306.5,82.7,306.5,83.7z"/>
		<path class="st6" d="M319.9,79c0.4,0,0.7,0,1,0.1l-0.2,1.8c-0.3-0.1-0.6-0.1-0.9-0.1c-0.8,0-1.4,0.3-1.9,0.8
			c-0.5,0.5-0.7,1.2-0.7,2v4.8h-1.9v-9.1h1.5l0.3,1.6h0.1c0.3-0.5,0.7-1,1.2-1.3S319.4,79,319.9,79z"/>
		<path class="st6" d="M326.6,88.4c-1.4,0-2.5-0.4-3.3-1.2c-0.8-0.8-1.2-2-1.2-3.4c0-1.5,0.4-2.7,1.1-3.5c0.7-0.9,1.8-1.3,3.1-1.3
			c1.2,0,2.2,0.4,2.8,1.1c0.7,0.7,1,1.7,1,3v1H324c0,0.9,0.3,1.6,0.7,2c0.5,0.5,1.1,0.7,1.9,0.7c0.5,0,1-0.1,1.5-0.2s1-0.3,1.5-0.5
			v1.6c-0.5,0.2-0.9,0.4-1.4,0.5C327.7,88.4,327.2,88.4,326.6,88.4z M326.2,80.5c-0.6,0-1.1,0.2-1.5,0.6s-0.6,1-0.7,1.7h4.1
			c0-0.8-0.2-1.3-0.5-1.7C327.3,80.7,326.8,80.5,326.2,80.5z"/>
	</g>
</g>
<g>
	<path class="st3" d="M110,42.3h-2.3V23.6c0.5-0.1,0.9-0.3,1.3-0.6c0.9-0.7,1.3-1.9,0.9-3.1l-2.2-7.8c-0.1-0.2-0.3-0.4-0.5-0.4h-4.1
		c0,0,0,0,0,0H99h-4.1h-4.1h-4.1h-4.1h-4.1c-0.2,0-0.4,0.2-0.5,0.4L75.6,20c-0.3,1.2,0,2.4,0.9,3.1c0.4,0.3,0.8,0.5,1.3,0.6v18.7
		h-1.3l3.4,1h9.9h19.6V45H91l8.5,1h9.5 M89.4,42.3h-7.2V28.1h7.2V42.3z M106.7,42.3H90.5V27.6c0-0.3-0.2-0.5-0.5-0.5h-8.3
		c-0.3,0-0.5,0.2-0.5,0.5v14.7h-2.3V23.6c0.8-0.1,1.5-0.6,1.9-1.2c0.5,0.8,1.4,1.3,2.4,1.3c1,0,1.9-0.5,2.4-1.3
		c0.5,0.8,1.4,1.3,2.4,1.3c1,0,1.9-0.5,2.4-1.3c0.5,0.8,1.4,1.3,2.4,1.3c1,0,1.9-0.5,2.4-1.3c0.5,0.8,1.4,1.3,2.4,1.3
		c1,0,1.9-0.5,2.4-1.3c0.5,0.8,1.4,1.3,2.4,1.3c1,0,1.9-0.5,2.4-1.3c0.4,0.6,1.1,1.1,1.9,1.2V42.3z"/>
	<path class="st3" d="M84,34h3.6c0.3,0,0.5-0.2,0.5-0.5v-3.6c0-0.3-0.2-0.5-0.5-0.5H84c-0.3,0-0.5,0.2-0.5,0.5v3.6
		C83.5,33.8,83.7,34,84,34z M84.5,30.4h2.6V33h-2.6V30.4z"/>
	<path class="st3" d="M92.8,36.6h12c0.3,0,0.5-0.2,0.5-0.5v-8.5c0-0.3-0.2-0.5-0.5-0.5h-12c-0.3,0-0.5,0.2-0.5,0.5v8.5
		C92.3,36.4,92.5,36.6,92.8,36.6z M93.3,32.3h5v3.2h-5V32.3z M99.3,35.6v-3.2h5v3.2H99.3z M104.3,28.1v3.2h-11v-3.2H104.3z"/>
	<path class="st12" d="M108.9,20.3c0.2,0.8,0,1.6-0.6,2c-0.3,0.3-0.7,0.4-1.2,0.4c-1,0-1.9-0.8-1.9-1.9c0,0,0,0,0,0c0,0,0-0.1,0-0.1
		l0,0c0,0,0,0,0,0l-0.1-0.6l-1.5-7.2h3.1L108.9,20.3z"/>
	<path class="st12" d="M102.7,12.9l1.5,7.2l0.2,0.8c0,1-0.9,1.8-1.9,1.8c-1,0-1.9-0.8-1.9-1.9l-1-7.8H102.7z"/>
	<path class="st12" d="M95.4,12.9h3.1l1,7.9c0,1-0.8,1.9-1.9,1.9c-1,0-1.9-0.8-1.9-1.9L95.4,12.9z"/>
	<path class="st12" d="M91.2,12.9h3.1l0.3,7.9c0,1-0.8,1.9-1.9,1.9s-1.9-0.8-1.9-1.9L91.2,12.9z"/>
	<path class="st12" d="M82.6,14.3l0.3-1.5H86l-1,7.9c0,1-0.8,1.9-1.9,1.9c-1,0-1.9-0.8-1.9-1.8L82.6,14.3z"/>
	<path class="st12" d="M87.1,12.9h3.1l-0.3,7.9c0,1-0.8,1.9-1.9,1.9c-1,0-1.9-0.8-1.9-1.8L87.1,12.9z"/>
	<path class="st12" d="M76.6,20.3l2.1-7.4h3.1l-1.6,7.8c0,0,0,0.1,0,0.1c0,1-0.8,1.9-1.9,1.9c-0.4,0-0.8-0.1-1.2-0.4
		C76.6,21.8,76.4,21,76.6,20.3z"/>
</g>
<g>
	<path class="st3" d="M234,109l-2,0.4V91.3c0.9-0.8,1.4-2,1.4-3.2c0,0,0-0.1,0-0.1l-2.7-13.5c-0.1-0.3-0.3-0.5-0.6-0.5h-6.6h-6.6
		h-6.6h-6.6H197c-0.3,0-0.6,0.2-0.6,0.5L193.6,88c0,0,0,0.1,0,0.1c0,1.3,0.5,2.4,1.4,3.2v18.1l1,1.3h26.5L233,111L234,109z
		 M196.3,92.2c0.6,0.2,1.2,0.4,1.8,0.4c1.6,0,3.1-0.9,3.9-2.2c0.8,1.3,2.2,2.2,3.8,2.2c1.6,0,3.1-0.9,3.8-2.2
		c0.8,1.3,2.2,2.2,3.8,2.2c1.6,0,3.1-0.9,3.8-2.2c0.8,1.3,2.2,2.2,3.8,2.2c1.6,0,3.1-0.9,3.8-2.2c0.8,1.3,2.2,2.2,3.9,2.2
		c0.6,0,1.3-0.1,1.8-0.4v17.3h-7.6V95.7c0-0.3-0.3-0.6-0.6-0.6h-18c-0.3,0-0.6,0.3-0.6,0.6v13.7h-7.6V92.2z M205.1,96.4h7.7v5.1v2.9
		v5.1h-7.7V96.4z M214.1,109.4v-5.1v-2.9v-5.1h7.7v13.1H214.1z"/>
	<path class="st13" d="M216.8,100.8c-0.3,0-0.6,0.3-0.6,0.6v2.9c0,0.3,0.3,0.6,0.6,0.6s0.6-0.3,0.6-0.6v-2.9
		C217.4,101.1,217.1,100.8,216.8,100.8z"/>
	<path class="st13" d="M210.2,100.8c-0.3,0-0.6,0.3-0.6,0.6v2.9c0,0.3,0.3,0.6,0.6,0.6c0.3,0,0.6-0.3,0.6-0.6v-2.9
		C210.8,101.1,210.5,100.8,210.2,100.8z"/>
	<path class="st0" d="M229.4,75.3l2.6,12.9c0,0.9-0.4,1.8-1.1,2.3c0,0-0.1,0.1-0.1,0.1c-0.5,0.4-1.2,0.7-2,0.7
		c-1.8,0-3.2-1.4-3.2-3.3l-1.6-12.8H229.4z"/>
	<path class="st0" d="M222.8,75.3l1.6,12.8c0,1.8-1.4,3.2-3.2,3.2s-3.2-1.4-3.2-3.2l-0.5-12.8H222.8z"/>
	<path class="st0" d="M210.8,75.3h5.4l0.5,12.8c0,1.8-1.4,3.2-3.2,3.2s-3.2-1.4-3.2-3.2L210.8,75.3z"/>
	<path class="st0" d="M209,88.1c0,1.8-1.4,3.2-3.2,3.2s-3.2-1.4-3.2-3.1l1.6-12.9h5.4L209,88.1z"/>
	<path class="st0" d="M194.9,88.2l2.6-12.9h5.4l-1.6,12.8c0,1.8-1.4,3.2-3.2,3.2c-0.7,0-1.4-0.3-2-0.7c0-0.1-0.1-0.1-0.2-0.1
		C195.3,89.9,194.9,89.1,194.9,88.2z"/>
</g>
<g>
	<path class="st3" d="M204.5,53.8h-1.2V34.5c0.7-0.7,1.2-1.6,1.2-2.7c0,0,0-0.1,0-0.1l-2.3-11.2c0-0.2-0.3-0.4-0.5-0.4h-5.5h-5.5
		h-5.5h-5.5h-5.5c-0.2,0-0.5,0.2-0.5,0.4l-2.3,11.2c0,0,0,0.1,0,0.1c0,1.1,0.4,2,1.2,2.7v19.3h-1.2c-0.3,0-0.5,0.2-0.5,0.5
		c0,0.3,0.2,0.5,0.5,0.5h33.1c0.3,0,0.5-0.2,0.5-0.5C205,54,204.8,53.8,204.5,53.8z M202.2,39.8v14h-17.8v-14H202.2z M175.1,35.5
		c1.4,0,2.6-0.7,3.2-1.8c0.7,1.1,1.8,1.8,3.2,1.8c1.4,0,2.5-0.7,3.2-1.8c0.7,1.1,1.8,1.8,3.2,1.8s2.5-0.7,3.2-1.8
		c0.7,1.1,1.8,1.8,3.2,1.8c1.4,0,2.5-0.7,3.2-1.8c0.6,1.1,1.8,1.8,3.2,1.8c0.5,0,1.1-0.1,1.5-0.3v3.5h-28.6v-3.5
		C174.1,35.4,174.6,35.5,175.1,35.5z M173.6,39.8h9.7v14h-9.7V39.8z"/>
	<path class="st0" d="M201.2,21.2l2.2,10.7c0,0.8-0.4,1.5-0.9,2c0,0-0.1,0.1-0.1,0.1c-0.5,0.4-1,0.6-1.7,0.6c-1.5,0-2.7-1.2-2.7-2.7
		l-1.3-10.6H201.2z"/>
	<path class="st0" d="M191.2,21.2h4.5l1.3,10.7c0,1.5-1.2,2.7-2.7,2.7s-2.7-1.2-2.7-2.7L191.2,21.2z"/>
	<path class="st0" d="M185.7,21.2h4.5l0.4,10.7c0,1.5-1.2,2.7-2.7,2.7s-2.7-1.2-2.7-2.6L185.7,21.2z"/>
	<path class="st0" d="M180.2,21.2h4.5l-0.4,10.7c0,1.5-1.2,2.7-2.7,2.7s-2.7-1.2-2.7-2.6L180.2,21.2z"/>
	<path class="st0" d="M172.5,31.9l2.2-10.7h4.5l-1.3,10.7c0,1.5-1.2,2.7-2.7,2.7c-0.6,0-1.2-0.2-1.6-0.6c0,0-0.1-0.1-0.1-0.1
		C172.8,33.3,172.5,32.6,172.5,31.9z"/>
</g>
<g>
	<path class="st3" d="M83.8,81.4v-4.3c0,0,0,0,0,0v-7.1c0,0,0,0,0,0v-7.8c1.1-0.3,1.9-1.3,1.9-2.5c0-1.4-1.2-2.6-2.6-2.6H79v-4.5
		c0-0.4-0.3-0.7-0.7-0.7H48.2c-0.4,0-0.7,0.3-0.7,0.7v4.5h-4.1c-1.4,0-2.6,1.2-2.6,2.6c0,1.2,0.8,2.2,1.9,2.5v19.1
		c-1.1,0.3-1.9,1.3-1.9,2.5c0,1.4,1.2,2.6,2.6,2.6h39.7c1.4,0,2.6-1.2,2.6-2.6C85.7,82.7,84.9,81.7,83.8,81.4z M68.9,81.3v-3.5h13.5
		v3.5H68.9z M57.6,76.4H44v-5.7h13.5V76.4z M67.5,70.1v7.1v4.2h-8.6v-4.2v-7.1v-2.8h8.6V70.1z M68.9,70.7h13.5v5.7H68.9V70.7z
		 M44,77.8h13.5v3.5H44V77.8z M83.1,85.1H43.4c-0.7,0-1.2-0.6-1.2-1.2s0.6-1.2,1.2-1.2h39.7c0.7,0,1.2,0.6,1.2,1.2
		S83.8,85.1,83.1,85.1z"/>
	<path class="st0" d="M82.4,62.4v7H68.9v-2.8c0-0.4-0.3-0.7-0.7-0.7h-10c-0.4,0-0.7,0.3-0.7,0.7v2.8H44v-7H82.4z"/>
	<rect x="48.8" y="53.4" class="st0" width="28.8" height="3.8"/>
	<path class="st0" d="M42.1,59.8c0-0.7,0.6-1.2,1.2-1.2h4.8h30.1h4.8c0.7,0,1.2,0.6,1.2,1.2S83.8,61,83.1,61H43.4
		C42.7,61,42.1,60.5,42.1,59.8z"/>
</g>
</svg>
