<svg xmlns="http://www.w3.org/2000/svg" width="337.679" height="186.19" viewBox="0 0 337.679 186.19"><defs><style>.a,.c,.n{fill:#fff;}.b{fill:#f05a28;}.c{stroke:#f05a28;}.c,.e,.n,.o{stroke-miterlimit:10;stroke-width:0.5px;}.d{fill:#25a9e0;}.e,.o{fill:none;}.e{stroke:#25a9e0;}.f{fill:#8a5d3b;}.g{fill:#c3996b;}.h{fill:#be1e2d;}.i{fill:#262261;}.j{fill:#929497;}.k{fill:#808184;}.l{fill:#90c5dd;}.m{fill:#00a69c;}.n,.o{stroke:#00a69c;}.p{fill:#00adee;}</style></defs><g transform="translate(-12.001 -7.29)"><path class="a" d="M260.46,104.35l2.03-3.85h10.55l2.13,3.85Z"/><path class="b" d="M275.38,104.48H260.25l2.16-4.1h10.7Zm-14.72-.25h14.3l-1.99-3.61H262.56Z"/><rect class="a" width="30.38" height="34.3" transform="translate(252.82 118.64)"/><path class="b" d="M283.32,153.06H252.7V118.52h30.62Zm-30.38-.24h30.13V118.77H252.94Z"/><line class="a" x2="30.38" transform="translate(252.82 121.1)"/><rect class="b" width="30.38" height="0.25" transform="translate(252.82 120.98)"/><line class="a" y2="31.82" transform="translate(266.34 121.12)"/><rect class="b" width="0.25" height="31.82" transform="translate(266.22 121.12)"/><line class="a" y2="31.84" transform="translate(269.84 121.1)"/><rect class="b" width="0.25" height="31.84" transform="translate(269.72 121.1)"/><line class="a" x2="11.09" transform="translate(252.82 124.2)"/><rect class="b" width="11.09" height="0.25" transform="translate(252.82 124.07)"/><line class="a" x2="11.09" transform="translate(252.82 128.4)"/><rect class="b" width="11.09" height="0.25" transform="translate(252.82 128.28)"/><line class="a" x2="11.09" transform="translate(252.82 131.39)"/><rect class="b" width="11.09" height="0.25" transform="translate(252.82 131.26)"/><line class="a" x2="11.09" transform="translate(252.82 135.59)"/><rect class="b" width="11.09" height="0.25" transform="translate(252.82 135.47)"/><line class="a" x2="11.09" transform="translate(252.82 138.95)"/><rect class="b" width="11.09" height="0.25" transform="translate(252.82 138.82)"/><line class="a" x2="11.09" transform="translate(252.82 143.15)"/><rect class="b" width="11.09" height="0.25" transform="translate(252.82 143.03)"/><line class="a" x2="11.09" transform="translate(252.82 146.21)"/><rect class="b" width="11.09" height="0.25" transform="translate(252.82 146.09)"/><line class="a" x2="11.09" transform="translate(252.82 150.42)"/><rect class="b" width="11.09" height="0.25" transform="translate(252.82 150.29)"/><line class="a" x2="11.09" transform="translate(272.11 124.2)"/><rect class="b" width="11.09" height="0.25" transform="translate(272.11 124.07)"/><line class="a" x2="11.09" transform="translate(272.11 128.4)"/><rect class="b" width="11.09" height="0.25" transform="translate(272.11 128.28)"/><line class="a" x2="11.09" transform="translate(272.11 131.39)"/><rect class="b" width="11.09" height="0.25" transform="translate(272.11 131.26)"/><line class="a" x2="11.09" transform="translate(272.11 135.59)"/><rect class="b" width="11.09" height="0.25" transform="translate(272.11 135.47)"/><line class="a" x2="11.09" transform="translate(272.11 138.95)"/><rect class="b" width="11.09" height="0.25" transform="translate(272.11 138.82)"/><line class="a" x2="11.09" transform="translate(272.11 143.15)"/><rect class="b" width="11.09" height="0.25" transform="translate(272.11 143.03)"/><line class="a" x2="11.09" transform="translate(272.11 146.21)"/><rect class="b" width="11.09" height="0.25" transform="translate(272.11 146.09)"/><line class="a" x2="11.09" transform="translate(272.11 150.42)"/><rect class="b" width="11.09" height="0.25" transform="translate(272.11 150.29)"/><rect class="a" width="20.54" height="14.15" transform="translate(257.74 104.35)"/><path class="b" d="M278.4,118.63H257.61v-14.4H278.4Zm-20.54-.25h20.29v-13.9H257.86Z"/><line class="a" x2="20.54" transform="translate(257.74 105.37)"/><rect class="b" width="20.54" height="0.25" transform="translate(257.74 105.24)"/><line class="a" y2="13.12" transform="translate(266.88 105.38)"/><rect class="b" width="0.25" height="13.13" transform="translate(266.76 105.38)"/><line class="a" y2="13.13" transform="translate(269.25 105.37)"/><rect class="b" width="0.25" height="13.14" transform="translate(269.13 105.37)"/><line class="a" x2="7.49" transform="translate(257.74 106.64)"/><rect class="b" width="7.5" height="0.25" transform="translate(257.74 106.52)"/><line class="a" x2="7.49" transform="translate(257.74 108.38)"/><rect class="b" width="7.5" height="0.25" transform="translate(257.74 108.26)"/><line class="a" x2="7.49" transform="translate(257.74 109.61)"/><rect class="b" width="7.5" height="0.25" transform="translate(257.74 109.49)"/><line class="a" x2="7.49" transform="translate(257.74 111.34)"/><rect class="b" width="7.5" height="0.25" transform="translate(257.74 111.22)"/><line class="a" x2="7.49" transform="translate(257.74 112.73)"/><rect class="b" width="7.5" height="0.25" transform="translate(257.74 112.61)"/><line class="a" x2="7.49" transform="translate(257.74 114.46)"/><rect class="b" width="7.5" height="0.25" transform="translate(257.74 114.34)"/><line class="a" x2="7.49" transform="translate(257.74 115.73)"/><rect class="b" width="7.5" height="0.25" transform="translate(257.74 115.6)"/><line class="a" x2="7.49" transform="translate(257.74 117.46)"/><rect class="b" width="7.5" height="0.25" transform="translate(257.74 117.34)"/><line class="a" x2="7.5" transform="translate(270.78 106.64)"/><rect class="b" width="7.5" height="0.25" transform="translate(270.78 106.52)"/><line class="a" x2="7.5" transform="translate(270.78 108.38)"/><rect class="b" width="7.5" height="0.25" transform="translate(270.78 108.26)"/><line class="a" x2="7.5" transform="translate(270.78 109.61)"/><rect class="b" width="7.5" height="0.25" transform="translate(270.78 109.49)"/><line class="a" x2="7.5" transform="translate(270.78 111.34)"/><rect class="b" width="7.5" height="0.25" transform="translate(270.78 111.22)"/><line class="a" x2="7.5" transform="translate(270.78 112.73)"/><rect class="b" width="7.5" height="0.25" transform="translate(270.78 112.61)"/><line class="a" x2="7.5" transform="translate(270.78 114.46)"/><rect class="b" width="7.5" height="0.25" transform="translate(270.78 114.34)"/><line class="a" x2="7.5" transform="translate(270.78 115.73)"/><rect class="b" width="7.5" height="0.25" transform="translate(270.78 115.6)"/><line class="a" x2="7.5" transform="translate(270.78 117.46)"/><rect class="b" width="7.5" height="0.25" transform="translate(270.78 117.34)"/><rect class="a" width="21.93" height="28.78" transform="translate(287.37 115.1)"/><path class="b" d="M309.42,144H287.25V114.98h22.17Zm-21.93-.24h21.68V115.23H287.49Z"/><rect class="a" width="26.56" height="9.93" transform="translate(285.05 143.01)"/><path class="b" d="M311.74,153.06H284.93V142.89h26.81Zm-26.56-.24h26.31v-9.68H285.18Z"/><line class="a" y2="27.63" transform="translate(294.7 115.1)"/><rect class="b" width="0.25" height="27.62" transform="translate(294.58 115.1)"/><line class="a" y2="27.63" transform="translate(298.33 115.1)"/><rect class="b" width="0.25" height="27.62" transform="translate(298.21 115.1)"/><line class="a" y2="27.63" transform="translate(302.12 115.1)"/><rect class="b" width="0.25" height="27.62" transform="translate(301.99 115.1)"/><line class="a" y2="27.63" transform="translate(305.58 115.1)"/><rect class="b" width="0.25" height="27.62" transform="translate(305.46 115.1)"/><line class="a" x2="21.93" transform="translate(287.37 119.1)"/><rect class="b" width="21.93" height="0.25" transform="translate(287.37 118.98)"/><line class="a" x2="21.93" transform="translate(287.37 120.04)"/><rect class="b" width="21.93" height="0.25" transform="translate(287.37 119.92)"/><line class="a" x2="21.93" transform="translate(287.37 126.95)"/><rect class="b" width="21.93" height="0.25" transform="translate(287.37 126.83)"/><line class="a" x2="21.93" transform="translate(287.37 127.89)"/><rect class="b" width="21.93" height="0.25" transform="translate(287.37 127.77)"/><line class="a" x2="21.93" transform="translate(287.37 135.54)"/><rect class="b" width="21.93" height="0.25" transform="translate(287.37 135.41)"/><line class="a" x2="21.93" transform="translate(287.37 136.48)"/><rect class="b" width="21.93" height="0.25" transform="translate(287.37 136.36)"/><rect class="a" width="17.45" height="3.63" transform="translate(289.22 111.47)"/><path class="b" d="M306.79,115.23h-17.7v-3.88h17.7Zm-17.44-.25h17.2V111.6h-17.2Z"/><rect class="a" width="14.44" height="3" transform="translate(290.73 108.47)"/><path class="b" d="M305.29,111.6H290.6v-3.25h14.68v3.25Zm-14.44-.25h14.19v-2.76H290.85Z"/><line class="a" y2="27.63" transform="translate(291 115.1)"/><rect class="b" width="0.25" height="27.62" transform="translate(290.87 115.1)"/><rect class="a" width="32.9" height="9.51" transform="translate(209.89 143.43)"/><path class="b" d="M242.9,153.06H209.76V143.3H242.9Zm-32.89-.24h32.65v-9.27H210.01v9.27Z"/><rect class="a" width="30.27" height="30.27" transform="translate(211.2 113.12)"/><path class="b" d="M241.59,143.51H211.07V112.99h30.52Zm-30.27-.24h30.02V113.25H211.32Z"/><line class="a" y2="30.27" transform="translate(216.33 113.12)"/><rect class="b" width="0.25" height="30.27" transform="translate(216.21 113.12)"/><line class="a" y2="30.27" transform="translate(221.15 113.12)"/><rect class="b" width="0.25" height="30.27" transform="translate(221.02 113.12)"/><line class="a" y2="30.27" transform="translate(226.07 113.12)"/><rect class="b" width="0.25" height="30.27" transform="translate(225.95 113.12)"/><line class="a" y2="30.27" transform="translate(231.18 113.12)"/><rect class="b" width="0.25" height="30.27" transform="translate(231.05 113.12)"/><line class="a" y2="30.27" transform="translate(236.33 113.12)"/><rect class="b" width="0.25" height="30.27" transform="translate(236.21 113.12)"/><rect class="a" width="25.29" height="5.09" transform="translate(213.55 108.03)"/><path class="b" d="M238.97,113.24H213.43V107.9h25.54Zm-25.29-.25h25.04v-4.84H213.68Z"/><rect class="a" width="20.27" height="4.08" transform="translate(216.06 103.95)"/><path class="b" d="M236.46,108.15H215.94v-4.33h20.52Zm-20.27-.25h20.02v-3.83H216.19Z"/><line class="a" transform="translate(198.44 109.34)"/><path class="b" d="M198.44,109.34"/><path class="a" d="M178.24,109.29a11.644,11.644,0,0,0-9.86-9.34v53.6h38.76V99.95s-7.68,1.83-8.69,9.38"/><path class="b" d="M207.26,153.68h-39V99.82l.13.01a11.862,11.862,0,0,1,9.97,9.44l-.24.05a11.593,11.593,0,0,0-9.62-9.23v53.34h38.51V100.11c-1.08.31-7.54,2.44-8.45,9.24l-.24-.03c1.01-7.55,8.71-9.47,8.79-9.49l.15-.04v53.89Z"/><path class="c" d="M178.24,145.07"/><path class="c" d="M178.24,91.47"/><path class="c" d="M198.44,153.55"/><rect class="a" width="20.2" height="63.39" transform="translate(178.24 90.17)"/><path class="b" d="M198.57,153.68H178.12V90.05h20.45Zm-20.21-.25h19.95V90.29H178.36Z"/><line class="a" x2="20.2" transform="translate(178.24 93.59)"/><rect class="b" width="20.2" height="0.25" transform="translate(178.24 93.47)"/><rect class="a" width="2.26" height="5.57" transform="translate(181.87 96.13)"/><path class="b" d="M184.25,101.82h-2.51V96.01h2.51Zm-2.26-.24h2.02V96.26h-2.02Z"/><rect class="a" width="2.26" height="5.57" transform="translate(185.57 96.13)"/><path class="b" d="M187.95,101.82h-2.51V96.01h2.51Zm-2.26-.24h2.02V96.26h-2.02Z"/><rect class="a" width="2.26" height="5.57" transform="translate(189.04 96.13)"/><path class="b" d="M191.42,101.82h-2.51V96.01h2.51Zm-2.26-.24h2.02V96.26h-2.02Z"/><rect class="a" width="2.26" height="5.57" transform="translate(192.55 96.13)"/><path class="b" d="M194.94,101.82h-2.51V96.01h2.51Zm-2.26-.24h2.02V96.26h-2.02Z"/><rect class="a" width="2.26" height="5.57" transform="translate(181.87 104.25)"/><path class="b" d="M184.25,109.94h-2.51v-5.81h2.51Zm-2.26-.25h2.02v-5.32h-2.02Z"/><rect class="a" width="2.26" height="5.57" transform="translate(185.57 104.25)"/><path class="b" d="M187.95,109.94h-2.51v-5.81h2.51Zm-2.26-.25h2.02v-5.32h-2.02Z"/><rect class="a" width="2.26" height="5.57" transform="translate(189.04 104.25)"/><path class="b" d="M191.42,109.94h-2.51v-5.81h2.51Zm-2.26-.25h2.02v-5.32h-2.02Z"/><rect class="a" width="2.26" height="5.57" transform="translate(192.55 104.25)"/><path class="b" d="M194.94,109.94h-2.51v-5.81h2.51Zm-2.26-.25h2.02v-5.32h-2.02Z"/><rect class="a" width="2.26" height="5.57" transform="translate(181.87 112.36)"/><path class="b" d="M184.25,118.05h-2.51v-5.81h2.51Zm-2.26-.25h2.02v-5.32h-2.02Z"/><rect class="a" width="2.26" height="5.57" transform="translate(185.57 112.36)"/><path class="b" d="M187.95,118.05h-2.51v-5.81h2.51Zm-2.26-.25h2.02v-5.32h-2.02Z"/><rect class="a" width="2.26" height="5.57" transform="translate(189.04 112.36)"/><path class="b" d="M191.42,118.05h-2.51v-5.81h2.51Zm-2.26-.25h2.02v-5.32h-2.02Z"/><rect class="a" width="2.26" height="5.57" transform="translate(192.55 112.36)"/><path class="b" d="M194.94,118.05h-2.51v-5.81h2.51Zm-2.26-.25h2.02v-5.32h-2.02Z"/><rect class="a" width="2.26" height="5.57" transform="translate(181.87 120.28)"/><path class="b" d="M184.25,125.97h-2.51v-5.81h2.51Zm-2.26-.25h2.02V120.4h-2.02Z"/><rect class="a" width="2.26" height="5.57" transform="translate(185.57 120.28)"/><path class="b" d="M187.95,125.97h-2.51v-5.81h2.51Zm-2.26-.25h2.02V120.4h-2.02Z"/><rect class="a" width="2.26" height="5.57" transform="translate(189.04 120.28)"/><path class="b" d="M191.42,125.97h-2.51v-5.81h2.51Zm-2.26-.25h2.02V120.4h-2.02Z"/><rect class="a" width="2.26" height="5.57" transform="translate(192.55 120.28)"/><path class="b" d="M194.94,125.97h-2.51v-5.81h2.51Zm-2.26-.25h2.02V120.4h-2.02Z"/><rect class="a" width="2.26" height="5.57" transform="translate(181.87 128.51)"/><path class="b" d="M184.25,134.2h-2.51v-5.81h2.51Zm-2.26-.25h2.02v-5.32h-2.02Z"/><rect class="a" width="2.26" height="5.57" transform="translate(185.57 128.51)"/><path class="b" d="M187.95,134.2h-2.51v-5.81h2.51Zm-2.26-.25h2.02v-5.32h-2.02Z"/><rect class="a" width="2.26" height="5.57" transform="translate(189.04 128.51)"/><path class="b" d="M191.42,134.2h-2.51v-5.81h2.51Zm-2.26-.25h2.02v-5.32h-2.02Z"/><rect class="a" width="2.26" height="5.57" transform="translate(192.55 128.51)"/><path class="b" d="M194.94,134.2h-2.51v-5.81h2.51Zm-2.26-.25h2.02v-5.32h-2.02Z"/><rect class="a" width="2.26" height="5.57" transform="translate(181.87 136.74)"/><path class="b" d="M184.25,142.43h-2.51v-5.81h2.51Zm-2.26-.25h2.02v-5.32h-2.02Z"/><rect class="a" width="2.26" height="5.57" transform="translate(185.57 136.74)"/><path class="b" d="M187.95,142.43h-2.51v-5.81h2.51Zm-2.26-.25h2.02v-5.32h-2.02Z"/><rect class="a" width="2.26" height="5.57" transform="translate(189.04 136.74)"/><path class="b" d="M191.42,142.43h-2.51v-5.81h2.51Zm-2.26-.25h2.02v-5.32h-2.02Z"/><rect class="a" width="2.26" height="5.57" transform="translate(192.55 136.74)"/><path class="b" d="M194.94,142.43h-2.51v-5.81h2.51Zm-2.26-.25h2.02v-5.32h-2.02Z"/><rect class="a" width="2.26" height="5.57" transform="translate(181.87 144.61)"/><path class="b" d="M184.25,150.3h-2.51v-5.81h2.51Zm-2.26-.24h2.02v-5.32h-2.02Z"/><rect class="a" width="2.26" height="5.57" transform="translate(185.57 144.61)"/><path class="b" d="M187.95,150.3h-2.51v-5.81h2.51Zm-2.26-.24h2.02v-5.32h-2.02Z"/><rect class="a" width="2.26" height="5.57" transform="translate(189.04 144.61)"/><path class="b" d="M191.42,150.3h-2.51v-5.81h2.51Zm-2.26-.24h2.02v-5.32h-2.02Z"/><rect class="a" width="2.26" height="5.57" transform="translate(192.55 144.61)"/><path class="b" d="M194.94,150.3h-2.51v-5.81h2.51Zm-2.26-.24h2.02v-5.32h-2.02Z"/><path class="a" d="M104.96,105.55l2.03-3.86h10.55l2.14,3.86Z"/><path class="d" d="M119.88,105.67H104.75l2.16-4.1h10.7Zm-14.71-.24h14.3l-1.99-3.61H107.07Z"/><rect class="a" width="30.38" height="34.3" transform="translate(97.32 119.84)"/><path class="d" d="M127.83,154.26H97.2V119.72h30.62v34.54Zm-30.38-.24h30.13V119.97H97.45Z"/><rect class="d" width="30.38" height="0.25" transform="translate(97.32 122.18)"/><rect class="d" width="0.25" height="31.82" transform="translate(110.72 122.32)"/><rect class="d" width="0.25" height="31.84" transform="translate(114.23 122.3)"/><rect class="d" width="11.09" height="0.25" transform="translate(97.32 125.27)"/><rect class="d" width="11.09" height="0.25" transform="translate(97.32 129.48)"/><rect class="d" width="11.09" height="0.25" transform="translate(97.32 132.46)"/><rect class="d" width="11.09" height="0.25" transform="translate(97.32 136.67)"/><rect class="d" width="11.09" height="0.25" transform="translate(97.32 140.02)"/><rect class="d" width="11.09" height="0.25" transform="translate(97.32 144.23)"/><rect class="d" width="11.09" height="0.25" transform="translate(97.32 147.29)"/><rect class="d" width="11.09" height="0.25" transform="translate(97.32 151.49)"/><rect class="d" width="11.09" height="0.25" transform="translate(116.61 125.27)"/><rect class="d" width="11.09" height="0.25" transform="translate(116.61 129.48)"/><rect class="d" width="11.09" height="0.25" transform="translate(116.61 132.46)"/><rect class="d" width="11.09" height="0.25" transform="translate(116.61 136.67)"/><rect class="d" width="11.09" height="0.25" transform="translate(116.61 140.02)"/><rect class="d" width="11.09" height="0.25" transform="translate(116.61 144.23)"/><rect class="d" width="11.09" height="0.25" transform="translate(116.61 147.29)"/><rect class="d" width="11.09" height="0.25" transform="translate(116.61 151.49)"/><rect class="a" width="20.54" height="14.15" transform="translate(102.24 105.55)"/><path class="d" d="M122.91,119.82H102.12v-14.4h20.79Zm-20.54-.24h20.29v-13.9H102.37Z"/><rect class="d" width="20.54" height="0.25" transform="translate(102.24 106.44)"/><rect class="d" width="0.25" height="13.13" transform="translate(111.26 106.57)"/><rect class="d" width="0.25" height="13.14" transform="translate(113.63 106.56)"/><rect class="d" width="7.5" height="0.25" transform="translate(102.24 107.72)"/><rect class="d" width="7.5" height="0.25" transform="translate(102.24 109.45)"/><rect class="d" width="7.5" height="0.25" transform="translate(102.24 110.68)"/><rect class="d" width="7.5" height="0.25" transform="translate(102.24 112.42)"/><rect class="d" width="7.5" height="0.25" transform="translate(102.24 113.8)"/><rect class="d" width="7.5" height="0.25" transform="translate(102.24 115.54)"/><rect class="d" width="7.5" height="0.25" transform="translate(102.24 116.8)"/><rect class="d" width="7.5" height="0.25" transform="translate(102.24 118.54)"/><rect class="d" width="7.5" height="0.25" transform="translate(115.29 107.72)"/><rect class="d" width="7.5" height="0.25" transform="translate(115.29 109.45)"/><rect class="d" width="7.5" height="0.25" transform="translate(115.29 110.68)"/><rect class="d" width="7.5" height="0.25" transform="translate(115.29 112.42)"/><rect class="d" width="7.5" height="0.25" transform="translate(115.29 113.8)"/><rect class="d" width="7.5" height="0.25" transform="translate(115.29 115.54)"/><rect class="d" width="7.5" height="0.25" transform="translate(115.29 116.8)"/><rect class="d" width="7.5" height="0.25" transform="translate(115.29 118.54)"/><rect class="a" width="21.93" height="28.78" transform="translate(131.88 116.3)"/><path class="d" d="M153.93,145.2H131.76V116.18h22.17ZM132,144.95h21.68V116.42H132Z"/><rect class="a" width="26.56" height="9.93" transform="translate(129.56 144.21)"/><path class="d" d="M156.24,154.26H129.43V144.09h26.81Zm-26.56-.24H156v-9.68H129.69v9.68Z"/><rect class="d" width="0.25" height="27.62" transform="translate(139.09 116.3)"/><rect class="d" width="0.25" height="27.62" transform="translate(142.72 116.3)"/><rect class="d" width="0.25" height="27.62" transform="translate(146.5 116.3)"/><rect class="d" width="0.25" height="27.62" transform="translate(149.97 116.3)"/><rect class="d" width="21.93" height="0.25" transform="translate(131.88 120.18)"/><rect class="d" width="21.93" height="0.25" transform="translate(131.88 121.12)"/><rect class="d" width="21.93" height="0.25" transform="translate(131.88 128.02)"/><rect class="d" width="21.93" height="0.25" transform="translate(131.88 128.96)"/><rect class="d" width="21.93" height="0.25" transform="translate(131.88 136.61)"/><rect class="d" width="21.93" height="0.25" transform="translate(131.88 137.55)"/><rect class="a" width="17.45" height="3.63" transform="translate(133.73 112.67)"/><path class="d" d="M151.3,116.42H133.6v-3.88h17.7Zm-17.45-.24h17.2V112.8h-17.2Z"/><rect class="a" width="14.44" height="3" transform="translate(135.23 109.67)"/><path class="d" d="M149.8,112.79H135.12v-3.25H149.8v3.25Zm-14.44-.24h14.19v-2.76H135.36Z"/><rect class="d" width="0.25" height="27.62" transform="translate(135.38 116.3)"/><rect class="a" width="32.9" height="9.51" transform="translate(54.39 144.63)"/><path class="d" d="M87.41,154.26H54.27V144.5H87.41Zm-32.9-.24H87.16v-9.27H54.51Z"/><rect class="a" width="30.27" height="30.27" transform="translate(55.7 114.32)"/><path class="d" d="M86.1,144.71H55.58V114.19H86.1Zm-30.27-.25H85.85V114.44H55.83Z"/><rect class="d" width="0.25" height="30.27" transform="translate(60.71 114.32)"/><rect class="d" width="0.25" height="30.27" transform="translate(65.53 114.32)"/><rect class="d" width="0.25" height="30.27" transform="translate(70.46 114.32)"/><rect class="d" width="0.25" height="30.27" transform="translate(75.56 114.32)"/><rect class="d" width="0.25" height="30.27" transform="translate(80.72 114.32)"/><rect class="a" width="25.29" height="5.09" transform="translate(58.06 109.23)"/><path class="d" d="M83.47,114.44H57.94V109.1H83.48v5.34Zm-25.29-.25H83.22v-4.84H58.18Z"/><rect class="a" width="20.27" height="4.08" transform="translate(60.57 105.15)"/><path class="d" d="M80.96,109.35H60.45v-4.33H80.97v4.33Zm-20.27-.25H80.71v-3.83H60.69Z"/><line class="a" transform="translate(42.95 110.53)"/><path class="d" d="M42.95,110.53"/><path class="a" d="M22.75,110.49a11.644,11.644,0,0,0-9.86-9.34v53.6H51.65v-53.6s-7.68,1.83-8.69,9.38"/><path class="d" d="M51.77,154.87h-39V101.01l.13.01a11.862,11.862,0,0,1,9.97,9.44l-.24.05a11.593,11.593,0,0,0-9.62-9.23v53.34H51.52V101.3c-1.08.31-7.54,2.44-8.45,9.24l-.24-.03c1.01-7.55,8.71-9.47,8.79-9.49l.15-.04Z"/><path class="e" d="M22.75,146.27"/><path class="e" d="M22.75,92.67"/><path class="e" d="M42.95,154.75"/><rect class="a" width="20.2" height="63.39" transform="translate(22.75 91.37)"/><path class="d" d="M43.07,154.87H22.62V91.24H43.07Zm-20.2-.24H42.82V91.49H22.87Z"/><rect class="d" width="20.2" height="0.25" transform="translate(22.75 94.66)"/><rect class="a" width="2.26" height="5.57" transform="translate(26.37 97.33)"/><path class="d" d="M28.76,103.02H26.25V97.21h2.51Zm-2.26-.24h2.02V97.46H26.5Z"/><rect class="a" width="2.26" height="5.57" transform="translate(30.07 97.33)"/><path class="d" d="M32.46,103.02H29.95V97.21h2.51Zm-2.27-.24h2.02V97.46H30.19v5.32Z"/><rect class="a" width="2.26" height="5.57" transform="translate(33.54 97.33)"/><path class="d" d="M35.93,103.02H33.42V97.21h2.51Zm-2.27-.24h2.02V97.46H33.66Z"/><rect class="a" width="2.26" height="5.57" transform="translate(37.06 97.33)"/><path class="d" d="M39.45,103.02H36.94V97.21h2.51Zm-2.27-.24H39.2V97.46H37.18Z"/><rect class="a" width="2.26" height="5.57" transform="translate(26.37 105.44)"/><path class="d" d="M28.76,111.13H26.25v-5.81h2.51Zm-2.26-.24h2.02v-5.32H26.5Z"/><rect class="a" width="2.26" height="5.57" transform="translate(30.07 105.44)"/><path class="d" d="M32.46,111.13H29.95v-5.81h2.51Zm-2.27-.24h2.02v-5.32H30.19v5.32Z"/><rect class="a" width="2.26" height="5.57" transform="translate(33.54 105.44)"/><path class="d" d="M35.93,111.13H33.42v-5.81h2.51Zm-2.27-.24h2.02v-5.32H33.66Z"/><rect class="a" width="2.26" height="5.57" transform="translate(37.06 105.44)"/><path class="d" d="M39.45,111.13H36.94v-5.81h2.51Zm-2.27-.24H39.2v-5.32H37.18Z"/><rect class="a" width="2.26" height="5.57" transform="translate(26.37 113.56)"/><path class="d" d="M28.76,119.25H26.25v-5.81h2.51ZM26.5,119h2.02v-5.32H26.5Z"/><rect class="a" width="2.26" height="5.57" transform="translate(30.07 113.56)"/><path class="d" d="M32.46,119.25H29.95v-5.81h2.51ZM30.19,119h2.02v-5.32H30.19V119Z"/><rect class="a" width="2.26" height="5.57" transform="translate(33.54 113.56)"/><path class="d" d="M35.93,119.25H33.42v-5.81h2.51ZM33.66,119h2.02v-5.32H33.66Z"/><rect class="a" width="2.26" height="5.57" transform="translate(37.06 113.56)"/><path class="d" d="M39.45,119.25H36.94v-5.81h2.51ZM37.18,119H39.2v-5.32H37.18Z"/><rect class="a" width="2.26" height="5.57" transform="translate(26.37 121.47)"/><path class="d" d="M28.76,127.16H26.25v-5.81h2.51Zm-2.26-.24h2.02V121.6H26.5Z"/><rect class="a" width="2.26" height="5.57" transform="translate(30.07 121.47)"/><path class="d" d="M32.46,127.16H29.95v-5.81h2.51Zm-2.27-.24h2.02V121.6H30.19v5.32Z"/><rect class="a" width="2.26" height="5.57" transform="translate(33.54 121.47)"/><path class="d" d="M35.93,127.16H33.42v-5.81h2.51Zm-2.27-.24h2.02V121.6H33.66Z"/><rect class="a" width="2.26" height="5.57" transform="translate(37.06 121.47)"/><path class="d" d="M39.45,127.16H36.94v-5.81h2.51Zm-2.27-.24H39.2V121.6H37.18Z"/><rect class="a" width="2.26" height="5.57" transform="translate(26.37 129.7)"/><path class="d" d="M28.76,135.39H26.25v-5.81h2.51Zm-2.26-.24h2.02v-5.32H26.5Z"/><rect class="a" width="2.26" height="5.57" transform="translate(30.07 129.7)"/><path class="d" d="M32.46,135.39H29.95v-5.81h2.51Zm-2.27-.24h2.02v-5.32H30.19v5.32Z"/><rect class="a" width="2.26" height="5.57" transform="translate(33.54 129.7)"/><path class="d" d="M35.93,135.39H33.42v-5.81h2.51Zm-2.27-.24h2.02v-5.32H33.66Z"/><rect class="a" width="2.26" height="5.57" transform="translate(37.06 129.7)"/><path class="d" d="M39.45,135.39H36.94v-5.81h2.51Zm-2.27-.24H39.2v-5.32H37.18Z"/><rect class="a" width="2.26" height="5.57" transform="translate(26.37 137.94)"/><path class="d" d="M28.76,143.63H26.25v-5.81h2.51Zm-2.26-.25h2.02v-5.32H26.5Z"/><rect class="a" width="2.26" height="5.57" transform="translate(30.07 137.94)"/><path class="d" d="M32.46,143.63H29.95v-5.81h2.51Zm-2.27-.25h2.02v-5.32H30.19v5.32Z"/><rect class="a" width="2.26" height="5.57" transform="translate(33.54 137.94)"/><path class="d" d="M35.93,143.63H33.42v-5.81h2.51Zm-2.27-.25h2.02v-5.32H33.66Z"/><rect class="a" width="2.26" height="5.57" transform="translate(37.06 137.94)"/><path class="d" d="M39.45,143.63H36.94v-5.81h2.51Zm-2.27-.25H39.2v-5.32H37.18Z"/><rect class="a" width="2.26" height="5.57" transform="translate(26.37 145.81)"/><path class="d" d="M28.76,151.5H26.25v-5.81h2.51Zm-2.26-.25h2.02v-5.32H26.5Z"/><rect class="a" width="2.26" height="5.57" transform="translate(30.07 145.81)"/><path class="d" d="M32.46,151.5H29.95v-5.81h2.51Zm-2.27-.25h2.02v-5.32H30.19v5.32Z"/><rect class="a" width="2.26" height="5.57" transform="translate(33.54 145.81)"/><path class="d" d="M35.93,151.5H33.42v-5.81h2.51Zm-2.27-.25h2.02v-5.32H33.66Z"/><rect class="a" width="2.26" height="5.57" transform="translate(37.06 145.81)"/><path class="d" d="M39.45,151.5H36.94v-5.81h2.51Zm-2.27-.25H39.2v-5.32H37.18Z"/><path class="a" d="M145.93,136.55l-7,5.24v12.22h16.92V141.79l-7-5.24A2.43,2.43,0,0,0,145.93,136.55Z"/><path class="f" d="M155.98,154.14H138.81V141.73l7.05-5.28a2.58,2.58,0,0,1,3.08,0l7.05,5.28v12.41Zm-16.93-.25h16.68V141.85l-6.95-5.2a2.34,2.34,0,0,0-2.78,0l-6.95,5.2v12.04Z"/><circle class="a" cx="1.65" cy="1.65" r="1.65" transform="translate(145.74 138.18)"/><path class="f" d="M147.39,141.6a1.78,1.78,0,1,1,1.78-1.78A1.784,1.784,0,0,1,147.39,141.6Zm0-3.3a1.53,1.53,0,1,0,1.53,1.53A1.536,1.536,0,0,0,147.39,138.3Z"/><rect class="a" width="2.01" height="3.51" transform="translate(145.19 143.54)"/><path class="f" d="M147.32,147.18h-2.25v-3.76h2.25Zm-2.01-.25h1.76v-3.26h-1.76Z"/><rect class="a" width="2.01" height="3.51" transform="translate(147.59 143.54)"/><path class="f" d="M149.72,147.18h-2.25v-3.76h2.25Zm-2.01-.25h1.76v-3.26h-1.76Z"/><path class="a" d="M129.25,136.55l-7,5.24v12.22h16.92V141.79l-7-5.24A2.43,2.43,0,0,0,129.25,136.55Z"/><path class="f" d="M139.3,154.14H122.13V141.73l7.05-5.28a2.58,2.58,0,0,1,3.08,0l7.05,5.28v12.41Zm-16.93-.25h16.68V141.85l-6.95-5.2a2.34,2.34,0,0,0-2.78,0l-6.95,5.2v12.04Z"/><circle class="a" cx="1.65" cy="1.65" r="1.65" transform="translate(129.06 138.18)"/><path class="f" d="M130.71,141.6a1.78,1.78,0,1,1,1.78-1.78A1.784,1.784,0,0,1,130.71,141.6Zm0-3.3a1.53,1.53,0,1,0,1.53,1.53A1.536,1.536,0,0,0,130.71,138.3Z"/><rect class="a" width="2.01" height="3.51" transform="translate(128.51 143.54)"/><path class="f" d="M130.64,147.18h-2.25v-3.76h2.25Zm-2.01-.25h1.76v-3.26h-1.76Z"/><rect class="a" width="2.01" height="3.51" transform="translate(130.91 143.54)"/><path class="f" d="M133.04,147.18h-2.25v-3.76h2.25Zm-2.01-.25h1.76v-3.26h-1.76Z"/><path class="a" d="M109.27,136.55l-7,5.24v12.22h16.92V141.79l-7-5.24A2.43,2.43,0,0,0,109.27,136.55Z"/><path class="f" d="M119.32,154.14H102.15V141.73l7.05-5.28a2.58,2.58,0,0,1,3.08,0l7.05,5.28v12.41Zm-16.93-.25h16.68V141.85l-6.95-5.2a2.34,2.34,0,0,0-2.78,0l-6.95,5.2v12.04Z"/><circle class="a" cx="1.65" cy="1.65" r="1.65" transform="translate(109.08 138.18)"/><path class="f" d="M110.73,141.6a1.78,1.78,0,1,1,1.78-1.78A1.784,1.784,0,0,1,110.73,141.6Zm0-3.3a1.53,1.53,0,1,0,1.53,1.53A1.536,1.536,0,0,0,110.73,138.3Z"/><rect class="a" width="2.01" height="3.51" transform="translate(108.53 143.54)"/><path class="f" d="M110.66,147.18h-2.25v-3.76h2.25Zm-2.01-.25h1.76v-3.26h-1.76Z"/><rect class="a" width="2.01" height="3.51" transform="translate(110.93 143.54)"/><path class="f" d="M113.06,147.18h-2.25v-3.76h2.25Zm-2.01-.25h1.76v-3.26h-1.76Z"/><path class="a" d="M93.19,136.55l-7,5.24v12.22h16.92V141.79l-7-5.24A2.43,2.43,0,0,0,93.19,136.55Z"/><path class="f" d="M103.24,154.14H86.07V141.73l7.05-5.28a2.58,2.58,0,0,1,3.08,0l7.05,5.28v12.41Zm-16.93-.25h16.68V141.85l-6.95-5.2a2.34,2.34,0,0,0-2.78,0l-6.95,5.2v12.04Z"/><circle class="a" cx="1.65" cy="1.65" r="1.65" transform="translate(93 138.18)"/><path class="f" d="M94.65,141.6a1.78,1.78,0,1,1,1.78-1.78A1.784,1.784,0,0,1,94.65,141.6Zm0-3.3a1.53,1.53,0,1,0,1.53,1.53A1.536,1.536,0,0,0,94.65,138.3Z"/><rect class="a" width="2.01" height="3.51" transform="translate(92.45 143.54)"/><path class="f" d="M94.58,147.18H92.33v-3.76h2.25Zm-2.01-.25h1.76v-3.26H92.57Z"/><rect class="a" width="2.01" height="3.51" transform="translate(94.85 143.54)"/><path class="f" d="M96.98,147.18H94.73v-3.76h2.25Zm-2-.25h1.76v-3.26H94.98Z"/><path class="a" d="M331.38,135.05l-7.14,5.35v12.47H341.5V140.4l-7.14-5.35A2.49,2.49,0,0,0,331.38,135.05Z"/><path class="g" d="M341.63,152.99H324.12V140.34l7.19-5.38a2.64,2.64,0,0,1,3.14,0l7.19,5.38v12.65Zm-17.27-.24h17.02V140.47l-7.09-5.31a2.37,2.37,0,0,0-2.84,0h0l-7.09,5.31Z"/><circle class="a" cx="1.69" cy="1.69" r="1.69" transform="translate(331.18 136.71)"/><path class="g" d="M332.87,140.21a1.81,1.81,0,1,1,1.81-1.81A1.81,1.81,0,0,1,332.87,140.21Zm0-3.37a1.56,1.56,0,1,0,1.56,1.56A1.562,1.562,0,0,0,332.87,136.84Z"/><rect class="a" width="2.05" height="3.58" transform="translate(330.62 142.19)"/><path class="g" d="M332.79,145.89H330.5v-3.83h2.29Zm-2.04-.24h1.8v-3.33h-1.8Z"/><rect class="a" width="2.05" height="3.58" transform="translate(333.07 142.19)"/><path class="g" d="M335.24,145.89h-2.29v-3.83h2.29Zm-2.04-.24H335v-3.33h-1.8Z"/><path class="a" d="M314.36,135.05l-7.14,5.35v12.47h17.26V140.4l-7.14-5.35A2.49,2.49,0,0,0,314.36,135.05Z"/><path class="g" d="M324.61,152.99H307.1V140.34l7.19-5.38a2.64,2.64,0,0,1,3.14,0l7.19,5.38v12.65Zm-17.26-.24h17.02V140.47l-7.09-5.31a2.37,2.37,0,0,0-2.84,0h0l-7.09,5.31Z"/><circle class="a" cx="1.69" cy="1.69" r="1.69" transform="translate(314.17 136.71)"/><path class="g" d="M315.86,140.21a1.81,1.81,0,1,1,1.81-1.81A1.81,1.81,0,0,1,315.86,140.21Zm0-3.37a1.56,1.56,0,1,0,1.56,1.56A1.562,1.562,0,0,0,315.86,136.84Z"/><rect class="a" width="2.05" height="3.58" transform="translate(313.61 142.19)"/><path class="g" d="M315.78,145.89h-2.29v-3.83h2.29Zm-2.05-.24h1.8v-3.33h-1.8Z"/><rect class="a" width="2.05" height="3.58" transform="translate(316.06 142.19)"/><path class="g" d="M318.23,145.89h-2.29v-3.83h2.29Zm-2.05-.24h1.8v-3.33h-1.8Z"/><path class="a" d="M293.98,135.05l-7.14,5.35v12.47H304.1V140.4l-7.14-5.35A2.49,2.49,0,0,0,293.98,135.05Z"/><path class="g" d="M304.23,152.99H286.72V140.34l7.19-5.38a2.64,2.64,0,0,1,3.14,0l7.19,5.38v12.65Zm-17.26-.24h17.02V140.47l-7.09-5.31a2.37,2.37,0,0,0-2.84,0h0l-7.09,5.31Z"/><circle class="a" cx="1.69" cy="1.69" r="1.69" transform="translate(293.79 136.71)"/><path class="g" d="M295.48,140.21a1.81,1.81,0,1,1,1.81-1.81A1.81,1.81,0,0,1,295.48,140.21Zm0-3.37a1.56,1.56,0,1,0,1.56,1.56A1.562,1.562,0,0,0,295.48,136.84Z"/><rect class="a" width="2.05" height="3.58" transform="translate(293.23 142.19)"/><path class="g" d="M295.4,145.89h-2.29v-3.83h2.29Zm-2.05-.24h1.8v-3.33h-1.8Z"/><rect class="a" width="2.05" height="3.58" transform="translate(295.68 142.19)"/><path class="g" d="M297.85,145.89h-2.29v-3.83h2.29Zm-2.05-.24h1.8v-3.33h-1.8Z"/><path class="a" d="M278.84,135.22l-7,5.24v12.22h16.92V140.46l-7-5.24A2.43,2.43,0,0,0,278.84,135.22Z"/><path class="g" d="M288.89,152.81H271.72V140.4l7.05-5.28h0a2.58,2.58,0,0,1,3.08,0l7.05,5.28v12.41Zm-16.93-.24h16.68V140.53l-6.95-5.21a2.34,2.34,0,0,0-2.78,0h0l-6.95,5.21v12.04Z"/><circle class="a" cx="1.65" cy="1.65" r="1.65" transform="translate(278.65 136.85)"/><path class="g" d="M280.3,140.28a1.78,1.78,0,1,1,1.78-1.78A1.784,1.784,0,0,1,280.3,140.28Zm0-3.3a1.53,1.53,0,1,0,1.53,1.53A1.536,1.536,0,0,0,280.3,136.98Z"/><rect class="a" width="2.01" height="3.51" transform="translate(278.1 142.22)"/><path class="g" d="M280.23,145.85h-2.25v-3.76h2.25Zm-2.01-.24h1.76v-3.26h-1.76Z"/><rect class="a" width="2.01" height="3.51" transform="translate(280.5 142.22)"/><path class="g" d="M282.63,145.85h-2.25v-3.76h2.25Zm-2.01-.24h1.76v-3.26h-1.76Z"/><path class="a" d="M291.05,132.69h-5.04a.956.956,0,0,1-.95-.95V127.9a.956.956,0,0,1,.95-.95h5.04a.956.956,0,0,1,.95.95v3.84A.95.95,0,0,1,291.05,132.69Z"/><path class="h" d="M291.53,132.81h-6.01a.591.591,0,0,1-.59-.59v-4.8a.591.591,0,0,1,.59-.59h6.01a.591.591,0,0,1,.59.59v4.8A.579.579,0,0,1,291.53,132.81Zm-6.01-5.74a.354.354,0,0,0-.35.35v4.8a.354.354,0,0,0,.35.35h6.01a.354.354,0,0,0,.35-.35v-4.8a.354.354,0,0,0-.35-.35Z"/><path class="a" d="M293.5,149.22h-8.79a2.766,2.766,0,0,1-2.76-2.76V133.81a2.766,2.766,0,0,1,2.76-2.76h8.79a2.766,2.766,0,0,1,2.76,2.76v12.65A2.779,2.779,0,0,1,293.5,149.22Z"/><path class="h" d="M294.9,149.35H283.32a1.477,1.477,0,0,1-1.48-1.48V132.43a1.477,1.477,0,0,1,1.48-1.48H294.9a1.477,1.477,0,0,1,1.48,1.48v15.44A1.49,1.49,0,0,1,294.9,149.35Zm-11.59-18.16a1.229,1.229,0,0,0-1.23,1.23v15.44a1.229,1.229,0,0,0,1.23,1.23h11.58a1.229,1.229,0,0,0,1.23-1.23V132.42a1.229,1.229,0,0,0-1.23-1.23Z"/><path class="a" d="M290.31,132.08h-3.57a.956.956,0,0,1-.95-.95v-2.61a.956.956,0,0,1,.95-.95h3.57a.956.956,0,0,1,.95.95v2.61A.943.943,0,0,1,290.31,132.08Z"/><path class="h" d="M290.8,132.2h-4.53a.591.591,0,0,1-.59-.59v-3.58a.591.591,0,0,1,.59-.59h4.53a.591.591,0,0,1,.59.59v3.58A.591.591,0,0,1,290.8,132.2Zm-4.54-4.52a.354.354,0,0,0-.35.35v3.58a.354.354,0,0,0,.35.35h4.53a.354.354,0,0,0,.35-.35v-3.58a.354.354,0,0,0-.35-.35Z"/><path class="a" d="M168,135.89h-5.04a.956.956,0,0,1-.95-.95V131.1a.956.956,0,0,1,.95-.95H168a.956.956,0,0,1,.95.95v3.84A.956.956,0,0,1,168,135.89Z"/><path class="i" d="M168.48,136.01h-6.01a.591.591,0,0,1-.59-.59v-4.8a.591.591,0,0,1,.59-.59h6.01a.591.591,0,0,1,.59.59v4.8A.579.579,0,0,1,168.48,136.01Zm-6.01-5.74a.354.354,0,0,0-.35.35v4.8a.354.354,0,0,0,.35.35h6.01a.354.354,0,0,0,.35-.35v-4.8a.354.354,0,0,0-.35-.35Z"/><path class="a" d="M170.45,152.42h-8.79a2.766,2.766,0,0,1-2.76-2.76V137.01a2.766,2.766,0,0,1,2.76-2.76h8.79a2.766,2.766,0,0,1,2.76,2.76v12.65A2.779,2.779,0,0,1,170.45,152.42Z"/><path class="i" d="M171.84,152.55H160.26a1.477,1.477,0,0,1-1.48-1.48V135.63a1.477,1.477,0,0,1,1.48-1.48h11.58a1.477,1.477,0,0,1,1.48,1.48v15.44A1.477,1.477,0,0,1,171.84,152.55Zm-11.58-18.16a1.229,1.229,0,0,0-1.23,1.23v15.44a1.229,1.229,0,0,0,1.23,1.23h11.58a1.229,1.229,0,0,0,1.23-1.23V135.62a1.229,1.229,0,0,0-1.23-1.23Z"/><path class="a" d="M167.26,135.28h-3.57a.956.956,0,0,1-.95-.95v-2.61a.956.956,0,0,1,.95-.95h3.57a.956.956,0,0,1,.95.95v2.61A.95.95,0,0,1,167.26,135.28Z"/><path class="i" d="M167.74,135.4h-4.53a.591.591,0,0,1-.59-.59v-3.58a.591.591,0,0,1,.59-.59h4.53a.591.591,0,0,1,.59.59v3.58A.579.579,0,0,1,167.74,135.4Zm-4.53-4.52a.354.354,0,0,0-.35.35v3.58a.354.354,0,0,0,.35.35h4.53a.354.354,0,0,0,.35-.35v-3.58a.354.354,0,0,0-.35-.35Z"/><path class="j" d="M243.88,173.59H118.61a.65.65,0,0,0,0,1.26H243.88a.65.65,0,0,0,0-1.26Z"/><path class="a" d="M243.88,174.97H118.61a.766.766,0,0,1,0-1.5H243.88a.766.766,0,0,1,0,1.5Zm-125.27-1.26c-.2,0-.36.23-.36.5s.16.5.36.5H243.88c.2,0,.36-.23.36-.5s-.16-.5-.36-.5Z"/><path class="j" d="M231.63,179.35h-12.6a.65.65,0,0,0,0,1.26h12.6a.65.65,0,0,0,0-1.26Z"/><path class="a" d="M231.63,180.73H219.04a.766.766,0,0,1,0-1.5h12.59a.766.766,0,0,1,0,1.5Zm-12.59-1.25c-.2,0-.36.23-.36.5s.17.5.36.5h12.59c.2,0,.36-.23.36-.5s-.17-.5-.36-.5Z"/><path class="j" d="M214.61,179.35h-4.6a.65.65,0,0,0,0,1.26h4.6a.65.65,0,0,0,0-1.26Z"/><path class="a" d="M214.61,180.73h-4.6a.766.766,0,0,1,0-1.5h4.6a.766.766,0,0,1,0,1.5Zm-4.59-1.25c-.2,0-.36.23-.36.5s.17.5.36.5h4.6c.2,0,.36-.23.36-.5s-.17-.5-.36-.5Z"/><path class="j" d="M205.25,179.35H174.61a.65.65,0,0,0,0,1.26h30.64a.65.65,0,0,0,0-1.26Z"/><path class="a" d="M205.25,180.73H174.61a.766.766,0,0,1,0-1.5h30.64a.766.766,0,0,1,0,1.5Zm-30.63-1.25c-.2,0-.36.23-.36.5s.16.5.36.5h30.64c.2,0,.36-.23.36-.5s-.16-.5-.36-.5Z"/><path class="j" d="M170.19,179.35H136.32a.65.65,0,0,0,0,1.26h33.87a.65.65,0,0,0,0-1.26Z"/><path class="a" d="M170.19,180.73H136.32a.766.766,0,0,1,0-1.5h33.87a.766.766,0,0,1,0,1.5Zm-33.87-1.25c-.2,0-.36.23-.36.5s.16.5.36.5h33.87c.2,0,.36-.23.36-.5s-.16-.5-.36-.5Z"/><path class="j" d="M212.4,185.11H198.27a.65.65,0,0,0,0,1.26H212.4a.65.65,0,0,0,0-1.26Z"/><path class="a" d="M212.4,186.49H198.27a.766.766,0,0,1,0-1.5H212.4a.766.766,0,0,1,0,1.5Zm-14.13-1.25c-.2,0-.36.23-.36.5s.17.5.36.5H212.4c.2,0,.36-.23.36-.5s-.16-.5-.36-.5Z"/><path class="j" d="M193,185.11H157.6a.65.65,0,0,0,0,1.26H193a.65.65,0,0,0,0-1.26Z"/><path class="a" d="M193,186.49H157.6a.766.766,0,0,1,0-1.5H193a.691.691,0,0,1,.61.75A.7.7,0,0,1,193,186.49Zm-35.4-1.25c-.2,0-.36.23-.36.5s.17.5.36.5H193c.2,0,.36-.23.36-.5s-.16-.5-.36-.5Z"/><path class="j" d="M153.34,185.11h-4.6a.65.65,0,0,0,0,1.26h4.6a.65.65,0,0,0,0-1.26Z"/><path class="a" d="M153.34,186.49h-4.6a.766.766,0,0,1,0-1.5h4.6a.766.766,0,0,1,0,1.5Zm-4.6-1.25c-.2,0-.36.23-.36.5s.17.5.36.5h4.6c.2,0,.36-.23.36-.5s-.16-.5-.36-.5Z"/><path class="k" d="M100.96,169.08H20.85c-.17,0-.31.24-.31.53s.14.53.31.53h80.11c.17,0,.31-.24.31-.53S101.13,169.08,100.96,169.08Z"/><path class="a" d="M100.96,170.27H20.85c-.24,0-.43-.29-.43-.66s.19-.66.43-.66h80.11c.24,0,.43.29.43.66S101.2,170.27,100.96,170.27ZM20.85,169.2c-.08,0-.19.16-.19.41s.11.41.19.41h80.11c.08,0,.19-.16.19-.41s-.11-.41-.19-.41Z"/><path class="k" d="M93.12,174H85.07c-.17,0-.31.24-.31.53s.14.53.31.53h8.05c.17,0,.31-.24.31-.53S93.29,174,93.12,174Z"/><path class="a" d="M93.12,175.19H85.07c-.24,0-.43-.29-.43-.66s.19-.66.43-.66h8.05c.24,0,.43.29.43.66S93.37,175.19,93.12,175.19Zm-8.05-1.07c-.08,0-.19.16-.19.41s.11.41.19.41h8.05c.08,0,.19-.16.19-.41s-.11-.41-.19-.41Z"/><path class="k" d="M82.24,174H79.3c-.17,0-.31.24-.31.53s.14.53.31.53h2.94c.17,0,.31-.24.31-.53S82.41,174,82.24,174Z"/><path class="a" d="M82.24,175.19H79.3c-.24,0-.43-.29-.43-.66s.19-.66.43-.66h2.94c.24,0,.43.29.43.66S82.48,175.19,82.24,175.19Zm-2.94-1.07c-.08,0-.19.16-.19.41s.11.41.19.41h2.94c.08,0,.19-.16.19-.41s-.11-.41-.19-.41Z"/><path class="k" d="M76.25,174H56.66c-.17,0-.31.24-.31.53s.14.53.31.53H76.25c.17,0,.31-.24.31-.53S76.42,174,76.25,174Z"/><path class="a" d="M76.25,175.19H56.66c-.24,0-.43-.29-.43-.66s.19-.66.43-.66H76.25c.24,0,.43.29.43.66S76.5,175.19,76.25,175.19Zm-19.59-1.07c-.08,0-.19.16-.19.41s.11.41.19.41H76.25c.08,0,.19-.16.19-.41s-.11-.41-.19-.41Z"/><path class="k" d="M53.83,174H32.17c-.17,0-.31.24-.31.53s.14.53.31.53H53.83c.17,0,.31-.24.31-.53S54,174,53.83,174Z"/><path class="a" d="M53.83,175.19H32.17c-.24,0-.43-.29-.43-.66s.19-.66.43-.66H53.83c.24,0,.43.29.43.66S54.07,175.19,53.83,175.19Zm-21.66-1.07c-.08,0-.19.16-.19.41s.11.41.19.41H53.83c.08,0,.19-.16.19-.41s-.11-.41-.19-.41Z"/><path class="k" d="M80.82,178.91H71.79c-.17,0-.31.24-.31.53s.14.53.31.53h9.03c.17,0,.31-.24.31-.53S80.99,178.91,80.82,178.91Z"/><path class="a" d="M80.82,180.1H71.79c-.24,0-.43-.29-.43-.66s.19-.66.43-.66h9.03c.24,0,.43.29.43.66S81.07,180.1,80.82,180.1Zm-9.03-1.07c-.08,0-.19.16-.19.41s.11.41.19.41h9.03c.08,0,.19-.16.19-.41s-.11-.41-.19-.41Z"/><path class="k" d="M68.42,178.91H45.78c-.17,0-.31.24-.31.53s.14.53.31.53H68.42c.17,0,.31-.24.31-.53S68.59,178.91,68.42,178.91Z"/><path class="a" d="M68.42,180.1H45.78c-.24,0-.43-.29-.43-.66s.19-.66.43-.66H68.42c.24,0,.43.29.43.66S68.66,180.1,68.42,180.1Zm-22.64-1.07c-.08,0-.19.16-.19.41s.11.41.19.41H68.42c.08,0,.19-.16.19-.41s-.11-.41-.19-.41Z"/><path class="k" d="M43.06,178.91H40.12c-.17,0-.31.24-.31.53s.14.53.31.53h2.94c.17,0,.31-.24.31-.53S43.23,178.91,43.06,178.91Z"/><path class="a" d="M43.06,180.1H40.12c-.24,0-.43-.29-.43-.66s.19-.66.43-.66h2.94c.24,0,.43.29.43.66S43.3,180.1,43.06,180.1Zm-2.94-1.07c-.08,0-.19.16-.19.41s.11.41.19.41h2.94c.08,0,.19-.16.19-.41s-.11-.41-.19-.41Z"/><path class="j" d="M337.4,181.91H256.91c-.17,0-.31.25-.31.56s.14.56.31.56H337.4c.17,0,.31-.25.31-.56S337.57,181.91,337.4,181.91Z"/><path class="a" d="M337.4,183.16H256.91c-.25,0-.43-.29-.43-.68s.19-.68.43-.68H337.4c.25,0,.43.29.43.68S337.65,183.16,337.4,183.16Zm-80.49-1.12c-.08,0-.19.17-.19.44s.11.44.19.44H337.4c.08,0,.19-.17.19-.44s-.11-.44-.19-.44Z"/><path class="j" d="M329.53,187.07h-8.09c-.17,0-.31.25-.31.56s.14.56.31.56h8.09c.17,0,.31-.25.31-.56S329.7,187.07,329.53,187.07Z"/><path class="a" d="M329.53,188.32h-8.09c-.25,0-.43-.29-.43-.68s.19-.68.43-.68h8.09c.25,0,.43.29.43.68S329.78,188.32,329.53,188.32Zm-8.09-1.12c-.08,0-.19.17-.19.44s.11.44.19.44h8.09c.08,0,.19-.17.19-.44s-.11-.44-.19-.44Z"/><path class="j" d="M318.59,187.07h-2.95c-.17,0-.31.25-.31.56s.14.56.31.56h2.95c.17,0,.31-.25.31-.56S318.77,187.07,318.59,187.07Z"/><path class="a" d="M318.59,188.32h-2.95c-.25,0-.43-.29-.43-.68s.19-.68.43-.68h2.95c.25,0,.43.29.43.68S318.84,188.32,318.59,188.32Zm-2.95-1.12c-.08,0-.19.17-.19.44s.11.44.19.44h2.95c.08,0,.19-.17.19-.44s-.11-.44-.19-.44Z"/><path class="j" d="M312.58,187.07H292.9c-.17,0-.31.25-.31.56s.14.56.31.56h19.68c.17,0,.31-.25.31-.56S312.75,187.07,312.58,187.07Z"/><path class="a" d="M312.58,188.32H292.9c-.25,0-.43-.29-.43-.68s.19-.68.43-.68h19.68c.25,0,.43.29.43.68S312.83,188.32,312.58,188.32ZM292.9,187.2c-.08,0-.19.17-.19.44s.11.44.19.44h19.68c.08,0,.19-.17.19-.44s-.11-.44-.19-.44Z"/><path class="j" d="M290.05,187.07H268.29c-.17,0-.31.25-.31.56s.14.56.31.56h21.76c.17,0,.31-.25.31-.56S290.23,187.07,290.05,187.07Z"/><path class="a" d="M290.05,188.32H268.29c-.25,0-.43-.29-.43-.68s.19-.68.43-.68h21.76c.25,0,.43.29.43.68S290.3,188.32,290.05,188.32Zm-21.76-1.12c-.08,0-.19.17-.19.44s.11.44.19.44h21.76c.08,0,.19-.17.19-.44s-.11-.44-.19-.44Z"/><path class="j" d="M317.17,192.23h-9.08c-.17,0-.31.25-.31.56s.14.56.31.56h9.08c.17,0,.31-.25.31-.56S317.35,192.23,317.17,192.23Z"/><path class="a" d="M317.17,193.48h-9.08c-.25,0-.43-.29-.43-.68s.19-.68.43-.68h9.08c.25,0,.43.29.43.68S317.42,193.48,317.17,193.48Zm-9.07-1.12c-.08,0-.19.17-.19.44s.11.44.19.44h9.08c.08,0,.19-.17.19-.44s-.11-.44-.19-.44Z"/><path class="j" d="M304.71,192.23H281.96c-.17,0-.31.25-.31.56s.14.56.31.56h22.75c.17,0,.31-.25.31-.56S304.88,192.23,304.71,192.23Z"/><path class="a" d="M304.71,193.48H281.96c-.25,0-.43-.29-.43-.68s.19-.68.43-.68h22.75c.25,0,.43.29.43.68S304.95,193.48,304.71,193.48Zm-22.75-1.12c-.08,0-.19.17-.19.44s.11.44.19.44h22.75c.08,0,.19-.17.19-.44s-.11-.44-.19-.44Z"/><path class="j" d="M279.23,192.23h-2.95c-.17,0-.31.25-.31.56s.14.56.31.56h2.95c.17,0,.31-.25.31-.56S279.4,192.23,279.23,192.23Z"/><path class="a" d="M279.23,193.48h-2.95c-.25,0-.43-.29-.43-.68s.19-.68.43-.68h2.95c.25,0,.43.29.43.68S279.48,193.48,279.23,193.48Zm-2.95-1.12c-.08,0-.19.17-.19.44s.11.44.19.44h2.95c.08,0,.19-.17.19-.44s-.11-.44-.19-.44Z"/><path class="a" d="M161.51,129.89l1.64-.33h2.31a4,4,0,0,1-1.11.97s2.89-.7,2.85-.49-1.16,2.24-1.65,2.33a2.972,2.972,0,0,0-1.04.52,21.722,21.722,0,0,1-3.27-.58l-.31-1.08Z"/><path class="i" d="M164.54,133.02l-.05-.01a19.63,19.63,0,0,1-3.31-.6l-.05-.02-.34-1.18.63-1.44,1.7-.34h2.58l-.14.19a3.253,3.253,0,0,1-.63.64c2.17-.5,2.29-.38,2.34-.33l.05.05-.01.08c-.04.18-1.16,2.32-1.75,2.43a3.136,3.136,0,0,0-.99.49Zm-3.2-.8a23.176,23.176,0,0,0,3.14.55,2.991,2.991,0,0,1,1.05-.51c.36-.07,1.3-1.65,1.51-2.13a24.068,24.068,0,0,0-2.66.52l-.76.18.66-.41a3.892,3.892,0,0,0,.91-.75h-2.05l-1.55.31-.54,1.24Z"/><path class="a" d="M150.06,117.89l2.82,22.21-2.68.46-3.68-20.99Z"/><path class="i" d="M150.1,140.7l-3.72-21.2,3.78-1.79,2.86,22.49Zm-3.44-21.06,3.64,20.77,2.44-.42-2.79-21.92Z"/><path class="a" d="M143.38,114.53l-5.51,2.53v20.2h11.99l.2-19.93Z"/><path class="i" d="M149.98,137.38H137.74v-20.4l.07-.03,5.57-2.55.05.02,6.75,2.83v.08Zm-11.99-.25h11.75l.2-19.72-6.55-2.75-5.4,2.47Z"/><path class="a" d="M147.74,116.84h-6.13l-2.83-13.58,9.92-3.63Z"/><path class="i" d="M147.86,116.96h-6.35l-2.88-13.78,10.2-3.74Zm-6.15-.25h5.92l.94-16.91-9.65,3.54Z"/><path class="a" d="M140.49,111.46h.99l-.29-2.01.63-.94,1.09,1.94.34-2.7,5.1-2.77"/><path class="i" d="M141.62,111.58h-1.13v-.25h.85l-.27-1.91.76-1.15,1,1.79.3-2.39,5.16-2.8.12.22-5.05,2.74-.38,3-1.17-2.09-.49.74Z"/><path class="a" d="M139.57,118.3l11.17,10.31,10.77,1.28-.62,1.25.34,1.17-12.12-.82-10.22-8.85"/><path class="i" d="M161.4,132.45l-12.34-.84-.03-.03-10.22-8.85.16-.19,10.19,8.83,11.91.81-.31-1.05.56-1.14-10.63-1.26-.03-.03-11.17-10.31.16-.18L150.8,128.5l10.9,1.28-.67,1.37Z"/><path class="a" d="M137.87,137.26l-.12,32.22h3.08l2.62-27.89,1.71.06,2.87,27.88,2.99-.05-1.16-32.22Z"/><path class="i" d="M147.92,169.65l-2.87-27.88-1.48-.06-2.62,27.89h-3.32l.12-32.47h12.23l1.17,32.47Zm-4.58-28.19,1.93.08.01.11,2.86,27.76,2.75-.04-1.15-31.98H137.99l-.12,31.98h2.85Z"/><path class="a" d="M153.13,142.21l-2.28.43a.5.5,0,0,1-.59-.41l-.19-1.02a.513.513,0,0,1,.41-.6l2.28-.43a.5.5,0,0,1,.59.41l.19,1.02A.518.518,0,0,1,153.13,142.21Z"/><path class="i" d="M150.76,142.77a.662.662,0,0,1-.36-.11.641.641,0,0,1-.27-.41l-.19-1.02a.63.63,0,0,1,.51-.74l2.28-.43a.6.6,0,0,1,.47.1.641.641,0,0,1,.27.41l.19,1.02a.63.63,0,0,1-.51.74l-2.28.43C150.84,142.76,150.8,142.77,150.76,142.77Zm2.09-2.48a.17.17,0,0,0-.07.01l-2.28.43a.391.391,0,0,0-.31.46l.19,1.02a.421.421,0,0,0,.16.25.37.37,0,0,0,.29.06l2.28-.43a.391.391,0,0,0,.31-.46l-.19-1.02a.421.421,0,0,0-.16-.25A.381.381,0,0,0,152.85,140.29Z"/><path class="a" d="M142.74,117.05l2.52,2.51,1.6-2.51"/><path class="i" d="M145.28,119.75l-2.63-2.61.17-.18,2.42,2.4,1.52-2.38.2.14Z"/><path class="a" d="M137.75,169.48h4.27l2.36,2.18h-6.63Z"/><path class="i" d="M144.7,171.78h-7.07v-2.42h4.45Zm-6.83-.25h6.2l-2.09-1.93h-4.1v1.93Z"/><path class="a" d="M147.92,169.48h4.28l2.36,2.18h-6.64Z"/><path class="i" d="M154.87,171.78H147.8v-2.42h4.45Zm-6.83-.25h6.2l-2.09-1.93h-4.1v1.93Z"/><path class="a" d="M183.21,118.32l-2.81,8.71-8.34,2.21.76.61-.11,1.69,11.34-1.61"/><path class="i" d="M172.58,131.69l.12-1.78-.91-.73,8.51-2.25,2.8-8.64.23.07-2.84,8.77-.06.02-8.11,2.15.63.49-.1,1.61,11.18-1.6.04.25Z"/><path class="a" d="M188.05,114.03l-4.84,3.14v22h12.42v-22Z"/><path class="i" d="M195.75,139.3H183.09V117.1l4.95-3.21.06.02,7.65,3.17V139.3Zm-12.41-.25h12.17v-21.8l-7.44-3.08-4.73,3.06Z"/><path class="a" d="M188.19,116.25h0a3.432,3.432,0,0,1-3.41-3.06l-.73-5.5h8l-.44,5.36A3.424,3.424,0,0,1,188.19,116.25Z"/><path class="i" d="M188.19,116.37a3.544,3.544,0,0,1-3.53-3.17l-.75-5.64h8.27l-.45,5.49A3.553,3.553,0,0,1,188.19,116.37Zm-4-8.56.71,5.36a3.308,3.308,0,0,0,6.59-.14l.42-5.23h-7.72Z"/><path class="a" d="M188.3,102.62s-4.26-1.77-6.17,1.33,1.89,5.9,6.66,4.41c0,0,.94.57.8,2.37,0,0,.6.17.86-1.23s1.53-.62,1.37,1.84c0,0,.52-3.63.89-3.99S193.3,103.56,188.3,102.62Z"/><path class="i" d="M191.93,111.36l-.24-.03c.11-1.62-.41-2.36-.71-2.39-.19-.02-.34.2-.41.59a1.807,1.807,0,0,1-.62,1.25.494.494,0,0,1-.4.08l-.1-.03.01-.1a2.419,2.419,0,0,0-.7-2.23c-2.72.83-5.46.31-6.68-1.26a2.829,2.829,0,0,1-.06-3.35c1.89-3.07,6.05-1.49,6.31-1.38,3.28.62,4.24,2.29,4.52,3.23a2.041,2.041,0,0,1-.07,1.71A17.335,17.335,0,0,0,191.93,111.36Zm-3.13-3.13.05.03a2.459,2.459,0,0,1,.87,2.35.344.344,0,0,0,.11-.05c.15-.1.37-.37.49-1.08.15-.79.56-.8.68-.79.37.05.73.53.88,1.38a9.646,9.646,0,0,1,.73-2.81,1.938,1.938,0,0,0,.01-1.46c-.27-.89-1.19-2.47-4.34-3.06l-.02-.01c-.04-.02-4.18-1.69-6.02,1.28a2.559,2.559,0,0,0,.04,3.07c.96,1.23,3.39,2.12,6.47,1.16Z"/><path class="a" d="M190.72,115.14l4.91,2.03,7.46,9.16-6.62,11.24-1.12-.99-.88-.31,4.44-9.28-4.65-5.51"/><path class="i" d="M196.5,137.77l-1.21-1.08-.99-.35,4.46-9.34-4.6-5.44.19-.16,4.7,5.57-4.41,9.23.79.29,1.01.89,6.5-11.04-7.39-9.07-4.88-2.02.1-.23,4.95,2.07,7.52,9.23-.04.07Z"/><path class="a" d="M195.66,139.36l.12,31.82h-3.21l-2.74-27.55-1.77.07-3,27.52-3.11-.04,1.21-31.82Z"/><path class="i" d="M185.17,171.34l-3.35-.05,1.22-32.06h12.74l.13,32.06h-3.45l-2.73-27.54-1.55.06Zm-3.1-.28,2.88.04,2.99-27.51,2-.08.01.12,2.72,27.43h2.98l-.12-31.57H183.27Z"/><path class="a" d="M195.78,171.18h-4.46l-2.46,2.14h6.92Z"/><path class="i" d="M195.91,173.44h-7.37l2.74-2.39h4.63v2.39Zm-6.72-.24h6.47v-1.9h-4.29Z"/><path class="a" d="M185.17,171.18h-4.45l-2.46,2.14h6.91Z"/><path class="i" d="M185.3,173.44h-7.37l2.74-2.39h4.63v2.39Zm-6.71-.24h6.47v-1.9h-4.29Z"/><path class="a" d="M195.01,136.07l-1.76,1.02-1.7,2.41s.41.37,1.25-.17-1.25,1.87-1.25,1.87a7.634,7.634,0,0,1,2.14-.41c.54.1,1.36.04,1.87-1.35a4.089,4.089,0,0,1,.94-1.72Z"/><path class="i" d="M191.17,141.45l.29-.33c.52-.59,1.06-1.26,1.3-1.61-.84.48-1.27.1-1.29.09l-.08-.07,1.8-2.53,1.85-1.07,1.64,1.81-.11.08a4.224,4.224,0,0,0-.9,1.66c-.41,1.13-1.09,1.61-2,1.43a7.1,7.1,0,0,0-2.08.41Zm1.81-2.32a.127.127,0,0,1,.11.05c.07.08.18.2-1.17,1.78a5.329,5.329,0,0,1,1.79-.29c.79.15,1.36-.27,1.73-1.28a5.235,5.235,0,0,1,.88-1.68l-1.33-1.48-1.65.95-1.6,2.28a1.112,1.112,0,0,0,1.01-.23A.407.407,0,0,1,192.98,139.13Z"/><path class="a" d="M172.58,129.82l-2.17-1.2-3.63-.17s-.34.53,1.48.74,1.42.2,1.42.2a40.227,40.227,0,0,1-4.46.7s.83,1.67,2.11,1.85a27.7,27.7,0,0,0,5.14-.54Z"/><path class="i" d="M167.83,132.1a3.837,3.837,0,0,1-.52-.03c-1.32-.19-2.16-1.85-2.2-1.92l-.08-.17.19-.01a35.876,35.876,0,0,0,3.79-.57c-.19-.02-.44-.05-.76-.09-.91-.1-1.44-.31-1.57-.6a.334.334,0,0,1,.01-.32l.04-.06h.07l3.68.18,2.24,1.24-.13,1.76-.09.02A37.072,37.072,0,0,1,167.83,132.1Zm-2.41-1.9a3.194,3.194,0,0,0,1.92,1.62,26.008,26.008,0,0,0,5.01-.53l.11-1.41-2.08-1.15-3.49-.16c0,.01.01.02.01.03.05.09.28.33,1.38.45,1.57.18,1.57.18,1.56.33,0,.03-.02.12-.16.12h-.01A36.61,36.61,0,0,1,165.42,130.2Z"/><path class="a" d="M308.39,110.53l-3.61,11.15-10.67,2.82.98.78-.14,2.17,14.51-2.07"/><path class="h" d="M294.82,127.6l.14-2.26-1.12-.89,10.85-2.88,3.58-11.08.24.08-3.63,11.21-.06.02-10.44,2.76.84.67-.14,2.08,14.37-2.05.03.24Z"/><path class="a" d="M314.58,105.04l-6.19,4.01v28.17h15.9V109.05Z"/><path class="h" d="M324.41,137.34H308.27V108.98l6.3-4.08.06.02,9.78,4.04Zm-15.9-.24h15.65V109.13l-9.57-3.96-6.08,3.94Z"/><path class="a" d="M314.77,107.87h0a4.386,4.386,0,0,1-4.36-3.91l-.94-7.05h10.24l-.56,6.86A4.394,4.394,0,0,1,314.77,107.87Z"/><path class="h" d="M314.77,108a4.508,4.508,0,0,1-4.49-4.02l-.96-7.18h10.51l-.57,6.99A4.519,4.519,0,0,1,314.77,108ZM309.6,97.04l.92,6.91a4.267,4.267,0,0,0,8.5-.17l.55-6.73H309.6Z"/><path class="a" d="M314.9,90.43s-5.45-2.27-7.9,1.7,2.41,7.55,8.52,5.65c0,0,1.21.73,1.02,3.04,0,0,.77.22,1.1-1.57s1.96-.79,1.75,2.35c0,0,.66-4.64,1.14-5.11S321.3,91.63,314.9,90.43Z"/><path class="h" d="M319.51,101.61l-.24-.03c.13-1.93-.47-3.04-.94-3.1-.26-.04-.47.27-.56.78a2.26,2.26,0,0,1-.77,1.57.645.645,0,0,1-.48.1l-.1-.03.01-.1a3.188,3.188,0,0,0-.92-2.89c-3.47,1.06-6.97.41-8.53-1.6a3.577,3.577,0,0,1-.07-4.25c2.42-3.92,7.74-1.87,8.04-1.75,4.18.79,5.41,2.92,5.77,4.11a2.573,2.573,0,0,1-.09,2.15C320.29,96.89,319.77,99.83,319.51,101.61Zm-3.97-3.97.05.03c.05.03,1.23.77,1.09,3.02a.485.485,0,0,0,.19-.08c.2-.13.48-.48.65-1.4.12-.67.44-1.03.84-.98.5.06.97.79,1.12,1.98a14.047,14.047,0,0,1,.96-3.82,2.458,2.458,0,0,0,.02-1.9c-.34-1.14-1.53-3.18-5.59-3.94l-.02-.01c-.05-.02-5.38-2.18-7.75,1.65a3.307,3.307,0,0,0,.06,3.97c1.23,1.59,4.36,2.73,8.32,1.5Z"/><path class="a" d="M318,106.45l6.29,2.6,9.55,11.73-8.48,14.39-1.43-1.27-1.13-.4,5.68-11.88-5.95-7.05"/><path class="h" d="M325.39,135.36l-1.53-1.35-1.23-.44,5.7-11.93-5.89-6.99.18-.16,6,7.11-.03.07-5.62,11.76,1.04.38,1.32,1.17,8.36-14.19-9.48-11.64-6.26-2.59.1-.23,6.33,2.64,9.61,11.8-.04.07Z"/><path class="a" d="M324.32,137.46l.16,40.73h-4.11l-3.5-35.26-2.28.09-3.83,35.22-3.99-.05,1.55-40.73Z"/><path class="h" d="M310.87,178.37l-4.23-.06,1.56-40.97h16.24l.16,40.98h-4.35l-3.5-35.25-2.05.08Zm-3.97-.3,3.75.05,3.83-35.22,2.5-.1.01.12,3.49,35.15h3.88l-.16-40.48H308.44Z"/><path class="a" d="M324.48,178.19h-5.71l-3.15,2.75h8.86Z"/><path class="h" d="M324.6,181.06h-9.31l3.43-2.99h5.88Zm-8.65-.25h8.4v-2.5h-5.54Z"/><path class="a" d="M310.9,178.19h-5.7l-3.15,2.75h8.85Z"/><path class="h" d="M311.02,181.06h-9.31l3.43-2.99h5.87v2.99Zm-8.65-.25h8.4v-2.5h-5.54Z"/><path class="a" d="M323.49,133.25l-2.26,1.3-2.17,3.08s.52.48,1.61-.22-1.61,2.39-1.61,2.39a9.419,9.419,0,0,1,2.74-.52c.7.14,1.74.05,2.39-1.73a5.194,5.194,0,0,1,1.2-2.2Z"/><path class="h" d="M318.68,140.06l.29-.33a25.8,25.8,0,0,0,1.75-2.19c-1.14.72-1.71.21-1.74.19l-.08-.07,2.27-3.21,2.34-1.35,2.05,2.27-.11.08a5.277,5.277,0,0,0-1.16,2.14c-.52,1.42-1.37,2.04-2.53,1.81a9.285,9.285,0,0,0-2.67.52Zm2.21-2.86a.146.146,0,0,1,.12.05c.07.08.21.24-1.58,2.32a7.34,7.34,0,0,1,2.39-.4c1.03.2,1.77-.34,2.25-1.66a6.3,6.3,0,0,1,1.14-2.16l-1.75-1.94-2.15,1.24-2.08,2.95c.18.09.62.19,1.36-.29A.837.837,0,0,1,320.89,137.2Z"/><path class="a" d="M294.78,125.24,292,123.71l-4.64-.21s-.44.68,1.89.94,1.82.26,1.82.26a53.082,53.082,0,0,1-5.71.9s1.07,2.14,2.7,2.37,6.58-.7,6.58-.7Z"/><path class="h" d="M288.7,128.13a4.245,4.245,0,0,1-.66-.04c-1.68-.23-2.74-2.34-2.79-2.43l-.08-.17.19-.01a47.74,47.74,0,0,0,5.07-.77c-.27-.03-.65-.08-1.18-.14-1.15-.13-1.82-.38-1.99-.75a.4.4,0,0,1,.01-.38l.04-.06h.07l4.7.23,2.85,1.57-.17,2.2-.09.02A48.421,48.421,0,0,1,288.7,128.13Zm-3.15-2.42c.29.5,1.23,1.96,2.51,2.14,1.47.21,5.76-.55,6.45-.68l.14-1.85-2.69-1.48-4.52-.21a.509.509,0,0,0,.02.09c.06.13.37.44,1.79.6,1.98.23,1.98.23,1.97.38,0,.05-.02.13-.17.12A53,53,0,0,1,285.55,125.71Z"/><path class="a" d="M269.15,152.85l.67,25.82h1.47v-1.96l8.03,1.96h3.13s1.04-1.23-1.35-2.21-8.16-3.86-8.16-3.86l1.23-19.75Z"/><path class="h" d="M282.51,178.79h-3.18l-7.91-1.93v1.93h-1.71v-.12l-.68-25.94h5.29l-.01.13-1.22,19.67c.68.34,5.86,2.91,8.07,3.82.94.39,1.49.86,1.62,1.41a1.191,1.191,0,0,1-.22.99Zm-11.34-2.24,8.19,2h3.04a.9.9,0,0,0,.14-.73c-.11-.46-.62-.89-1.47-1.24-2.37-.97-8.11-3.84-8.16-3.87l-.07-.04v-.08l1.22-19.62h-4.77l.67,25.57h1.23v-1.99Z"/><path class="a" d="M269.69,173.4s4.55,2.21,5.29,2.15,2.52.41,1.2-1.36"/><path class="h" d="M275.84,175.68c-.12,0-.25-.01-.37-.01a3.823,3.823,0,0,0-.48,0h-.04c-.84,0-4.85-1.94-5.32-2.16l.11-.22c1.82.88,4.7,2.17,5.23,2.13.15-.01.32,0,.51,0,.41.02.92.04,1.02-.17.05-.09.06-.35-.43-1l.2-.15c.45.6.59,1,.45,1.26S276.23,175.68,275.84,175.68Z"/><path class="a" d="M262.97,154.16l.67,25.82h1.47v-1.96l8.03,1.96h3.13s1.04-1.23-1.35-2.21-8.16-3.86-8.16-3.86l1.23-19.75Z"/><path class="h" d="M276.34,180.1h-3.18l-7.91-1.93v1.93h-1.71v-.12l-.68-25.94h5.29l-.01.13-1.22,19.66c.68.34,5.86,2.91,8.07,3.82.94.39,1.49.86,1.62,1.41a1.191,1.191,0,0,1-.22.99ZM265,177.86l8.19,2h3.04a.9.9,0,0,0,.14-.73c-.11-.46-.62-.89-1.47-1.24-2.37-.97-8.11-3.84-8.16-3.87l-.07-.04v-.08l1.22-19.62h-4.77l.67,25.57H265Z"/><path class="a" d="M263.51,174.7s4.55,2.21,5.29,2.15,2.52.41,1.2-1.36"/><path class="h" d="M269.67,176.99c-.12,0-.25-.01-.37-.01a3.823,3.823,0,0,0-.48,0h-.04c-.84,0-4.85-1.94-5.32-2.16l.11-.22a29.559,29.559,0,0,0,5.2,2.14h.03c.15-.01.32,0,.51,0,.41.02.92.04,1.02-.17.05-.09.06-.35-.43-1l.2-.15c.45.6.59,1,.45,1.26S270.05,176.99,269.67,176.99Z"/><path class="a" d="M272.1,112.38h-9.51a1.874,1.874,0,0,1-1.87-1.87v-15a4.882,4.882,0,0,1,4.87-4.87h3.52a4.882,4.882,0,0,1,4.87,4.87v15A1.889,1.889,0,0,1,272.1,112.38Z"/><path class="h" d="M272.27,112.5h-9.86a1.82,1.82,0,0,1-1.82-1.82V95.05a4.532,4.532,0,0,1,4.53-4.53h4.44a4.532,4.532,0,0,1,4.53,4.53v15.63A1.814,1.814,0,0,1,272.27,112.5Zm-7.14-21.73a4.285,4.285,0,0,0-4.28,4.28v15.63a1.566,1.566,0,0,0,1.57,1.57h9.86a1.566,1.566,0,0,0,1.57-1.57V95.05a4.285,4.285,0,0,0-4.28-4.28h-4.44Z"/><rect class="a" width="2.52" height="4.32" transform="translate(266.67 108.05)"/><path class="h" d="M269.31,112.5h-2.77v-4.57h2.77Zm-2.52-.25h2.27v-4.08h-2.27Z"/><path class="a" d="M276.43,137.27H275.4a1.43,1.43,0,0,1-1.43-1.43V132.5a1.43,1.43,0,0,1,1.43-1.43h1.03a1.43,1.43,0,0,1,1.43,1.43v3.34A1.423,1.423,0,0,1,276.43,137.27Z"/><path class="h" d="M276.57,137.39h-1.31a1.425,1.425,0,0,1-1.42-1.42v-3.61a1.425,1.425,0,0,1,1.42-1.42h1.31a1.425,1.425,0,0,1,1.42,1.42v3.61A1.419,1.419,0,0,1,276.57,137.39Zm-1.31-6.2a1.172,1.172,0,0,0-1.17,1.17v3.61a1.172,1.172,0,0,0,1.17,1.17h1.31a1.172,1.172,0,0,0,1.17-1.17v-3.61a1.172,1.172,0,0,0-1.17-1.17Z"/><path class="a" d="M269.63,94.82h-3.62a2.561,2.561,0,0,0-2.55,2.55V99.5a3.4,3.4,0,0,0-.65-.35c-.51,0-.55,1.15-.55,2.24s.41,1.97.92,1.97a.56.56,0,0,0,.27-.08v2.85a2.561,2.561,0,0,0,2.55,2.55h3.62a2.561,2.561,0,0,0,2.55-2.55V97.38A2.548,2.548,0,0,0,269.63,94.82Z"/><path class="h" d="M269.63,108.79h-3.62a2.676,2.676,0,0,1-2.67-2.67v-2.66a.772.772,0,0,1-.15.02c-.59,0-1.05-.92-1.05-2.09,0-1.24.05-2.36.67-2.36a1.423,1.423,0,0,1,.52.25V97.37A2.676,2.676,0,0,1,266,94.7h3.62a2.676,2.676,0,0,1,2.67,2.67v8.75A2.661,2.661,0,0,1,269.63,108.79Zm-6.04-5.75v3.08a2.422,2.422,0,0,0,2.42,2.42h3.62a2.422,2.422,0,0,0,2.42-2.42V97.37a2.422,2.422,0,0,0-2.42-2.42h-3.62a2.422,2.422,0,0,0-2.42,2.42v2.36l-.19-.12a3.281,3.281,0,0,0-.59-.33c-.42,0-.42,1.43-.42,2.11,0,1.1.41,1.85.8,1.85a.325.325,0,0,0,.2-.07Z"/><path class="a" d="M268.07,94.2s-.46,3.02-4.61,3.84C263.46,98.04,261.87,93.84,268.07,94.2Z"/><path class="h" d="M263.39,98.18l-.04-.1a3.111,3.111,0,0,1,.28-2.71c.73-.99,2.22-1.43,4.45-1.3l.13.01-.02.13c0,.03-.52,3.11-4.7,3.94Zm3.95-3.88c-1.74,0-2.92.41-3.51,1.22a2.8,2.8,0,0,0-.28,2.38c3.42-.72,4.22-3,4.37-3.58A5.718,5.718,0,0,0,267.34,94.3Z"/><path class="a" d="M267.74,94.2s.44,3.02,4.41,3.84C272.14,98.04,273.67,93.84,267.74,94.2Z"/><path class="h" d="M272.22,98.18l-.1-.02c-4-.83-4.5-3.91-4.5-3.94l-.02-.13.13-.01c2.09-.13,3.51.29,4.22,1.25a3.2,3.2,0,0,1,.31,2.76Zm-4.33-3.87a5.084,5.084,0,0,0,4.17,3.58,2.91,2.91,0,0,0-.31-2.43C271.11,94.61,269.81,94.22,267.89,94.31Z"/><path class="a" d="M278.54,133.46l-4.73.62-2.89-22.24a1.748,1.748,0,0,1,1.51-1.96l1.26-.16a1.748,1.748,0,0,1,1.96,1.51Z"/><path class="h" d="M273.7,134.21l-2.93-22.52a1.713,1.713,0,0,1,1.48-1.92l1.58-.21a1.713,1.713,0,0,1,1.92,1.48l2.93,22.52Zm.35-24.41a1.21,1.21,0,0,0-.19.01l-1.58.21a1.463,1.463,0,0,0-1.26,1.64l2.9,22.28,4.49-.58-2.9-22.28A1.467,1.467,0,0,0,274.05,109.8Z"/><ellipse class="l" cx="0.39" cy="0.63" rx="0.39" ry="0.63" transform="translate(266.1 99.51)"/><path class="h" d="M266.49,100.9c-.29,0-.51-.33-.51-.76s.22-.76.51-.76.51.33.51.76S266.78,100.9,266.49,100.9Zm0-1.27c-.13,0-.26.22-.26.51s.14.51.26.51.27-.21.27-.51S266.61,99.63,266.49,99.63Z"/><ellipse class="l" cx="0.39" cy="0.63" rx="0.39" ry="0.63" transform="translate(268.96 99.51)"/><path class="h" d="M269.35,100.9c-.29,0-.51-.33-.51-.76s.22-.76.51-.76.51.33.51.76S269.64,100.9,269.35,100.9Zm0-1.27c-.13,0-.26.22-.26.51s.14.51.26.51.26-.22.26-.51S269.48,99.63,269.35,99.63Z"/><path class="a" d="M268.07,100.77s.95,2.02,1.28,2.66-1.28.7-1.28.7"/><path class="h" d="M268.07,104.26l-.01-.25c.39-.01,1.06-.12,1.19-.34.02-.03.04-.08-.01-.18-.33-.63-1.28-2.65-1.28-2.67l.22-.1c.01.02.96,2.03,1.28,2.66a.412.412,0,0,1,0,.41C269.23,104.2,268.19,104.25,268.07,104.26Z"/><path class="a" d="M266.1,105.45s2.36,1.07,3.93,0"/><path class="h" d="M268.31,106.05a6.1,6.1,0,0,1-2.26-.49l.1-.22c.02.01,2.32,1.03,3.8.01l.14.2A3.053,3.053,0,0,1,268.31,106.05Z"/><path class="a" d="M273.96,109.83h-4.19a2.04,2.04,0,0,1-3.7,0H261.5a1.716,1.716,0,0,0-1.71,1.71v23.49h15.86V111.54A1.686,1.686,0,0,0,273.96,109.83Z"/><path class="h" d="M275.79,135.15H259.68V111.54a1.831,1.831,0,0,1,1.83-1.83h4.64l.03.07a1.919,1.919,0,0,0,3.48,0l.03-.07h4.26a1.831,1.831,0,0,1,1.83,1.83v23.61Zm-15.86-.25h15.62V111.54a1.583,1.583,0,0,0-1.58-1.58h-4.11a2.168,2.168,0,0,1-3.86,0h-4.49a1.583,1.583,0,0,0-1.58,1.58V134.9Z"/><path class="a" d="M271.18,120.54l-.74.74a1.455,1.455,0,0,1-2.06,0l-8.32-8.32a1.455,1.455,0,0,1,0-2.06l.74-.74a1.455,1.455,0,0,1,2.06,0l8.32,8.32A1.455,1.455,0,0,1,271.18,120.54Z"/><path class="h" d="M269.41,121.89a1.438,1.438,0,0,1-1.02-.42l-8.52-8.52a1.449,1.449,0,0,1,0-2.04l.94-.94a1.449,1.449,0,0,1,2.04,0l8.52,8.52a1.449,1.449,0,0,1,0,2.04l-.94.94A1.438,1.438,0,0,1,269.41,121.89Zm-7.58-12.09a1.181,1.181,0,0,0-.84.35l-.94.94a1.189,1.189,0,0,0,0,1.69l8.52,8.52a1.227,1.227,0,0,0,1.69,0l.94-.94a1.189,1.189,0,0,0,0-1.69l-8.52-8.52A1.221,1.221,0,0,0,261.83,109.8Z"/><path class="a" d="M270.05,117.57l11.37,5.66-1.76,3.54-11.37-5.66"/><path class="h" d="M279.71,126.94l-11.48-5.72.11-.22,11.26,5.61,1.66-3.33L270,117.68l.11-.22,11.48,5.71Z"/><path class="a" d="M275.67,158.02h-14.2l-1.67-23h15.87Z"/><path class="h" d="M275.79,158.14H261.35l-.01-.11-1.67-23.13h16.12v23.24Zm-14.21-.25h13.96V135.14H259.93Z"/><path class="a" d="M281.18,123.81l1.96.4,2.56,1.04a4.615,4.615,0,0,1-1.64.51s3.5.58,3.36.78-2.23,1.81-2.81,1.69a3.819,3.819,0,0,0-1.37.07,27.039,27.039,0,0,1-3.38-2.08l.12-1.27Z"/><path class="h" d="M283.2,128.42l-.04-.02a25.3,25.3,0,0,1-3.41-2.11l-.04-.04.13-1.37,1.3-1.21,2.02.41,2.81,1.14-.21.13a4.418,4.418,0,0,1-1.03.4c2.69.47,2.77.65,2.79.72l.03.06-.04.08c-.12.17-2.28,1.88-2.94,1.74a3.6,3.6,0,0,0-1.32.07Zm-3.23-2.26a28.381,28.381,0,0,0,3.27,2,3.77,3.77,0,0,1,1.38-.06c.46.09,2.2-1.17,2.61-1.55a26.594,26.594,0,0,0-3.2-.66l-.8-.13.81-.11a5.022,5.022,0,0,0,1.36-.38l-2.31-.94-1.87-.38-1.13,1.06Z"/><ellipse class="a" cx="3.95" cy="7.07" rx="3.95" ry="7.07" transform="translate(220.37 134.22)"/><path class="m" d="M224.32,148.48c-2.25,0-4.07-3.23-4.07-7.2s1.83-7.2,4.07-7.2,4.07,3.23,4.07,7.2S226.57,148.48,224.32,148.48Zm0-14.15c-2.11,0-3.83,3.12-3.83,6.95s1.72,6.95,3.83,6.95,3.83-3.12,3.83-6.95S226.43,134.33,224.32,134.33Z"/><line class="a" y2="12.99" transform="translate(224.32 142.36)"/><rect class="m" width="0.25" height="12.99" transform="translate(224.2 142.36)"/><ellipse class="a" cx="1.2" cy="4.21" rx="1.2" ry="4.21" transform="translate(209.91 142.78)"/><path class="m" d="M211.11,151.32c-.86,0-1.32-2.23-1.32-4.33s.46-4.33,1.32-4.33,1.32,2.23,1.32,4.33S211.97,151.32,211.11,151.32Zm0-8.42c-.51,0-1.08,1.68-1.08,4.08s.57,4.08,1.08,4.08,1.08-1.68,1.08-4.08S211.62,142.9,211.11,142.9Z"/><rect class="m" width="0.25" height="7.72" transform="translate(210.99 147.62)"/><ellipse class="a" cx="1.2" cy="2.8" rx="1.2" ry="2.8" transform="translate(107.49 147.86)"/><path class="m" d="M108.69,153.58c-.74,0-1.32-1.28-1.32-2.92s.58-2.92,1.32-2.92,1.32,1.28,1.32,2.92S109.43,153.58,108.69,153.58Zm0-5.59c-.52,0-1.08,1.08-1.08,2.68s.56,2.68,1.08,2.68,1.08-1.08,1.08-2.68S109.21,147.99,108.69,147.99Z"/><rect class="m" width="0.25" height="5.14" transform="translate(108.56 151.09)"/><ellipse class="a" cx="1.2" cy="2.8" rx="1.2" ry="2.8" transform="translate(131.16 147.78)"/><path class="m" d="M132.36,153.5c-.74,0-1.32-1.28-1.32-2.92s.58-2.92,1.32-2.92,1.32,1.28,1.32,2.92S133.11,153.5,132.36,153.5Zm0-5.6c-.52,0-1.08,1.08-1.08,2.68s.56,2.68,1.08,2.68,1.08-1.08,1.08-2.68S132.88,147.9,132.36,147.9Z"/><rect class="m" width="0.25" height="5.14" transform="translate(132.24 151)"/><ellipse class="n" cx="1.2" cy="2.8" rx="1.2" ry="2.8" transform="translate(347.03 148.56)"/><line class="o" y2="5.14" transform="translate(348.23 151.79)"/><ellipse class="a" cx="3.95" cy="4.09" rx="3.95" ry="4.09" transform="translate(226.85 142.74)"/><path class="m" d="M230.8,151.05a4.212,4.212,0,1,1,4.07-4.21A4.144,4.144,0,0,1,230.8,151.05Zm0-8.19a3.973,3.973,0,1,0,3.83,3.97A3.907,3.907,0,0,0,230.8,142.86Z"/><rect class="m" width="0.25" height="7.51" transform="translate(230.67 147.45)"/><ellipse class="a" cx="3.95" cy="7.07" rx="3.95" ry="7.07" transform="translate(61.29 134.7)"/><path class="l" d="M65.24,148.97c-2.25,0-4.07-3.23-4.07-7.2s1.83-7.2,4.07-7.2,4.07,3.23,4.07,7.2S67.49,148.97,65.24,148.97Zm0-14.15c-2.11,0-3.83,3.12-3.83,6.95s1.72,6.95,3.83,6.95,3.83-3.12,3.83-6.95S67.35,134.82,65.24,134.82Z"/><rect class="l" width="0.25" height="12.99" transform="translate(65.12 142.84)"/><ellipse class="a" cx="3.95" cy="4.09" rx="3.95" ry="4.09" transform="translate(67.77 143.23)"/><path class="m" d="M71.72,151.53a4.212,4.212,0,1,1,4.07-4.21A4.144,4.144,0,0,1,71.72,151.53Zm0-8.18a3.973,3.973,0,1,0,3.83,3.97A3.907,3.907,0,0,0,71.72,143.35Z"/><rect class="m" width="0.25" height="7.51" transform="translate(71.6 147.94)"/><ellipse class="a" cx="3.95" cy="7.07" rx="3.95" ry="7.07" transform="translate(47.5 134.7)"/><path class="l" d="M51.45,148.97c-2.25,0-4.07-3.23-4.07-7.2s1.83-7.2,4.07-7.2,4.07,3.23,4.07,7.2S53.7,148.97,51.45,148.97Zm0-14.15c-2.11,0-3.83,3.12-3.83,6.95s1.72,6.95,3.83,6.95,3.83-3.12,3.83-6.95S53.56,134.82,51.45,134.82Z"/><rect class="l" width="0.25" height="12.99" transform="translate(51.33 142.84)"/><ellipse class="a" cx="3.95" cy="4.09" rx="3.95" ry="4.09" transform="translate(53.98 143.23)"/><path class="m" d="M57.93,151.53A4.212,4.212,0,1,1,62,147.32,4.144,4.144,0,0,1,57.93,151.53Zm0-8.18a3.973,3.973,0,1,0,3.83,3.97A3.907,3.907,0,0,0,57.93,143.35Z"/><rect class="m" width="0.25" height="7.51" transform="translate(57.81 147.94)"/><ellipse class="a" cx="3.95" cy="7.07" rx="3.95" ry="7.07" transform="translate(22.27 134.7)"/><path class="m" d="M26.22,148.97c-2.25,0-4.07-3.23-4.07-7.2s1.83-7.2,4.07-7.2,4.07,3.23,4.07,7.2S28.47,148.97,26.22,148.97Zm0-14.15c-2.11,0-3.83,3.12-3.83,6.95s1.72,6.95,3.83,6.95,3.83-3.12,3.83-6.95S28.33,134.82,26.22,134.82Z"/><rect class="m" width="0.25" height="12.99" transform="translate(26.1 142.84)"/><ellipse class="a" cx="3.95" cy="4.09" rx="3.95" ry="4.09" transform="translate(28.75 143.23)"/><path class="m" d="M32.7,151.53a4.212,4.212,0,1,1,4.07-4.21A4.144,4.144,0,0,1,32.7,151.53Zm0-8.18a3.973,3.973,0,1,0,3.83,3.97A3.907,3.907,0,0,0,32.7,143.35Z"/><rect class="m" width="0.25" height="7.51" transform="translate(32.58 147.94)"/><ellipse class="a" cx="3.95" cy="4.09" rx="3.95" ry="4.09" transform="translate(99.61 142.78)"/><path class="m" d="M103.56,151.09a4.212,4.212,0,1,1,4.07-4.21A4.144,4.144,0,0,1,103.56,151.09Zm0-8.19a3.973,3.973,0,1,0,3.83,3.97A3.907,3.907,0,0,0,103.56,142.9Z"/><rect class="m" width="0.25" height="7.51" transform="translate(103.44 147.49)"/><ellipse class="a" cx="3.95" cy="4.09" rx="3.95" ry="4.09" transform="translate(123.75 144.07)"/><path class="m" d="M127.7,152.37a4.212,4.212,0,1,1,4.07-4.21A4.144,4.144,0,0,1,127.7,152.37Zm0-8.18a3.973,3.973,0,1,0,3.83,3.97A3.907,3.907,0,0,0,127.7,144.19Z"/><rect class="m" width="0.25" height="7.51" transform="translate(127.58 148.78)"/><ellipse class="a" cx="3.95" cy="4.09" rx="3.95" ry="4.09" transform="translate(337.71 143.91)"/><path class="m" d="M341.66,152.21a4.212,4.212,0,1,1,4.07-4.21A4.144,4.144,0,0,1,341.66,152.21Zm0-8.18a3.973,3.973,0,1,0,3.83,3.97A3.907,3.907,0,0,0,341.66,144.03Z"/><rect class="m" width="0.25" height="7.51" transform="translate(341.54 148.62)"/><path class="a" d="M61.3,138.81l1.12-.22H64a2.566,2.566,0,0,1-.76.66,9.727,9.727,0,0,1,1.94-.33c-.03.14-.79,1.53-1.12,1.59a2.077,2.077,0,0,0-.71.35,14.228,14.228,0,0,1-2.23-.4l-.21-.74Z"/><path class="h" d="M63.38,140.99l-.05-.01a13.659,13.659,0,0,1-2.27-.41l-.05-.02-.24-.83.44-1.01,1.18-.24h1.84l-.14.19a3.028,3.028,0,0,1-.31.34c1.35-.3,1.43-.22,1.48-.18l.05.05-.01.08c-.03.12-.79,1.6-1.22,1.68a2.07,2.07,0,0,0-.66.33Zm-2.16-.62a14.6,14.6,0,0,0,2.09.36,2.183,2.183,0,0,1,.72-.35,4.275,4.275,0,0,0,.97-1.37c-.3.03-1.06.19-1.74.35l-.76.18.66-.41a2.841,2.841,0,0,0,.55-.43H62.4l-1.03.21-.35.81Z"/><path class="a" d="M53.5,130.64l1.92,15.13-1.82.31-2.51-14.29Z"/><path class="h" d="M53.5,146.22l-2.54-14.51,2.65-1.25,1.96,15.41Zm-2.27-14.36,2.47,14.08,1.59-.27L53.4,130.83Z"/><path class="a" d="M48.96,128.36l-3.76,1.72v13.75h8.16l.14-13.57Z"/><path class="h" d="M53.49,143.95H45.08V130l3.88-1.77.05.02,4.62,1.94v.08Zm-8.17-.24h7.92l.14-13.36-4.42-1.85-3.64,1.66Z"/><path class="a" d="M51.93,129.92H47.75l-1.93-9.24,6.76-2.48Z"/><path class="h" d="M52.04,130.05H47.65l-1.97-9.45,7.03-2.58Zm-4.19-.25h3.96l.63-11.42-6.48,2.38Z"/><path class="a" d="M46.99,126.26h.67l-.19-1.37.42-.64.74,1.32.23-1.83,3.48-1.89"/><path class="h" d="M47.8,126.38h-.81v-.24h.53l-.18-1.27.56-.85.66,1.17.19-1.53,3.53-1.92.12.22-3.42,1.86-.27,2.14-.83-1.47-.29.43Z"/><path class="a" d="M46.36,130.92l7.61,7.03,7.33.86-.42.86.23.79-8.26-.56-6.95-6.03"/><path class="h" d="M61.28,140.6l-8.48-.58-6.99-6.05.17-.19,6.92,6,8.05.55-.2-.67.36-.75-7.2-.85-.03-.02-7.6-7.03.16-.18,7.58,7,7.47.88-.48.97Z"/><path class="a" d="M45.2,143.83l-.08,21.95h2.1l1.78-19,1.16.05,1.96,18.98,2.04-.03-.8-21.95Z"/><path class="h" d="M52.01,165.93l-1.96-18.99-.94-.04-1.79,18.99H44.98l.08-22.19h8.41l.8,22.19Zm-3.12-19.28,1.38.06.01.11,1.95,18.87,1.8-.03-.78-21.7H45.33l-.08,21.7h1.86Z"/><path class="a" d="M55.59,147.2l-1.55.29a.336.336,0,0,1-.4-.28l-.13-.69a.351.351,0,0,1,.28-.41l1.55-.29a.336.336,0,0,1,.4.28l.13.69A.346.346,0,0,1,55.59,147.2Z"/><path class="h" d="M53.98,147.62a.47.47,0,0,1-.26-.08.52.52,0,0,1-.2-.3l-.13-.69a.468.468,0,0,1,.38-.55l1.55-.29a.478.478,0,0,1,.35.07.52.52,0,0,1,.2.3l.13.69a.468.468,0,0,1-.38.55l-1.55.29A.277.277,0,0,1,53.98,147.62Zm1.42-1.68h-.04l-1.55.29a.226.226,0,0,0-.18.26l.13.69a.237.237,0,0,0,.09.15.254.254,0,0,0,.17.04l1.55-.29a.226.226,0,0,0,.18-.26l-.13-.69a.237.237,0,0,0-.09-.15A.2.2,0,0,0,55.4,145.94Z"/><path class="a" d="M48.52,130.07l1.71,1.71,1.09-1.71"/><path class="h" d="M50.25,131.97l-1.82-1.81.17-.18,1.61,1.6L51.22,130l.21.14Z"/><path class="a" d="M45.12,165.78h2.91l1.61,1.48H45.12Z"/><path class="h" d="M49.95,167.38H44.99v-1.73h3.08Zm-4.71-.25h4.08l-1.34-1.23H45.24v1.23Z"/><path class="a" d="M52.05,165.78h2.91l1.61,1.48H52.05Z"/><path class="h" d="M56.88,167.38H51.92v-1.73H55Zm-4.71-.25h4.08l-1.34-1.23H52.17Z"/><path class="a" d="M76.08,130.94l-1.92,5.93-5.68,1.5.52.42-.07,1.15,7.72-1.1"/><path class="h" d="M68.8,140.08l.08-1.24-.67-.53,5.85-1.55,1.9-5.86.24.08-1.94,5.99-.07.02-5.44,1.44.38.3-.07,1.07,7.57-1.08.04.24Z"/><path class="a" d="M79.37,128.02l-3.29,2.13v14.99h8.46V130.15Z"/><path class="h" d="M84.66,145.26h-8.7V130.08l3.4-2.21.06.02,5.24,2.17Zm-8.46-.25h8.21V130.23l-5.03-2.08-3.18,2.06Z"/><path class="a" d="M79.47,129.52h0a2.338,2.338,0,0,1-2.32-2.08l-.5-3.75H82.1l-.3,3.65A2.331,2.331,0,0,1,79.47,129.52Z"/><path class="h" d="M79.47,129.65a2.442,2.442,0,0,1-2.44-2.19l-.52-3.88h5.72l-.31,3.78A2.459,2.459,0,0,1,79.47,129.65Zm-2.68-5.83.48,3.61a2.214,2.214,0,0,0,4.41-.09l.29-3.52H76.79Z"/><path class="a" d="M79.54,120.24s-2.9-1.21-4.2.9,1.28,4.02,4.53,3.01c0,0,.64.39.54,1.62,0,0,.41.12.58-.84s1.04-.42.93,1.25a12.969,12.969,0,0,1,.61-2.72C82.79,123.22,82.95,120.89,79.54,120.24Z"/><path class="h" d="M82.06,126.2l-.24-.03c.07-1.06-.26-1.57-.45-1.59-.09-.01-.19.13-.24.37a1.258,1.258,0,0,1-.44.88.394.394,0,0,1-.3.06l-.1-.03.01-.1a1.632,1.632,0,0,0-.44-1.47c-1.86.56-3.73.2-4.57-.88a1.96,1.96,0,0,1-.04-2.33c1.3-2.1,4.13-1.04,4.34-.96,2.25.43,2.91,1.58,3.11,2.23a1.407,1.407,0,0,1-.06,1.2A10.549,10.549,0,0,0,82.06,126.2Zm-2.17-2.18.05.03a1.691,1.691,0,0,1,.61,1.57l.01-.01c.08-.05.23-.22.32-.7.11-.57.42-.58.51-.57.24.03.47.3.59.77a5.38,5.38,0,0,1,.48-1.74,1.375,1.375,0,0,0-.01-.97c-.18-.59-.8-1.65-2.92-2.04l-.02-.01c-.03-.01-2.82-1.14-4.05.86a1.676,1.676,0,0,0,.03,2.04c.64.83,2.28,1.43,4.36.78Z"/><path class="a" d="M81.19,128.77l3.35,1.38,5.08,6.24-4.51,7.66-.77-.68-.6-.21,3.03-6.32-3.17-3.75"/><path class="h" d="M85.14,144.24l-.86-.76-.71-.25,3.05-6.37-3.11-3.69.19-.16,3.21,3.81-3,6.27.52.19.65.58,4.39-7.46-5.01-6.15-3.32-1.37.1-.23,3.39,1.42,5.14,6.31Z"/><path class="a" d="M84.56,145.26l.08,21.67H82.45l-1.86-18.76-1.21.05-2.04,18.74-2.12-.03.82-21.67Z"/><path class="h" d="M77.45,167.08l-2.36-.03.83-21.91h8.75l.09,21.91H82.34l-.01-.11L80.48,148.3l-.99.04Zm-2.1-.27,1.88.03,2.04-18.73,1.43-.05.01.12,1.85,18.64h1.95l-.08-21.42H76.16Z"/><path class="a" d="M84.64,166.93H81.6l-1.67,1.46h4.71Z"/><path class="h" d="M84.76,168.51H79.6l1.96-1.71h3.2v1.71Zm-4.5-.24h4.26v-1.21H81.65Z"/><path class="a" d="M77.42,166.93H74.38l-1.67,1.46h4.71Z"/><path class="h" d="M77.54,168.51H72.38l1.96-1.71h3.2Zm-4.51-.24h4.26v-1.21H74.42Z"/><path class="a" d="M84.11,143.03l-1.2.69-1.15,1.64s.28.25.85-.12-.85,1.27-.85,1.27a5.183,5.183,0,0,1,1.46-.28c.37.07.92.02,1.27-.92a2.884,2.884,0,0,1,.64-1.17Z"/><path class="h" d="M81.37,146.77l.29-.33c.29-.33.6-.71.79-.96a.724.724,0,0,1-.78-.02l-.08-.07,1.26-1.76,1.29-.74,1.16,1.29-.11.08a2.918,2.918,0,0,0-.6,1.11c-.28.78-.77,1.13-1.41,1a4.644,4.644,0,0,0-1.39.28Zm1.36-1.7a.111.111,0,0,1,.1.05c.06.08.14.16-.71,1.16a3.159,3.159,0,0,1,1.11-.16c.52.1.89-.18,1.13-.84a3.355,3.355,0,0,1,.59-1.13l-.86-.96-1.09.62-1.06,1.5a.77.77,0,0,0,.6-.17A.4.4,0,0,1,82.73,145.07Z"/><path class="a" d="M68.84,138.76l-1.48-.82-2.47-.11s-.23.36,1.01.5.97.14.97.14a28.272,28.272,0,0,1-3.04.48s.57,1.14,1.43,1.26a18.984,18.984,0,0,0,3.5-.37Z"/><path class="h" d="M65.6,140.36a3.526,3.526,0,0,1-.36-.02c-.92-.13-1.5-1.28-1.53-1.33l-.08-.17.19-.01a21.826,21.826,0,0,0,2.33-.34q-.12-.015-.27-.03c-.64-.07-1-.21-1.1-.43a.259.259,0,0,1,.01-.26l.04-.06,2.59.13,1.55.85-.1,1.25-.09.02A23.113,23.113,0,0,1,65.6,140.36Zm-1.57-1.3a2.1,2.1,0,0,0,1.25,1.03,17.631,17.631,0,0,0,3.37-.35l.07-.9-1.38-.76-2.29-.1a1.614,1.614,0,0,0,.87.25c1.11.13,1.11.13,1.1.27l-.02.1h-.14C66.81,138.61,65.1,138.97,64.03,139.06Z"/><path class="a" d="M13.05,23.42h45.6s-1.41-6.14-12.67-6.32c0,0-10.56-14.65-24.51-7.82,0,0-3.78,3.24-1.89,6.57C19.58,15.85,9.17,15.78,13.05,23.42Z"/><path class="p" d="M58.88,23.6H12.94l-.05-.1c-1.05-2.06-1.17-3.77-.36-5.08,1.48-2.4,5.59-2.71,6.75-2.75-1.6-3.32,2.04-6.5,2.07-6.53l.04-.03c13.4-6.57,23.83,6.67,24.68,7.8,11.2.22,12.74,6.4,12.76,6.46Zm-45.71-.37H58.4c-.4-1.1-2.68-5.79-12.42-5.95h-.09l-.05-.08c-.1-.15-10.62-14.43-24.25-7.77-.27.24-3.57,3.28-1.83,6.32l.16.28H19.6c-.05.01-5.14,0-6.74,2.58C12.12,19.79,12.23,21.34,13.17,23.23Z"/><path class="a" d="M60.65,16.55H86.46s-.8-3.5-7.17-3.6c0,0-5.98-8.35-13.87-4.45,0,0-2.14,1.85-1.07,3.74C64.35,12.24,58.45,12.2,60.65,16.55Z"/><path class="p" d="M86.69,16.74H60.54l-.05-.1a2.964,2.964,0,0,1-.19-2.98c.82-1.32,2.97-1.55,3.76-1.59-.81-1.91,1.22-3.69,1.24-3.7l.04-.03c7.53-3.72,13.41,3.6,14.05,4.43,6.36.14,7.22,3.59,7.26,3.74Zm-25.92-.37H86.2c-.32-.76-1.72-3.15-6.92-3.23h-.09l-.05-.08c-.06-.08-5.97-8.15-13.62-4.41-.19.17-1.95,1.84-1.01,3.5l.16.28h-.32c-.02-.01-2.86,0-3.74,1.42A2.56,2.56,0,0,0,60.77,16.37Z"/><path class="a" d="M151.4,53.03h25.81s-.8-3.5-7.17-3.6c0,0-5.98-8.35-13.87-4.45,0,0-2.14,1.85-1.07,3.74C155.1,48.72,149.21,48.68,151.4,53.03Z"/><path class="l" d="M177.37,53.16H151.33l-.03-.07a2.93,2.93,0,0,1-.2-2.92c.84-1.35,3.11-1.54,3.8-1.56-.88-1.9,1.17-3.7,1.19-3.72l.03-.02c7.57-3.73,13.47,3.75,13.99,4.44,6.34.13,7.2,3.55,7.23,3.69Zm-25.89-.25h25.57c-.25-.66-1.57-3.26-7-3.35h-.06l-.04-.05c-.06-.08-6-8.2-13.7-4.42-.16.15-2,1.86-1.03,3.58l.1.19h-.21c-.09,0-2.9.02-3.79,1.45A2.585,2.585,0,0,0,151.48,52.91Z"/><path class="a" d="M175.84,38.21h25.81s-.8-3.5-7.17-3.6c0,0-5.98-8.35-13.87-4.45,0,0-2.14,1.85-1.07,3.74C179.54,33.9,173.65,33.87,175.84,38.21Z"/><path class="p" d="M201.89,38.4H175.73l-.05-.1a2.964,2.964,0,0,1-.19-2.98c.82-1.32,2.97-1.55,3.76-1.59-.81-1.91,1.22-3.69,1.24-3.71l.04-.03c7.53-3.72,13.41,3.6,14.05,4.44,6.36.14,7.22,3.59,7.26,3.74Zm-25.93-.37H201.4c-.32-.76-1.72-3.15-6.91-3.23h-.09l-.05-.08c-.06-.08-5.97-8.15-13.62-4.41-.19.17-1.95,1.84-1.01,3.5l.16.28h-.32c-.09,0-2.87.01-3.74,1.42A2.5,2.5,0,0,0,175.96,38.03Z"/><path class="a" d="M185.87,22.28h25.81s-.8-3.5-7.17-3.6c0,0-5.98-8.35-13.87-4.45,0,0-2.14,1.85-1.07,3.74C189.57,17.98,183.68,17.94,185.87,22.28Z"/><path class="p" d="M211.92,22.47H185.76l-.05-.1a2.964,2.964,0,0,1-.19-2.98c.82-1.32,2.97-1.55,3.76-1.59-.81-1.91,1.22-3.69,1.24-3.71l.04-.03c7.53-3.72,13.41,3.6,14.05,4.43,6.36.14,7.22,3.59,7.26,3.74Zm-25.93-.37h25.44c-.32-.76-1.72-3.14-6.91-3.23h-.09l-.05-.08c-.06-.08-5.97-8.15-13.62-4.41-.19.17-1.95,1.84-1.01,3.5l.16.28h-.32c-.05.01-2.86,0-3.74,1.42A2.5,2.5,0,0,0,185.99,22.1Z"/><path class="a" d="M47.42,69.41V111.3a4.733,4.733,0,0,0,4.73,4.73h8.79l5.65,11.5,5.65-11.5H84.81a4.733,4.733,0,0,0,4.73-4.73V69.41a4.733,4.733,0,0,0-4.73-4.73H52.15A4.733,4.733,0,0,0,47.42,69.41Z"/><path class="h" d="M66.59,127.81l-5.73-11.65H52.15a4.855,4.855,0,0,1-4.85-4.85V69.41a4.855,4.855,0,0,1,4.85-4.85H84.81a4.855,4.855,0,0,1,4.85,4.85V111.3a4.855,4.855,0,0,1-4.85,4.85H72.32Zm-14.44-63a4.618,4.618,0,0,0-4.61,4.61v41.89a4.618,4.618,0,0,0,4.61,4.61h8.87l.03.07,5.54,11.27,5.58-11.34H84.82a4.618,4.618,0,0,0,4.61-4.61V69.41a4.618,4.618,0,0,0-4.61-4.61H52.15Z"/><path class="a" d="M148.39,46.96V94.03a5.313,5.313,0,0,0,5.31,5.31h9.88l6.35,12.92,6.35-12.92H190.4a5.313,5.313,0,0,0,5.31-5.31V46.96a5.313,5.313,0,0,0-5.31-5.31H153.7A5.307,5.307,0,0,0,148.39,46.96Z"/><path class="i" d="M169.93,112.53,163.5,99.46h-9.8a5.446,5.446,0,0,1-5.44-5.44V46.96a5.446,5.446,0,0,1,5.44-5.44h36.7a5.446,5.446,0,0,1,5.44,5.44V94.03a5.446,5.446,0,0,1-5.44,5.44H176.35ZM153.71,41.77a5.2,5.2,0,0,0-5.19,5.19V94.03a5.2,5.2,0,0,0,5.19,5.19h9.95l.03.07,6.24,12.69,6.27-12.76h14.2a5.2,5.2,0,0,0,5.19-5.19V46.96a5.2,5.2,0,0,0-5.19-5.19Z"/><path class="a" d="M267.1,18.55V79.1a6.964,6.964,0,0,0,7.09,6.84h13.18l8.47,16.62,8.47-16.62h18.85a6.964,6.964,0,0,0,7.09-6.84V18.55a6.964,6.964,0,0,0-7.09-6.84H274.19A6.977,6.977,0,0,0,267.1,18.55Z"/><path class="h" d="M295.84,102.83l-8.55-16.77H274.18a7.092,7.092,0,0,1-7.21-6.96V18.55a7.1,7.1,0,0,1,7.21-6.96h48.97a7.092,7.092,0,0,1,7.21,6.96V79.1a7.1,7.1,0,0,1-7.21,6.96H304.38ZM274.19,11.84a6.853,6.853,0,0,0-6.97,6.71V79.1a6.853,6.853,0,0,0,6.97,6.71h13.26l.03.07,8.36,16.4,8.4-16.47h18.92a6.853,6.853,0,0,0,6.97-6.71V18.55a6.853,6.853,0,0,0-6.97-6.71H274.19Z"/><path class="a" d="M78.33,77.56H70.16a4.761,4.761,0,0,1-9.47.7,4.2,4.2,0,0,1-.05-.7H52.96v5.12h4.52l-2.42,19.07H74.15L72.64,82.96h5.7v-5.4Z"/><path class="h" d="M74.28,101.87H54.92L57.34,82.8h-4.5V77.44h7.93v.12a3.493,3.493,0,0,0,.05.68,4.55,4.55,0,0,0,1.83,3.04,4.622,4.622,0,0,0,3.45.86,4.671,4.671,0,0,0,3.95-4.59v-.12h8.42v5.64H72.78Zm-19.08-.25H74.02L72.5,82.83h5.71V77.68H70.28a4.918,4.918,0,0,1-4.16,4.71,4.9,4.9,0,0,1-5.56-4.12,5.189,5.189,0,0,1-.05-.6H53.07v4.87h4.54Z"/><path class="a" d="M82.58,84.2H76.3a3.66,3.66,0,0,1-7.28.54,3.272,3.272,0,0,1-.04-.54h-5.9v3.93h3.47l-1.86,14.65H79.36L78.2,88.34h4.38V84.2Z"/><path class="h" d="M79.5,102.9H64.56l1.86-14.65H62.96V84.07h6.15v.12a4.053,4.053,0,0,0,.03.52,3.539,3.539,0,0,0,4.02,2.98,3.556,3.556,0,0,0,3.01-3.5v-.12h6.52v4.39H78.32Zm-14.66-.25H79.23L78.07,88.21h4.39v-3.9H76.43a3.8,3.8,0,0,1-3.22,3.62,3.781,3.781,0,0,1-4.3-3.18c-.02-.14-.03-.28-.04-.43H63.21V88H66.7Z"/><path class="a" d="M65.09,146.73H63.85a1.716,1.716,0,0,1-1.71-1.71v-4.07a1.716,1.716,0,0,1,1.71-1.71h1.24a1.716,1.716,0,0,1,1.71,1.71v4.07A1.716,1.716,0,0,1,65.09,146.73Z"/><path class="h" d="M64.51,146.85h-.09a2.411,2.411,0,0,1-2.41-2.41v-2.92a2.411,2.411,0,0,1,2.41-2.41h.09a2.411,2.411,0,0,1,2.41,2.41v2.92A2.411,2.411,0,0,1,64.51,146.85Zm-.08-7.49a2.164,2.164,0,0,0-2.16,2.16v2.92a2.164,2.164,0,0,0,2.16,2.16h.09a2.164,2.164,0,0,0,2.16-2.16v-2.92a2.164,2.164,0,0,0-2.16-2.16Z"/><rect class="a" width="11.22" height="12.48" transform="translate(59.21 142.03)"/><path class="h" d="M70.56,154.63H59.09V141.9H70.56Zm-11.22-.25H70.31V142.15H59.34Z"/><path class="a" d="M180.3,76.28H156.98a1.415,1.415,0,0,1-1.41-1.41V62.12a1.415,1.415,0,0,1,1.41-1.41H180.3a1.415,1.415,0,0,1,1.41,1.41V74.88A1.413,1.413,0,0,1,180.3,76.28Z"/><path class="h" d="M181.01,76.4H156.27a.824.824,0,0,1-.82-.82V61.4a.824.824,0,0,1,.82-.82h24.74a.824.824,0,0,1,.82.82V75.58A.817.817,0,0,1,181.01,76.4ZM156.27,60.83a.576.576,0,0,0-.57.57V75.58a.576.576,0,0,0,.57.57h24.74a.576.576,0,0,0,.57-.57V61.4a.576.576,0,0,0-.57-.57Z"/><path class="a" d="M181.98,82.89H155c-.56,0-1.02-.19-1.02-.42l1.44-5.63c0-.23.46-.42,1.02-.42h24.1c.56,0,1.02.19,1.02.42L183,82.47C183,82.7,182.54,82.89,181.98,82.89Z"/><path class="h" d="M181.98,83.01H155c-.55,0-1.14-.19-1.14-.55v-.03l1.44-5.62c.02-.34.6-.53,1.14-.53h24.1c.54,0,1.12.18,1.14.53l1.44,5.65C183.12,82.82,182.53,83.01,181.98,83.01Zm-27.88-.54c.02.12.37.29.89.29h26.99c.52,0,.87-.17.89-.29l-1.44-5.65c0-.12-.36-.3-.89-.3h-24.1c-.54,0-.89.18-.89.3v.03Z"/><path class="a" d="M180.77,75.5H156.61a.333.333,0,0,1-.33-.33V61.8a.333.333,0,0,1,.33-.33h24.16a.333.333,0,0,1,.33.33V75.17A.32.32,0,0,1,180.77,75.5Z"/><path class="h" d="M180.94,75.56h-24.5a.233.233,0,0,1-.23-.23V61.63a.233.233,0,0,1,.23-.23h24.5a.233.233,0,0,1,.23.23V75.34A.224.224,0,0,1,180.94,75.56Zm-24.5-14.04a.1.1,0,0,0-.1.1V75.33a.1.1,0,0,0,.1.1h24.5a.1.1,0,0,0,.1-.1V61.63a.1.1,0,0,0-.1-.1h-24.5Z"/><path class="a" d="M186.07,82.77h-4.7a2.168,2.168,0,0,1-2.17-2.17V69.01a2.168,2.168,0,0,1,2.17-2.17h4.7a2.168,2.168,0,0,1,2.17,2.17V80.6A2.168,2.168,0,0,1,186.07,82.77Z"/><path class="h" d="M187.17,82.9h-6.91a1.193,1.193,0,0,1-1.19-1.19V67.9a1.193,1.193,0,0,1,1.19-1.19h6.91a1.193,1.193,0,0,1,1.19,1.19V81.7A1.2,1.2,0,0,1,187.17,82.9Zm-6.91-15.94a.956.956,0,0,0-.95.95v13.8a.95.95,0,0,0,.95.95h6.91a.95.95,0,0,0,.95-.95V67.9a.956.956,0,0,0-.95-.95h-6.91Z"/><path class="a" d="M186.64,82.17h-5.86a.881.881,0,0,1-.88-.88V68.32a.881.881,0,0,1,.88-.88h5.86a.881.881,0,0,1,.88.88V81.28A.877.877,0,0,1,186.64,82.17Z"/><path class="h" d="M187.09,82.23h-6.75a.5.5,0,0,1-.5-.5V67.88a.5.5,0,0,1,.5-.5h6.75a.5.5,0,0,1,.5.5V81.74A.506.506,0,0,1,187.09,82.23ZM180.34,67.5a.369.369,0,0,0-.37.37V81.73a.369.369,0,0,0,.37.37h6.75a.369.369,0,0,0,.37-.37V67.88a.369.369,0,0,0-.37-.37h-6.75Z"/><path class="a" d="M294.28,62.6h23.68l-1.78-3.44H295.99Z"/><path class="h" d="M318.16,62.72H294.08l1.83-3.69h20.34Zm-23.68-.25h23.28l-1.65-3.2H296.08Z"/><path class="a" d="M294.28,30.65h23.68l-1.78,3.44H295.99Z"/><path class="h" d="M316.25,34.21H295.91l-1.83-3.69h24.08Zm-20.18-.25H316.1l1.65-3.2H294.47Z"/><rect class="a" width="20.19" height="25.07" transform="translate(295.99 34.09)"/><path class="h" d="M316.3,59.28H295.87V33.96H316.3Zm-20.18-.25h19.94V34.21H296.12Z"/><ellipse class="a" cx="5.05" cy="5.37" rx="5.05" ry="5.37" transform="translate(301.07 41.25)"/><path class="h" d="M306.12,52.12a5.5,5.5,0,1,1,5.18-5.5A5.359,5.359,0,0,1,306.12,52.12Zm0-10.75a5.26,5.26,0,1,0,4.93,5.25A5.1,5.1,0,0,0,306.12,41.37Z"/><ellipse class="a" cx="3.19" cy="3.3" rx="3.19" ry="3.3" transform="translate(279.57 46.7)"/><path class="h" d="M282.76,53.42a3.248,3.248,0,0,1-1.39-.32,3.477,3.477,0,0,1-1.62-4.54,3.341,3.341,0,0,1,1.9-1.79,3.2,3.2,0,0,1,2.5.12,3.477,3.477,0,0,1,1.62,4.54h0a3.341,3.341,0,0,1-1.9,1.79A3.293,3.293,0,0,1,282.76,53.42Zm0-6.6a3.061,3.061,0,0,0-1.03.18,3.117,3.117,0,0,0-1.76,1.66,3.231,3.231,0,0,0,1.5,4.22,2.945,2.945,0,0,0,2.31.11,3.117,3.117,0,0,0,1.76-1.66,3.231,3.231,0,0,0-1.5-4.22A2.994,2.994,0,0,0,282.76,46.82Z"/><ellipse class="a" cx="3.19" cy="3.3" rx="3.19" ry="3.3" transform="translate(284.22 46.7)"/><path class="h" d="M287.41,53.42a3.215,3.215,0,0,1-1.39-.32,3.477,3.477,0,0,1-1.62-4.54,3.341,3.341,0,0,1,1.9-1.79,3.2,3.2,0,0,1,2.5.12,3.477,3.477,0,0,1,1.62,4.54h0a3.341,3.341,0,0,1-1.9,1.79A3.293,3.293,0,0,1,287.41,53.42Zm0-6.6a3.061,3.061,0,0,0-1.03.18,3.117,3.117,0,0,0-1.76,1.66,3.231,3.231,0,0,0,1.5,4.22,2.945,2.945,0,0,0,2.31.11,3.117,3.117,0,0,0,1.76-1.66,3.231,3.231,0,0,0-1.5-4.22A2.994,2.994,0,0,0,287.41,46.82Z"/><ellipse class="a" cx="3.19" cy="3.3" rx="3.19" ry="3.3" transform="translate(289.67 46.7)"/><path class="h" d="M292.85,53.42a3.3,3.3,0,0,1-1.63-.44,3.386,3.386,0,0,1-1.58-2.11A3.449,3.449,0,0,1,292,46.69a3.219,3.219,0,0,1,2.48.33,3.386,3.386,0,0,1,1.58,2.11h0a3.449,3.449,0,0,1-2.36,4.18A3.54,3.54,0,0,1,292.85,53.42Zm.01-6.6a2.625,2.625,0,0,0-.78.11,3.2,3.2,0,0,0-2.19,3.88,3.132,3.132,0,0,0,1.46,1.96,2.919,2.919,0,0,0,2.29.3,3.2,3.2,0,0,0,2.19-3.88,3.132,3.132,0,0,0-1.46-1.96A3.033,3.033,0,0,0,292.86,46.82Z"/><ellipse class="a" cx="3.19" cy="3.3" rx="3.19" ry="3.3" transform="translate(287.41 51.84)"/><path class="h" d="M290.6,58.57a3.269,3.269,0,0,1-1.63-.44,3.386,3.386,0,0,1-1.58-2.11,3.449,3.449,0,0,1,2.36-4.18,3.219,3.219,0,0,1,2.48.33,3.386,3.386,0,0,1,1.58,2.11,3.441,3.441,0,0,1-2.36,4.18A3.54,3.54,0,0,1,290.6,58.57Zm.01-6.6a2.581,2.581,0,0,0-.78.11,3.2,3.2,0,0,0-2.19,3.88,3.132,3.132,0,0,0,1.46,1.96,2.965,2.965,0,0,0,2.29.31,3.2,3.2,0,0,0,2.19-3.88,3.132,3.132,0,0,0-1.46-1.96A2.971,2.971,0,0,0,290.61,51.97Z"/><ellipse class="a" cx="3.19" cy="3.3" rx="3.19" ry="3.3" transform="translate(281.92 51.84)"/><path class="h" d="M285.1,58.57a3.3,3.3,0,0,1-1.63-.44,3.386,3.386,0,0,1-1.58-2.11,3.449,3.449,0,0,1,2.36-4.18,3.219,3.219,0,0,1,2.48.33,3.386,3.386,0,0,1,1.58,2.11,3.449,3.449,0,0,1-2.36,4.18A3.54,3.54,0,0,1,285.1,58.57Zm.01-6.6a2.581,2.581,0,0,0-.78.11,3.2,3.2,0,0,0-2.19,3.88,3.132,3.132,0,0,0,1.46,1.96,2.919,2.919,0,0,0,2.29.3,3.2,3.2,0,0,0,2.19-3.88,3.132,3.132,0,0,0-1.46-1.96A3.033,3.033,0,0,0,285.11,51.97Z"/><ellipse class="a" cx="3.19" cy="3.3" rx="3.19" ry="3.3" transform="translate(285.14 55.87)"/><path class="h" d="M288.32,62.6a3.3,3.3,0,0,1-1.63-.44,3.386,3.386,0,0,1-1.58-2.11,3.441,3.441,0,0,1,2.36-4.18,3.219,3.219,0,0,1,2.48.33,3.386,3.386,0,0,1,1.58,2.11h0a3.347,3.347,0,0,1-3.21,4.29Zm.01-6.6a2.625,2.625,0,0,0-.78.11,3.2,3.2,0,0,0-2.19,3.88,3.132,3.132,0,0,0,1.46,1.96,2.919,2.919,0,0,0,2.29.3,3.2,3.2,0,0,0,2.19-3.88h0a3.132,3.132,0,0,0-1.46-1.96A3.033,3.033,0,0,0,288.33,56Z"/><path class="a" d="M287.41,46.62s-.78-7.98-9.79-10.31C277.62,36.31,277.73,45.96,287.41,46.62Z"/><path class="h" d="M287.55,46.75l-.15-.01c-9.69-.66-9.9-10.34-9.9-10.43v-.16l.16.04a12.791,12.791,0,0,1,9.88,10.42Zm-9.8-10.28c.07,1.26.89,9.33,9.52,10.02A12.57,12.57,0,0,0,277.75,36.47Z"/><path class="a" d="M297.75,36.31s-.78,7.98-9.79,10.31C287.96,46.62,288.07,36.97,297.75,36.31Z"/><path class="h" d="M287.84,46.78v-.16c0-.1.22-9.77,9.9-10.43l.15-.01-.01.14A12.791,12.791,0,0,1,288,46.74Zm9.77-10.34c-8.62.69-9.44,8.76-9.52,10.02A12.558,12.558,0,0,0,297.61,36.44Z"/><path class="a" d="M301.18,52.81a.154.154,0,0,0-.11.06.854.854,0,0,1-1.3,0,.154.154,0,0,0-.11-.06,7.013,7.013,0,0,0,0,14.02,5.8,5.8,0,0,1,1.52,0,7.013,7.013,0,0,0,0-14.02Z"/><path class="h" d="M301.18,66.96a7.087,7.087,0,0,1-.77-.05,6.272,6.272,0,0,1-.74.05,7.133,7.133,0,0,1,0-14.26.26.26,0,0,1,.2.1.731.731,0,0,0,1.11,0,.26.26,0,0,1,.2-.1,7.133,7.133,0,0,1,0,14.26Zm-.77-.3a7.361,7.361,0,0,0,.77.04,6.893,6.893,0,0,0,.01-13.78.124.124,0,0,1-.03.02,1,1,0,0,1-1.48,0c-.02-.02-.03-.02-.03-.02a6.893,6.893,0,0,0,.01,13.78A4.779,4.779,0,0,0,300.41,66.66Z"/><path class="a" d="M300.43,52.68s1-5.62-2.47-9.22C297.96,43.46,294.78,49.24,300.43,52.68Z"/><path class="h" d="M300.52,52.87l-.15-.09c-5.68-3.46-2.55-9.33-2.52-9.38l.08-.15.12.12c3.48,3.6,2.51,9.27,2.5,9.33Zm-2.53-9.2c-.46.93-2.49,5.73,2.35,8.8C300.46,51.5,300.9,46.82,297.99,43.67Z"/></g></svg>