<svg xmlns="http://www.w3.org/2000/svg" xmlns:xlink="http://www.w3.org/1999/xlink" width="276.228" height="202.32" viewBox="0 0 276.228 202.32"><defs><style>.a{fill:#b3b3b3;}.b{fill:#881209;}.c{fill:#e0ce28;}.d{fill:#999;}.e{fill:#f2f2f2;}.f{fill:#ccc;}.g{fill:#009245;}.h{fill:#fff;}.i{fill:url(#a);}.j{fill:url(#b);}.k{fill:#1f304a;}.l{fill:url(#c);}.m{fill:url(#d);}.n{fill:#1a1a1a;}.o{fill:#dc6643;}.p{fill:#c4553b;}.q{fill:#12284d;}.r{fill:url(#e);}.s{fill:url(#f);}.t{fill:url(#g);}.u{fill:url(#h);}</style><linearGradient id="a" x1="0.5" y1="0.993" x2="0.5" y2="0.002" gradientUnits="objectBoundingBox"><stop offset="0.302" stop-color="#ccc"/><stop offset="0.96" stop-color="#fff"/></linearGradient><linearGradient id="b" x1="0.5" y1="1" x2="0.5" y2="0" xlink:href="#a"/><linearGradient id="c" x1="83.599" y1="12.317" x2="83.599" y2="11.026" gradientUnits="objectBoundingBox"><stop offset="0.143"/><stop offset="0.488" stop-color="#1f304a"/><stop offset="1"/></linearGradient><linearGradient id="d" x1="71.804" y1="12.811" x2="71.804" y2="11.52" xlink:href="#c"/><linearGradient id="e" x1="108.407" y1="-438.941" x2="-91.524" y2="375.457" gradientUnits="objectBoundingBox"><stop offset="0" stop-color="#fff"/><stop offset="1" stop-color="#999"/></linearGradient><linearGradient id="f" x1="0.74" y1="-0.369" x2="-0.142" y2="2.582" xlink:href="#e"/><linearGradient id="g" x1="38.253" y1="-22.627" x2="-7.434" y2="5.408" xlink:href="#e"/><linearGradient id="h" x1="0.5" y1="0" x2="0.5" y2="1" xlink:href="#a"/></defs><g transform="translate(-41.886 -23.84)"><ellipse class="a" cx="109.245" cy="13.04" rx="109.245" ry="13.04" transform="translate(42.264 200.08)"/><path class="a" d="M318.114,219.918c0,2.333-13.875,4.223-30.991,4.223s-30.991-1.891-30.991-4.223,13.875-4.223,30.991-4.223S318.114,217.585,318.114,219.918Z"/><path class="b" d="M291.364,205.475s6.841-8.325,6.841-15.725-10.072-16.65-10.072-18.5,5.7-8.325,10.072-8.325,10.072,14.985,10.262,25.53.76,17.205.76,17.205,2.85,9.8,1.9,13.69-6.081-5.18-6.081-5.18-2.85,5.266-6.461,6.148-9.692,1.252-13.492-3.928-1.71-15.91,0-17.39,3.991.37,4.371,1.85A37.519,37.519,0,0,0,291.364,205.475Z"/><path class="b" d="M307.43,180.177l6.358-3.932,1.71,3.932-7.838,1.141Z"/><path class="b" d="M296.647,184.032s-4.523,2.758-5.093,5.348.95,2.5.95,2.5,4.515-7.05,4.635-6.762S296.647,184.032,296.647,184.032Z"/><path d="M294.86,169.955V168.29h2.294v-1.11H293.72v2.775Z"/><path class="b" d="M299.575,209.912c.129.6.321,1.438.573,2.385a29.464,29.464,0,0,0,2.176,5.971,5.259,5.259,0,0,0,2.059,2.372.767.767,0,0,0,.315.078c.2,0,.38-.112.567-.408a4.172,4.172,0,0,0,.451-1.3,22.676,22.676,0,0,0,.315-4.249c0-1.864-.113-3.811-.225-5.29-.1-1.307-.2-2.244-.22-2.447l-6.43,1.967.224-.039S299.446,209.312,299.575,209.912Z"/><path d="M306.033,206.931l-.453.048.005.044c.022.2.121,1.14.22,2.447.113,1.48.225,3.426.225,5.29a22.6,22.6,0,0,1-.315,4.249,4.163,4.163,0,0,1-.451,1.3c-.188.3-.365.407-.567.408a.764.764,0,0,1-.315-.078,5.259,5.259,0,0,1-2.059-2.372,29.462,29.462,0,0,1-2.176-5.971c-.251-.947-.443-1.785-.573-2.385s-.2-.96-.2-.962l-.224.039-.224.039h0a50.106,50.106,0,0,0,1.361,5.4,24.407,24.407,0,0,0,1.628,4.043,5.639,5.639,0,0,0,2.27,2.569,1.224,1.224,0,0,0,.508.12,1.139,1.139,0,0,0,.958-.622,6.289,6.289,0,0,0,.66-2.389,28.434,28.434,0,0,0,.171-3.391C306.487,211,306.034,206.935,306.033,206.931Z"/><path d="M219.786,77.743l-2.669,73.626h-4.525l.837-74.413Z"/><path d="M108.465,77.629l.247,73.674-4.521.179L102.081,77.1Z"/><path d="M235.936,211.47c0-15.943-1.556-30.377-4.108-40.944a50.377,50.377,0,0,0-4.569-12.7,13.627,13.627,0,0,0-2.86-3.658,4.664,4.664,0,0,0-6.584,0c-1.8,1.53-3.357,4.167-4.744,7.644C211,167.03,209.313,174.2,208.13,182.7a212.226,212.226,0,0,0-1.853,28.772h1.98c0-15.672,1.542-29.861,4-40.013a47.239,47.239,0,0,1,4.229-11.833,11.273,11.273,0,0,1,2.335-3.013,3.188,3.188,0,0,1,4.572,0c1.355,1.138,2.755,3.388,4.031,6.6,1.92,4.819,3.569,11.752,4.719,20.037a208.222,208.222,0,0,1,1.815,28.216Z"/><path d="M113.831,211.47c0-15.943-1.233-30.377-3.255-40.944a59.382,59.382,0,0,0-3.62-12.7,13.636,13.636,0,0,0-2.266-3.658,3.181,3.181,0,0,0-5.216,0c-1.424,1.53-2.66,4.167-3.759,7.644A114.854,114.854,0,0,0,91.8,182.7a266.832,266.832,0,0,0-1.468,28.772H91.9c0-15.672,1.222-29.861,3.168-40.013a55.65,55.65,0,0,1,3.351-11.833,11.263,11.263,0,0,1,1.85-3.013,2.182,2.182,0,0,1,3.623,0c1.074,1.138,2.183,3.388,3.193,6.6a110.685,110.685,0,0,1,3.739,20.037,262,262,0,0,1,1.438,28.216Z"/><path class="c" d="M61.482,129.789l.35,12.1L262.9,138.943l-.483-9.71Z"/><path class="c" d="M59.911,112.138l1.912,12.75,202.53-2.571,1.012-10.272Z"/><path class="c" d="M61.737,96.9l-.044,9.215,205.528.966-.167-7.388Z"/><path class="c" d="M60.213,84.765l1.48,9.215,205.528.966-.167-7.388Z"/><path class="c" d="M61.737,71.866l-.044,9.215,205.528.966,1.357-7.389Z"/><path d="M86.847,109.562l-.028-.1a19.42,19.42,0,0,1-.676-4.69,7.569,7.569,0,0,1,.379-2.561,2.743,2.743,0,0,1,1.292-1.584,6.918,6.918,0,0,1,3.032-.594,9.285,9.285,0,0,1,4.55,1.119,4.5,4.5,0,0,1,1.5,1.368,3.391,3.391,0,0,1,.559,1.911,6.351,6.351,0,0,1-.839,2.912l1.159.607a7.639,7.639,0,0,0,.988-3.519,4.7,4.7,0,0,0-.775-2.631,6.479,6.479,0,0,0-3.146-2.358,11.273,11.273,0,0,0-4-.716,8.143,8.143,0,0,0-3.632.74,4.049,4.049,0,0,0-1.919,2.293,8.82,8.82,0,0,0-.46,3.014,20.694,20.694,0,0,0,.758,5.16l1.254-.371Z"/><path class="d" d="M103.534,150.873s3.661-22.432-.654-35.36c-4.58-13.721-17.877-13.081-23.546,0s-3.052,35.537-3.052,35.537Z"/><path class="e" d="M101.716,150.912s2.942-17.486-.526-27.563c-3.68-10.7-14.364-10.2-18.919,0s-2.452,27.7-2.452,27.7Z"/><path class="a" d="M96.5,122.466c0,1.161-2.011,2.1-4.492,2.1s-4.492-.941-4.492-2.1,2.011-2.1,4.492-2.1S96.5,121.305,96.5,122.466Z"/><path class="c" d="M41.886,146.842V155.9H276.034v-7.243Z"/><path class="f" d="M41.886,151.482V155.9H276.034V152.79Z"/><path class="f" d="M141.591,141.2l63.8-.935q.823-5.544,2.008-10.79l-63.071.174C143.037,135.415,141.991,139.623,141.591,141.2Z"/><path class="f" d="M145.5,124.24l63.369-.8q1.572-5.889,3.495-11.352l-64.459.029C147.117,116.425,146.291,120.529,145.5,124.24Z"/><path class="f" d="M148.921,106.37l65.453.308q1.641-4.2,3.42-8.1l-67.524-.919C149.86,100.579,149.4,103.5,148.921,106.37Z"/><path class="f" d="M150.727,94.244l68.952.324q2.049-4.206,4.178-8.036l-72.194-.974C151.419,88.4,151.1,91.31,150.727,94.244Z"/><path class="f" d="M152.177,72.645c.053,2.732-.024,5.657-.205,8.706l74.674.351c1.707-2.851,3.413-5.525,5.076-7.983Z"/><path class="g" d="M176.985,57.258s-19.7-.793-20.556,1.308S151.287,84.36,152.144,87.3s3.676,34.035-.089,38.657,7.8,9.664,7.8,9.664,31.266,3.782,31.266,0,2.142.84,0-13.866,12.849-46.641,15.419-47.061,26.983-1.261,26.983-1.261-8.566,16.808-8.566,18.068,6,3.782,8.566,1.681,14.99-21.43,14.99-23.11-5.568-6.723-12.849-8.4S207.4,58.214,207.4,58.214s-16.275-2.848-20.558-2.008A76.39,76.39,0,0,1,176.985,57.258Z"/><path class="h" d="M189.224,89.268l-9.092-6.344L171.352,88,162,82.91l-9.344,7.6c.082.673.166,1.429.251,2.252l9.31-7.571,9.167,4.986,8.652-5,8.977,6.264L199.6,86.734c.4-.9.791-1.771,1.179-2.6Z"/><path class="h" d="M178.487,95.2l-8.78,5.074-9.352-5.088-6.8,5.527q.073,1.155.138,2.343l6.876-5.591,9.164,4.986,8.653-5,8.979,6.264,6.982-3.1q.383-1.22.794-2.428l-7.561,3.361Z"/><path class="i" d="M237.779,71.866c.058.014.126.027.18.042A1.281,1.281,0,0,0,237.779,71.866Z"/><path class="j" d="M237.779,71.866c-5.723-1.4-32.156.042-32.156.042s-11.681,12.253-14.546,14.064c-6.658,4.211-20.516,13.935-28.971,8.525s-7.451-16.755-7.451-16.755l-1.69-.736c-.713,4.9-1.153,9.157-.822,10.3.857,2.941,3.676,34.035-.089,38.657s7.8,9.664,7.8,9.664,31.266,3.782,31.266,0,2.141.84,0-13.866S203.968,75.116,206.538,74.7s26.983-1.261,26.983-1.261l-.3.6C235.57,71.743,237.251,71.777,237.779,71.866Z"/><path class="g" d="M161.568,65.29s-2.57-5.883-5.139-6.723-20.747,30.128-22.461,38.112c-.591,2.752.109,8.527,3.787,9.424,4.537,1.107,19.837-1.141,32.805-6.2,0,0,3.426-5.042-3.855-5.462s-20.13,2.233-20.13,2.233,16.275-19.881,16.7-22.4S163.93,69.484,161.568,65.29Z"/><path class="k" d="M155.365,133.114S113,146.1,112.143,147.356s-3,1.681-3,3.361S94.155,208.7,93.726,209.963s3,1.681,6,0S121.137,154.5,121.137,154.5v-2.1l39.573-1.647,57.392,1.681-3.855,2.941-13,54.417-2.141,4.622,8.359-2.941,1.921-3.362,21.134-57.358-2.142-7.563-41.117-10.073S169.8,128,155.365,133.114Z"/><path class="l" d="M97.7,208.915l16.455-58.462-1.209-.33L93.69,209.512Z"/><path class="m" d="M207.311,210.039l16.455-58.462-1.209-.33L203.3,210.636Z"/><path class="n" d="M199.11,214.412l-1.713,3.63h3.212s.964-2.883,3.533,0,16.383,1.529,17.667,0c0,0-12.3-2.789-14.341-6.571Z"/><path class="n" d="M93.726,209.963s-8.566,4.622-8.566,6.828,10.922,1.891,11.885,0,2.677-6.828,2.677-6.828S95.5,208.947,93.726,209.963Z"/><path class="n" d="M183.41,90.357l1.534-12.614H171.366V89.088Z"/><path class="o" d="M169.918,96.679a57.813,57.813,0,0,0,0-7.591,35.02,35.02,0,0,1,.143-6.332s1.785,4.441,4.354,4.441,9.958-2.206,9.958-2.206,1.285,5.988,0,7.879S171.2,100.488,169.918,96.679Z"/><path class="o" d="M229.345,90.357c1.32-.08,4.5,1.975,5.461,7.6s0,8.421,0,8.421-4.818,1.535-5.461,0-3.533-4.371-3.533-4.371l-1.927.946S222.482,90.772,229.345,90.357Z"/><path class="p" d="M173.293,57.944s1.9-6.358,4.081-17.7S180.7,26.69,184.944,24.8s9.214,2.278,12.328,8.581c1.13,2.286-5.832,22.269-5.511,25.753C191.761,59.132,180.2,73.125,173.293,57.944Z"/><path class="o" d="M177.375,40.241s-2.13,14.419,2.756,16.821,11.733-.733,14.339-12.511S180.8,24.906,177.375,40.241Z"/><path class="q" d="M194.5,46.967s3.624-11.826,3.839-13.717.012-5.883-5.354-7.984c-3.036-1.189-8.994-3.572-12.159,2.9a36.328,36.328,0,0,0-3.916,14.425s3.806-11.136,4.94-9.34c3.979,6.3,13.59,4.411,12.9,4.412S195.4,46.264,194.5,46.967Z"/><path class="q" d="M194.5,46.967s3.624-11.826,3.839-13.717.012-5.883-5.354-7.984c-3.036-1.189-8.994-3.572-12.159,2.9a36.328,36.328,0,0,0-3.916,14.425s3.806-11.136,4.94-9.34c3.979,6.3,13.59,4.411,12.9,4.412S195.4,46.264,194.5,46.967Z"/><path class="r" d="M194.75,37.662c-.014,0-.022.024-.034.031C194.777,37.675,194.8,37.662,194.75,37.662Z"/><path class="s" d="M192.988,25.267c-2.189-.857-5.9-2.318-8.98-.649-.131,3.258.728,6.944,5.126,7.582,4.112.6,7.072-.324,9.025-1.743C197.682,28.638,196.347,26.582,192.988,25.267Z"/><path class="t" d="M194.775,46.073c-.166.548-.272.894-.272.894A1.473,1.473,0,0,0,194.775,46.073Z"/><path class="u" d="M219.757,154.054H217.83l3.98-3.782c-17.435-6.3-106.13,0-106.13,0l3.212,2.521h-1.285l1.285,2.311L97.778,210.75a8.782,8.782,0,0,0,1.945-.787c3-1.681,21.415-55.465,21.415-55.465v-2.1l39.572-1.647,57.392,1.681-3.855,2.941-13,54.417-2.142,4.622,4.855-1.709-.7-3.191Z"/></g></svg>