<?xml version="1.0" encoding="utf-8"?>
<!-- Generator: Adobe Illustrator 24.0.1, SVG Export Plug-In . SVG Version: 6.00 Build 0)  -->
<svg version="1.1" id="Capa_1" xmlns="http://www.w3.org/2000/svg" xmlns:xlink="http://www.w3.org/1999/xlink" x="0px" y="0px"
	 viewBox="0 0 50 50" style="enable-background:new 0 0 50 50;" xml:space="preserve">
<style type="text/css">
	.st0{fill:url(#SVGID_1_);}
	.st1{fill:#FFFFFF;}
</style>
<linearGradient id="SVGID_1_" gradientUnits="userSpaceOnUse" x1="5.1199" y1="3.5736" x2="43.6913" y2="45.1451">
	<stop  offset="0" style="stop-color:#1A79F1"/>
	<stop  offset="1" style="stop-color:#27B5FF"/>
</linearGradient>
<path class="st0" d="M50,25C50,11.2,38.8,0,25,0S0,11.2,0,25s11.2,25,25,25S50,38.8,50,25z"/>
<path class="st1" d="M33.9,27.7c-2.1,0-4,1-5.1,2.6L22,27c0.2-0.6,0.3-1.3,0.3-2c0-0.7-0.1-1.3-0.3-1.9l6.8-3.4c1.1,1.6,3,2.6,5,2.6
	c3.4,0,6.2-2.8,6.2-6.2s-2.8-6.1-6.2-6.1s-6.1,2.8-6.1,6.2c0,0.7,0.1,1.3,0.3,1.9l-6.8,3.4c-1.1-1.6-3-2.7-5-2.7
	c-3.4,0-6.2,2.8-6.2,6.2s2.8,6.2,6.2,6.2c2.1,0,3.9-1,5-2.6L28,32c-0.2,0.6-0.3,1.3-0.3,2c0,3.4,2.8,6.1,6.2,6.1
	c3.4,0,6.2-2.8,6.2-6.2S37.3,27.7,33.9,27.7z"/>
</svg>
