<?xml version="1.0" encoding="utf-8"?>
<!-- Generator: Adobe Illustrator 24.0.1, SVG Export Plug-In . SVG Version: 6.00 Build 0)  -->
<svg version="1.1" id="Layer_1" xmlns="http://www.w3.org/2000/svg" xmlns:xlink="http://www.w3.org/1999/xlink" x="0px" y="0px"
	 viewBox="0 0 50 50" style="enable-background:new 0 0 50 50;" xml:space="preserve">
<style type="text/css">
	.st0{fill:url(#SVGID_1_);}
	.st1{fill:url(#SVGID_2_);}
</style>
<linearGradient id="SVGID_1_" gradientUnits="userSpaceOnUse" x1="5.1199" y1="-16.4264" x2="43.6913" y2="25.1451" gradientTransform="matrix(1 0 0 1 0 20)">
	<stop  offset="0" style="stop-color:#D1DEE3"/>
	<stop  offset="1" style="stop-color:#B5C3CC"/>
</linearGradient>
<path class="st0" d="M50,25C50,11.2,38.8,0,25,0S0,11.2,0,25s11.2,25,25,25S50,38.8,50,25z"/>
<linearGradient id="SVGID_2_" gradientUnits="userSpaceOnUse" x1="16.2137" y1="10.555" x2="32.9416" y2="40.7939">
	<stop  offset="0" style="stop-color:#7A8D96"/>
	<stop  offset="1" style="stop-color:#5F717D"/>
</linearGradient>
<path class="st1" d="M33.6,12.5h-1.3v-1.6c0-0.7-0.6-1.3-1.3-1.3c-0.7,0-1.3,0.6-1.3,1.3v1.6h-3.5v-1.6c0-0.7-0.6-1.3-1.3-1.3
	s-1.3,0.6-1.3,1.3v1.6h-3.5v-1.6c0-0.7-0.6-1.3-1.3-1.3c-0.7,0-1.3,0.6-1.3,1.3v1.6h-1.3c-1.9,0-3.5,1.6-3.5,3.5v20.8
	c0,1.9,1.6,3.5,3.5,3.5h17.3c1.9,0,3.5-1.6,3.5-3.5V16.1C37.1,14.1,35.6,12.5,33.6,12.5z M26.9,21.2c0,0.7-0.6,1.3-1.3,1.3h-6.4
	c-0.7,0-1.3-0.6-1.3-1.3s0.6-1.3,1.3-1.3h6.4C26.3,19.9,26.9,20.5,26.9,21.2z M32,32.7H19.2c-0.7,0-1.3-0.6-1.3-1.3
	c0-0.7,0.6-1.3,1.3-1.3H32c0.7,0,1.3,0.6,1.3,1.3C33.3,32.1,32.7,32.7,32,32.7z M32,27.6H19.2c-0.7,0-1.3-0.6-1.3-1.3
	s0.6-1.3,1.3-1.3H32c0.7,0,1.3,0.6,1.3,1.3S32.7,27.6,32,27.6z"/>
</svg>
