<?xml version="1.0" encoding="utf-8"?>
<!-- Generator: Adobe Illustrator 24.0.1, SVG Export Plug-In . SVG Version: 6.00 Build 0)  -->
<svg version="1.1" id="Capa_1" xmlns="http://www.w3.org/2000/svg" xmlns:xlink="http://www.w3.org/1999/xlink" x="0px" y="0px"
	 viewBox="0 0 50 50" style="enable-background:new 0 0 50 50;" xml:space="preserve">
<style type="text/css">
	.st0{fill:#D3D7DF;}
	.st1{fill:#FFFFFF;}
	.st2{fill:#91DEF5;}
	.st3{fill:#FFBF9E;}
</style>
<g id="XMLID_2719_">
	<path id="XMLID_2866_" class="st0" d="M20,44l1.7,4.7h6.7L30,44c1.7-0.4,3.4-1.1,4.9-2l4.5,2.1l4.7-4.7L42,34.9
		c0.9-1.6,1.6-3.2,2-4.9l4.7-1.7v-6.7L44,20c-0.4-1.7-1.1-3.4-2-4.9l2.1-4.5l-4.7-4.7L34.9,8c-1.6-0.9-3.2-1.6-4.9-2l-1.7-4.7h-6.7
		L20,6c-1.7,0.4-3.4,1.1-4.9,2l-4.5-2.1l-4.7,4.7L8,15.1c-0.9,1.6-1.6,3.2-2,4.9l-4.7,1.7v6.7L6,30c0.4,1.7,1.1,3.4,2,4.9l-2.1,4.5
		l4.7,4.7l4.5-2.1C16.6,42.9,18.3,43.6,20,44L20,44z"/>
	<g id="XMLID_2012_">
		<circle id="XMLID_2821_" class="st1" cx="25" cy="25" r="12.6"/>
		<path id="XMLID_1458_" class="st2" d="M27.8,29.1h-5.6c-3,0-5.4,2.4-5.4,5.4l0,0.1c2.2,1.9,5.1,3,8.2,3s6-1.1,8.2-3l0-0.1
			C33.2,31.5,30.8,29.1,27.8,29.1z"/>
		<g id="XMLID_2815_">
			<path id="XMLID_2865_" class="st3" d="M25,20.2c-2.3,0-4.1,1.8-4.1,4.1V25c0,2.3,1.8,4.1,4.1,4.1s4.1-1.8,4.1-4.1v-0.7
				C29.1,22,27.3,20.2,25,20.2z"/>
		</g>
	</g>
	<g id="XMLID_328_">
		<path id="XMLID_332_" d="M45.3,38.8L43.5,35c0.7-1.3,1.2-2.6,1.6-4l4-1.4c0.5-0.2,0.9-0.7,0.9-1.2v-6.7c0-0.6-0.4-1.1-0.9-1.2
			l-4-1.4c-0.4-1.4-1-2.7-1.6-4l1.8-3.8c0.2-0.5,0.1-1.1-0.3-1.5L40.3,5c-0.4-0.4-1-0.5-1.5-0.3L35,6.5c-1.3-0.7-2.6-1.2-4-1.6
			l-1.4-4C29.4,0.4,28.9,0,28.3,0h-6.7c-0.6,0-1.1,0.4-1.2,0.9l-1.4,4c-1.4,0.4-2.7,1-4,1.6l-3.8-1.8C10.7,4.5,10.1,4.6,9.7,5L5,9.7
			c-0.4,0.4-0.5,1-0.3,1.5L6.5,15c-0.7,1.3-1.2,2.6-1.6,4l-4,1.4C0.4,20.6,0,21.1,0,21.7v6.7c0,0.6,0.4,1.1,0.9,1.2l4,1.4
			c0.4,1.4,1,2.7,1.6,4l-1.8,3.8c-0.2,0.5-0.1,1.1,0.3,1.5L9.7,45c0.4,0.4,1,0.5,1.5,0.3l3.8-1.8c1.3,0.7,2.6,1.2,4,1.6l1.4,4
			c0.2,0.5,0.7,0.9,1.2,0.9h6.7c0.6,0,1.1-0.4,1.2-0.9l1.4-4c1.4-0.4,2.7-1,4-1.6l3.8,1.8c0.5,0.2,1.1,0.1,1.5-0.3l4.7-4.7
			C45.4,39.9,45.5,39.3,45.3,38.8L45.3,38.8z M42.8,29.7c-0.4,1.6-1.1,3.2-1.9,4.6c-0.2,0.4-0.2,0.8-0.1,1.2l1.7,3.6l-3.4,3.4
			l-3.6-1.7c-0.4-0.2-0.9-0.2-1.2,0.1c-1.4,0.8-3,1.5-4.6,1.9c-0.4,0.1-0.8,0.4-0.9,0.8l-1.3,3.8h-4.8l-1.3-3.8
			c-0.1-0.4-0.5-0.7-0.9-0.8c-1.6-0.4-3.2-1.1-4.6-1.9c-0.4-0.2-0.8-0.2-1.2-0.1l-3.6,1.7l-3.4-3.4l1.7-3.6c0.2-0.4,0.2-0.9-0.1-1.2
			c-0.8-1.4-1.5-3-1.9-4.6c-0.1-0.4-0.4-0.8-0.8-0.9l-3.8-1.3v-4.8l3.8-1.3c0.4-0.1,0.7-0.5,0.8-0.9c0.4-1.6,1.1-3.2,1.9-4.6
			c0.2-0.4,0.2-0.8,0.1-1.2l-1.7-3.6l3.4-3.4l3.6,1.7c0.4,0.2,0.9,0.2,1.2-0.1c1.4-0.8,3-1.5,4.6-1.9c0.4-0.1,0.8-0.4,0.9-0.8
			l1.3-3.8h4.8l1.3,3.8c0.1,0.4,0.5,0.7,0.9,0.8c1.6,0.4,3.2,1.1,4.6,1.9c0.4,0.2,0.8,0.2,1.2,0.1l3.6-1.7l3.4,3.4l-1.7,3.6
			c-0.2,0.4-0.2,0.9,0.1,1.2c0.8,1.4,1.5,3,1.9,4.6c0.1,0.4,0.4,0.8,0.8,0.9l3.8,1.3v4.8l-3.8,1.3C43.2,28.9,42.9,29.2,42.8,29.7
			L42.8,29.7z"/>
		<path id="XMLID_459_" d="M31.4,12.6c-0.6-0.3-1.4-0.1-1.8,0.6c-0.3,0.6-0.1,1.4,0.6,1.8c3.8,1.9,6.2,5.8,6.2,10.1
			c0,2.6-0.9,5-2.3,6.9c-0.8-1.9-2.5-3.3-4.5-3.9c0.6-0.9,0.9-1.9,0.9-3v-0.7c0-3-2.4-5.4-5.4-5.4s-5.4,2.4-5.4,5.4V25
			c0,1.1,0.3,2.2,0.9,3c-2,0.5-3.7,2-4.5,3.9c-1.5-1.9-2.3-4.3-2.3-6.9c0-4.3,2.4-8.1,6.1-10.1c0.6-0.3,0.9-1.1,0.6-1.8
			c-0.3-0.6-1.1-0.9-1.8-0.6C14,15,11.1,19.8,11.1,25c0,7.7,6.3,13.9,13.9,13.9S39,32.7,39,25C39,19.7,36,15,31.4,12.6L31.4,12.6z
			 M22.2,24.3c0-1.5,1.3-2.8,2.8-2.8c1.5,0,2.8,1.3,2.8,2.8V25c0,1.5-1.3,2.8-2.8,2.8c-1.5,0-2.8-1.3-2.8-2.8L22.2,24.3z M18.2,34
			c0.3-2,2-3.6,4.1-3.6h5.6c2.1,0,3.8,1.6,4.1,3.6c-1.9,1.5-4.3,2.3-6.9,2.3S20.1,35.4,18.2,34z"/>
		<path id="XMLID_461_" d="M25,13.7c0.3,0,0.7-0.1,0.9-0.4c0.2-0.2,0.4-0.6,0.4-0.9s-0.1-0.7-0.4-0.9c-0.2-0.2-0.6-0.4-0.9-0.4
			c-0.3,0-0.7,0.1-0.9,0.4c-0.2,0.2-0.4,0.6-0.4,0.9s0.1,0.7,0.4,0.9C24.3,13.5,24.7,13.7,25,13.7z"/>
	</g>
</g>
</svg>
