<svg xmlns="http://www.w3.org/2000/svg" width="15" height="15.004" viewBox="0 0 15 15.004"><defs><style>.a{fill:#00cfa6;}</style></defs><path class="a" d="M14.556,6.355,13.835,5.6a1.658,1.658,0,0,1-.481-1.171V3.382A1.667,1.667,0,0,0,11.7,1.73H10.651a1.77,1.77,0,0,1-1.171-.481L8.728.5A1.687,1.687,0,0,0,6.385.5L5.6,1.219A1.658,1.658,0,0,1,4.433,1.7H3.382A1.667,1.667,0,0,0,1.73,3.352V4.4a1.77,1.77,0,0,1-.481,1.171L.5,6.325a1.687,1.687,0,0,0,0,2.343l.721.781A1.658,1.658,0,0,1,1.7,10.621v1.051a1.667,1.667,0,0,0,1.652,1.652H4.4a1.77,1.77,0,0,1,1.171.481l.751.751a1.687,1.687,0,0,0,2.343,0l.751-.751a1.658,1.658,0,0,1,1.171-.481h1.051a1.667,1.667,0,0,0,1.652-1.652V10.621a1.77,1.77,0,0,1,.481-1.171l.751-.751A1.659,1.659,0,0,0,14.556,6.355ZM11.071,5.9,6.956,10.05a.653.653,0,0,1-.9,0L3.982,7.977a.637.637,0,0,1,.9-.9L6.506,8.7,10.2,5a.653.653,0,0,1,.9,0A.627.627,0,0,1,11.071,5.9Z" transform="translate(-0.025 -0.025)"/></svg>